G04 #@! TF.GenerationSoftware,KiCad,Pcbnew,9.0.4*
G04 #@! TF.CreationDate,2025-10-20T22:41:46-04:00*
G04 #@! TF.ProjectId,the-spirit-board,7468652d-7370-4697-9269-742d626f6172,rev?*
G04 #@! TF.SameCoordinates,Original*
G04 #@! TF.FileFunction,Legend,Top*
G04 #@! TF.FilePolarity,Positive*
%FSLAX46Y46*%
G04 Gerber Fmt 4.6, Leading zero omitted, Abs format (unit mm)*
G04 Created by KiCad (PCBNEW 9.0.4) date 2025-10-20 22:41:46*
%MOMM*%
%LPD*%
G01*
G04 APERTURE LIST*
G04 Aperture macros list*
%AMRoundRect*
0 Rectangle with rounded corners*
0 $1 Rounding radius*
0 $2 $3 $4 $5 $6 $7 $8 $9 X,Y pos of 4 corners*
0 Add a 4 corners polygon primitive as box body*
4,1,4,$2,$3,$4,$5,$6,$7,$8,$9,$2,$3,0*
0 Add four circle primitives for the rounded corners*
1,1,$1+$1,$2,$3*
1,1,$1+$1,$4,$5*
1,1,$1+$1,$6,$7*
1,1,$1+$1,$8,$9*
0 Add four rect primitives between the rounded corners*
20,1,$1+$1,$2,$3,$4,$5,0*
20,1,$1+$1,$4,$5,$6,$7,0*
20,1,$1+$1,$6,$7,$8,$9,0*
20,1,$1+$1,$8,$9,$2,$3,0*%
G04 Aperture macros list end*
%ADD10C,0.100000*%
%ADD11C,0.000000*%
%ADD12C,0.120000*%
%ADD13C,0.200000*%
%ADD14RoundRect,0.120000X-0.280000X0.880000X-0.280000X-0.880000X0.280000X-0.880000X0.280000X0.880000X0*%
%ADD15RoundRect,0.218750X0.218750X0.256250X-0.218750X0.256250X-0.218750X-0.256250X0.218750X-0.256250X0*%
%ADD16RoundRect,0.200000X-0.200000X-0.275000X0.200000X-0.275000X0.200000X0.275000X-0.200000X0.275000X0*%
%ADD17R,0.900000X1.500000*%
%ADD18R,0.800000X0.800000*%
%ADD19C,0.650000*%
%ADD20C,1.625000*%
G04 APERTURE END LIST*
D10*
X151329453Y-102843693D02*
X151615167Y-102843693D01*
X151472310Y-103343693D02*
X151472310Y-102843693D01*
X151781833Y-103343693D02*
X151781833Y-102843693D01*
X151996119Y-103343693D02*
X151996119Y-103081788D01*
X151996119Y-103081788D02*
X151972309Y-103034169D01*
X151972309Y-103034169D02*
X151924690Y-103010360D01*
X151924690Y-103010360D02*
X151853262Y-103010360D01*
X151853262Y-103010360D02*
X151805643Y-103034169D01*
X151805643Y-103034169D02*
X151781833Y-103057979D01*
X152424690Y-103319884D02*
X152377071Y-103343693D01*
X152377071Y-103343693D02*
X152281833Y-103343693D01*
X152281833Y-103343693D02*
X152234214Y-103319884D01*
X152234214Y-103319884D02*
X152210405Y-103272264D01*
X152210405Y-103272264D02*
X152210405Y-103081788D01*
X152210405Y-103081788D02*
X152234214Y-103034169D01*
X152234214Y-103034169D02*
X152281833Y-103010360D01*
X152281833Y-103010360D02*
X152377071Y-103010360D01*
X152377071Y-103010360D02*
X152424690Y-103034169D01*
X152424690Y-103034169D02*
X152448500Y-103081788D01*
X152448500Y-103081788D02*
X152448500Y-103129407D01*
X152448500Y-103129407D02*
X152210405Y-103177026D01*
X153019928Y-103319884D02*
X153091356Y-103343693D01*
X153091356Y-103343693D02*
X153210404Y-103343693D01*
X153210404Y-103343693D02*
X153258023Y-103319884D01*
X153258023Y-103319884D02*
X153281832Y-103296074D01*
X153281832Y-103296074D02*
X153305642Y-103248455D01*
X153305642Y-103248455D02*
X153305642Y-103200836D01*
X153305642Y-103200836D02*
X153281832Y-103153217D01*
X153281832Y-103153217D02*
X153258023Y-103129407D01*
X153258023Y-103129407D02*
X153210404Y-103105598D01*
X153210404Y-103105598D02*
X153115166Y-103081788D01*
X153115166Y-103081788D02*
X153067547Y-103057979D01*
X153067547Y-103057979D02*
X153043737Y-103034169D01*
X153043737Y-103034169D02*
X153019928Y-102986550D01*
X153019928Y-102986550D02*
X153019928Y-102938931D01*
X153019928Y-102938931D02*
X153043737Y-102891312D01*
X153043737Y-102891312D02*
X153067547Y-102867503D01*
X153067547Y-102867503D02*
X153115166Y-102843693D01*
X153115166Y-102843693D02*
X153234213Y-102843693D01*
X153234213Y-102843693D02*
X153305642Y-102867503D01*
X153519927Y-103296074D02*
X153543737Y-103319884D01*
X153543737Y-103319884D02*
X153519927Y-103343693D01*
X153519927Y-103343693D02*
X153496118Y-103319884D01*
X153496118Y-103319884D02*
X153519927Y-103296074D01*
X153519927Y-103296074D02*
X153519927Y-103343693D01*
X153758022Y-103343693D02*
X153758022Y-102843693D01*
X153758022Y-102843693D02*
X153948498Y-102843693D01*
X153948498Y-102843693D02*
X153996117Y-102867503D01*
X153996117Y-102867503D02*
X154019927Y-102891312D01*
X154019927Y-102891312D02*
X154043736Y-102938931D01*
X154043736Y-102938931D02*
X154043736Y-103010360D01*
X154043736Y-103010360D02*
X154019927Y-103057979D01*
X154019927Y-103057979D02*
X153996117Y-103081788D01*
X153996117Y-103081788D02*
X153948498Y-103105598D01*
X153948498Y-103105598D02*
X153758022Y-103105598D01*
X154258022Y-103296074D02*
X154281832Y-103319884D01*
X154281832Y-103319884D02*
X154258022Y-103343693D01*
X154258022Y-103343693D02*
X154234213Y-103319884D01*
X154234213Y-103319884D02*
X154258022Y-103296074D01*
X154258022Y-103296074D02*
X154258022Y-103343693D01*
X154496117Y-103343693D02*
X154496117Y-102843693D01*
X154734212Y-103296074D02*
X154758022Y-103319884D01*
X154758022Y-103319884D02*
X154734212Y-103343693D01*
X154734212Y-103343693D02*
X154710403Y-103319884D01*
X154710403Y-103319884D02*
X154734212Y-103296074D01*
X154734212Y-103296074D02*
X154734212Y-103343693D01*
X155258021Y-103343693D02*
X155091355Y-103105598D01*
X154972307Y-103343693D02*
X154972307Y-102843693D01*
X154972307Y-102843693D02*
X155162783Y-102843693D01*
X155162783Y-102843693D02*
X155210402Y-102867503D01*
X155210402Y-102867503D02*
X155234212Y-102891312D01*
X155234212Y-102891312D02*
X155258021Y-102938931D01*
X155258021Y-102938931D02*
X155258021Y-103010360D01*
X155258021Y-103010360D02*
X155234212Y-103057979D01*
X155234212Y-103057979D02*
X155210402Y-103081788D01*
X155210402Y-103081788D02*
X155162783Y-103105598D01*
X155162783Y-103105598D02*
X154972307Y-103105598D01*
X155472307Y-103296074D02*
X155496117Y-103319884D01*
X155496117Y-103319884D02*
X155472307Y-103343693D01*
X155472307Y-103343693D02*
X155448498Y-103319884D01*
X155448498Y-103319884D02*
X155472307Y-103296074D01*
X155472307Y-103296074D02*
X155472307Y-103343693D01*
X155710402Y-103343693D02*
X155710402Y-102843693D01*
X155948497Y-103296074D02*
X155972307Y-103319884D01*
X155972307Y-103319884D02*
X155948497Y-103343693D01*
X155948497Y-103343693D02*
X155924688Y-103319884D01*
X155924688Y-103319884D02*
X155948497Y-103296074D01*
X155948497Y-103296074D02*
X155948497Y-103343693D01*
X156115164Y-102843693D02*
X156400878Y-102843693D01*
X156258021Y-103343693D02*
X156258021Y-102843693D01*
X156567544Y-103296074D02*
X156591354Y-103319884D01*
X156591354Y-103319884D02*
X156567544Y-103343693D01*
X156567544Y-103343693D02*
X156543735Y-103319884D01*
X156543735Y-103319884D02*
X156567544Y-103296074D01*
X156567544Y-103296074D02*
X156567544Y-103343693D01*
X157353258Y-103081788D02*
X157424686Y-103105598D01*
X157424686Y-103105598D02*
X157448496Y-103129407D01*
X157448496Y-103129407D02*
X157472305Y-103177026D01*
X157472305Y-103177026D02*
X157472305Y-103248455D01*
X157472305Y-103248455D02*
X157448496Y-103296074D01*
X157448496Y-103296074D02*
X157424686Y-103319884D01*
X157424686Y-103319884D02*
X157377067Y-103343693D01*
X157377067Y-103343693D02*
X157186591Y-103343693D01*
X157186591Y-103343693D02*
X157186591Y-102843693D01*
X157186591Y-102843693D02*
X157353258Y-102843693D01*
X157353258Y-102843693D02*
X157400877Y-102867503D01*
X157400877Y-102867503D02*
X157424686Y-102891312D01*
X157424686Y-102891312D02*
X157448496Y-102938931D01*
X157448496Y-102938931D02*
X157448496Y-102986550D01*
X157448496Y-102986550D02*
X157424686Y-103034169D01*
X157424686Y-103034169D02*
X157400877Y-103057979D01*
X157400877Y-103057979D02*
X157353258Y-103081788D01*
X157353258Y-103081788D02*
X157186591Y-103081788D01*
X157758020Y-103343693D02*
X157710401Y-103319884D01*
X157710401Y-103319884D02*
X157686591Y-103296074D01*
X157686591Y-103296074D02*
X157662782Y-103248455D01*
X157662782Y-103248455D02*
X157662782Y-103105598D01*
X157662782Y-103105598D02*
X157686591Y-103057979D01*
X157686591Y-103057979D02*
X157710401Y-103034169D01*
X157710401Y-103034169D02*
X157758020Y-103010360D01*
X157758020Y-103010360D02*
X157829448Y-103010360D01*
X157829448Y-103010360D02*
X157877067Y-103034169D01*
X157877067Y-103034169D02*
X157900877Y-103057979D01*
X157900877Y-103057979D02*
X157924686Y-103105598D01*
X157924686Y-103105598D02*
X157924686Y-103248455D01*
X157924686Y-103248455D02*
X157900877Y-103296074D01*
X157900877Y-103296074D02*
X157877067Y-103319884D01*
X157877067Y-103319884D02*
X157829448Y-103343693D01*
X157829448Y-103343693D02*
X157758020Y-103343693D01*
X158353258Y-103343693D02*
X158353258Y-103081788D01*
X158353258Y-103081788D02*
X158329448Y-103034169D01*
X158329448Y-103034169D02*
X158281829Y-103010360D01*
X158281829Y-103010360D02*
X158186591Y-103010360D01*
X158186591Y-103010360D02*
X158138972Y-103034169D01*
X158353258Y-103319884D02*
X158305639Y-103343693D01*
X158305639Y-103343693D02*
X158186591Y-103343693D01*
X158186591Y-103343693D02*
X158138972Y-103319884D01*
X158138972Y-103319884D02*
X158115163Y-103272264D01*
X158115163Y-103272264D02*
X158115163Y-103224645D01*
X158115163Y-103224645D02*
X158138972Y-103177026D01*
X158138972Y-103177026D02*
X158186591Y-103153217D01*
X158186591Y-103153217D02*
X158305639Y-103153217D01*
X158305639Y-103153217D02*
X158353258Y-103129407D01*
X158591353Y-103343693D02*
X158591353Y-103010360D01*
X158591353Y-103105598D02*
X158615163Y-103057979D01*
X158615163Y-103057979D02*
X158638972Y-103034169D01*
X158638972Y-103034169D02*
X158686591Y-103010360D01*
X158686591Y-103010360D02*
X158734210Y-103010360D01*
X159115163Y-103343693D02*
X159115163Y-102843693D01*
X159115163Y-103319884D02*
X159067544Y-103343693D01*
X159067544Y-103343693D02*
X158972306Y-103343693D01*
X158972306Y-103343693D02*
X158924687Y-103319884D01*
X158924687Y-103319884D02*
X158900877Y-103296074D01*
X158900877Y-103296074D02*
X158877068Y-103248455D01*
X158877068Y-103248455D02*
X158877068Y-103105598D01*
X158877068Y-103105598D02*
X158900877Y-103057979D01*
X158900877Y-103057979D02*
X158924687Y-103034169D01*
X158924687Y-103034169D02*
X158972306Y-103010360D01*
X158972306Y-103010360D02*
X159067544Y-103010360D01*
X159067544Y-103010360D02*
X159115163Y-103034169D01*
X156234212Y-103648665D02*
X156234212Y-104005808D01*
X156234212Y-104005808D02*
X156210403Y-104077236D01*
X156210403Y-104077236D02*
X156162784Y-104124856D01*
X156162784Y-104124856D02*
X156091355Y-104148665D01*
X156091355Y-104148665D02*
X156043736Y-104148665D01*
X156472307Y-104101046D02*
X156496117Y-104124856D01*
X156496117Y-104124856D02*
X156472307Y-104148665D01*
X156472307Y-104148665D02*
X156448498Y-104124856D01*
X156448498Y-104124856D02*
X156472307Y-104101046D01*
X156472307Y-104101046D02*
X156472307Y-104148665D01*
X157067545Y-104124856D02*
X157138973Y-104148665D01*
X157138973Y-104148665D02*
X157258021Y-104148665D01*
X157258021Y-104148665D02*
X157305640Y-104124856D01*
X157305640Y-104124856D02*
X157329449Y-104101046D01*
X157329449Y-104101046D02*
X157353259Y-104053427D01*
X157353259Y-104053427D02*
X157353259Y-104005808D01*
X157353259Y-104005808D02*
X157329449Y-103958189D01*
X157329449Y-103958189D02*
X157305640Y-103934379D01*
X157305640Y-103934379D02*
X157258021Y-103910570D01*
X157258021Y-103910570D02*
X157162783Y-103886760D01*
X157162783Y-103886760D02*
X157115164Y-103862951D01*
X157115164Y-103862951D02*
X157091354Y-103839141D01*
X157091354Y-103839141D02*
X157067545Y-103791522D01*
X157067545Y-103791522D02*
X157067545Y-103743903D01*
X157067545Y-103743903D02*
X157091354Y-103696284D01*
X157091354Y-103696284D02*
X157115164Y-103672475D01*
X157115164Y-103672475D02*
X157162783Y-103648665D01*
X157162783Y-103648665D02*
X157281830Y-103648665D01*
X157281830Y-103648665D02*
X157353259Y-103672475D01*
X157496116Y-103815332D02*
X157686592Y-103815332D01*
X157567544Y-103648665D02*
X157567544Y-104077236D01*
X157567544Y-104077236D02*
X157591354Y-104124856D01*
X157591354Y-104124856D02*
X157638973Y-104148665D01*
X157638973Y-104148665D02*
X157686592Y-104148665D01*
X158067544Y-103815332D02*
X158067544Y-104148665D01*
X157853258Y-103815332D02*
X157853258Y-104077236D01*
X157853258Y-104077236D02*
X157877068Y-104124856D01*
X157877068Y-104124856D02*
X157924687Y-104148665D01*
X157924687Y-104148665D02*
X157996115Y-104148665D01*
X157996115Y-104148665D02*
X158043734Y-104124856D01*
X158043734Y-104124856D02*
X158067544Y-104101046D01*
X158519925Y-104148665D02*
X158519925Y-103886760D01*
X158519925Y-103886760D02*
X158496115Y-103839141D01*
X158496115Y-103839141D02*
X158448496Y-103815332D01*
X158448496Y-103815332D02*
X158353258Y-103815332D01*
X158353258Y-103815332D02*
X158305639Y-103839141D01*
X158519925Y-104124856D02*
X158472306Y-104148665D01*
X158472306Y-104148665D02*
X158353258Y-104148665D01*
X158353258Y-104148665D02*
X158305639Y-104124856D01*
X158305639Y-104124856D02*
X158281830Y-104077236D01*
X158281830Y-104077236D02*
X158281830Y-104029617D01*
X158281830Y-104029617D02*
X158305639Y-103981998D01*
X158305639Y-103981998D02*
X158353258Y-103958189D01*
X158353258Y-103958189D02*
X158472306Y-103958189D01*
X158472306Y-103958189D02*
X158519925Y-103934379D01*
X158758020Y-104148665D02*
X158758020Y-103815332D01*
X158758020Y-103910570D02*
X158781830Y-103862951D01*
X158781830Y-103862951D02*
X158805639Y-103839141D01*
X158805639Y-103839141D02*
X158853258Y-103815332D01*
X158853258Y-103815332D02*
X158900877Y-103815332D01*
X158996116Y-103815332D02*
X159186592Y-103815332D01*
X159067544Y-103648665D02*
X159067544Y-104077236D01*
X159067544Y-104077236D02*
X159091354Y-104124856D01*
X159091354Y-104124856D02*
X159138973Y-104148665D01*
X159138973Y-104148665D02*
X159186592Y-104148665D01*
X154758023Y-104953637D02*
X154472309Y-104953637D01*
X154615166Y-104953637D02*
X154615166Y-104453637D01*
X154615166Y-104453637D02*
X154567547Y-104525066D01*
X154567547Y-104525066D02*
X154519928Y-104572685D01*
X154519928Y-104572685D02*
X154472309Y-104596494D01*
X155067546Y-104453637D02*
X155115165Y-104453637D01*
X155115165Y-104453637D02*
X155162784Y-104477447D01*
X155162784Y-104477447D02*
X155186594Y-104501256D01*
X155186594Y-104501256D02*
X155210403Y-104548875D01*
X155210403Y-104548875D02*
X155234213Y-104644113D01*
X155234213Y-104644113D02*
X155234213Y-104763161D01*
X155234213Y-104763161D02*
X155210403Y-104858399D01*
X155210403Y-104858399D02*
X155186594Y-104906018D01*
X155186594Y-104906018D02*
X155162784Y-104929828D01*
X155162784Y-104929828D02*
X155115165Y-104953637D01*
X155115165Y-104953637D02*
X155067546Y-104953637D01*
X155067546Y-104953637D02*
X155019927Y-104929828D01*
X155019927Y-104929828D02*
X154996118Y-104906018D01*
X154996118Y-104906018D02*
X154972308Y-104858399D01*
X154972308Y-104858399D02*
X154948499Y-104763161D01*
X154948499Y-104763161D02*
X154948499Y-104644113D01*
X154948499Y-104644113D02*
X154972308Y-104548875D01*
X154972308Y-104548875D02*
X154996118Y-104501256D01*
X154996118Y-104501256D02*
X155019927Y-104477447D01*
X155019927Y-104477447D02*
X155067546Y-104453637D01*
X155805641Y-104429828D02*
X155377070Y-105072685D01*
X156234213Y-104953637D02*
X155948499Y-104953637D01*
X156091356Y-104953637D02*
X156091356Y-104453637D01*
X156091356Y-104453637D02*
X156043737Y-104525066D01*
X156043737Y-104525066D02*
X155996118Y-104572685D01*
X155996118Y-104572685D02*
X155948499Y-104596494D01*
X156472308Y-104953637D02*
X156567546Y-104953637D01*
X156567546Y-104953637D02*
X156615165Y-104929828D01*
X156615165Y-104929828D02*
X156638974Y-104906018D01*
X156638974Y-104906018D02*
X156686593Y-104834589D01*
X156686593Y-104834589D02*
X156710403Y-104739351D01*
X156710403Y-104739351D02*
X156710403Y-104548875D01*
X156710403Y-104548875D02*
X156686593Y-104501256D01*
X156686593Y-104501256D02*
X156662784Y-104477447D01*
X156662784Y-104477447D02*
X156615165Y-104453637D01*
X156615165Y-104453637D02*
X156519927Y-104453637D01*
X156519927Y-104453637D02*
X156472308Y-104477447D01*
X156472308Y-104477447D02*
X156448498Y-104501256D01*
X156448498Y-104501256D02*
X156424689Y-104548875D01*
X156424689Y-104548875D02*
X156424689Y-104667923D01*
X156424689Y-104667923D02*
X156448498Y-104715542D01*
X156448498Y-104715542D02*
X156472308Y-104739351D01*
X156472308Y-104739351D02*
X156519927Y-104763161D01*
X156519927Y-104763161D02*
X156615165Y-104763161D01*
X156615165Y-104763161D02*
X156662784Y-104739351D01*
X156662784Y-104739351D02*
X156686593Y-104715542D01*
X156686593Y-104715542D02*
X156710403Y-104667923D01*
X157281831Y-104429828D02*
X156853260Y-105072685D01*
X157424689Y-104501256D02*
X157448498Y-104477447D01*
X157448498Y-104477447D02*
X157496117Y-104453637D01*
X157496117Y-104453637D02*
X157615165Y-104453637D01*
X157615165Y-104453637D02*
X157662784Y-104477447D01*
X157662784Y-104477447D02*
X157686593Y-104501256D01*
X157686593Y-104501256D02*
X157710403Y-104548875D01*
X157710403Y-104548875D02*
X157710403Y-104596494D01*
X157710403Y-104596494D02*
X157686593Y-104667923D01*
X157686593Y-104667923D02*
X157400879Y-104953637D01*
X157400879Y-104953637D02*
X157710403Y-104953637D01*
X158019926Y-104453637D02*
X158067545Y-104453637D01*
X158067545Y-104453637D02*
X158115164Y-104477447D01*
X158115164Y-104477447D02*
X158138974Y-104501256D01*
X158138974Y-104501256D02*
X158162783Y-104548875D01*
X158162783Y-104548875D02*
X158186593Y-104644113D01*
X158186593Y-104644113D02*
X158186593Y-104763161D01*
X158186593Y-104763161D02*
X158162783Y-104858399D01*
X158162783Y-104858399D02*
X158138974Y-104906018D01*
X158138974Y-104906018D02*
X158115164Y-104929828D01*
X158115164Y-104929828D02*
X158067545Y-104953637D01*
X158067545Y-104953637D02*
X158019926Y-104953637D01*
X158019926Y-104953637D02*
X157972307Y-104929828D01*
X157972307Y-104929828D02*
X157948498Y-104906018D01*
X157948498Y-104906018D02*
X157924688Y-104858399D01*
X157924688Y-104858399D02*
X157900879Y-104763161D01*
X157900879Y-104763161D02*
X157900879Y-104644113D01*
X157900879Y-104644113D02*
X157924688Y-104548875D01*
X157924688Y-104548875D02*
X157948498Y-104501256D01*
X157948498Y-104501256D02*
X157972307Y-104477447D01*
X157972307Y-104477447D02*
X158019926Y-104453637D01*
X158377069Y-104501256D02*
X158400878Y-104477447D01*
X158400878Y-104477447D02*
X158448497Y-104453637D01*
X158448497Y-104453637D02*
X158567545Y-104453637D01*
X158567545Y-104453637D02*
X158615164Y-104477447D01*
X158615164Y-104477447D02*
X158638973Y-104501256D01*
X158638973Y-104501256D02*
X158662783Y-104548875D01*
X158662783Y-104548875D02*
X158662783Y-104596494D01*
X158662783Y-104596494D02*
X158638973Y-104667923D01*
X158638973Y-104667923D02*
X158353259Y-104953637D01*
X158353259Y-104953637D02*
X158662783Y-104953637D01*
X159115163Y-104453637D02*
X158877068Y-104453637D01*
X158877068Y-104453637D02*
X158853259Y-104691732D01*
X158853259Y-104691732D02*
X158877068Y-104667923D01*
X158877068Y-104667923D02*
X158924687Y-104644113D01*
X158924687Y-104644113D02*
X159043735Y-104644113D01*
X159043735Y-104644113D02*
X159091354Y-104667923D01*
X159091354Y-104667923D02*
X159115163Y-104691732D01*
X159115163Y-104691732D02*
X159138973Y-104739351D01*
X159138973Y-104739351D02*
X159138973Y-104858399D01*
X159138973Y-104858399D02*
X159115163Y-104906018D01*
X159115163Y-104906018D02*
X159091354Y-104929828D01*
X159091354Y-104929828D02*
X159043735Y-104953637D01*
X159043735Y-104953637D02*
X158924687Y-104953637D01*
X158924687Y-104953637D02*
X158877068Y-104929828D01*
X158877068Y-104929828D02*
X158853259Y-104906018D01*
X140900877Y-105758609D02*
X140900877Y-105258609D01*
X141115163Y-105758609D02*
X141115163Y-105496704D01*
X141115163Y-105496704D02*
X141091353Y-105449085D01*
X141091353Y-105449085D02*
X141043734Y-105425276D01*
X141043734Y-105425276D02*
X140972306Y-105425276D01*
X140972306Y-105425276D02*
X140924687Y-105449085D01*
X140924687Y-105449085D02*
X140900877Y-105472895D01*
X141281830Y-105425276D02*
X141472306Y-105425276D01*
X141353258Y-105258609D02*
X141353258Y-105687180D01*
X141353258Y-105687180D02*
X141377068Y-105734800D01*
X141377068Y-105734800D02*
X141424687Y-105758609D01*
X141424687Y-105758609D02*
X141472306Y-105758609D01*
X141567544Y-105425276D02*
X141758020Y-105425276D01*
X141638972Y-105258609D02*
X141638972Y-105687180D01*
X141638972Y-105687180D02*
X141662782Y-105734800D01*
X141662782Y-105734800D02*
X141710401Y-105758609D01*
X141710401Y-105758609D02*
X141758020Y-105758609D01*
X141924686Y-105425276D02*
X141924686Y-105925276D01*
X141924686Y-105449085D02*
X141972305Y-105425276D01*
X141972305Y-105425276D02*
X142067543Y-105425276D01*
X142067543Y-105425276D02*
X142115162Y-105449085D01*
X142115162Y-105449085D02*
X142138972Y-105472895D01*
X142138972Y-105472895D02*
X142162781Y-105520514D01*
X142162781Y-105520514D02*
X142162781Y-105663371D01*
X142162781Y-105663371D02*
X142138972Y-105710990D01*
X142138972Y-105710990D02*
X142115162Y-105734800D01*
X142115162Y-105734800D02*
X142067543Y-105758609D01*
X142067543Y-105758609D02*
X141972305Y-105758609D01*
X141972305Y-105758609D02*
X141924686Y-105734800D01*
X142353258Y-105734800D02*
X142400877Y-105758609D01*
X142400877Y-105758609D02*
X142496115Y-105758609D01*
X142496115Y-105758609D02*
X142543734Y-105734800D01*
X142543734Y-105734800D02*
X142567543Y-105687180D01*
X142567543Y-105687180D02*
X142567543Y-105663371D01*
X142567543Y-105663371D02*
X142543734Y-105615752D01*
X142543734Y-105615752D02*
X142496115Y-105591942D01*
X142496115Y-105591942D02*
X142424686Y-105591942D01*
X142424686Y-105591942D02*
X142377067Y-105568133D01*
X142377067Y-105568133D02*
X142353258Y-105520514D01*
X142353258Y-105520514D02*
X142353258Y-105496704D01*
X142353258Y-105496704D02*
X142377067Y-105449085D01*
X142377067Y-105449085D02*
X142424686Y-105425276D01*
X142424686Y-105425276D02*
X142496115Y-105425276D01*
X142496115Y-105425276D02*
X142543734Y-105449085D01*
X142781829Y-105710990D02*
X142805639Y-105734800D01*
X142805639Y-105734800D02*
X142781829Y-105758609D01*
X142781829Y-105758609D02*
X142758020Y-105734800D01*
X142758020Y-105734800D02*
X142781829Y-105710990D01*
X142781829Y-105710990D02*
X142781829Y-105758609D01*
X142781829Y-105449085D02*
X142805639Y-105472895D01*
X142805639Y-105472895D02*
X142781829Y-105496704D01*
X142781829Y-105496704D02*
X142758020Y-105472895D01*
X142758020Y-105472895D02*
X142781829Y-105449085D01*
X142781829Y-105449085D02*
X142781829Y-105496704D01*
X143377067Y-105234800D02*
X142948496Y-105877657D01*
X143900877Y-105234800D02*
X143472306Y-105877657D01*
X144281830Y-105425276D02*
X144281830Y-105830038D01*
X144281830Y-105830038D02*
X144258020Y-105877657D01*
X144258020Y-105877657D02*
X144234211Y-105901466D01*
X144234211Y-105901466D02*
X144186592Y-105925276D01*
X144186592Y-105925276D02*
X144115163Y-105925276D01*
X144115163Y-105925276D02*
X144067544Y-105901466D01*
X144281830Y-105734800D02*
X144234211Y-105758609D01*
X144234211Y-105758609D02*
X144138973Y-105758609D01*
X144138973Y-105758609D02*
X144091354Y-105734800D01*
X144091354Y-105734800D02*
X144067544Y-105710990D01*
X144067544Y-105710990D02*
X144043735Y-105663371D01*
X144043735Y-105663371D02*
X144043735Y-105520514D01*
X144043735Y-105520514D02*
X144067544Y-105472895D01*
X144067544Y-105472895D02*
X144091354Y-105449085D01*
X144091354Y-105449085D02*
X144138973Y-105425276D01*
X144138973Y-105425276D02*
X144234211Y-105425276D01*
X144234211Y-105425276D02*
X144281830Y-105449085D01*
X144519925Y-105758609D02*
X144519925Y-105425276D01*
X144519925Y-105258609D02*
X144496116Y-105282419D01*
X144496116Y-105282419D02*
X144519925Y-105306228D01*
X144519925Y-105306228D02*
X144543735Y-105282419D01*
X144543735Y-105282419D02*
X144519925Y-105258609D01*
X144519925Y-105258609D02*
X144519925Y-105306228D01*
X144686592Y-105425276D02*
X144877068Y-105425276D01*
X144758020Y-105258609D02*
X144758020Y-105687180D01*
X144758020Y-105687180D02*
X144781830Y-105734800D01*
X144781830Y-105734800D02*
X144829449Y-105758609D01*
X144829449Y-105758609D02*
X144877068Y-105758609D01*
X145043734Y-105758609D02*
X145043734Y-105258609D01*
X145258020Y-105758609D02*
X145258020Y-105496704D01*
X145258020Y-105496704D02*
X145234210Y-105449085D01*
X145234210Y-105449085D02*
X145186591Y-105425276D01*
X145186591Y-105425276D02*
X145115163Y-105425276D01*
X145115163Y-105425276D02*
X145067544Y-105449085D01*
X145067544Y-105449085D02*
X145043734Y-105472895D01*
X145710401Y-105425276D02*
X145710401Y-105758609D01*
X145496115Y-105425276D02*
X145496115Y-105687180D01*
X145496115Y-105687180D02*
X145519925Y-105734800D01*
X145519925Y-105734800D02*
X145567544Y-105758609D01*
X145567544Y-105758609D02*
X145638972Y-105758609D01*
X145638972Y-105758609D02*
X145686591Y-105734800D01*
X145686591Y-105734800D02*
X145710401Y-105710990D01*
X145948496Y-105758609D02*
X145948496Y-105258609D01*
X145948496Y-105449085D02*
X145996115Y-105425276D01*
X145996115Y-105425276D02*
X146091353Y-105425276D01*
X146091353Y-105425276D02*
X146138972Y-105449085D01*
X146138972Y-105449085D02*
X146162782Y-105472895D01*
X146162782Y-105472895D02*
X146186591Y-105520514D01*
X146186591Y-105520514D02*
X146186591Y-105663371D01*
X146186591Y-105663371D02*
X146162782Y-105710990D01*
X146162782Y-105710990D02*
X146138972Y-105734800D01*
X146138972Y-105734800D02*
X146091353Y-105758609D01*
X146091353Y-105758609D02*
X145996115Y-105758609D01*
X145996115Y-105758609D02*
X145948496Y-105734800D01*
X146400877Y-105710990D02*
X146424687Y-105734800D01*
X146424687Y-105734800D02*
X146400877Y-105758609D01*
X146400877Y-105758609D02*
X146377068Y-105734800D01*
X146377068Y-105734800D02*
X146400877Y-105710990D01*
X146400877Y-105710990D02*
X146400877Y-105758609D01*
X146853258Y-105734800D02*
X146805639Y-105758609D01*
X146805639Y-105758609D02*
X146710401Y-105758609D01*
X146710401Y-105758609D02*
X146662782Y-105734800D01*
X146662782Y-105734800D02*
X146638972Y-105710990D01*
X146638972Y-105710990D02*
X146615163Y-105663371D01*
X146615163Y-105663371D02*
X146615163Y-105520514D01*
X146615163Y-105520514D02*
X146638972Y-105472895D01*
X146638972Y-105472895D02*
X146662782Y-105449085D01*
X146662782Y-105449085D02*
X146710401Y-105425276D01*
X146710401Y-105425276D02*
X146805639Y-105425276D01*
X146805639Y-105425276D02*
X146853258Y-105449085D01*
X147138972Y-105758609D02*
X147091353Y-105734800D01*
X147091353Y-105734800D02*
X147067543Y-105710990D01*
X147067543Y-105710990D02*
X147043734Y-105663371D01*
X147043734Y-105663371D02*
X147043734Y-105520514D01*
X147043734Y-105520514D02*
X147067543Y-105472895D01*
X147067543Y-105472895D02*
X147091353Y-105449085D01*
X147091353Y-105449085D02*
X147138972Y-105425276D01*
X147138972Y-105425276D02*
X147210400Y-105425276D01*
X147210400Y-105425276D02*
X147258019Y-105449085D01*
X147258019Y-105449085D02*
X147281829Y-105472895D01*
X147281829Y-105472895D02*
X147305638Y-105520514D01*
X147305638Y-105520514D02*
X147305638Y-105663371D01*
X147305638Y-105663371D02*
X147281829Y-105710990D01*
X147281829Y-105710990D02*
X147258019Y-105734800D01*
X147258019Y-105734800D02*
X147210400Y-105758609D01*
X147210400Y-105758609D02*
X147138972Y-105758609D01*
X147519924Y-105758609D02*
X147519924Y-105425276D01*
X147519924Y-105472895D02*
X147543734Y-105449085D01*
X147543734Y-105449085D02*
X147591353Y-105425276D01*
X147591353Y-105425276D02*
X147662781Y-105425276D01*
X147662781Y-105425276D02*
X147710400Y-105449085D01*
X147710400Y-105449085D02*
X147734210Y-105496704D01*
X147734210Y-105496704D02*
X147734210Y-105758609D01*
X147734210Y-105496704D02*
X147758019Y-105449085D01*
X147758019Y-105449085D02*
X147805638Y-105425276D01*
X147805638Y-105425276D02*
X147877067Y-105425276D01*
X147877067Y-105425276D02*
X147924686Y-105449085D01*
X147924686Y-105449085D02*
X147948496Y-105496704D01*
X147948496Y-105496704D02*
X147948496Y-105758609D01*
X148543734Y-105234800D02*
X148115163Y-105877657D01*
X148853258Y-105258609D02*
X148853258Y-105615752D01*
X148853258Y-105615752D02*
X148829449Y-105687180D01*
X148829449Y-105687180D02*
X148781830Y-105734800D01*
X148781830Y-105734800D02*
X148710401Y-105758609D01*
X148710401Y-105758609D02*
X148662782Y-105758609D01*
X149305639Y-105425276D02*
X149305639Y-105758609D01*
X149091353Y-105425276D02*
X149091353Y-105687180D01*
X149091353Y-105687180D02*
X149115163Y-105734800D01*
X149115163Y-105734800D02*
X149162782Y-105758609D01*
X149162782Y-105758609D02*
X149234210Y-105758609D01*
X149234210Y-105758609D02*
X149281829Y-105734800D01*
X149281829Y-105734800D02*
X149305639Y-105710990D01*
X149615163Y-105758609D02*
X149567544Y-105734800D01*
X149567544Y-105734800D02*
X149543734Y-105687180D01*
X149543734Y-105687180D02*
X149543734Y-105258609D01*
X149996115Y-105734800D02*
X149948496Y-105758609D01*
X149948496Y-105758609D02*
X149853258Y-105758609D01*
X149853258Y-105758609D02*
X149805639Y-105734800D01*
X149805639Y-105734800D02*
X149781830Y-105687180D01*
X149781830Y-105687180D02*
X149781830Y-105496704D01*
X149781830Y-105496704D02*
X149805639Y-105449085D01*
X149805639Y-105449085D02*
X149853258Y-105425276D01*
X149853258Y-105425276D02*
X149948496Y-105425276D01*
X149948496Y-105425276D02*
X149996115Y-105449085D01*
X149996115Y-105449085D02*
X150019925Y-105496704D01*
X150019925Y-105496704D02*
X150019925Y-105544323D01*
X150019925Y-105544323D02*
X149781830Y-105591942D01*
X150210401Y-105734800D02*
X150258020Y-105758609D01*
X150258020Y-105758609D02*
X150353258Y-105758609D01*
X150353258Y-105758609D02*
X150400877Y-105734800D01*
X150400877Y-105734800D02*
X150424686Y-105687180D01*
X150424686Y-105687180D02*
X150424686Y-105663371D01*
X150424686Y-105663371D02*
X150400877Y-105615752D01*
X150400877Y-105615752D02*
X150353258Y-105591942D01*
X150353258Y-105591942D02*
X150281829Y-105591942D01*
X150281829Y-105591942D02*
X150234210Y-105568133D01*
X150234210Y-105568133D02*
X150210401Y-105520514D01*
X150210401Y-105520514D02*
X150210401Y-105496704D01*
X150210401Y-105496704D02*
X150234210Y-105449085D01*
X150234210Y-105449085D02*
X150281829Y-105425276D01*
X150281829Y-105425276D02*
X150353258Y-105425276D01*
X150353258Y-105425276D02*
X150400877Y-105449085D01*
X150638972Y-105425276D02*
X150638972Y-105925276D01*
X150638972Y-105449085D02*
X150686591Y-105425276D01*
X150686591Y-105425276D02*
X150781829Y-105425276D01*
X150781829Y-105425276D02*
X150829448Y-105449085D01*
X150829448Y-105449085D02*
X150853258Y-105472895D01*
X150853258Y-105472895D02*
X150877067Y-105520514D01*
X150877067Y-105520514D02*
X150877067Y-105663371D01*
X150877067Y-105663371D02*
X150853258Y-105710990D01*
X150853258Y-105710990D02*
X150829448Y-105734800D01*
X150829448Y-105734800D02*
X150781829Y-105758609D01*
X150781829Y-105758609D02*
X150686591Y-105758609D01*
X150686591Y-105758609D02*
X150638972Y-105734800D01*
X151281829Y-105734800D02*
X151234210Y-105758609D01*
X151234210Y-105758609D02*
X151138972Y-105758609D01*
X151138972Y-105758609D02*
X151091353Y-105734800D01*
X151091353Y-105734800D02*
X151067544Y-105687180D01*
X151067544Y-105687180D02*
X151067544Y-105496704D01*
X151067544Y-105496704D02*
X151091353Y-105449085D01*
X151091353Y-105449085D02*
X151138972Y-105425276D01*
X151138972Y-105425276D02*
X151234210Y-105425276D01*
X151234210Y-105425276D02*
X151281829Y-105449085D01*
X151281829Y-105449085D02*
X151305639Y-105496704D01*
X151305639Y-105496704D02*
X151305639Y-105544323D01*
X151305639Y-105544323D02*
X151067544Y-105591942D01*
X151734210Y-105758609D02*
X151734210Y-105496704D01*
X151734210Y-105496704D02*
X151710400Y-105449085D01*
X151710400Y-105449085D02*
X151662781Y-105425276D01*
X151662781Y-105425276D02*
X151567543Y-105425276D01*
X151567543Y-105425276D02*
X151519924Y-105449085D01*
X151734210Y-105734800D02*
X151686591Y-105758609D01*
X151686591Y-105758609D02*
X151567543Y-105758609D01*
X151567543Y-105758609D02*
X151519924Y-105734800D01*
X151519924Y-105734800D02*
X151496115Y-105687180D01*
X151496115Y-105687180D02*
X151496115Y-105639561D01*
X151496115Y-105639561D02*
X151519924Y-105591942D01*
X151519924Y-105591942D02*
X151567543Y-105568133D01*
X151567543Y-105568133D02*
X151686591Y-105568133D01*
X151686591Y-105568133D02*
X151734210Y-105544323D01*
X151972305Y-105758609D02*
X151972305Y-105258609D01*
X152019924Y-105568133D02*
X152162781Y-105758609D01*
X152162781Y-105425276D02*
X151972305Y-105615752D01*
X152734210Y-105234800D02*
X152305639Y-105877657D01*
X152829449Y-105425276D02*
X153019925Y-105425276D01*
X152900877Y-105258609D02*
X152900877Y-105687180D01*
X152900877Y-105687180D02*
X152924687Y-105734800D01*
X152924687Y-105734800D02*
X152972306Y-105758609D01*
X152972306Y-105758609D02*
X153019925Y-105758609D01*
X153186591Y-105758609D02*
X153186591Y-105258609D01*
X153400877Y-105758609D02*
X153400877Y-105496704D01*
X153400877Y-105496704D02*
X153377067Y-105449085D01*
X153377067Y-105449085D02*
X153329448Y-105425276D01*
X153329448Y-105425276D02*
X153258020Y-105425276D01*
X153258020Y-105425276D02*
X153210401Y-105449085D01*
X153210401Y-105449085D02*
X153186591Y-105472895D01*
X153829448Y-105734800D02*
X153781829Y-105758609D01*
X153781829Y-105758609D02*
X153686591Y-105758609D01*
X153686591Y-105758609D02*
X153638972Y-105734800D01*
X153638972Y-105734800D02*
X153615163Y-105687180D01*
X153615163Y-105687180D02*
X153615163Y-105496704D01*
X153615163Y-105496704D02*
X153638972Y-105449085D01*
X153638972Y-105449085D02*
X153686591Y-105425276D01*
X153686591Y-105425276D02*
X153781829Y-105425276D01*
X153781829Y-105425276D02*
X153829448Y-105449085D01*
X153829448Y-105449085D02*
X153853258Y-105496704D01*
X153853258Y-105496704D02*
X153853258Y-105544323D01*
X153853258Y-105544323D02*
X153615163Y-105591942D01*
X154067543Y-105568133D02*
X154448496Y-105568133D01*
X154662782Y-105734800D02*
X154710401Y-105758609D01*
X154710401Y-105758609D02*
X154805639Y-105758609D01*
X154805639Y-105758609D02*
X154853258Y-105734800D01*
X154853258Y-105734800D02*
X154877067Y-105687180D01*
X154877067Y-105687180D02*
X154877067Y-105663371D01*
X154877067Y-105663371D02*
X154853258Y-105615752D01*
X154853258Y-105615752D02*
X154805639Y-105591942D01*
X154805639Y-105591942D02*
X154734210Y-105591942D01*
X154734210Y-105591942D02*
X154686591Y-105568133D01*
X154686591Y-105568133D02*
X154662782Y-105520514D01*
X154662782Y-105520514D02*
X154662782Y-105496704D01*
X154662782Y-105496704D02*
X154686591Y-105449085D01*
X154686591Y-105449085D02*
X154734210Y-105425276D01*
X154734210Y-105425276D02*
X154805639Y-105425276D01*
X154805639Y-105425276D02*
X154853258Y-105449085D01*
X155091353Y-105425276D02*
X155091353Y-105925276D01*
X155091353Y-105449085D02*
X155138972Y-105425276D01*
X155138972Y-105425276D02*
X155234210Y-105425276D01*
X155234210Y-105425276D02*
X155281829Y-105449085D01*
X155281829Y-105449085D02*
X155305639Y-105472895D01*
X155305639Y-105472895D02*
X155329448Y-105520514D01*
X155329448Y-105520514D02*
X155329448Y-105663371D01*
X155329448Y-105663371D02*
X155305639Y-105710990D01*
X155305639Y-105710990D02*
X155281829Y-105734800D01*
X155281829Y-105734800D02*
X155234210Y-105758609D01*
X155234210Y-105758609D02*
X155138972Y-105758609D01*
X155138972Y-105758609D02*
X155091353Y-105734800D01*
X155543734Y-105758609D02*
X155543734Y-105425276D01*
X155543734Y-105258609D02*
X155519925Y-105282419D01*
X155519925Y-105282419D02*
X155543734Y-105306228D01*
X155543734Y-105306228D02*
X155567544Y-105282419D01*
X155567544Y-105282419D02*
X155543734Y-105258609D01*
X155543734Y-105258609D02*
X155543734Y-105306228D01*
X155781829Y-105758609D02*
X155781829Y-105425276D01*
X155781829Y-105520514D02*
X155805639Y-105472895D01*
X155805639Y-105472895D02*
X155829448Y-105449085D01*
X155829448Y-105449085D02*
X155877067Y-105425276D01*
X155877067Y-105425276D02*
X155924686Y-105425276D01*
X156091353Y-105758609D02*
X156091353Y-105425276D01*
X156091353Y-105258609D02*
X156067544Y-105282419D01*
X156067544Y-105282419D02*
X156091353Y-105306228D01*
X156091353Y-105306228D02*
X156115163Y-105282419D01*
X156115163Y-105282419D02*
X156091353Y-105258609D01*
X156091353Y-105258609D02*
X156091353Y-105306228D01*
X156258020Y-105425276D02*
X156448496Y-105425276D01*
X156329448Y-105258609D02*
X156329448Y-105687180D01*
X156329448Y-105687180D02*
X156353258Y-105734800D01*
X156353258Y-105734800D02*
X156400877Y-105758609D01*
X156400877Y-105758609D02*
X156448496Y-105758609D01*
X156615162Y-105568133D02*
X156996115Y-105568133D01*
X157234210Y-105758609D02*
X157234210Y-105258609D01*
X157234210Y-105449085D02*
X157281829Y-105425276D01*
X157281829Y-105425276D02*
X157377067Y-105425276D01*
X157377067Y-105425276D02*
X157424686Y-105449085D01*
X157424686Y-105449085D02*
X157448496Y-105472895D01*
X157448496Y-105472895D02*
X157472305Y-105520514D01*
X157472305Y-105520514D02*
X157472305Y-105663371D01*
X157472305Y-105663371D02*
X157448496Y-105710990D01*
X157448496Y-105710990D02*
X157424686Y-105734800D01*
X157424686Y-105734800D02*
X157377067Y-105758609D01*
X157377067Y-105758609D02*
X157281829Y-105758609D01*
X157281829Y-105758609D02*
X157234210Y-105734800D01*
X157758020Y-105758609D02*
X157710401Y-105734800D01*
X157710401Y-105734800D02*
X157686591Y-105710990D01*
X157686591Y-105710990D02*
X157662782Y-105663371D01*
X157662782Y-105663371D02*
X157662782Y-105520514D01*
X157662782Y-105520514D02*
X157686591Y-105472895D01*
X157686591Y-105472895D02*
X157710401Y-105449085D01*
X157710401Y-105449085D02*
X157758020Y-105425276D01*
X157758020Y-105425276D02*
X157829448Y-105425276D01*
X157829448Y-105425276D02*
X157877067Y-105449085D01*
X157877067Y-105449085D02*
X157900877Y-105472895D01*
X157900877Y-105472895D02*
X157924686Y-105520514D01*
X157924686Y-105520514D02*
X157924686Y-105663371D01*
X157924686Y-105663371D02*
X157900877Y-105710990D01*
X157900877Y-105710990D02*
X157877067Y-105734800D01*
X157877067Y-105734800D02*
X157829448Y-105758609D01*
X157829448Y-105758609D02*
X157758020Y-105758609D01*
X158353258Y-105758609D02*
X158353258Y-105496704D01*
X158353258Y-105496704D02*
X158329448Y-105449085D01*
X158329448Y-105449085D02*
X158281829Y-105425276D01*
X158281829Y-105425276D02*
X158186591Y-105425276D01*
X158186591Y-105425276D02*
X158138972Y-105449085D01*
X158353258Y-105734800D02*
X158305639Y-105758609D01*
X158305639Y-105758609D02*
X158186591Y-105758609D01*
X158186591Y-105758609D02*
X158138972Y-105734800D01*
X158138972Y-105734800D02*
X158115163Y-105687180D01*
X158115163Y-105687180D02*
X158115163Y-105639561D01*
X158115163Y-105639561D02*
X158138972Y-105591942D01*
X158138972Y-105591942D02*
X158186591Y-105568133D01*
X158186591Y-105568133D02*
X158305639Y-105568133D01*
X158305639Y-105568133D02*
X158353258Y-105544323D01*
X158591353Y-105758609D02*
X158591353Y-105425276D01*
X158591353Y-105520514D02*
X158615163Y-105472895D01*
X158615163Y-105472895D02*
X158638972Y-105449085D01*
X158638972Y-105449085D02*
X158686591Y-105425276D01*
X158686591Y-105425276D02*
X158734210Y-105425276D01*
X159115163Y-105758609D02*
X159115163Y-105258609D01*
X159115163Y-105734800D02*
X159067544Y-105758609D01*
X159067544Y-105758609D02*
X158972306Y-105758609D01*
X158972306Y-105758609D02*
X158924687Y-105734800D01*
X158924687Y-105734800D02*
X158900877Y-105710990D01*
X158900877Y-105710990D02*
X158877068Y-105663371D01*
X158877068Y-105663371D02*
X158877068Y-105520514D01*
X158877068Y-105520514D02*
X158900877Y-105472895D01*
X158900877Y-105472895D02*
X158924687Y-105449085D01*
X158924687Y-105449085D02*
X158972306Y-105425276D01*
X158972306Y-105425276D02*
X159067544Y-105425276D01*
X159067544Y-105425276D02*
X159115163Y-105449085D01*
D11*
G36*
X143841692Y-116578730D02*
G01*
X143841692Y-116612923D01*
X143778192Y-116612923D01*
X143714692Y-116612923D01*
X143714692Y-116578730D01*
X143714692Y-116544538D01*
X143778192Y-116544538D01*
X143841692Y-116544538D01*
X143841692Y-116578730D01*
G37*
G36*
X143841692Y-116739923D02*
G01*
X143841692Y-116779000D01*
X143783077Y-116779000D01*
X143724461Y-116779000D01*
X143724461Y-116739923D01*
X143724461Y-116700846D01*
X143783077Y-116700846D01*
X143841692Y-116700846D01*
X143841692Y-116739923D01*
G37*
G36*
X143841692Y-116906000D02*
G01*
X143841692Y-116945077D01*
X143783077Y-116945077D01*
X143724461Y-116945077D01*
X143724461Y-116906000D01*
X143724461Y-116866923D01*
X143783077Y-116866923D01*
X143841692Y-116866923D01*
X143841692Y-116906000D01*
G37*
G36*
X144154307Y-116354038D02*
G01*
X144154307Y-116417538D01*
X144115230Y-116417538D01*
X144076154Y-116417538D01*
X144076154Y-116354038D01*
X144076154Y-116290538D01*
X144115230Y-116290538D01*
X144154307Y-116290538D01*
X144154307Y-116354038D01*
G37*
G36*
X144273980Y-116292419D02*
G01*
X144315500Y-116295423D01*
X144318408Y-116356480D01*
X144321317Y-116417538D01*
X144276889Y-116417538D01*
X144232461Y-116417538D01*
X144232461Y-116353476D01*
X144232461Y-116289415D01*
X144273980Y-116292419D01*
G37*
G36*
X144535307Y-116578730D02*
G01*
X144535307Y-116612923D01*
X144476692Y-116612923D01*
X144418077Y-116612923D01*
X144418077Y-116578730D01*
X144418077Y-116544538D01*
X144476692Y-116544538D01*
X144535307Y-116544538D01*
X144535307Y-116578730D01*
G37*
G36*
X144535307Y-116906000D02*
G01*
X144535307Y-116945077D01*
X144476692Y-116945077D01*
X144418077Y-116945077D01*
X144418077Y-116906000D01*
X144418077Y-116866923D01*
X144476692Y-116866923D01*
X144535307Y-116866923D01*
X144535307Y-116906000D01*
G37*
G36*
X144271859Y-119124036D02*
G01*
X144276423Y-119143154D01*
X144271053Y-119163278D01*
X144254398Y-119170704D01*
X144233791Y-119167156D01*
X144226488Y-119158493D01*
X144224313Y-119134307D01*
X144236017Y-119118533D01*
X144254398Y-119115603D01*
X144271859Y-119124036D01*
G37*
G36*
X143847770Y-115630904D02*
G01*
X143856942Y-115636494D01*
X143868444Y-115655514D01*
X143866561Y-115676194D01*
X143852882Y-115690583D01*
X143845722Y-115692644D01*
X143823421Y-115688479D01*
X143812879Y-115680557D01*
X143805042Y-115659895D01*
X143811564Y-115641413D01*
X143827466Y-115630090D01*
X143847770Y-115630904D01*
G37*
G36*
X143918136Y-118977305D02*
G01*
X143926223Y-118982060D01*
X143938377Y-118996040D01*
X143933972Y-119012279D01*
X143933453Y-119013139D01*
X143914962Y-119030794D01*
X143894432Y-119031845D01*
X143882144Y-119022695D01*
X143874062Y-119002241D01*
X143880608Y-118984870D01*
X143896919Y-118975064D01*
X143918136Y-118977305D01*
G37*
G36*
X144782322Y-115624685D02*
G01*
X144795072Y-115644819D01*
X144794341Y-115664839D01*
X144781377Y-115679521D01*
X144760521Y-115685243D01*
X144741059Y-115680484D01*
X144735233Y-115674521D01*
X144731569Y-115654768D01*
X144738071Y-115633277D01*
X144751244Y-115618588D01*
X144758990Y-115616461D01*
X144782322Y-115624685D01*
G37*
G36*
X143521777Y-115644094D02*
G01*
X143528134Y-115665304D01*
X143521494Y-115688975D01*
X143513725Y-115698802D01*
X143490593Y-115712944D01*
X143469227Y-115707740D01*
X143460797Y-115699627D01*
X143453190Y-115677283D01*
X143458562Y-115652362D01*
X143474286Y-115633910D01*
X143480722Y-115630959D01*
X143505085Y-115630821D01*
X143521777Y-115644094D01*
G37*
G36*
X144007300Y-119118582D02*
G01*
X144022486Y-119131235D01*
X144025424Y-119150615D01*
X144017693Y-119169643D01*
X144000869Y-119181238D01*
X143993115Y-119182230D01*
X143977347Y-119175965D01*
X143970646Y-119170507D01*
X143960580Y-119150286D01*
X143965676Y-119131158D01*
X143982058Y-119118615D01*
X144005849Y-119118147D01*
X144007300Y-119118582D01*
G37*
G36*
X144351170Y-118982733D02*
G01*
X144364741Y-118991027D01*
X144377668Y-119005357D01*
X144374204Y-119021009D01*
X144373417Y-119022327D01*
X144357048Y-119040270D01*
X144338445Y-119039805D01*
X144324874Y-119031511D01*
X144311947Y-119017181D01*
X144315410Y-119001529D01*
X144316198Y-119000211D01*
X144332567Y-118982268D01*
X144351170Y-118982733D01*
G37*
G36*
X144521400Y-115620950D02*
G01*
X144537566Y-115635320D01*
X144543368Y-115657029D01*
X144543106Y-115659568D01*
X144532935Y-115675862D01*
X144514074Y-115684121D01*
X144495804Y-115680766D01*
X144493386Y-115678745D01*
X144486680Y-115661523D01*
X144488381Y-115639392D01*
X144497123Y-115622564D01*
X144501239Y-115619946D01*
X144521400Y-115620950D01*
G37*
G36*
X143956480Y-116292391D02*
G01*
X143993115Y-116295423D01*
X143996024Y-116356480D01*
X143998932Y-116417538D01*
X143953459Y-116417538D01*
X143925890Y-116416415D01*
X143913903Y-116412036D01*
X143913620Y-116402886D01*
X143913916Y-116402085D01*
X143917412Y-116383557D01*
X143919542Y-116354113D01*
X143919846Y-116337996D01*
X143919846Y-116289359D01*
X143956480Y-116292391D01*
G37*
G36*
X143998000Y-117116038D02*
G01*
X143997164Y-117155756D01*
X143992779Y-117179020D01*
X143982027Y-117188899D01*
X143962090Y-117188464D01*
X143936942Y-117182573D01*
X143927701Y-117176958D01*
X143922457Y-117163313D01*
X143920196Y-117137361D01*
X143919846Y-117110437D01*
X143919846Y-117042769D01*
X143958923Y-117042769D01*
X143998000Y-117042769D01*
X143998000Y-117116038D01*
G37*
G36*
X144126548Y-115628993D02*
G01*
X144134198Y-115640180D01*
X144134769Y-115648700D01*
X144129943Y-115671665D01*
X144123046Y-115682892D01*
X144110249Y-115692605D01*
X144095921Y-115691033D01*
X144088365Y-115688145D01*
X144079574Y-115675831D01*
X144076154Y-115654724D01*
X144078670Y-115634522D01*
X144090353Y-115627080D01*
X144105461Y-115626230D01*
X144126548Y-115628993D01*
G37*
G36*
X144139587Y-118990841D02*
G01*
X144161267Y-119005231D01*
X144174009Y-119030932D01*
X144175233Y-119060777D01*
X144170247Y-119075992D01*
X144150724Y-119096667D01*
X144124052Y-119103522D01*
X144097222Y-119096219D01*
X144080563Y-119080299D01*
X144069678Y-119049773D01*
X144074334Y-119021328D01*
X144091481Y-118999590D01*
X144118066Y-118989183D01*
X144139587Y-118990841D01*
G37*
G36*
X144164077Y-117116434D02*
G01*
X144164077Y-117190099D01*
X144125000Y-117187793D01*
X144085923Y-117185487D01*
X144085923Y-117129581D01*
X144084925Y-117096045D01*
X144082358Y-117069052D01*
X144079993Y-117058222D01*
X144079652Y-117048671D01*
X144090827Y-117044032D01*
X144117397Y-117042771D01*
X144119070Y-117042769D01*
X144164077Y-117042769D01*
X144164077Y-117116434D01*
G37*
G36*
X145102124Y-115622745D02*
G01*
X145121408Y-115637300D01*
X145131102Y-115653684D01*
X145131230Y-115655437D01*
X145123302Y-115678829D01*
X145103870Y-115692684D01*
X145079466Y-115694982D01*
X145056619Y-115683704D01*
X145052836Y-115679672D01*
X145046529Y-115659227D01*
X145052914Y-115636705D01*
X145068335Y-115620172D01*
X145081477Y-115616461D01*
X145102124Y-115622745D01*
G37*
G36*
X143980904Y-115374054D02*
G01*
X144002687Y-115379483D01*
X144011687Y-115388652D01*
X144011677Y-115389327D01*
X144011248Y-115402925D01*
X144010711Y-115432373D01*
X144010120Y-115473982D01*
X144009529Y-115524063D01*
X144009234Y-115552961D01*
X144007769Y-115704384D01*
X143978461Y-115704384D01*
X143949154Y-115704384D01*
X143949154Y-115537688D01*
X143949154Y-115370992D01*
X143980904Y-115374054D01*
G37*
G36*
X144644507Y-115372899D02*
G01*
X144653735Y-115376638D01*
X144660006Y-115386049D01*
X144663780Y-115403735D01*
X144665516Y-115432296D01*
X144665674Y-115474335D01*
X144664714Y-115532452D01*
X144664235Y-115555404D01*
X144661277Y-115694615D01*
X144632485Y-115694615D01*
X144603692Y-115694615D01*
X144603692Y-115533423D01*
X144603692Y-115372230D01*
X144631861Y-115372230D01*
X144644507Y-115372899D01*
G37*
G36*
X144173817Y-118337471D02*
G01*
X144209268Y-118339018D01*
X144236483Y-118342896D01*
X144261113Y-118350171D01*
X144288807Y-118361906D01*
X144310846Y-118372295D01*
X144394228Y-118422212D01*
X144468770Y-118486781D01*
X144532155Y-118562921D01*
X144582066Y-118647553D01*
X144616185Y-118737595D01*
X144628318Y-118794293D01*
X144635218Y-118840307D01*
X144129735Y-118840307D01*
X143624252Y-118840307D01*
X143630841Y-118790636D01*
X143651197Y-118706160D01*
X143688326Y-118622539D01*
X143739643Y-118543276D01*
X143802562Y-118471873D01*
X143874497Y-118411833D01*
X143938863Y-118373306D01*
X143970965Y-118357758D01*
X143996297Y-118347467D01*
X144020432Y-118341349D01*
X144048941Y-118338320D01*
X144087394Y-118337296D01*
X144124479Y-118337192D01*
X144173817Y-118337471D01*
G37*
G36*
X144320384Y-117162609D02*
G01*
X144320384Y-117282448D01*
X144427846Y-117389577D01*
X144468525Y-117430300D01*
X144497374Y-117460155D01*
X144516426Y-117482044D01*
X144527714Y-117498869D01*
X144533268Y-117513532D01*
X144535122Y-117528935D01*
X144535307Y-117543024D01*
X144533900Y-117572338D01*
X144527451Y-117589281D01*
X144512622Y-117600947D01*
X144506485Y-117604249D01*
X144479471Y-117616223D01*
X144464563Y-117615237D01*
X144458289Y-117599019D01*
X144457154Y-117571973D01*
X144456809Y-117553717D01*
X144454404Y-117538678D01*
X144447882Y-117523944D01*
X144435185Y-117506600D01*
X144414256Y-117483733D01*
X144383038Y-117452429D01*
X144349692Y-117419762D01*
X144242230Y-117314731D01*
X144242230Y-117178750D01*
X144242230Y-117042769D01*
X144281307Y-117042769D01*
X144320384Y-117042769D01*
X144320384Y-117162609D01*
G37*
G36*
X145072615Y-115401538D02*
G01*
X145071341Y-115419560D01*
X145063983Y-115428096D01*
X145045238Y-115430680D01*
X145028654Y-115430846D01*
X144984692Y-115430846D01*
X144984692Y-115562730D01*
X144984207Y-115619254D01*
X144982617Y-115658432D01*
X144979722Y-115682438D01*
X144975321Y-115693442D01*
X144972480Y-115694748D01*
X144953634Y-115697269D01*
X144938288Y-115700772D01*
X144920813Y-115702231D01*
X144914761Y-115698197D01*
X144913771Y-115684509D01*
X144912788Y-115657700D01*
X144912175Y-115631115D01*
X144911265Y-115588993D01*
X144909964Y-115539507D01*
X144908837Y-115502262D01*
X144906538Y-115432025D01*
X144869904Y-115428993D01*
X144845248Y-115424975D01*
X144833935Y-115415352D01*
X144830178Y-115399096D01*
X144827086Y-115372230D01*
X144949851Y-115372230D01*
X145072615Y-115372230D01*
X145072615Y-115401538D01*
G37*
G36*
X144347424Y-116732596D02*
G01*
X144348714Y-116969500D01*
X144128148Y-116969500D01*
X144052002Y-116969072D01*
X143990247Y-116967826D01*
X143944166Y-116965818D01*
X143915044Y-116963103D01*
X143904164Y-116959739D01*
X143904161Y-116959730D01*
X143903079Y-116942691D01*
X143904661Y-116930423D01*
X143905865Y-116915105D01*
X143906189Y-116906000D01*
X143978461Y-116906000D01*
X144125000Y-116906000D01*
X144271538Y-116906000D01*
X144271538Y-116735038D01*
X144271538Y-116564077D01*
X144125000Y-116564077D01*
X143978461Y-116564077D01*
X143978461Y-116735038D01*
X143978461Y-116906000D01*
X143906189Y-116906000D01*
X143906991Y-116883452D01*
X143907973Y-116838670D01*
X143908746Y-116783962D01*
X143909142Y-116735038D01*
X143909243Y-116722533D01*
X143909329Y-116703288D01*
X143910077Y-116495692D01*
X144128105Y-116495692D01*
X144346134Y-116495692D01*
X144347424Y-116732596D01*
G37*
G36*
X143590530Y-116249419D02*
G01*
X143602449Y-116256834D01*
X143619981Y-116268987D01*
X143634716Y-116278224D01*
X143652481Y-116287794D01*
X143679101Y-116300947D01*
X143697659Y-116309933D01*
X143727511Y-116328711D01*
X143753598Y-116352626D01*
X143772347Y-116377353D01*
X143780185Y-116398566D01*
X143778302Y-116407591D01*
X143763270Y-116415988D01*
X143739519Y-116416765D01*
X143716031Y-116410574D01*
X143704388Y-116402240D01*
X143686323Y-116386426D01*
X143665498Y-116373397D01*
X143647560Y-116365940D01*
X143633974Y-116368441D01*
X143617119Y-116383066D01*
X143611670Y-116388695D01*
X143576972Y-116412794D01*
X143538980Y-116418613D01*
X143501318Y-116406143D01*
X143479479Y-116388982D01*
X143455933Y-116355076D01*
X143451885Y-116320020D01*
X143467337Y-116283923D01*
X143478993Y-116269200D01*
X143512694Y-116244240D01*
X143550940Y-116237539D01*
X143590530Y-116249419D01*
G37*
G36*
X142937777Y-117466021D02*
G01*
X143036039Y-117479563D01*
X143147119Y-117505114D01*
X143207340Y-117522123D01*
X143266239Y-117541032D01*
X143337612Y-117566164D01*
X143416215Y-117595501D01*
X143496804Y-117627025D01*
X143574138Y-117658720D01*
X143642973Y-117688569D01*
X143659600Y-117696132D01*
X143736393Y-117731500D01*
X143100312Y-117732536D01*
X142990808Y-117732618D01*
X142887268Y-117732508D01*
X142791311Y-117732221D01*
X142704559Y-117731770D01*
X142628631Y-117731170D01*
X142565150Y-117730433D01*
X142515737Y-117729573D01*
X142482011Y-117728605D01*
X142465594Y-117727542D01*
X142464230Y-117727121D01*
X142470567Y-117710184D01*
X142487384Y-117683685D01*
X142511389Y-117651926D01*
X142539293Y-117619205D01*
X142567803Y-117589824D01*
X142573032Y-117584961D01*
X142635365Y-117535666D01*
X142701128Y-117499311D01*
X142772199Y-117475709D01*
X142850457Y-117464674D01*
X142937777Y-117466021D01*
G37*
G36*
X144580332Y-117145935D02*
G01*
X144602216Y-117154352D01*
X144631544Y-117175329D01*
X144647383Y-117203447D01*
X144652508Y-117243888D01*
X144652538Y-117248246D01*
X144644255Y-117288582D01*
X144622264Y-117319541D01*
X144590852Y-117339352D01*
X144554308Y-117346249D01*
X144516918Y-117338461D01*
X144485710Y-117317059D01*
X144463130Y-117283293D01*
X144456590Y-117247037D01*
X144458188Y-117239065D01*
X144525487Y-117239065D01*
X144528350Y-117260933D01*
X144542634Y-117276448D01*
X144561284Y-117285305D01*
X144574333Y-117282048D01*
X144588405Y-117268161D01*
X144599790Y-117244176D01*
X144595206Y-117220736D01*
X144576238Y-117204657D01*
X144573416Y-117203654D01*
X144550594Y-117204337D01*
X144533760Y-117218170D01*
X144525487Y-117239065D01*
X144458188Y-117239065D01*
X144463686Y-117211648D01*
X144482012Y-117180486D01*
X144509165Y-117156908D01*
X144542740Y-117144271D01*
X144580332Y-117145935D01*
G37*
G36*
X144859679Y-116950724D02*
G01*
X144887838Y-116972980D01*
X144904183Y-117005663D01*
X144906538Y-117025625D01*
X144912512Y-117042765D01*
X144931090Y-117068739D01*
X144963257Y-117104791D01*
X144994461Y-117136765D01*
X145082384Y-117224688D01*
X145082384Y-117318388D01*
X145082384Y-117412088D01*
X145051619Y-117422813D01*
X145027945Y-117430213D01*
X145012511Y-117433526D01*
X145012047Y-117433538D01*
X145008371Y-117424500D01*
X145005861Y-117400272D01*
X145004861Y-117365188D01*
X145005038Y-117344730D01*
X145006834Y-117255922D01*
X144939811Y-117188381D01*
X144872787Y-117120839D01*
X144826610Y-117126965D01*
X144796891Y-117129496D01*
X144777293Y-117125200D01*
X144758819Y-117111276D01*
X144750678Y-117103335D01*
X144726851Y-117067996D01*
X144720741Y-117030505D01*
X144731474Y-116994719D01*
X144758174Y-116964496D01*
X144785699Y-116948798D01*
X144824152Y-116941722D01*
X144859679Y-116950724D01*
G37*
G36*
X143244948Y-116819989D02*
G01*
X143248480Y-116821423D01*
X143282810Y-116843455D01*
X143301511Y-116875605D01*
X143306338Y-116913311D01*
X143297630Y-116951231D01*
X143272793Y-116979876D01*
X143233760Y-116997426D01*
X143213193Y-117001096D01*
X143183488Y-117002729D01*
X143163366Y-116997031D01*
X143143323Y-116980842D01*
X143138774Y-116976354D01*
X143114170Y-116940748D01*
X143108631Y-116910445D01*
X143167615Y-116910445D01*
X143176142Y-116929960D01*
X143197305Y-116941774D01*
X143216393Y-116943054D01*
X143234405Y-116936999D01*
X143240584Y-116920561D01*
X143240884Y-116911949D01*
X143234911Y-116884334D01*
X143219548Y-116870726D01*
X143198633Y-116873356D01*
X143187725Y-116881059D01*
X143172830Y-116898230D01*
X143167615Y-116910445D01*
X143108631Y-116910445D01*
X143107326Y-116903306D01*
X143118234Y-116867637D01*
X143139060Y-116843365D01*
X143175049Y-116819214D01*
X143208518Y-116811788D01*
X143244948Y-116819989D01*
G37*
G36*
X144165298Y-117470133D02*
G01*
X144197125Y-117493884D01*
X144217584Y-117525187D01*
X144222692Y-117551627D01*
X144214573Y-117593874D01*
X144192898Y-117627109D01*
X144161689Y-117649554D01*
X144124969Y-117659431D01*
X144086761Y-117654964D01*
X144051088Y-117634373D01*
X144046094Y-117629674D01*
X144024083Y-117596167D01*
X144017276Y-117562319D01*
X144078916Y-117562319D01*
X144092321Y-117581750D01*
X144116308Y-117597581D01*
X144140830Y-117595989D01*
X144152354Y-117587892D01*
X144163242Y-117565422D01*
X144160367Y-117540336D01*
X144144872Y-117521663D01*
X144143883Y-117521111D01*
X144123715Y-117515726D01*
X144102007Y-117524534D01*
X144099921Y-117525877D01*
X144080121Y-117543880D01*
X144078916Y-117562319D01*
X144017276Y-117562319D01*
X144016407Y-117558000D01*
X144021936Y-117520035D01*
X144039539Y-117487135D01*
X144068087Y-117464163D01*
X144086008Y-117457942D01*
X144126721Y-117457098D01*
X144165298Y-117470133D01*
G37*
G36*
X145081324Y-116688071D02*
G01*
X145109783Y-116705623D01*
X145135527Y-116737423D01*
X145145034Y-116772318D01*
X145140475Y-116806859D01*
X145124023Y-116837599D01*
X145097850Y-116861090D01*
X145064130Y-116873884D01*
X145025034Y-116872533D01*
X145008022Y-116867117D01*
X144987565Y-116853639D01*
X144966887Y-116832712D01*
X144966503Y-116832227D01*
X144948136Y-116796611D01*
X144947662Y-116787739D01*
X145007036Y-116787739D01*
X145016976Y-116807467D01*
X145037880Y-116817732D01*
X145043307Y-116818077D01*
X145063956Y-116811031D01*
X145072226Y-116803892D01*
X145080765Y-116782100D01*
X145075449Y-116760836D01*
X145060437Y-116745343D01*
X145039889Y-116740863D01*
X145026211Y-116745904D01*
X145009601Y-116765050D01*
X145007036Y-116787739D01*
X144947662Y-116787739D01*
X144946268Y-116761665D01*
X144957952Y-116729993D01*
X144980245Y-116704195D01*
X145010201Y-116686874D01*
X145044875Y-116680632D01*
X145081324Y-116688071D01*
G37*
G36*
X143236924Y-115954146D02*
G01*
X143243526Y-115957983D01*
X143276818Y-115987507D01*
X143291666Y-116021684D01*
X143287893Y-116058237D01*
X143265322Y-116094885D01*
X143254979Y-116105445D01*
X143226230Y-116132300D01*
X143226230Y-116277484D01*
X143226230Y-116422667D01*
X143370327Y-116566324D01*
X143514423Y-116709982D01*
X143602346Y-116712741D01*
X143644075Y-116714331D01*
X143670167Y-116716653D01*
X143684522Y-116720821D01*
X143691038Y-116727950D01*
X143693566Y-116738818D01*
X143691261Y-116760026D01*
X143683797Y-116770418D01*
X143668900Y-116773951D01*
X143639360Y-116776765D01*
X143600070Y-116778490D01*
X143572652Y-116778850D01*
X143474574Y-116779000D01*
X143316210Y-116619580D01*
X143157846Y-116460161D01*
X143157846Y-116293062D01*
X143157846Y-116125964D01*
X143128538Y-116096656D01*
X143104534Y-116062358D01*
X143100039Y-116027257D01*
X143115061Y-115991775D01*
X143126096Y-115978053D01*
X143161045Y-115950825D01*
X143198281Y-115942806D01*
X143236924Y-115954146D01*
G37*
G36*
X146373004Y-114895135D02*
G01*
X146393145Y-114905444D01*
X146412282Y-114931968D01*
X146417659Y-114942384D01*
X146430149Y-114968734D01*
X146438188Y-114987230D01*
X146439731Y-114991907D01*
X146431695Y-114998067D01*
X146409767Y-115009688D01*
X146378062Y-115024650D01*
X146364596Y-115030643D01*
X146303858Y-115061068D01*
X146234138Y-115102345D01*
X146160116Y-115151361D01*
X146086477Y-115205004D01*
X146017902Y-115260163D01*
X146013169Y-115264210D01*
X145941390Y-115331408D01*
X145864989Y-115412883D01*
X145786927Y-115504906D01*
X145710167Y-115603749D01*
X145637672Y-115705682D01*
X145572402Y-115806976D01*
X145544712Y-115853922D01*
X145482923Y-115962208D01*
X145482923Y-115693191D01*
X145482923Y-115424174D01*
X145543980Y-115365839D01*
X145637215Y-115284483D01*
X145745225Y-115204716D01*
X145869380Y-115125631D01*
X146011047Y-115046321D01*
X146078846Y-115011339D01*
X146165641Y-114968625D01*
X146236800Y-114935959D01*
X146293223Y-114912987D01*
X146335810Y-114899352D01*
X146365462Y-114894700D01*
X146373004Y-114895135D01*
G37*
G36*
X143883272Y-115810889D02*
G01*
X143893199Y-115813702D01*
X143933694Y-115834787D01*
X143960386Y-115868205D01*
X143974412Y-115915565D01*
X143976213Y-115931402D01*
X143973724Y-115985508D01*
X143958198Y-116030684D01*
X143931941Y-116064794D01*
X143897260Y-116085700D01*
X143856461Y-116091265D01*
X143815019Y-116080787D01*
X143778596Y-116054642D01*
X143754776Y-116014516D01*
X143744447Y-115962065D01*
X143744073Y-115948615D01*
X143746086Y-115933280D01*
X143806725Y-115933280D01*
X143808363Y-115967886D01*
X143818760Y-115997168D01*
X143835782Y-116018013D01*
X143857298Y-116027307D01*
X143881174Y-116021935D01*
X143894725Y-116011417D01*
X143905443Y-115989692D01*
X143910129Y-115957253D01*
X143908831Y-115921957D01*
X143901596Y-115891659D01*
X143893909Y-115878557D01*
X143868937Y-115861483D01*
X143844336Y-115863004D01*
X143823308Y-115882385D01*
X143815979Y-115896464D01*
X143806725Y-115933280D01*
X143746086Y-115933280D01*
X143751085Y-115895196D01*
X143770677Y-115852754D01*
X143800683Y-115823249D01*
X143838937Y-115808641D01*
X143883272Y-115810889D01*
G37*
G36*
X141897771Y-114896623D02*
G01*
X141937884Y-114907188D01*
X141989502Y-114925573D01*
X142050051Y-114950580D01*
X142116954Y-114981012D01*
X142187637Y-115015671D01*
X142259524Y-115053361D01*
X142330040Y-115092885D01*
X142396608Y-115133045D01*
X142430038Y-115154594D01*
X142513587Y-115211917D01*
X142590568Y-115268702D01*
X142657828Y-115322488D01*
X142712213Y-115370815D01*
X142730605Y-115389046D01*
X142767403Y-115427119D01*
X142764797Y-115687291D01*
X142762192Y-115947462D01*
X142718421Y-115872327D01*
X142670622Y-115793432D01*
X142617338Y-115710812D01*
X142562575Y-115630420D01*
X142510340Y-115558209D01*
X142483758Y-115523654D01*
X142394740Y-115418828D01*
X142299469Y-115320639D01*
X142200508Y-115231191D01*
X142100421Y-115152588D01*
X142001771Y-115086932D01*
X141907123Y-115036328D01*
X141870750Y-115020689D01*
X141840100Y-115007811D01*
X141818317Y-114997298D01*
X141810094Y-114991415D01*
X141810095Y-114991400D01*
X141816223Y-114972040D01*
X141829659Y-114946405D01*
X141846355Y-114920819D01*
X141862264Y-114901608D01*
X141871739Y-114895074D01*
X141897771Y-114896623D01*
G37*
G36*
X143667652Y-116871497D02*
G01*
X143688789Y-116882514D01*
X143695154Y-116895035D01*
X143688487Y-116906222D01*
X143669778Y-116928941D01*
X143640958Y-116961075D01*
X143603960Y-117000502D01*
X143560717Y-117045103D01*
X143531414Y-117074627D01*
X143478304Y-117127369D01*
X143436873Y-117167654D01*
X143405226Y-117197079D01*
X143381470Y-117217243D01*
X143363711Y-117229743D01*
X143350055Y-117236176D01*
X143338608Y-117238141D01*
X143337576Y-117238154D01*
X143317451Y-117240499D01*
X143305628Y-117251106D01*
X143296341Y-117275330D01*
X143295875Y-117276877D01*
X143283229Y-117305550D01*
X143266606Y-117327542D01*
X143262847Y-117330608D01*
X143228625Y-117343903D01*
X143189233Y-117343801D01*
X143153236Y-117330803D01*
X143143407Y-117323634D01*
X143121765Y-117294328D01*
X143112318Y-117265278D01*
X143110459Y-117241706D01*
X143116128Y-117223527D01*
X143132448Y-117203197D01*
X143142112Y-117193318D01*
X143177697Y-117157733D01*
X143250555Y-117164561D01*
X143323412Y-117171388D01*
X143472861Y-117019155D01*
X143517282Y-116974560D01*
X143557783Y-116935136D01*
X143592177Y-116902908D01*
X143618283Y-116879905D01*
X143633914Y-116868153D01*
X143636751Y-116867056D01*
X143667652Y-116871497D01*
G37*
G36*
X144693154Y-115799399D02*
G01*
X144741092Y-115821166D01*
X144771751Y-115849255D01*
X144797673Y-115894051D01*
X144805022Y-115943413D01*
X144793490Y-115994964D01*
X144791374Y-115999950D01*
X144769421Y-116035280D01*
X144738519Y-116058672D01*
X144695632Y-116071619D01*
X144637726Y-116075615D01*
X144637572Y-116075615D01*
X144571828Y-116075615D01*
X144577883Y-116038980D01*
X144580445Y-116013704D01*
X144582493Y-115974963D01*
X144583486Y-115938846D01*
X144642769Y-115938846D01*
X144642953Y-115980466D01*
X144644216Y-116006308D01*
X144647621Y-116020131D01*
X144654230Y-116025697D01*
X144665108Y-116026764D01*
X144667636Y-116026769D01*
X144691660Y-116020008D01*
X144715603Y-116003653D01*
X144716482Y-116002790D01*
X144735304Y-115972767D01*
X144740628Y-115938152D01*
X144734026Y-115903834D01*
X144717071Y-115874705D01*
X144691337Y-115855655D01*
X144667636Y-115850923D01*
X144655865Y-115851575D01*
X144648556Y-115856040D01*
X144644646Y-115868077D01*
X144643072Y-115891447D01*
X144642770Y-115929908D01*
X144642769Y-115938846D01*
X144583486Y-115938846D01*
X144583762Y-115928830D01*
X144584046Y-115897327D01*
X144584154Y-115792307D01*
X144633313Y-115792307D01*
X144693154Y-115799399D01*
G37*
G36*
X145097655Y-116382190D02*
G01*
X145115708Y-116398749D01*
X145136713Y-116435810D01*
X145140669Y-116473212D01*
X145128682Y-116506880D01*
X145101858Y-116532739D01*
X145076380Y-116543601D01*
X145034758Y-116547585D01*
X145000073Y-116533637D01*
X144977242Y-116511075D01*
X144958494Y-116493507D01*
X144940637Y-116485930D01*
X144940228Y-116485923D01*
X144928344Y-116492582D01*
X144905203Y-116511163D01*
X144873157Y-116539565D01*
X144834558Y-116575691D01*
X144791759Y-116617442D01*
X144783070Y-116626114D01*
X144643141Y-116766306D01*
X144562359Y-116772594D01*
X144506653Y-116776850D01*
X144467514Y-116779063D01*
X144442021Y-116778571D01*
X144427252Y-116774713D01*
X144420285Y-116766826D01*
X144418197Y-116754250D01*
X144418077Y-116739923D01*
X144418077Y-116700846D01*
X144514773Y-116700846D01*
X144611469Y-116700846D01*
X144748244Y-116559192D01*
X144795058Y-116510931D01*
X144830666Y-116475045D01*
X144857289Y-116449713D01*
X144877147Y-116433119D01*
X144892463Y-116423442D01*
X144905457Y-116418863D01*
X144918351Y-116417564D01*
X144921234Y-116417538D01*
X144962966Y-116408405D01*
X144986474Y-116393115D01*
X145023954Y-116371918D01*
X145062326Y-116368334D01*
X145097655Y-116382190D01*
G37*
G36*
X144211810Y-115934960D02*
G01*
X144226368Y-115982657D01*
X144238164Y-116023292D01*
X144246253Y-116053447D01*
X144249690Y-116069701D01*
X144249583Y-116071519D01*
X144238119Y-116075377D01*
X144222968Y-116077847D01*
X144205555Y-116075761D01*
X144195300Y-116061021D01*
X144191797Y-116049731D01*
X144184645Y-116030403D01*
X144172576Y-116020662D01*
X144149189Y-116016305D01*
X144139604Y-116015467D01*
X144112193Y-116014287D01*
X144097584Y-116018757D01*
X144089171Y-116032301D01*
X144085185Y-116043657D01*
X144075191Y-116068979D01*
X144064261Y-116079170D01*
X144047119Y-116078150D01*
X144040948Y-116076518D01*
X144033134Y-116073613D01*
X144028749Y-116068209D01*
X144028262Y-116057358D01*
X144032140Y-116038110D01*
X144040853Y-116007517D01*
X144054870Y-115962630D01*
X144055923Y-115959320D01*
X144117828Y-115959320D01*
X144126569Y-115966902D01*
X144139654Y-115968154D01*
X144158468Y-115963594D01*
X144164077Y-115954957D01*
X144161015Y-115937217D01*
X144153550Y-115911607D01*
X144152621Y-115908899D01*
X144141164Y-115876036D01*
X144128941Y-115909883D01*
X144118848Y-115941558D01*
X144117828Y-115959320D01*
X144055923Y-115959320D01*
X144063216Y-115936404D01*
X144106038Y-115802077D01*
X144138200Y-115802077D01*
X144170363Y-115802077D01*
X144211810Y-115934960D01*
G37*
G36*
X145426714Y-117467184D02*
G01*
X145489871Y-117480172D01*
X145548391Y-117502707D01*
X145598617Y-117531003D01*
X145636147Y-117558113D01*
X145673645Y-117590111D01*
X145708574Y-117624164D01*
X145738395Y-117657437D01*
X145760573Y-117687097D01*
X145772571Y-117710310D01*
X145771851Y-117724242D01*
X145771725Y-117724371D01*
X145760967Y-117725607D01*
X145732326Y-117726775D01*
X145687456Y-117727856D01*
X145628013Y-117728832D01*
X145555652Y-117729685D01*
X145472027Y-117730395D01*
X145378794Y-117730945D01*
X145277607Y-117731316D01*
X145170122Y-117731489D01*
X145135791Y-117731500D01*
X145027162Y-117731406D01*
X144924683Y-117731134D01*
X144829961Y-117730702D01*
X144744603Y-117730125D01*
X144670214Y-117729418D01*
X144608402Y-117728599D01*
X144560773Y-117727684D01*
X144528934Y-117726687D01*
X144514493Y-117725627D01*
X144513822Y-117725262D01*
X144526383Y-117718519D01*
X144554224Y-117706212D01*
X144594288Y-117689534D01*
X144643522Y-117669676D01*
X144698870Y-117647830D01*
X144757277Y-117625187D01*
X144815689Y-117602938D01*
X144871051Y-117582276D01*
X144920308Y-117564392D01*
X144960405Y-117550478D01*
X144970038Y-117547305D01*
X145086952Y-117511763D01*
X145189038Y-117486033D01*
X145278335Y-117470062D01*
X145356881Y-117463797D01*
X145426714Y-117467184D01*
G37*
G36*
X143643820Y-115372285D02*
G01*
X143707752Y-115375388D01*
X143755103Y-115385426D01*
X143787990Y-115403675D01*
X143808535Y-115431410D01*
X143818855Y-115469907D01*
X143819802Y-115478198D01*
X143821122Y-115509527D01*
X143815668Y-115531081D01*
X143800656Y-115552210D01*
X143796301Y-115557164D01*
X143777761Y-115575188D01*
X143758079Y-115585709D01*
X143730209Y-115591624D01*
X143706166Y-115594209D01*
X143644101Y-115599836D01*
X143648728Y-115647985D01*
X143650581Y-115677223D01*
X143647520Y-115693157D01*
X143637536Y-115701801D01*
X143629656Y-115705144D01*
X143612768Y-115711206D01*
X143600363Y-115713089D01*
X143591712Y-115708429D01*
X143586085Y-115694863D01*
X143582754Y-115670028D01*
X143580990Y-115631561D01*
X143580063Y-115577101D01*
X143579686Y-115543192D01*
X143578759Y-115457688D01*
X143647518Y-115457688D01*
X143649971Y-115471144D01*
X143654389Y-115498945D01*
X143656077Y-115519990D01*
X143663906Y-115533613D01*
X143683490Y-115538538D01*
X143708966Y-115534526D01*
X143732057Y-115523100D01*
X143749329Y-115501453D01*
X143752969Y-115475106D01*
X143742046Y-115452338D01*
X143725583Y-115445115D01*
X143698270Y-115440988D01*
X143687094Y-115440615D01*
X143660503Y-115441250D01*
X143648846Y-115445679D01*
X143647518Y-115457688D01*
X143578759Y-115457688D01*
X143577833Y-115372230D01*
X143643820Y-115372285D01*
G37*
G36*
X143763704Y-118967965D02*
G01*
X143782989Y-118970765D01*
X143791273Y-118976942D01*
X143792846Y-118985817D01*
X143795638Y-119004177D01*
X143802959Y-119034529D01*
X143813224Y-119070304D01*
X143813237Y-119070345D01*
X143843116Y-119135451D01*
X143888109Y-119191985D01*
X143944954Y-119238007D01*
X144010387Y-119271577D01*
X144081146Y-119290757D01*
X144153966Y-119293607D01*
X144182532Y-119289816D01*
X144261035Y-119266584D01*
X144327197Y-119228209D01*
X144380989Y-119174721D01*
X144422379Y-119106150D01*
X144450594Y-119025473D01*
X144464192Y-118972192D01*
X144524173Y-118969283D01*
X144555462Y-118968710D01*
X144577163Y-118970116D01*
X144584154Y-118972758D01*
X144581873Y-118984897D01*
X144575935Y-119010122D01*
X144568802Y-119038385D01*
X144535591Y-119132021D01*
X144488161Y-119213921D01*
X144427792Y-119282799D01*
X144355765Y-119337371D01*
X144273364Y-119376351D01*
X144215559Y-119392569D01*
X144164172Y-119401916D01*
X144122431Y-119405021D01*
X144081534Y-119402078D01*
X144047397Y-119396270D01*
X143995483Y-119380880D01*
X143937334Y-119355441D01*
X143880437Y-119323812D01*
X143832281Y-119289850D01*
X143819819Y-119279007D01*
X143764233Y-119216448D01*
X143720279Y-119142174D01*
X143686783Y-119053935D01*
X143671397Y-118994173D01*
X143665474Y-118967307D01*
X143729160Y-118967307D01*
X143763704Y-118967965D01*
G37*
G36*
X144417177Y-115802802D02*
G01*
X144441367Y-115806203D01*
X144458604Y-115814116D01*
X144475173Y-115828378D01*
X144477443Y-115830633D01*
X144500696Y-115864922D01*
X144504685Y-115901071D01*
X144489310Y-115937547D01*
X144484987Y-115943386D01*
X144463974Y-115970099D01*
X144484987Y-116013349D01*
X144499670Y-116045635D01*
X144504558Y-116064435D01*
X144499494Y-116073255D01*
X144484326Y-116075601D01*
X144482250Y-116075615D01*
X144466994Y-116072107D01*
X144453214Y-116059078D01*
X144437457Y-116032770D01*
X144430739Y-116019533D01*
X144413792Y-115989842D01*
X144397272Y-115968309D01*
X144386104Y-115960201D01*
X144376697Y-115961000D01*
X144371567Y-115970683D01*
X144369503Y-115993279D01*
X144369230Y-116016283D01*
X144369230Y-116075615D01*
X144339923Y-116075615D01*
X144310615Y-116075615D01*
X144310615Y-115938846D01*
X144310615Y-115885115D01*
X144369230Y-115885115D01*
X144370750Y-115908034D01*
X144379261Y-115917434D01*
X144400695Y-115919304D01*
X144403079Y-115919307D01*
X144433547Y-115913696D01*
X144446212Y-115901959D01*
X144450714Y-115878199D01*
X144438502Y-115860311D01*
X144412201Y-115851392D01*
X144402937Y-115850923D01*
X144380343Y-115852467D01*
X144371076Y-115861093D01*
X144369234Y-115882788D01*
X144369230Y-115885115D01*
X144310615Y-115885115D01*
X144310615Y-115802077D01*
X144379751Y-115802077D01*
X144417177Y-115802802D01*
G37*
G36*
X146556028Y-115391293D02*
G01*
X146570756Y-115403517D01*
X146595266Y-115427644D01*
X146626397Y-115455997D01*
X146658781Y-115480562D01*
X146683758Y-115495175D01*
X146700031Y-115502739D01*
X146712124Y-115510935D01*
X146721080Y-115522783D01*
X146727938Y-115541304D01*
X146733741Y-115569519D01*
X146739530Y-115610447D01*
X146746346Y-115667109D01*
X146748045Y-115681630D01*
X146760290Y-115835288D01*
X146762459Y-115995184D01*
X146754818Y-116155237D01*
X146737635Y-116309365D01*
X146715027Y-116434377D01*
X146670865Y-116597433D01*
X146611424Y-116755725D01*
X146538171Y-116906381D01*
X146452572Y-117046529D01*
X146356094Y-117173296D01*
X146313307Y-117221191D01*
X146249807Y-117288881D01*
X146229120Y-117265960D01*
X146207844Y-117239741D01*
X146192095Y-117217292D01*
X146185110Y-117205110D01*
X146183011Y-117194140D01*
X146187350Y-117180614D01*
X146199676Y-117160764D01*
X146221540Y-117130823D01*
X146235092Y-117112803D01*
X146326414Y-116983001D01*
X146402120Y-116855808D01*
X146464721Y-116726544D01*
X146516730Y-116590526D01*
X146519047Y-116583615D01*
X146568535Y-116405966D01*
X146600456Y-116222400D01*
X146614845Y-116032250D01*
X146611740Y-115834847D01*
X146591179Y-115629521D01*
X146576924Y-115538307D01*
X146568653Y-115491292D01*
X146560980Y-115449327D01*
X146554827Y-115417365D01*
X146551426Y-115401538D01*
X146550292Y-115391054D01*
X146556028Y-115391293D01*
G37*
G36*
X143734582Y-117147221D02*
G01*
X143765154Y-117168327D01*
X143785947Y-117200707D01*
X143792846Y-117238691D01*
X143790115Y-117267839D01*
X143779077Y-117290235D01*
X143758654Y-117312055D01*
X143724461Y-117344303D01*
X143724461Y-117462190D01*
X143723893Y-117507536D01*
X143722346Y-117544731D01*
X143720053Y-117570028D01*
X143717247Y-117579678D01*
X143717134Y-117579685D01*
X143704117Y-117575149D01*
X143683060Y-117564783D01*
X143682942Y-117564720D01*
X143671225Y-117557774D01*
X143663533Y-117549570D01*
X143659019Y-117536248D01*
X143656836Y-117513953D01*
X143656137Y-117478827D01*
X143656077Y-117442365D01*
X143655922Y-117395234D01*
X143654843Y-117363469D01*
X143651917Y-117342895D01*
X143646219Y-117329339D01*
X143636825Y-117318627D01*
X143626769Y-117309924D01*
X143607484Y-117290030D01*
X143599061Y-117267965D01*
X143597461Y-117241418D01*
X143598014Y-117235521D01*
X143648356Y-117235521D01*
X143655087Y-117257408D01*
X143672638Y-117272572D01*
X143691808Y-117275429D01*
X143715345Y-117266971D01*
X143728310Y-117255250D01*
X143732843Y-117234207D01*
X143723106Y-117215985D01*
X143704369Y-117203636D01*
X143681899Y-117200208D01*
X143660966Y-117208754D01*
X143656246Y-117213526D01*
X143648356Y-117235521D01*
X143598014Y-117235521D01*
X143600548Y-117208479D01*
X143612527Y-117184136D01*
X143626017Y-117169017D01*
X143660832Y-117145820D01*
X143698414Y-117139136D01*
X143734582Y-117147221D01*
G37*
G36*
X145080777Y-116012926D02*
G01*
X145109304Y-116032717D01*
X145112443Y-116035787D01*
X145136499Y-116071149D01*
X145141530Y-116108522D01*
X145127556Y-116145566D01*
X145111226Y-116165508D01*
X145089689Y-116184287D01*
X145069780Y-116191596D01*
X145041653Y-116190784D01*
X145038081Y-116190393D01*
X145012179Y-116188672D01*
X144994012Y-116192894D01*
X144976341Y-116206253D01*
X144957406Y-116225976D01*
X144932385Y-116255201D01*
X144910200Y-116284569D01*
X144901700Y-116297598D01*
X144883299Y-116328748D01*
X144721865Y-116326739D01*
X144560431Y-116324730D01*
X144525906Y-116371134D01*
X144503816Y-116398325D01*
X144485984Y-116412432D01*
X144466914Y-116417302D01*
X144459614Y-116417538D01*
X144436191Y-116414377D01*
X144427980Y-116403714D01*
X144427846Y-116401300D01*
X144435259Y-116373256D01*
X144454697Y-116339992D01*
X144481957Y-116307171D01*
X144512834Y-116280455D01*
X144521850Y-116274667D01*
X144540177Y-116264297D01*
X144556249Y-116257273D01*
X144574108Y-116253144D01*
X144597799Y-116251460D01*
X144631365Y-116251771D01*
X144678851Y-116253627D01*
X144701645Y-116254655D01*
X144836803Y-116260804D01*
X144870782Y-116214613D01*
X144894492Y-116184280D01*
X144918271Y-116156811D01*
X144930073Y-116144739D01*
X144950823Y-116115089D01*
X144955384Y-116092699D01*
X144964266Y-116060097D01*
X144987382Y-116031789D01*
X145019434Y-116012656D01*
X145048192Y-116007230D01*
X145080777Y-116012926D01*
G37*
G36*
X144285986Y-115373730D02*
G01*
X144329920Y-115375747D01*
X144359181Y-115378757D01*
X144378633Y-115383999D01*
X144393140Y-115392713D01*
X144405659Y-115404216D01*
X144422527Y-115424586D01*
X144430341Y-115446616D01*
X144432018Y-115478858D01*
X144431985Y-115481414D01*
X144429599Y-115514441D01*
X144421756Y-115535898D01*
X144405581Y-115553582D01*
X144405286Y-115553836D01*
X144379332Y-115576161D01*
X144403493Y-115628061D01*
X144419564Y-115664784D01*
X144426042Y-115687580D01*
X144422813Y-115699610D01*
X144409762Y-115704034D01*
X144400712Y-115704384D01*
X144385442Y-115702375D01*
X144373480Y-115693743D01*
X144361447Y-115674583D01*
X144346076Y-115641255D01*
X144323246Y-115597751D01*
X144301131Y-115573630D01*
X144279791Y-115568948D01*
X144271626Y-115572446D01*
X144266538Y-115584681D01*
X144262978Y-115610608D01*
X144261769Y-115641461D01*
X144261769Y-115704384D01*
X144227577Y-115704384D01*
X144193384Y-115704384D01*
X144193384Y-115537364D01*
X144193384Y-115528538D01*
X144261769Y-115528538D01*
X144296603Y-115528538D01*
X144325898Y-115525727D01*
X144349387Y-115518911D01*
X144350334Y-115518425D01*
X144365337Y-115500649D01*
X144368507Y-115474594D01*
X144359589Y-115447722D01*
X144353062Y-115438942D01*
X144327917Y-115424688D01*
X144299332Y-115421077D01*
X144261769Y-115421077D01*
X144261769Y-115474807D01*
X144261769Y-115528538D01*
X144193384Y-115528538D01*
X144193384Y-115474807D01*
X144193384Y-115370344D01*
X144285986Y-115373730D01*
G37*
G36*
X143937420Y-117837945D02*
G01*
X143959099Y-117852114D01*
X143988847Y-117875312D01*
X144020772Y-117902902D01*
X144025523Y-117907262D01*
X144056326Y-117934690D01*
X144078818Y-117950898D01*
X144098252Y-117958731D01*
X144119881Y-117961030D01*
X144124936Y-117961077D01*
X144148751Y-117959342D01*
X144169137Y-117952153D01*
X144191853Y-117936528D01*
X144220061Y-117911871D01*
X144256115Y-117881079D01*
X144289155Y-117856765D01*
X144315922Y-117841015D01*
X144333159Y-117835914D01*
X144336618Y-117837285D01*
X144337473Y-117848616D01*
X144334924Y-117873215D01*
X144330825Y-117898414D01*
X144322939Y-117965384D01*
X144321155Y-118041226D01*
X144325358Y-118116454D01*
X144334205Y-118176000D01*
X144340773Y-118208347D01*
X144345037Y-118231820D01*
X144346073Y-118241268D01*
X144336682Y-118239653D01*
X144313337Y-118233754D01*
X144280829Y-118224791D01*
X144276282Y-118223494D01*
X144239134Y-118214181D01*
X144203670Y-118208894D01*
X144163242Y-118207067D01*
X144111197Y-118208138D01*
X144100577Y-118208573D01*
X144046406Y-118212299D01*
X143997921Y-118218220D01*
X143960874Y-118225563D01*
X143950368Y-118228790D01*
X143920509Y-118239411D01*
X143905210Y-118242897D01*
X143900645Y-118238718D01*
X143902985Y-118226347D01*
X143904066Y-118222404D01*
X143916798Y-118158823D01*
X143924482Y-118083540D01*
X143926936Y-118003777D01*
X143923976Y-117926755D01*
X143915420Y-117859695D01*
X143913491Y-117850241D01*
X143907443Y-117822443D01*
X143937420Y-117837945D01*
G37*
G36*
X141686392Y-115446176D02*
G01*
X141668156Y-115543555D01*
X141654860Y-115640089D01*
X141646051Y-115740883D01*
X141641277Y-115851039D01*
X141640064Y-115968154D01*
X141640566Y-116047991D01*
X141641884Y-116112370D01*
X141644274Y-116165365D01*
X141647996Y-116211049D01*
X141653308Y-116253494D01*
X141660467Y-116296773D01*
X141661112Y-116300307D01*
X141705090Y-116490378D01*
X141765509Y-116670079D01*
X141842603Y-116839960D01*
X141936611Y-117000569D01*
X142004299Y-117096804D01*
X142031341Y-117133260D01*
X142053429Y-117163947D01*
X142068241Y-117185576D01*
X142073461Y-117194793D01*
X142068069Y-117206419D01*
X142054666Y-117226845D01*
X142037415Y-117250486D01*
X142020476Y-117271757D01*
X142008012Y-117285071D01*
X142004757Y-117287000D01*
X141995115Y-117280370D01*
X141976570Y-117263052D01*
X141954842Y-117240596D01*
X141840929Y-117104738D01*
X141743167Y-116959385D01*
X141661290Y-116803921D01*
X141595035Y-116637731D01*
X141544136Y-116460199D01*
X141508329Y-116270711D01*
X141496248Y-116173640D01*
X141491447Y-116106082D01*
X141489259Y-116024684D01*
X141489541Y-115934948D01*
X141492148Y-115842376D01*
X141496933Y-115752470D01*
X141503752Y-115670734D01*
X141511071Y-115611577D01*
X141517276Y-115569948D01*
X141522250Y-115535861D01*
X141525356Y-115513725D01*
X141526074Y-115507779D01*
X141534712Y-115501758D01*
X141554645Y-115496021D01*
X141575140Y-115486793D01*
X141603821Y-115467476D01*
X141635152Y-115441888D01*
X141641362Y-115436249D01*
X141699817Y-115382129D01*
X141686392Y-115446176D01*
G37*
G36*
X143319772Y-115368700D02*
G01*
X143356906Y-115385720D01*
X143382303Y-115410979D01*
X143392279Y-115441933D01*
X143392307Y-115443719D01*
X143384477Y-115457166D01*
X143365925Y-115462696D01*
X143344058Y-115459675D01*
X143327765Y-115449232D01*
X143299101Y-115428183D01*
X143269149Y-115426399D01*
X143250489Y-115434940D01*
X143234508Y-115450068D01*
X143234280Y-115465575D01*
X143250740Y-115482938D01*
X143284818Y-115503628D01*
X143298287Y-115510540D01*
X143344609Y-115535416D01*
X143375272Y-115556966D01*
X143393113Y-115578155D01*
X143400972Y-115601948D01*
X143402077Y-115618916D01*
X143397265Y-115651751D01*
X143379842Y-115678971D01*
X143373520Y-115685597D01*
X143352906Y-115703083D01*
X143331387Y-115711581D01*
X143300525Y-115714075D01*
X143292924Y-115714117D01*
X143240156Y-115707787D01*
X143209758Y-115695101D01*
X143179512Y-115671754D01*
X143162775Y-115648431D01*
X143160508Y-115628116D01*
X143173671Y-115613793D01*
X143182545Y-115610634D01*
X143204505Y-115610294D01*
X143225042Y-115623944D01*
X143230925Y-115629987D01*
X143257648Y-115648867D01*
X143287564Y-115655548D01*
X143314011Y-115649241D01*
X143323819Y-115641009D01*
X143331808Y-115622368D01*
X143323107Y-115604198D01*
X143296732Y-115585273D01*
X143267870Y-115571201D01*
X143221210Y-115548244D01*
X143190851Y-115526461D01*
X143173988Y-115502943D01*
X143167817Y-115474781D01*
X143167615Y-115467243D01*
X143171143Y-115438128D01*
X143184485Y-115413707D01*
X143200830Y-115395677D01*
X143226456Y-115373826D01*
X143250829Y-115364195D01*
X143274585Y-115362461D01*
X143319772Y-115368700D01*
G37*
G36*
X144679132Y-117857159D02*
G01*
X144672533Y-117878761D01*
X144667086Y-117896687D01*
X144656504Y-117951222D01*
X144653138Y-118015900D01*
X144656971Y-118082713D01*
X144667606Y-118142197D01*
X144698530Y-118223665D01*
X144746161Y-118297452D01*
X144808360Y-118361038D01*
X144882990Y-118411900D01*
X144906538Y-118423857D01*
X144975134Y-118447260D01*
X145052138Y-118458594D01*
X145132066Y-118458085D01*
X145209438Y-118445955D01*
X145278770Y-118422430D01*
X145307077Y-118407466D01*
X145356132Y-118371550D01*
X145404501Y-118325721D01*
X145445464Y-118276769D01*
X145463116Y-118249738D01*
X145493693Y-118181059D01*
X145513656Y-118103643D01*
X145522211Y-118023652D01*
X145518563Y-117947250D01*
X145508302Y-117899129D01*
X145494604Y-117853615D01*
X145600511Y-117853615D01*
X145706418Y-117853615D01*
X145714223Y-117900019D01*
X145719663Y-117950627D01*
X145721484Y-118010619D01*
X145719851Y-118072516D01*
X145714927Y-118128838D01*
X145708400Y-118166230D01*
X145685508Y-118237155D01*
X145651430Y-118312346D01*
X145610103Y-118383696D01*
X145586400Y-118417455D01*
X145514711Y-118496542D01*
X145431495Y-118561400D01*
X145339206Y-118611169D01*
X145240299Y-118644989D01*
X145137228Y-118662002D01*
X145032447Y-118661347D01*
X144937558Y-118644641D01*
X144834585Y-118608020D01*
X144739425Y-118555132D01*
X144654082Y-118487972D01*
X144580562Y-118408535D01*
X144520867Y-118318817D01*
X144477004Y-118220811D01*
X144462185Y-118171505D01*
X144452874Y-118117658D01*
X144448290Y-118053220D01*
X144448570Y-117986593D01*
X144453852Y-117926178D01*
X144457835Y-117903539D01*
X144468286Y-117854809D01*
X144575086Y-117851770D01*
X144618102Y-117850545D01*
X144652809Y-117849557D01*
X144675260Y-117848917D01*
X144681760Y-117848730D01*
X144679132Y-117857159D01*
G37*
G36*
X143564802Y-115809750D02*
G01*
X143609727Y-115812191D01*
X143639175Y-115817818D01*
X143657054Y-115827389D01*
X143657431Y-115827725D01*
X143670558Y-115849747D01*
X143675398Y-115878845D01*
X143671233Y-115905809D01*
X143664394Y-115916852D01*
X143659018Y-115930074D01*
X143667381Y-115949694D01*
X143669278Y-115952654D01*
X143682700Y-115985326D01*
X143683584Y-116018442D01*
X143672004Y-116044913D01*
X143668288Y-116048707D01*
X143643621Y-116063454D01*
X143609492Y-116074873D01*
X143570938Y-116082418D01*
X143532999Y-116085543D01*
X143500712Y-116083700D01*
X143479115Y-116076345D01*
X143473644Y-116069818D01*
X143471716Y-116054399D01*
X143471091Y-116025014D01*
X143471571Y-115986303D01*
X143471579Y-115986064D01*
X143538846Y-115986064D01*
X143540938Y-116008438D01*
X143545359Y-116020256D01*
X143562736Y-116026425D01*
X143586348Y-116024406D01*
X143605163Y-116015158D01*
X143605277Y-116015046D01*
X143617894Y-115993618D01*
X143613026Y-115975229D01*
X143592722Y-115962595D01*
X143562470Y-115958384D01*
X143545196Y-115961973D01*
X143539199Y-115976609D01*
X143538846Y-115986064D01*
X143471579Y-115986064D01*
X143472963Y-115942909D01*
X143475071Y-115899472D01*
X143475754Y-115889381D01*
X143538846Y-115889381D01*
X143541492Y-115910757D01*
X143552178Y-115918575D01*
X143560827Y-115919158D01*
X143584503Y-115915452D01*
X143595980Y-115910660D01*
X143607443Y-115895455D01*
X143603209Y-115878909D01*
X143586007Y-115866181D01*
X143570516Y-115862515D01*
X143548804Y-115862100D01*
X143540273Y-115870153D01*
X143538846Y-115889381D01*
X143475754Y-115889381D01*
X143477699Y-115860633D01*
X143480652Y-115831034D01*
X143483734Y-115815314D01*
X143484407Y-115814182D01*
X143496381Y-115811522D01*
X143522629Y-115809910D01*
X143557900Y-115809636D01*
X143564802Y-115809750D01*
G37*
G36*
X142216004Y-120285266D02*
G01*
X142333059Y-120382349D01*
X142455174Y-120464310D01*
X142552665Y-120519459D01*
X142663338Y-120575809D01*
X142781228Y-120630658D01*
X142900373Y-120681301D01*
X143014808Y-120725034D01*
X143077250Y-120746355D01*
X143124245Y-120762774D01*
X143157608Y-120777001D01*
X143175185Y-120788056D01*
X143177384Y-120791989D01*
X143169862Y-120818951D01*
X143150158Y-120851019D01*
X143122569Y-120882800D01*
X143091389Y-120908898D01*
X143077735Y-120917141D01*
X143042904Y-120927620D01*
X142999847Y-120930334D01*
X142958245Y-120925285D01*
X142935111Y-120917102D01*
X142903534Y-120894486D01*
X142869675Y-120860684D01*
X142839661Y-120822142D01*
X142829832Y-120806365D01*
X142815894Y-120785706D01*
X142804494Y-120775021D01*
X142802850Y-120774615D01*
X142792096Y-120780876D01*
X142771168Y-120797553D01*
X142743946Y-120821487D01*
X142733868Y-120830788D01*
X142672808Y-120881101D01*
X142611084Y-120919509D01*
X142551281Y-120945023D01*
X142495984Y-120956654D01*
X142447779Y-120953411D01*
X142429856Y-120947189D01*
X142398592Y-120926230D01*
X142365732Y-120893628D01*
X142337065Y-120855828D01*
X142320919Y-120825885D01*
X142312438Y-120797797D01*
X142304981Y-120759831D01*
X142301270Y-120730788D01*
X142297139Y-120696541D01*
X142292183Y-120669495D01*
X142288135Y-120656981D01*
X142278437Y-120654491D01*
X142258051Y-120663476D01*
X142225283Y-120684735D01*
X142217829Y-120690004D01*
X142141652Y-120738844D01*
X142074180Y-120770357D01*
X142015181Y-120784593D01*
X141964423Y-120781600D01*
X141921675Y-120761429D01*
X141913205Y-120754588D01*
X141889142Y-120727814D01*
X141870863Y-120697694D01*
X141867676Y-120689664D01*
X141860002Y-120642509D01*
X141863096Y-120586403D01*
X141876112Y-120528108D01*
X141893583Y-120483428D01*
X141921745Y-120438026D01*
X141962517Y-120388490D01*
X142011153Y-120339655D01*
X142062904Y-120296360D01*
X142105072Y-120267949D01*
X142161105Y-120235092D01*
X142216004Y-120285266D01*
G37*
G36*
X141487571Y-116914705D02*
G01*
X141500209Y-116934793D01*
X141517520Y-116964785D01*
X141526616Y-116981230D01*
X141626627Y-117144532D01*
X141744839Y-117301358D01*
X141831650Y-117400090D01*
X141887801Y-117460403D01*
X141819969Y-117591067D01*
X141773197Y-117687979D01*
X141733964Y-117783221D01*
X141702917Y-117874371D01*
X141680705Y-117959008D01*
X141667973Y-118034712D01*
X141665371Y-118099061D01*
X141671975Y-118144378D01*
X141686828Y-118179763D01*
X141709644Y-118214617D01*
X141735794Y-118242998D01*
X141760649Y-118258965D01*
X141761447Y-118259229D01*
X141776920Y-118268213D01*
X141780384Y-118274817D01*
X141777234Y-118285818D01*
X141768573Y-118311837D01*
X141755586Y-118349539D01*
X141739457Y-118395588D01*
X141721370Y-118446647D01*
X141702510Y-118499379D01*
X141684062Y-118550449D01*
X141667209Y-118596520D01*
X141653137Y-118634256D01*
X141648129Y-118647365D01*
X141640421Y-118660643D01*
X141630147Y-118661735D01*
X141614640Y-118649343D01*
X141591231Y-118622168D01*
X141587928Y-118618057D01*
X141530970Y-118551783D01*
X141477954Y-118499962D01*
X141430239Y-118463804D01*
X141394766Y-118446256D01*
X141346669Y-118435634D01*
X141284078Y-118430698D01*
X141211214Y-118431523D01*
X141132299Y-118438184D01*
X141109136Y-118441183D01*
X141027864Y-118446257D01*
X140957335Y-118437838D01*
X140898689Y-118416631D01*
X140853065Y-118383337D01*
X140821605Y-118338658D01*
X140805447Y-118283298D01*
X140803461Y-118252742D01*
X140807266Y-118210771D01*
X140819969Y-118170621D01*
X140843506Y-118128398D01*
X140879812Y-118080208D01*
X140902280Y-118053884D01*
X140935582Y-118014482D01*
X140967504Y-117973323D01*
X140998818Y-117928925D01*
X141030296Y-117879810D01*
X141062710Y-117824497D01*
X141096834Y-117761506D01*
X141133438Y-117689358D01*
X141173296Y-117606573D01*
X141217180Y-117511670D01*
X141265862Y-117403169D01*
X141320114Y-117279592D01*
X141380709Y-117139457D01*
X141386475Y-117126039D01*
X141412397Y-117065864D01*
X141435766Y-117011938D01*
X141455482Y-116966767D01*
X141470448Y-116932862D01*
X141479566Y-116912729D01*
X141481858Y-116908193D01*
X141487571Y-116914705D01*
G37*
G36*
X143676904Y-117845934D02*
G01*
X143778192Y-117848730D01*
X143789461Y-117902461D01*
X143801376Y-118005280D01*
X143795105Y-118108030D01*
X143771888Y-118208525D01*
X143732963Y-118304575D01*
X143679567Y-118393991D01*
X143612941Y-118474586D01*
X143534320Y-118544171D01*
X143444945Y-118600557D01*
X143377409Y-118630715D01*
X143348048Y-118639817D01*
X143308764Y-118649421D01*
X143264764Y-118658567D01*
X143221253Y-118666293D01*
X143183438Y-118671639D01*
X143156526Y-118673643D01*
X143148333Y-118672992D01*
X143136678Y-118671183D01*
X143111365Y-118667692D01*
X143081384Y-118663732D01*
X143033340Y-118656186D01*
X142991711Y-118645961D01*
X142950050Y-118630890D01*
X142901911Y-118608804D01*
X142869654Y-118592530D01*
X142784396Y-118538075D01*
X142707434Y-118467818D01*
X142641132Y-118384578D01*
X142587856Y-118291168D01*
X142560815Y-118224846D01*
X142549357Y-118180249D01*
X142540662Y-118123982D01*
X142535071Y-118061975D01*
X142532927Y-118000156D01*
X142534572Y-117944454D01*
X142540346Y-117900798D01*
X142541796Y-117894875D01*
X142552907Y-117853615D01*
X142655765Y-117853615D01*
X142701430Y-117853751D01*
X142730792Y-117854655D01*
X142747088Y-117857069D01*
X142753553Y-117861736D01*
X142753423Y-117869397D01*
X142751573Y-117875596D01*
X142732671Y-117964486D01*
X142731276Y-118054992D01*
X142746678Y-118143726D01*
X142778163Y-118227302D01*
X142825020Y-118302330D01*
X142846589Y-118327766D01*
X142908487Y-118384099D01*
X142976202Y-118423956D01*
X143052187Y-118448274D01*
X143138895Y-118457988D01*
X143187146Y-118457656D01*
X143234289Y-118455074D01*
X143269136Y-118450657D01*
X143298931Y-118442685D01*
X143330915Y-118429440D01*
X143355055Y-118417810D01*
X143433297Y-118368463D01*
X143499333Y-118304490D01*
X143551165Y-118227923D01*
X143561301Y-118207833D01*
X143574942Y-118177824D01*
X143583911Y-118152919D01*
X143589183Y-118127566D01*
X143591732Y-118096214D01*
X143592529Y-118053310D01*
X143592577Y-118029461D01*
X143591835Y-117980427D01*
X143589829Y-117934880D01*
X143586885Y-117898567D01*
X143584096Y-117880126D01*
X143575615Y-117843137D01*
X143676904Y-117845934D01*
G37*
G36*
X146772107Y-116924224D02*
G01*
X146783214Y-116947558D01*
X146799295Y-116982729D01*
X146818951Y-117026690D01*
X146831422Y-117054980D01*
X146895169Y-117199785D01*
X146952166Y-117327953D01*
X147003148Y-117440897D01*
X147048850Y-117540030D01*
X147090008Y-117626762D01*
X147127356Y-117702506D01*
X147161630Y-117768674D01*
X147193563Y-117826678D01*
X147223893Y-117877929D01*
X147253353Y-117923840D01*
X147282678Y-117965823D01*
X147312604Y-118005290D01*
X147343865Y-118043652D01*
X147349704Y-118050564D01*
X147388772Y-118098541D01*
X147415964Y-118137022D01*
X147433735Y-118169794D01*
X147442663Y-118193920D01*
X147452814Y-118256153D01*
X147444638Y-118312109D01*
X147418356Y-118361092D01*
X147377089Y-118400340D01*
X147330962Y-118426253D01*
X147277301Y-118441433D01*
X147212930Y-118446402D01*
X147134670Y-118441681D01*
X147129038Y-118441053D01*
X147041684Y-118432506D01*
X146969893Y-118429733D01*
X146910212Y-118434018D01*
X146859188Y-118446650D01*
X146813368Y-118468916D01*
X146769298Y-118502102D01*
X146723525Y-118547495D01*
X146672597Y-118606383D01*
X146666900Y-118613291D01*
X146644633Y-118639064D01*
X146626686Y-118657447D01*
X146616944Y-118664461D01*
X146616943Y-118664461D01*
X146610721Y-118655823D01*
X146599896Y-118632404D01*
X146586081Y-118597947D01*
X146573211Y-118562837D01*
X146553266Y-118507625D01*
X146530377Y-118446323D01*
X146508336Y-118389023D01*
X146499956Y-118367859D01*
X146462538Y-118274507D01*
X146501135Y-118248964D01*
X146535800Y-118217333D01*
X146563545Y-118171384D01*
X146564642Y-118169012D01*
X146577276Y-118139013D01*
X146584091Y-118113516D01*
X146586146Y-118085120D01*
X146584495Y-118046423D01*
X146583710Y-118035397D01*
X146571750Y-117953888D01*
X146547852Y-117861900D01*
X146513397Y-117763253D01*
X146469765Y-117661765D01*
X146418339Y-117561252D01*
X146401548Y-117531774D01*
X146360009Y-117460650D01*
X146418212Y-117400690D01*
X146519286Y-117289903D01*
X146605411Y-117180447D01*
X146680184Y-117067501D01*
X146723569Y-116991480D01*
X146742071Y-116957748D01*
X146756929Y-116931752D01*
X146765885Y-116917394D01*
X146767376Y-116915769D01*
X146772107Y-116924224D01*
G37*
G36*
X146116437Y-120252025D02*
G01*
X146140984Y-120264862D01*
X146146100Y-120267775D01*
X146193381Y-120299889D01*
X146242557Y-120341911D01*
X146289046Y-120389137D01*
X146328268Y-120436858D01*
X146355641Y-120480370D01*
X146358170Y-120485647D01*
X146377628Y-120540869D01*
X146388243Y-120598902D01*
X146389222Y-120653034D01*
X146382323Y-120689664D01*
X146367463Y-120718215D01*
X146344240Y-120747341D01*
X146335608Y-120755629D01*
X146314292Y-120772821D01*
X146295702Y-120781541D01*
X146272169Y-120783977D01*
X146240955Y-120782639D01*
X146188012Y-120774453D01*
X146135377Y-120755664D01*
X146078788Y-120724413D01*
X146029240Y-120690247D01*
X145999995Y-120670044D01*
X145976589Y-120656318D01*
X145963460Y-120651626D01*
X145962616Y-120651881D01*
X145957744Y-120663414D01*
X145952694Y-120688824D01*
X145948747Y-120720826D01*
X145935525Y-120792177D01*
X145911192Y-120852871D01*
X145877414Y-120901318D01*
X145835858Y-120935926D01*
X145788190Y-120955103D01*
X145736078Y-120957259D01*
X145707615Y-120951075D01*
X145650048Y-120927022D01*
X145589080Y-120890492D01*
X145531470Y-120845699D01*
X145516574Y-120831975D01*
X145488044Y-120805767D01*
X145464000Y-120785845D01*
X145448413Y-120775424D01*
X145445709Y-120774615D01*
X145434066Y-120782473D01*
X145420650Y-120801609D01*
X145419491Y-120803791D01*
X145395900Y-120840494D01*
X145365153Y-120876571D01*
X145333233Y-120905495D01*
X145315881Y-120916768D01*
X145274298Y-120929216D01*
X145226557Y-120930061D01*
X145181415Y-120919758D01*
X145159541Y-120908631D01*
X145140169Y-120891247D01*
X145119411Y-120866018D01*
X145100277Y-120837717D01*
X145085776Y-120811120D01*
X145078918Y-120791000D01*
X145080451Y-120783159D01*
X145091914Y-120777900D01*
X145118105Y-120768084D01*
X145155143Y-120755108D01*
X145199148Y-120740372D01*
X145199615Y-120740219D01*
X145306585Y-120702046D01*
X145416791Y-120657018D01*
X145527183Y-120606752D01*
X145634714Y-120552869D01*
X145736336Y-120496989D01*
X145829001Y-120440730D01*
X145909660Y-120385713D01*
X145975265Y-120333556D01*
X145989770Y-120320392D01*
X146028228Y-120284804D01*
X146056344Y-120261445D01*
X146077898Y-120249044D01*
X146096669Y-120246328D01*
X146116437Y-120252025D01*
G37*
G36*
X144253407Y-115127404D02*
G01*
X144384035Y-115127602D01*
X144511705Y-115127934D01*
X144634917Y-115128402D01*
X144752170Y-115129005D01*
X144861967Y-115129743D01*
X144962805Y-115130617D01*
X145053187Y-115131625D01*
X145131612Y-115132770D01*
X145196581Y-115134049D01*
X145246593Y-115135464D01*
X145280149Y-115137014D01*
X145295749Y-115138700D01*
X145296056Y-115138796D01*
X145320477Y-115151486D01*
X145336398Y-115167112D01*
X145336590Y-115167462D01*
X145338181Y-115180246D01*
X145339640Y-115212096D01*
X145340963Y-115262539D01*
X145342145Y-115331104D01*
X145343183Y-115417318D01*
X145344073Y-115520710D01*
X145344810Y-115640806D01*
X145345391Y-115777135D01*
X145345811Y-115929224D01*
X145346067Y-116096602D01*
X145346153Y-116278796D01*
X145346154Y-116280127D01*
X145346142Y-116449948D01*
X145346095Y-116601291D01*
X145345997Y-116735216D01*
X145345830Y-116852784D01*
X145345580Y-116955053D01*
X145345228Y-117043085D01*
X145344758Y-117117939D01*
X145344155Y-117180676D01*
X145343400Y-117232356D01*
X145342479Y-117274038D01*
X145341373Y-117306784D01*
X145340067Y-117331654D01*
X145338544Y-117349707D01*
X145336788Y-117362003D01*
X145334781Y-117369604D01*
X145332508Y-117373568D01*
X145329952Y-117374957D01*
X145329057Y-117375030D01*
X145308213Y-117376660D01*
X145279540Y-117380514D01*
X145275327Y-117381193D01*
X145238692Y-117387248D01*
X145238692Y-116311355D01*
X145238692Y-115235461D01*
X144120115Y-115235461D01*
X143001538Y-115235461D01*
X143001538Y-116310077D01*
X143001526Y-116478224D01*
X143001478Y-116627901D01*
X143001378Y-116760176D01*
X143001209Y-116876118D01*
X143000953Y-116976794D01*
X143000593Y-117063274D01*
X143000113Y-117136624D01*
X142999495Y-117197915D01*
X142998722Y-117248213D01*
X142997778Y-117288587D01*
X142996645Y-117320106D01*
X142995306Y-117343838D01*
X142993745Y-117360851D01*
X142991944Y-117372213D01*
X142989886Y-117378992D01*
X142987555Y-117382258D01*
X142984932Y-117383078D01*
X142984442Y-117383050D01*
X142963450Y-117380952D01*
X142934605Y-117377982D01*
X142930711Y-117377575D01*
X142894077Y-117373743D01*
X142894077Y-116289463D01*
X142894060Y-116116916D01*
X142894046Y-115962844D01*
X142894090Y-115826186D01*
X142894248Y-115705878D01*
X142894574Y-115600859D01*
X142895124Y-115510065D01*
X142895954Y-115432434D01*
X142897117Y-115366903D01*
X142898670Y-115312410D01*
X142900667Y-115267892D01*
X142903164Y-115232287D01*
X142906217Y-115204532D01*
X142909879Y-115183564D01*
X142914207Y-115168321D01*
X142919256Y-115157740D01*
X142925080Y-115150759D01*
X142931736Y-115146316D01*
X142939277Y-115143346D01*
X142947760Y-115140789D01*
X142953853Y-115138828D01*
X142968423Y-115137135D01*
X143001032Y-115135576D01*
X143050179Y-115134152D01*
X143114365Y-115132864D01*
X143192090Y-115131710D01*
X143281854Y-115130691D01*
X143382158Y-115129808D01*
X143491501Y-115129059D01*
X143608384Y-115128446D01*
X143731307Y-115127967D01*
X143858771Y-115127624D01*
X143989275Y-115127415D01*
X144121321Y-115127342D01*
X144253407Y-115127404D01*
G37*
G36*
X144271162Y-112053541D02*
G01*
X144429018Y-112079475D01*
X144584068Y-112123872D01*
X144734826Y-112186832D01*
X144735577Y-112187198D01*
X144844536Y-112245398D01*
X144940586Y-112308117D01*
X145030358Y-112379973D01*
X145085920Y-112431283D01*
X145168832Y-112515343D01*
X145241059Y-112597622D01*
X145303818Y-112680618D01*
X145358326Y-112766824D01*
X145405800Y-112858736D01*
X145447455Y-112958850D01*
X145484509Y-113069660D01*
X145518178Y-113193663D01*
X145549678Y-113333353D01*
X145566289Y-113416572D01*
X145598830Y-113576551D01*
X145631579Y-113718061D01*
X145665009Y-113842166D01*
X145699591Y-113949933D01*
X145735799Y-114042429D01*
X145774104Y-114120719D01*
X145814978Y-114185870D01*
X145858894Y-114238948D01*
X145906324Y-114281020D01*
X145957740Y-114313151D01*
X145964949Y-114316755D01*
X146023156Y-114339491D01*
X146084384Y-114351638D01*
X146151169Y-114353037D01*
X146226046Y-114343529D01*
X146311554Y-114322958D01*
X146410227Y-114291165D01*
X146417499Y-114288585D01*
X146537152Y-114252970D01*
X146648683Y-114234804D01*
X146753200Y-114234313D01*
X146851809Y-114251724D01*
X146945618Y-114287263D01*
X147035735Y-114341159D01*
X147123266Y-114413638D01*
X147148577Y-114438421D01*
X147223377Y-114523020D01*
X147287239Y-114615052D01*
X147341844Y-114717581D01*
X147388874Y-114833670D01*
X147421127Y-114934723D01*
X147447078Y-115039478D01*
X147460379Y-115130023D01*
X147461050Y-115206219D01*
X147449113Y-115267929D01*
X147424590Y-115315017D01*
X147387503Y-115347345D01*
X147353952Y-115361153D01*
X147309363Y-115367350D01*
X147263320Y-115360681D01*
X147213538Y-115340225D01*
X147157732Y-115305060D01*
X147097582Y-115257633D01*
X147068402Y-115233733D01*
X147044578Y-115215732D01*
X147030200Y-115206674D01*
X147028390Y-115206154D01*
X147017881Y-115213163D01*
X147000482Y-115231026D01*
X146989617Y-115243914D01*
X146952809Y-115282351D01*
X146911780Y-115313277D01*
X146871202Y-115333824D01*
X146835747Y-115341126D01*
X146831480Y-115340930D01*
X146804108Y-115332808D01*
X146780815Y-115312137D01*
X146760114Y-115276824D01*
X146740521Y-115224774D01*
X146734070Y-115203652D01*
X146704416Y-115104261D01*
X146678385Y-115021634D01*
X146655049Y-114953536D01*
X146633484Y-114897729D01*
X146612764Y-114851977D01*
X146591963Y-114814041D01*
X146570154Y-114781687D01*
X146548308Y-114754815D01*
X146509722Y-114717209D01*
X146468405Y-114690318D01*
X146422679Y-114674266D01*
X146370860Y-114669179D01*
X146311267Y-114675179D01*
X146242220Y-114692393D01*
X146162038Y-114720942D01*
X146069038Y-114760953D01*
X145995807Y-114795653D01*
X145892844Y-114847858D01*
X145794894Y-114901363D01*
X145705328Y-114954183D01*
X145627517Y-115004333D01*
X145566430Y-115048572D01*
X145529826Y-115077112D01*
X145505101Y-115094755D01*
X145488531Y-115102362D01*
X145476392Y-115100796D01*
X145464959Y-115090919D01*
X145451769Y-115075119D01*
X145423431Y-115047191D01*
X145389816Y-115022416D01*
X145381843Y-115017812D01*
X145341269Y-114996115D01*
X144125000Y-114996115D01*
X142908730Y-114996115D01*
X142863039Y-115022975D01*
X142831248Y-115044954D01*
X142802758Y-115070046D01*
X142792873Y-115081108D01*
X142768398Y-115112381D01*
X142711564Y-115068086D01*
X142626806Y-115005734D01*
X142535151Y-114944920D01*
X142439264Y-114886961D01*
X142341810Y-114833175D01*
X142245452Y-114784880D01*
X142152855Y-114743395D01*
X142066683Y-114710038D01*
X141989600Y-114686126D01*
X141924272Y-114672979D01*
X141910008Y-114671522D01*
X141847683Y-114671226D01*
X141796652Y-114682646D01*
X141751127Y-114708006D01*
X141705322Y-114749532D01*
X141704245Y-114750667D01*
X141678612Y-114779648D01*
X141656150Y-114809941D01*
X141635766Y-114844077D01*
X141616363Y-114884587D01*
X141596846Y-114934000D01*
X141576119Y-114994848D01*
X141553087Y-115069659D01*
X141526761Y-115160591D01*
X141508585Y-115221870D01*
X141493156Y-115266832D01*
X141479183Y-115298279D01*
X141465378Y-115319012D01*
X141450452Y-115331833D01*
X141447101Y-115333758D01*
X141417222Y-115341788D01*
X141383449Y-115334872D01*
X141344037Y-115312282D01*
X141297245Y-115273287D01*
X141292820Y-115269144D01*
X141263338Y-115241825D01*
X141239309Y-115220482D01*
X141224129Y-115208084D01*
X141220794Y-115206154D01*
X141211523Y-115212030D01*
X141190907Y-115227825D01*
X141162472Y-115250784D01*
X141143828Y-115266263D01*
X141074681Y-115317918D01*
X141011818Y-115351794D01*
X140955523Y-115367787D01*
X140906084Y-115365794D01*
X140886015Y-115358942D01*
X140847580Y-115332322D01*
X140815188Y-115292549D01*
X140793933Y-115245985D01*
X140793028Y-115242763D01*
X140787227Y-115197518D01*
X140789255Y-115138290D01*
X140798312Y-115068625D01*
X140813600Y-114992070D01*
X140834317Y-114912171D01*
X140859663Y-114832474D01*
X140888840Y-114756526D01*
X140915933Y-114697807D01*
X140982878Y-114583011D01*
X141059781Y-114482884D01*
X141145649Y-114398257D01*
X141239486Y-114329961D01*
X141340300Y-114278826D01*
X141447096Y-114245680D01*
X141460587Y-114242888D01*
X141518470Y-114234275D01*
X141575408Y-114232097D01*
X141635056Y-114236851D01*
X141701067Y-114249032D01*
X141777097Y-114269135D01*
X141866799Y-114297655D01*
X141868307Y-114298163D01*
X141926619Y-114317536D01*
X141971075Y-114331302D01*
X142006226Y-114340416D01*
X142036619Y-114345833D01*
X142066803Y-114348509D01*
X142101328Y-114349399D01*
X142112538Y-114349459D01*
X142165174Y-114348357D01*
X142205420Y-114344021D01*
X142240301Y-114335436D01*
X142261046Y-114328031D01*
X142316545Y-114300345D01*
X142367811Y-114261657D01*
X142415294Y-114211017D01*
X142459442Y-114147478D01*
X142500702Y-114070090D01*
X142519160Y-114026259D01*
X143685384Y-114026259D01*
X143686630Y-114047982D01*
X143692330Y-114065727D01*
X143705431Y-114084362D01*
X143728876Y-114108751D01*
X143744269Y-114123550D01*
X143813529Y-114178296D01*
X143894431Y-114223796D01*
X143979859Y-114256271D01*
X144007769Y-114263471D01*
X144073022Y-114272330D01*
X144147141Y-114273005D01*
X144221410Y-114265836D01*
X144281616Y-114252829D01*
X144372073Y-114216760D01*
X144456670Y-114164530D01*
X144507682Y-114121693D01*
X144536449Y-114093379D01*
X144553501Y-114072876D01*
X144561844Y-114055149D01*
X144564483Y-114035161D01*
X144564615Y-114026259D01*
X144557740Y-113985602D01*
X144537448Y-113958894D01*
X144504240Y-113946680D01*
X144491136Y-113945923D01*
X144470401Y-113948342D01*
X144450488Y-113957557D01*
X144426515Y-113976505D01*
X144402630Y-113999170D01*
X144351330Y-114041608D01*
X144293388Y-114072861D01*
X144224044Y-114095175D01*
X144179705Y-114104384D01*
X144101637Y-114108849D01*
X144022124Y-114096424D01*
X143945974Y-114068664D01*
X143877991Y-114027128D01*
X143841762Y-113994842D01*
X143813915Y-113967750D01*
X143792728Y-113952770D01*
X143772765Y-113946668D01*
X143759537Y-113945923D01*
X143721997Y-113953331D01*
X143697404Y-113975292D01*
X143686123Y-114011409D01*
X143685384Y-114026259D01*
X142519160Y-114026259D01*
X142539523Y-113977905D01*
X142576353Y-113869974D01*
X142611640Y-113745348D01*
X142645834Y-113603079D01*
X142672231Y-113476530D01*
X143222405Y-113476530D01*
X143230162Y-113560624D01*
X143253410Y-113642790D01*
X143292372Y-113719996D01*
X143301314Y-113733485D01*
X143343415Y-113777923D01*
X143401137Y-113813096D01*
X143430234Y-113824974D01*
X143471215Y-113835807D01*
X143509694Y-113835969D01*
X143554229Y-113825288D01*
X143563312Y-113822282D01*
X143619736Y-113793192D01*
X143667633Y-113748983D01*
X143706204Y-113692480D01*
X143734652Y-113626507D01*
X143752178Y-113553890D01*
X143757984Y-113477453D01*
X143757945Y-113477000D01*
X144501287Y-113477000D01*
X144502031Y-113530594D01*
X144504562Y-113570210D01*
X144509617Y-113601377D01*
X144517932Y-113629626D01*
X144523594Y-113644514D01*
X144555708Y-113705087D01*
X144598626Y-113757428D01*
X144648998Y-113798852D01*
X144703475Y-113826672D01*
X144758705Y-113838204D01*
X144765408Y-113838366D01*
X144801214Y-113833174D01*
X144842237Y-113819412D01*
X144855339Y-113813381D01*
X144914848Y-113772994D01*
X144962757Y-113717136D01*
X144998764Y-113646277D01*
X145022563Y-113560889D01*
X145024248Y-113551637D01*
X145029821Y-113475346D01*
X145021511Y-113398212D01*
X145000782Y-113323814D01*
X144969101Y-113255732D01*
X144927932Y-113197546D01*
X144878742Y-113152837D01*
X144855095Y-113138440D01*
X144820507Y-113127201D01*
X144774576Y-113121984D01*
X144763984Y-113121784D01*
X144702039Y-113129599D01*
X144647362Y-113153858D01*
X144598974Y-113195316D01*
X144555893Y-113254729D01*
X144531305Y-113301154D01*
X144518120Y-113330176D01*
X144509464Y-113354601D01*
X144504398Y-113379916D01*
X144501987Y-113411607D01*
X144501293Y-113455163D01*
X144501287Y-113477000D01*
X143757945Y-113477000D01*
X143751272Y-113400023D01*
X143731244Y-113324422D01*
X143714851Y-113285844D01*
X143674948Y-113220586D01*
X143627661Y-113170837D01*
X143574977Y-113137153D01*
X143518880Y-113120089D01*
X143461357Y-113120200D01*
X143404395Y-113138043D01*
X143349978Y-113174172D01*
X143341841Y-113181499D01*
X143289858Y-113242992D01*
X143252476Y-113314682D01*
X143229918Y-113393539D01*
X143222405Y-113476530D01*
X142672231Y-113476530D01*
X142679265Y-113442807D01*
X142702072Y-113329400D01*
X142723051Y-113232453D01*
X142743074Y-113149073D01*
X142763011Y-113076370D01*
X142783734Y-113011452D01*
X142806115Y-112951427D01*
X142831024Y-112893404D01*
X142859333Y-112834491D01*
X142867294Y-112818795D01*
X142937161Y-112699467D01*
X143022063Y-112583077D01*
X143118431Y-112473620D01*
X143222700Y-112375090D01*
X143331303Y-112291483D01*
X143348346Y-112280083D01*
X143491823Y-112197330D01*
X143641412Y-112132443D01*
X143795627Y-112085521D01*
X143952981Y-112056663D01*
X144111988Y-112045970D01*
X144271162Y-112053541D01*
G37*
G36*
X145853071Y-116217916D02*
G01*
X145864949Y-116228607D01*
X145877325Y-116243184D01*
X145879510Y-116257066D01*
X145872320Y-116278709D01*
X145870264Y-116283675D01*
X145856418Y-116310297D01*
X145835265Y-116343993D01*
X145815530Y-116371841D01*
X145778681Y-116425286D01*
X145746658Y-116480633D01*
X145720654Y-116534824D01*
X145701863Y-116584801D01*
X145691477Y-116627507D01*
X145690691Y-116659883D01*
X145697040Y-116675452D01*
X145706426Y-116682259D01*
X145721176Y-116681986D01*
X145746515Y-116674120D01*
X145759221Y-116669336D01*
X145801264Y-116656933D01*
X145850098Y-116648316D01*
X145900437Y-116643776D01*
X145946997Y-116643606D01*
X145984491Y-116648096D01*
X146005252Y-116655773D01*
X146023830Y-116673996D01*
X146029927Y-116697409D01*
X146022995Y-116727560D01*
X146002488Y-116765994D01*
X145967860Y-116814259D01*
X145934937Y-116854708D01*
X145891725Y-116905994D01*
X145922265Y-116931692D01*
X145958214Y-116972739D01*
X145985960Y-117025482D01*
X146003468Y-117083716D01*
X146008699Y-117141232D01*
X146003545Y-117179390D01*
X146000086Y-117196443D01*
X146001376Y-117211130D01*
X146009477Y-117227805D01*
X146026445Y-117250822D01*
X146051878Y-117281603D01*
X146083230Y-117321730D01*
X146121318Y-117374847D01*
X146163444Y-117436833D01*
X146206910Y-117503569D01*
X146249019Y-117570934D01*
X146287074Y-117634808D01*
X146311237Y-117677769D01*
X146337895Y-117729946D01*
X146364944Y-117788435D01*
X146390710Y-117849021D01*
X146413519Y-117907489D01*
X146431697Y-117959623D01*
X146443570Y-118001208D01*
X146447005Y-118019628D01*
X146449416Y-118069625D01*
X146442487Y-118102630D01*
X146425805Y-118119032D01*
X146398957Y-118119217D01*
X146361531Y-118103575D01*
X146359089Y-118102225D01*
X146324305Y-118086624D01*
X146294138Y-118079927D01*
X146286726Y-118080073D01*
X146269608Y-118084763D01*
X146259754Y-118095410D01*
X146257496Y-118113990D01*
X146263165Y-118142482D01*
X146277093Y-118182864D01*
X146299612Y-118237112D01*
X146321166Y-118285506D01*
X146374906Y-118406514D01*
X146419568Y-118512745D01*
X146455848Y-118606342D01*
X146484439Y-118689448D01*
X146506036Y-118764205D01*
X146521334Y-118832755D01*
X146531028Y-118897241D01*
X146535107Y-118945443D01*
X146537338Y-118991960D01*
X146537423Y-119023241D01*
X146534943Y-119043510D01*
X146529479Y-119056992D01*
X146523241Y-119065116D01*
X146502469Y-119080063D01*
X146476295Y-119082667D01*
X146441960Y-119072521D01*
X146396706Y-119049215D01*
X146390321Y-119045461D01*
X146357061Y-119026817D01*
X146328852Y-119013008D01*
X146310951Y-119006567D01*
X146309157Y-119006384D01*
X146297207Y-119014471D01*
X146294100Y-119036399D01*
X146299679Y-119068664D01*
X146313717Y-119107613D01*
X146335702Y-119164754D01*
X146352397Y-119226274D01*
X146364290Y-119295452D01*
X146371865Y-119375564D01*
X146375610Y-119469890D01*
X146376213Y-119529038D01*
X146376109Y-119599204D01*
X146375279Y-119653776D01*
X146373418Y-119696691D01*
X146370225Y-119731890D01*
X146365394Y-119763311D01*
X146358623Y-119794893D01*
X146354422Y-119811951D01*
X146332619Y-119884207D01*
X146305376Y-119953037D01*
X146274893Y-120013727D01*
X146243373Y-120061564D01*
X146231103Y-120075902D01*
X146209023Y-120097123D01*
X146192202Y-120105762D01*
X146174102Y-120104814D01*
X146170111Y-120103832D01*
X146135361Y-120098408D01*
X146093941Y-120097148D01*
X146053354Y-120099764D01*
X146021104Y-120105967D01*
X146011167Y-120109929D01*
X145994656Y-120121608D01*
X145968070Y-120143532D01*
X145935360Y-120172343D01*
X145907055Y-120198454D01*
X145861978Y-120238689D01*
X145814381Y-120276258D01*
X145761319Y-120313050D01*
X145699849Y-120350952D01*
X145627026Y-120391850D01*
X145539907Y-120437632D01*
X145510957Y-120452392D01*
X145289141Y-120556063D01*
X145067154Y-120641833D01*
X144841199Y-120711001D01*
X144607479Y-120764867D01*
X144584154Y-120769345D01*
X144465580Y-120788076D01*
X144338581Y-120801636D01*
X144208393Y-120809823D01*
X144080257Y-120812432D01*
X143959411Y-120809261D01*
X143851093Y-120800108D01*
X143836807Y-120798282D01*
X143691109Y-120774642D01*
X143541136Y-120742651D01*
X143389186Y-120703225D01*
X143237557Y-120657277D01*
X143088545Y-120605725D01*
X142944449Y-120549482D01*
X142807566Y-120489464D01*
X142680193Y-120426588D01*
X142564629Y-120361767D01*
X142463169Y-120295917D01*
X142378113Y-120229955D01*
X142352595Y-120206965D01*
X142300529Y-120160132D01*
X142257040Y-120127056D01*
X142218541Y-120106203D01*
X142181444Y-120096037D01*
X142142163Y-120095027D01*
X142103398Y-120100404D01*
X142072224Y-120105579D01*
X142052778Y-120105094D01*
X142037698Y-120097435D01*
X142022401Y-120083763D01*
X141985524Y-120037991D01*
X141950368Y-119973096D01*
X141921969Y-119903119D01*
X141895387Y-119809417D01*
X141877766Y-119703732D01*
X141869018Y-119590623D01*
X141869055Y-119474647D01*
X141877792Y-119360364D01*
X141895140Y-119252332D01*
X141921013Y-119155109D01*
X141937093Y-119112035D01*
X141951338Y-119070064D01*
X141956241Y-119036532D01*
X141951774Y-119014339D01*
X141938055Y-119006384D01*
X141918996Y-119011665D01*
X141893138Y-119024890D01*
X141884055Y-119030696D01*
X141831643Y-119062924D01*
X141790098Y-119080608D01*
X141757720Y-119084165D01*
X141732808Y-119074013D01*
X141727351Y-119069186D01*
X141718597Y-119049809D01*
X141713389Y-119015594D01*
X141711831Y-118970936D01*
X141714025Y-118920231D01*
X141720074Y-118867873D01*
X141722330Y-118854313D01*
X141740598Y-118773839D01*
X141769273Y-118678250D01*
X141807937Y-118568697D01*
X141856175Y-118446332D01*
X141913569Y-118312307D01*
X141938296Y-118257234D01*
X141959513Y-118208545D01*
X141976711Y-118165180D01*
X141988533Y-118130850D01*
X141993622Y-118109272D01*
X141993628Y-118105811D01*
X141983057Y-118086100D01*
X141958990Y-118080416D01*
X141921536Y-118088759D01*
X141885078Y-118104053D01*
X141853921Y-118118555D01*
X141835384Y-118125078D01*
X141824536Y-118124233D01*
X141816448Y-118116628D01*
X141813643Y-118112875D01*
X141801181Y-118080147D01*
X141800563Y-118033315D01*
X141811502Y-117973596D01*
X141833712Y-117902201D01*
X141866905Y-117820346D01*
X141898566Y-117753360D01*
X141934847Y-117684893D01*
X141979308Y-117607756D01*
X142028804Y-117526910D01*
X142080189Y-117447318D01*
X142130320Y-117373943D01*
X142176051Y-117311747D01*
X142188245Y-117296255D01*
X142217832Y-117258781D01*
X142236678Y-117232611D01*
X142246671Y-117214141D01*
X142249699Y-117199768D01*
X142247649Y-117185887D01*
X142247102Y-117183909D01*
X142241845Y-117135372D01*
X142249399Y-117080053D01*
X142267796Y-117023955D01*
X142295069Y-116973079D01*
X142329160Y-116933507D01*
X142359377Y-116907284D01*
X142315506Y-116855353D01*
X142271107Y-116800742D01*
X142238188Y-116755775D01*
X142217610Y-116721733D01*
X142210239Y-116699895D01*
X142210230Y-116699380D01*
X142216808Y-116679646D01*
X142231034Y-116660504D01*
X142242625Y-116650667D01*
X142256301Y-116644925D01*
X142276744Y-116642602D01*
X142308640Y-116643021D01*
X142340938Y-116644618D01*
X142399560Y-116650374D01*
X142453612Y-116660260D01*
X142486255Y-116669582D01*
X142542472Y-116689629D01*
X142553096Y-116669777D01*
X142558921Y-116639234D01*
X142551016Y-116596197D01*
X142529795Y-116541655D01*
X142495671Y-116476596D01*
X142449057Y-116402008D01*
X142428717Y-116372179D01*
X142403489Y-116334218D01*
X142383180Y-116300385D01*
X142370146Y-116274816D01*
X142366538Y-116262973D01*
X142374713Y-116235463D01*
X142396425Y-116219188D01*
X142427453Y-116217230D01*
X142428804Y-116217488D01*
X142469718Y-116230221D01*
X142520265Y-116252694D01*
X142575199Y-116281983D01*
X142629277Y-116315165D01*
X142677250Y-116349316D01*
X142701134Y-116369248D01*
X142767077Y-116428862D01*
X142767077Y-116759426D01*
X142767077Y-117089989D01*
X142691365Y-117143152D01*
X142616337Y-117199045D01*
X142554234Y-117253148D01*
X142499687Y-117310531D01*
X142454062Y-117367251D01*
X142385999Y-117469721D01*
X142331636Y-117577234D01*
X142292616Y-117686014D01*
X142271175Y-117787673D01*
X142262415Y-117853615D01*
X142337214Y-117853615D01*
X142412012Y-117853615D01*
X142407578Y-117984354D01*
X142408523Y-118092929D01*
X142420122Y-118189233D01*
X142443690Y-118278151D01*
X142480537Y-118364571D01*
X142531976Y-118453380D01*
X142534588Y-118457408D01*
X142574694Y-118519009D01*
X142535275Y-118559985D01*
X142475787Y-118629593D01*
X142423863Y-118705673D01*
X142381315Y-118784523D01*
X142349958Y-118862444D01*
X142331605Y-118935736D01*
X142327461Y-118983982D01*
X142327461Y-119027906D01*
X142395846Y-119021038D01*
X142429462Y-119018147D01*
X142453867Y-119016973D01*
X142464163Y-119017741D01*
X142464230Y-119017901D01*
X142460686Y-119027947D01*
X142451190Y-119051736D01*
X142437449Y-119085037D01*
X142429692Y-119103525D01*
X142395899Y-119190544D01*
X142372737Y-119268013D01*
X142358894Y-119341847D01*
X142353060Y-119417958D01*
X142352677Y-119450884D01*
X142353621Y-119503415D01*
X142356431Y-119541740D01*
X142361839Y-119571158D01*
X142370578Y-119596969D01*
X142373935Y-119604750D01*
X142389436Y-119633375D01*
X142406344Y-119648031D01*
X142428415Y-119649248D01*
X142459407Y-119637557D01*
X142489907Y-119621129D01*
X142542384Y-119591104D01*
X142542415Y-119633340D01*
X142547483Y-119703745D01*
X142561400Y-119782958D01*
X142582380Y-119864291D01*
X142608635Y-119941058D01*
X142638379Y-120006571D01*
X142645601Y-120019473D01*
X142689544Y-120082625D01*
X142744996Y-120144397D01*
X142806574Y-120199581D01*
X142868897Y-120242965D01*
X142886425Y-120252639D01*
X142930639Y-120271778D01*
X142964354Y-120276360D01*
X142991107Y-120265422D01*
X143014435Y-120238001D01*
X143027811Y-120214119D01*
X143053177Y-120164061D01*
X143073761Y-120192640D01*
X143147579Y-120285452D01*
X143226108Y-120363730D01*
X143314797Y-120432464D01*
X143383423Y-120476140D01*
X143448157Y-120511646D01*
X143521293Y-120547043D01*
X143596606Y-120579634D01*
X143667874Y-120606720D01*
X143727006Y-120625117D01*
X143761498Y-120633775D01*
X143782695Y-120637142D01*
X143796137Y-120635130D01*
X143807362Y-120627653D01*
X143811737Y-120623778D01*
X143826707Y-120606763D01*
X143832072Y-120594812D01*
X143837062Y-120577458D01*
X143840612Y-120570875D01*
X143848347Y-120565705D01*
X143863339Y-120567427D01*
X143889075Y-120576926D01*
X143921058Y-120591336D01*
X143983919Y-120618634D01*
X144036547Y-120636026D01*
X144084700Y-120644834D01*
X144134136Y-120646378D01*
X144155983Y-120645228D01*
X144194789Y-120640932D01*
X144229097Y-120632788D01*
X144265951Y-120618591D01*
X144311592Y-120596546D01*
X144397384Y-120552860D01*
X144408623Y-120579993D01*
X144423501Y-120606225D01*
X144438544Y-120624032D01*
X144451261Y-120633196D01*
X144466237Y-120636222D01*
X144489679Y-120633488D01*
X144513362Y-120628589D01*
X144615482Y-120599750D01*
X144719030Y-120558757D01*
X144820675Y-120507705D01*
X144917082Y-120448691D01*
X145004920Y-120383808D01*
X145080856Y-120315153D01*
X145141557Y-120244821D01*
X145155530Y-120224871D01*
X145192911Y-120168472D01*
X145216307Y-120210217D01*
X145242830Y-120249851D01*
X145269784Y-120271357D01*
X145300774Y-120275884D01*
X145339402Y-120264582D01*
X145358415Y-120255574D01*
X145448886Y-120198849D01*
X145526152Y-120127840D01*
X145590053Y-120042811D01*
X145640425Y-119944028D01*
X145677108Y-119831755D01*
X145699938Y-119706257D01*
X145701132Y-119695910D01*
X145712500Y-119593422D01*
X145759781Y-119622852D01*
X145798370Y-119642872D01*
X145827447Y-119647652D01*
X145849932Y-119637024D01*
X145865424Y-119616822D01*
X145879251Y-119582414D01*
X145890218Y-119534740D01*
X145897481Y-119479968D01*
X145900194Y-119424266D01*
X145898064Y-119378587D01*
X145887073Y-119312152D01*
X145868290Y-119236782D01*
X145843953Y-119160309D01*
X145816297Y-119090565D01*
X145815023Y-119087739D01*
X145800739Y-119055622D01*
X145790321Y-119031025D01*
X145785816Y-119018799D01*
X145785769Y-119018425D01*
X145794659Y-119016943D01*
X145818066Y-119017538D01*
X145851094Y-119020071D01*
X145854154Y-119020367D01*
X145922538Y-119027106D01*
X145922538Y-118983582D01*
X145915422Y-118922163D01*
X145895473Y-118852363D01*
X145864788Y-118778403D01*
X145825465Y-118704505D01*
X145779600Y-118634890D01*
X145729292Y-118573779D01*
X145708466Y-118552730D01*
X145689833Y-118533299D01*
X145679233Y-118518943D01*
X145678307Y-118516118D01*
X145683576Y-118504444D01*
X145697206Y-118482429D01*
X145711369Y-118461772D01*
X145771674Y-118363040D01*
X145814116Y-118260303D01*
X145839534Y-118150901D01*
X145848762Y-118032172D01*
X145848820Y-118024577D01*
X145848381Y-117976015D01*
X145846852Y-117932329D01*
X145844479Y-117898535D01*
X145841756Y-117880480D01*
X145834243Y-117853615D01*
X145907698Y-117853615D01*
X145981154Y-117853615D01*
X145981154Y-117817605D01*
X145975887Y-117766221D01*
X145961235Y-117703607D01*
X145938917Y-117634607D01*
X145910654Y-117564067D01*
X145878165Y-117496830D01*
X145849982Y-117448192D01*
X145769431Y-117337434D01*
X145676309Y-117237453D01*
X145573881Y-117151546D01*
X145519637Y-117114547D01*
X145482923Y-117091370D01*
X145482923Y-116765407D01*
X145482923Y-116439443D01*
X145549368Y-116377202D01*
X145619470Y-116318827D01*
X145693553Y-116270211D01*
X145766381Y-116234621D01*
X145793390Y-116224953D01*
X145823297Y-116216022D01*
X145841058Y-116213567D01*
X145853071Y-116217916D01*
G37*
D12*
X155283000Y-110209000D02*
X157568000Y-110209000D01*
X157568000Y-108739000D02*
X155283000Y-108739000D01*
X157568000Y-110209000D02*
X157568000Y-108739000D01*
X152797742Y-108951500D02*
X153272258Y-108951500D01*
X152797742Y-109996500D02*
X153272258Y-109996500D01*
D13*
X140910000Y-123055000D02*
X141660000Y-123055000D01*
X140910000Y-141055000D02*
X140910000Y-123055000D01*
X141660000Y-141055000D02*
X140910000Y-141055000D01*
D10*
X158920000Y-122005000D02*
X158920000Y-122005000D01*
X158920000Y-122105000D02*
X158920000Y-122105000D01*
X158920000Y-122005000D02*
G75*
G02*
X158920000Y-122105000I0J-50000D01*
G01*
X158920000Y-122105000D02*
G75*
G02*
X158920000Y-122005000I0J50000D01*
G01*
%LPC*%
D14*
X161500000Y-144000000D03*
X160000000Y-144000000D03*
X158500000Y-144000000D03*
X157000000Y-144000000D03*
X155500000Y-144000000D03*
X154000000Y-144000000D03*
X152500000Y-144000000D03*
X151000000Y-144000000D03*
X149500000Y-144000000D03*
X148000000Y-144000000D03*
X146500000Y-144000000D03*
X145000000Y-144000000D03*
X143500000Y-144000000D03*
D15*
X156870500Y-109474000D03*
X155295500Y-109474000D03*
D16*
X152210000Y-109474000D03*
X153860000Y-109474000D03*
D17*
X158920000Y-123305000D03*
X157650000Y-123305000D03*
X156380000Y-123305000D03*
X155110000Y-123305000D03*
X153840000Y-123305000D03*
X152570000Y-123305000D03*
X151300000Y-123305000D03*
X150030000Y-123305000D03*
X148760000Y-123305000D03*
X147490000Y-123305000D03*
X146220000Y-123305000D03*
X144950000Y-123305000D03*
X143680000Y-123305000D03*
X142410000Y-123305000D03*
X142410000Y-140805000D03*
X143680000Y-140805000D03*
X144950000Y-140805000D03*
X146220000Y-140805000D03*
X147490000Y-140805000D03*
X148760000Y-140805000D03*
X150030000Y-140805000D03*
X151300000Y-140805000D03*
X152570000Y-140805000D03*
X153840000Y-140805000D03*
X155110000Y-140805000D03*
X156380000Y-140805000D03*
X157650000Y-140805000D03*
X158920000Y-140805000D03*
D18*
X153200000Y-130550000D03*
X154450000Y-129300000D03*
X153200000Y-129300000D03*
X151950000Y-129300000D03*
X151950000Y-130550000D03*
X151950000Y-131800000D03*
X153200000Y-131800000D03*
X154450000Y-131800000D03*
X154450000Y-130550000D03*
D19*
X147448000Y-130485000D03*
X147448000Y-124705000D03*
D20*
X142481000Y-107834000D03*
%LPD*%
M02*
