G04 #@! TF.GenerationSoftware,KiCad,Pcbnew,9.0.4*
G04 #@! TF.CreationDate,2025-10-20T22:41:46-04:00*
G04 #@! TF.ProjectId,the-spirit-board,7468652d-7370-4697-9269-742d626f6172,rev?*
G04 #@! TF.SameCoordinates,Original*
G04 #@! TF.FileFunction,Soldermask,Bot*
G04 #@! TF.FilePolarity,Negative*
%FSLAX46Y46*%
G04 Gerber Fmt 4.6, Leading zero omitted, Abs format (unit mm)*
G04 Created by KiCad (PCBNEW 9.0.4) date 2025-10-20 22:41:46*
%MOMM*%
%LPD*%
G01*
G04 APERTURE LIST*
G04 Aperture macros list*
%AMRoundRect*
0 Rectangle with rounded corners*
0 $1 Rounding radius*
0 $2 $3 $4 $5 $6 $7 $8 $9 X,Y pos of 4 corners*
0 Add a 4 corners polygon primitive as box body*
4,1,4,$2,$3,$4,$5,$6,$7,$8,$9,$2,$3,0*
0 Add four circle primitives for the rounded corners*
1,1,$1+$1,$2,$3*
1,1,$1+$1,$4,$5*
1,1,$1+$1,$6,$7*
1,1,$1+$1,$8,$9*
0 Add four rect primitives between the rounded corners*
20,1,$1+$1,$2,$3,$4,$5,0*
20,1,$1+$1,$4,$5,$6,$7,0*
20,1,$1+$1,$6,$7,$8,$9,0*
20,1,$1+$1,$8,$9,$2,$3,0*%
G04 Aperture macros list end*
%ADD10RoundRect,0.120000X0.280000X-0.880000X0.280000X0.880000X-0.280000X0.880000X-0.280000X-0.880000X0*%
%ADD11RoundRect,0.200000X-0.200000X-0.275000X0.200000X-0.275000X0.200000X0.275000X-0.200000X0.275000X0*%
%ADD12RoundRect,0.200000X0.275000X-0.200000X0.275000X0.200000X-0.275000X0.200000X-0.275000X-0.200000X0*%
%ADD13R,1.000000X0.700000*%
%ADD14RoundRect,0.225000X-0.250000X0.225000X-0.250000X-0.225000X0.250000X-0.225000X0.250000X0.225000X0*%
%ADD15RoundRect,0.200000X0.200000X0.275000X-0.200000X0.275000X-0.200000X-0.275000X0.200000X-0.275000X0*%
%ADD16R,0.650000X1.100000*%
%ADD17RoundRect,0.200000X-0.275000X0.200000X-0.275000X-0.200000X0.275000X-0.200000X0.275000X0.200000X0*%
%ADD18R,1.000000X0.900000*%
%ADD19C,0.650000*%
%ADD20R,1.150000X0.600000*%
%ADD21R,1.150000X0.300000*%
%ADD22R,1.500000X1.500000*%
%ADD23RoundRect,0.250000X0.250000X0.475000X-0.250000X0.475000X-0.250000X-0.475000X0.250000X-0.475000X0*%
%ADD24RoundRect,0.250000X-0.475000X0.250000X-0.475000X-0.250000X0.475000X-0.250000X0.475000X0.250000X0*%
%ADD25RoundRect,0.140000X0.170000X-0.140000X0.170000X0.140000X-0.170000X0.140000X-0.170000X-0.140000X0*%
%ADD26RoundRect,0.140000X-0.140000X-0.170000X0.140000X-0.170000X0.140000X0.170000X-0.140000X0.170000X0*%
%ADD27RoundRect,0.112500X-0.112500X0.187500X-0.112500X-0.187500X0.112500X-0.187500X0.112500X0.187500X0*%
%ADD28R,0.522000X0.600000*%
%ADD29C,1.625000*%
G04 APERTURE END LIST*
D10*
X144250000Y-144000000D03*
X145750000Y-144000000D03*
X147250000Y-144000000D03*
X148750000Y-144000000D03*
X150250000Y-144000000D03*
X151750000Y-144000000D03*
X153250000Y-144000000D03*
X154750000Y-144000000D03*
X156250000Y-144000000D03*
X157750000Y-144000000D03*
X159250000Y-144000000D03*
X160750000Y-144000000D03*
D11*
X149670000Y-138811000D03*
X151320000Y-138811000D03*
D12*
X152781000Y-138874000D03*
X152781000Y-137224000D03*
D13*
X154445000Y-116901000D03*
X154445000Y-115001000D03*
X156845000Y-115951000D03*
D14*
X141097000Y-117525000D03*
X141097000Y-119075000D03*
D15*
X144970000Y-135300000D03*
X143320000Y-135300000D03*
D16*
X157920000Y-105500000D03*
X156000000Y-105500000D03*
X156960000Y-103400000D03*
D17*
X141062000Y-114300000D03*
X141062000Y-115950000D03*
D11*
X155131000Y-140716000D03*
X156781000Y-140716000D03*
D13*
X154445000Y-138999000D03*
X154445000Y-137099000D03*
X156845000Y-138049000D03*
D12*
X152794000Y-113159000D03*
X152794000Y-111509000D03*
D18*
X144300000Y-114681000D03*
X142700000Y-114681000D03*
X144300000Y-118781000D03*
X142700000Y-118781000D03*
D14*
X146000000Y-103225000D03*
X146000000Y-104775000D03*
D12*
X152794000Y-127891000D03*
X152794000Y-126241000D03*
X158496000Y-135953000D03*
X158496000Y-134303000D03*
D19*
X147448000Y-130485000D03*
X147448000Y-124705000D03*
D20*
X148523000Y-130795000D03*
X148523000Y-129995000D03*
D21*
X148523000Y-128845000D03*
X148523000Y-127845000D03*
X148523000Y-127345000D03*
X148523000Y-126345000D03*
D20*
X148523000Y-125195000D03*
X148523000Y-124395000D03*
D21*
X148523000Y-125845000D03*
X148523000Y-126845000D03*
X148523000Y-128345000D03*
X148523000Y-129345000D03*
D22*
X147948000Y-132715000D03*
X147948000Y-122475000D03*
X144018000Y-132715000D03*
X144018000Y-122475000D03*
D13*
X154445000Y-131633000D03*
X154445000Y-129733000D03*
X156845000Y-130683000D03*
D12*
X158496000Y-113855000D03*
X158496000Y-112205000D03*
D13*
X154445000Y-135316000D03*
X154445000Y-133416000D03*
X156845000Y-134366000D03*
D15*
X153733000Y-140716000D03*
X152083000Y-140716000D03*
D17*
X151003000Y-117666000D03*
X151003000Y-119316000D03*
D15*
X148272000Y-137287000D03*
X146622000Y-137287000D03*
D23*
X151200000Y-105050000D03*
X149300000Y-105050000D03*
D12*
X158496000Y-128587000D03*
X158496000Y-126937000D03*
D17*
X149352000Y-117666000D03*
X149352000Y-119316000D03*
D11*
X149670000Y-137287000D03*
X151320000Y-137287000D03*
D14*
X144500000Y-103225000D03*
X144500000Y-104775000D03*
D12*
X152794000Y-131508000D03*
X152794000Y-129858000D03*
D11*
X145987000Y-139065000D03*
X147637000Y-139065000D03*
D12*
X158496000Y-124904000D03*
X158496000Y-123254000D03*
D13*
X154445000Y-120584000D03*
X154445000Y-118684000D03*
X156845000Y-119634000D03*
X154445000Y-113218000D03*
X154445000Y-111318000D03*
X156845000Y-112268000D03*
X154445000Y-127950000D03*
X154445000Y-126050000D03*
X156845000Y-127000000D03*
D12*
X158496000Y-117538000D03*
X158496000Y-115888000D03*
X158496000Y-109855000D03*
X158496000Y-108205000D03*
D11*
X145987000Y-140716000D03*
X147637000Y-140716000D03*
D12*
X152794000Y-120525000D03*
X152794000Y-118875000D03*
X158496000Y-121221000D03*
X158496000Y-119571000D03*
X152794000Y-124081000D03*
X152794000Y-122431000D03*
X152825000Y-116850000D03*
X152825000Y-115200000D03*
X152794000Y-135191000D03*
X152794000Y-133541000D03*
D20*
X152022000Y-106967000D03*
X152022000Y-107917000D03*
X152022000Y-108867000D03*
X149422000Y-108867000D03*
X149422000Y-106967000D03*
D24*
X147500000Y-107950000D03*
X147500000Y-109850000D03*
D12*
X158496000Y-139636000D03*
X158496000Y-137986000D03*
D24*
X153025000Y-103400000D03*
X153025000Y-105300000D03*
D25*
X147984000Y-106652000D03*
X147984000Y-105692000D03*
D13*
X154445000Y-124267000D03*
X154445000Y-122367000D03*
X156845000Y-123317000D03*
D26*
X143020000Y-113531000D03*
X143980000Y-113531000D03*
D27*
X156000000Y-106950000D03*
X156000000Y-109050000D03*
D18*
X147701000Y-114681000D03*
X146101000Y-114681000D03*
X147701000Y-118781000D03*
X146101000Y-118781000D03*
D15*
X148399000Y-135300000D03*
X146749000Y-135300000D03*
D17*
X154000000Y-107092000D03*
X154000000Y-108742000D03*
D15*
X160464000Y-141224000D03*
X158814000Y-141224000D03*
D28*
X144555000Y-108734000D03*
X143733000Y-108734000D03*
D29*
X142481000Y-107834000D03*
D28*
X143733000Y-106934000D03*
X144555000Y-106934000D03*
X144555000Y-107834000D03*
D12*
X158496000Y-132270000D03*
X158496000Y-130620000D03*
X151003000Y-133540000D03*
X151003000Y-131890000D03*
D11*
X149035000Y-140716000D03*
X150685000Y-140716000D03*
M02*
