G04 #@! TF.GenerationSoftware,KiCad,Pcbnew,9.0.4*
G04 #@! TF.CreationDate,2025-10-20T22:41:46-04:00*
G04 #@! TF.ProjectId,the-spirit-board,7468652d-7370-4697-9269-742d626f6172,rev?*
G04 #@! TF.SameCoordinates,Original*
G04 #@! TF.FileFunction,Copper,L3,Inr*
G04 #@! TF.FilePolarity,Positive*
%FSLAX46Y46*%
G04 Gerber Fmt 4.6, Leading zero omitted, Abs format (unit mm)*
G04 Created by KiCad (PCBNEW 9.0.4) date 2025-10-20 22:41:46*
%MOMM*%
%LPD*%
G01*
G04 APERTURE LIST*
G04 #@! TA.AperFunction,ComponentPad*
%ADD10C,1.625000*%
G04 #@! TD*
G04 #@! TA.AperFunction,ViaPad*
%ADD11C,0.637000*%
G04 #@! TD*
G04 #@! TA.AperFunction,ViaPad*
%ADD12C,0.512000*%
G04 #@! TD*
G04 #@! TA.AperFunction,Conductor*
%ADD13C,0.127000*%
G04 #@! TD*
G04 APERTURE END LIST*
D10*
X142481000Y-107834000D03*
D11*
X155480963Y-128237037D03*
X143668000Y-142113000D03*
X145161000Y-133604000D03*
X158115000Y-110998000D03*
X147000000Y-117000000D03*
X142875000Y-131699000D03*
X149500000Y-133500000D03*
X145034000Y-121285000D03*
X147614500Y-131445000D03*
X151003000Y-128143000D03*
X143002000Y-121285000D03*
D12*
X152908000Y-114173000D03*
D11*
X152005750Y-121693324D03*
X153543000Y-132718502D03*
X152019000Y-134620000D03*
D12*
X149236500Y-138179076D03*
D11*
X157214307Y-138972496D03*
X144876463Y-137891463D03*
X141732000Y-113411000D03*
X147000000Y-104500000D03*
X157353000Y-121920000D03*
X151892000Y-127254000D03*
X152006497Y-125222000D03*
X150749000Y-113157000D03*
X146968000Y-106299000D03*
X157226000Y-135382000D03*
X150802000Y-116459000D03*
X143318500Y-142873539D03*
X159888502Y-140208000D03*
D12*
X144653000Y-110490000D03*
X157119500Y-125984000D03*
X145708389Y-142506074D03*
X150356500Y-138007457D03*
X145188315Y-142019792D03*
X146945399Y-139691555D03*
X149352000Y-142505500D03*
X146431000Y-124968000D03*
X147206201Y-142505500D03*
X149352000Y-120788500D03*
X149987000Y-131953000D03*
X157119500Y-133096000D03*
X145288000Y-105791000D03*
X147587948Y-127296578D03*
X152781000Y-125222000D03*
X144907000Y-124841000D03*
X150495000Y-120269000D03*
X146431000Y-142494000D03*
X151384000Y-111760000D03*
X152019198Y-138105613D03*
X151003000Y-130175000D03*
X154559000Y-121412000D03*
X156337000Y-118618000D03*
X156600000Y-139446000D03*
X147193000Y-127889000D03*
X153320500Y-136017000D03*
X156488651Y-142469349D03*
X148971000Y-136867503D03*
X153543000Y-116078000D03*
X143891000Y-138303000D03*
X143891000Y-107950000D03*
X148628656Y-142516841D03*
X151257000Y-124714000D03*
X150241000Y-135636000D03*
X144526000Y-139065000D03*
X154559000Y-138176000D03*
X155785067Y-142360183D03*
X157353000Y-124511002D03*
X150876000Y-134620000D03*
X147917168Y-142543889D03*
X157119500Y-128016000D03*
X154230500Y-142494000D03*
X159232876Y-142543938D03*
X158724500Y-118618000D03*
X158110027Y-142554590D03*
X152075613Y-136524802D03*
X159944876Y-142545682D03*
X154928500Y-134366000D03*
X151519500Y-142494000D03*
X158724500Y-114935000D03*
X157574951Y-142084865D03*
X159244000Y-111379000D03*
X160655000Y-142494000D03*
X157480000Y-139700000D03*
D11*
X157079963Y-110467500D03*
X149565500Y-124968000D03*
D12*
X155436500Y-130556000D03*
X153416000Y-142367000D03*
X150483500Y-132715000D03*
D13*
X157119500Y-125984000D02*
X144653000Y-113517500D01*
X144653000Y-113517500D02*
X144653000Y-110490000D01*
X150356500Y-139501638D02*
X150356500Y-138007457D01*
X147884638Y-141973500D02*
X150356500Y-139501638D01*
X145708389Y-142506074D02*
X145708389Y-142480512D01*
X146215401Y-141973500D02*
X147884638Y-141973500D01*
X145708389Y-142480512D02*
X146215401Y-141973500D01*
X145288000Y-113182101D02*
X145288000Y-105791000D01*
X157640000Y-125534101D02*
X145288000Y-113182101D01*
X157119500Y-133096000D02*
X157640000Y-132575500D01*
X157640000Y-132575500D02*
X157640000Y-125534101D01*
X158242000Y-134493000D02*
X158242000Y-125400002D01*
X158242000Y-139903250D02*
X158242000Y-134493000D01*
X158242000Y-125400002D02*
X157353000Y-124511002D01*
X155785067Y-142360183D02*
X158242000Y-139903250D01*
X147917168Y-142404832D02*
X150495000Y-139827000D01*
X150495000Y-139827000D02*
X150876000Y-139446000D01*
X147917168Y-142543889D02*
X147917168Y-142404832D01*
X150876000Y-139446000D02*
X150876000Y-134620000D01*
X155956000Y-129179500D02*
X157119500Y-128016000D01*
X155956000Y-140768500D02*
X155956000Y-139319000D01*
X154230500Y-142494000D02*
X155956000Y-140768500D01*
X155956000Y-139319000D02*
X155956000Y-129179500D01*
X151519500Y-142494000D02*
X155120000Y-138893500D01*
X155120000Y-134557500D02*
X154928500Y-134366000D01*
X155120000Y-138893500D02*
X155120000Y-138049000D01*
X155120000Y-138049000D02*
X155120000Y-134557500D01*
X155448000Y-138684000D02*
X155448000Y-130567500D01*
X155448000Y-130567500D02*
X155436500Y-130556000D01*
X153416000Y-142367000D02*
X155448000Y-140335000D01*
X155448000Y-140335000D02*
X155448000Y-138684000D01*
G04 #@! TA.AperFunction,Conductor*
G36*
X159366694Y-102634306D02*
G01*
X159385000Y-102678500D01*
X159385000Y-110862725D01*
X159366694Y-110906919D01*
X159322500Y-110925225D01*
X159306328Y-110923096D01*
X159304108Y-110922501D01*
X159304099Y-110922500D01*
X159183901Y-110922500D01*
X159183896Y-110922500D01*
X159067800Y-110953609D01*
X159067798Y-110953610D01*
X158963701Y-111013709D01*
X158878709Y-111098701D01*
X158818610Y-111202798D01*
X158818609Y-111202800D01*
X158787500Y-111318896D01*
X158787500Y-111439103D01*
X158818609Y-111555199D01*
X158818610Y-111555202D01*
X158878709Y-111659298D01*
X158963702Y-111744291D01*
X159067798Y-111804390D01*
X159138850Y-111823428D01*
X159183896Y-111835499D01*
X159183898Y-111835499D01*
X159183901Y-111835500D01*
X159183903Y-111835500D01*
X159304099Y-111835500D01*
X159306316Y-111834906D01*
X159307464Y-111835057D01*
X159308164Y-111834965D01*
X159308188Y-111835152D01*
X159353743Y-111841144D01*
X159382868Y-111879090D01*
X159385000Y-111895274D01*
X159385000Y-140073605D01*
X159382870Y-140089782D01*
X159369502Y-140139667D01*
X159369502Y-140276333D01*
X159382870Y-140326217D01*
X159385000Y-140342394D01*
X159385000Y-141288500D01*
X159366694Y-141332694D01*
X159322500Y-141351000D01*
X157318490Y-141351000D01*
X157274296Y-141332694D01*
X157255990Y-141288500D01*
X157274295Y-141244306D01*
X158465809Y-140052794D01*
X158506000Y-139955763D01*
X158506000Y-139850737D01*
X158506000Y-134440487D01*
X158506000Y-125347489D01*
X158485294Y-125297500D01*
X158485294Y-125297499D01*
X158485294Y-125297498D01*
X158465811Y-125250461D01*
X158465807Y-125250456D01*
X157827806Y-124612455D01*
X157809500Y-124568261D01*
X157809500Y-124450904D01*
X157809499Y-124450898D01*
X157784909Y-124359130D01*
X157778390Y-124334800D01*
X157718291Y-124230704D01*
X157633298Y-124145711D01*
X157529202Y-124085612D01*
X157529199Y-124085611D01*
X157413103Y-124054502D01*
X157413099Y-124054502D01*
X157292901Y-124054502D01*
X157292896Y-124054502D01*
X157176800Y-124085611D01*
X157176798Y-124085612D01*
X157072701Y-124145711D01*
X156987709Y-124230703D01*
X156926770Y-124336253D01*
X156888819Y-124365373D01*
X156841393Y-124359130D01*
X156828449Y-124349197D01*
X154454446Y-121975194D01*
X154436140Y-121931000D01*
X154454446Y-121886806D01*
X154498640Y-121868500D01*
X154619097Y-121868500D01*
X154619099Y-121868500D01*
X154735202Y-121837390D01*
X154839298Y-121777291D01*
X154924291Y-121692298D01*
X154984390Y-121588202D01*
X155015500Y-121472099D01*
X155015500Y-121351901D01*
X154984390Y-121235798D01*
X154924291Y-121131702D01*
X154839298Y-121046709D01*
X154735202Y-120986610D01*
X154735199Y-120986609D01*
X154619103Y-120955500D01*
X154619099Y-120955500D01*
X154498901Y-120955500D01*
X154498896Y-120955500D01*
X154382800Y-120986609D01*
X154382798Y-120986610D01*
X154278701Y-121046709D01*
X154193709Y-121131701D01*
X154133610Y-121235798D01*
X154133609Y-121235800D01*
X154102500Y-121351896D01*
X154102500Y-121472360D01*
X154084194Y-121516554D01*
X154040000Y-121534860D01*
X153995806Y-121516554D01*
X151037148Y-118557896D01*
X155880500Y-118557896D01*
X155880500Y-118678103D01*
X155911609Y-118794199D01*
X155911610Y-118794202D01*
X155971709Y-118898298D01*
X156056702Y-118983291D01*
X156160798Y-119043390D01*
X156231850Y-119062428D01*
X156276896Y-119074499D01*
X156276898Y-119074499D01*
X156276901Y-119074500D01*
X156276903Y-119074500D01*
X156397097Y-119074500D01*
X156397099Y-119074500D01*
X156513202Y-119043390D01*
X156617298Y-118983291D01*
X156702291Y-118898298D01*
X156762390Y-118794202D01*
X156793500Y-118678099D01*
X156793500Y-118557901D01*
X156793499Y-118557896D01*
X158268000Y-118557896D01*
X158268000Y-118678103D01*
X158299109Y-118794199D01*
X158299110Y-118794202D01*
X158359209Y-118898298D01*
X158444202Y-118983291D01*
X158548298Y-119043390D01*
X158619350Y-119062428D01*
X158664396Y-119074499D01*
X158664398Y-119074499D01*
X158664401Y-119074500D01*
X158664403Y-119074500D01*
X158784597Y-119074500D01*
X158784599Y-119074500D01*
X158900702Y-119043390D01*
X159004798Y-118983291D01*
X159089791Y-118898298D01*
X159149890Y-118794202D01*
X159181000Y-118678099D01*
X159181000Y-118557901D01*
X159149890Y-118441798D01*
X159089791Y-118337702D01*
X159004798Y-118252709D01*
X158900702Y-118192610D01*
X158900699Y-118192609D01*
X158784603Y-118161500D01*
X158784599Y-118161500D01*
X158664401Y-118161500D01*
X158664396Y-118161500D01*
X158548300Y-118192609D01*
X158548298Y-118192610D01*
X158444201Y-118252709D01*
X158359209Y-118337701D01*
X158299110Y-118441798D01*
X158299109Y-118441800D01*
X158268000Y-118557896D01*
X156793499Y-118557896D01*
X156762390Y-118441798D01*
X156702291Y-118337702D01*
X156617298Y-118252709D01*
X156513202Y-118192610D01*
X156513199Y-118192609D01*
X156397103Y-118161500D01*
X156397099Y-118161500D01*
X156276901Y-118161500D01*
X156276896Y-118161500D01*
X156160800Y-118192609D01*
X156160798Y-118192610D01*
X156056701Y-118252709D01*
X155971709Y-118337701D01*
X155911610Y-118441798D01*
X155911609Y-118441800D01*
X155880500Y-118557896D01*
X151037148Y-118557896D01*
X148497148Y-116017896D01*
X153086500Y-116017896D01*
X153086500Y-116138103D01*
X153117609Y-116254199D01*
X153117610Y-116254202D01*
X153177709Y-116358298D01*
X153262702Y-116443291D01*
X153366798Y-116503390D01*
X153415236Y-116516369D01*
X153482896Y-116534499D01*
X153482898Y-116534499D01*
X153482901Y-116534500D01*
X153482903Y-116534500D01*
X153603097Y-116534500D01*
X153603099Y-116534500D01*
X153719202Y-116503390D01*
X153823298Y-116443291D01*
X153908291Y-116358298D01*
X153968390Y-116254202D01*
X153999500Y-116138099D01*
X153999500Y-116017901D01*
X153968390Y-115901798D01*
X153908291Y-115797702D01*
X153823298Y-115712709D01*
X153719202Y-115652610D01*
X153719199Y-115652609D01*
X153603103Y-115621500D01*
X153603099Y-115621500D01*
X153482901Y-115621500D01*
X153482896Y-115621500D01*
X153366800Y-115652609D01*
X153366798Y-115652610D01*
X153262701Y-115712709D01*
X153177709Y-115797701D01*
X153117610Y-115901798D01*
X153117609Y-115901800D01*
X153086500Y-116017896D01*
X148497148Y-116017896D01*
X147354148Y-114874896D01*
X158268000Y-114874896D01*
X158268000Y-114995103D01*
X158299109Y-115111199D01*
X158299110Y-115111202D01*
X158359209Y-115215298D01*
X158444202Y-115300291D01*
X158548298Y-115360390D01*
X158619350Y-115379428D01*
X158664396Y-115391499D01*
X158664398Y-115391499D01*
X158664401Y-115391500D01*
X158664403Y-115391500D01*
X158784597Y-115391500D01*
X158784599Y-115391500D01*
X158900702Y-115360390D01*
X159004798Y-115300291D01*
X159089791Y-115215298D01*
X159149890Y-115111202D01*
X159181000Y-114995099D01*
X159181000Y-114874901D01*
X159149890Y-114758798D01*
X159089791Y-114654702D01*
X159004798Y-114569709D01*
X158900702Y-114509610D01*
X158900699Y-114509609D01*
X158784603Y-114478500D01*
X158784599Y-114478500D01*
X158664401Y-114478500D01*
X158664396Y-114478500D01*
X158548300Y-114509609D01*
X158548298Y-114509610D01*
X158444201Y-114569709D01*
X158359209Y-114654701D01*
X158299110Y-114758798D01*
X158299109Y-114758800D01*
X158268000Y-114874896D01*
X147354148Y-114874896D01*
X146592148Y-114112896D01*
X152451500Y-114112896D01*
X152451500Y-114233103D01*
X152482609Y-114349199D01*
X152482610Y-114349202D01*
X152542709Y-114453298D01*
X152627702Y-114538291D01*
X152731798Y-114598390D01*
X152802850Y-114617428D01*
X152847896Y-114629499D01*
X152847898Y-114629499D01*
X152847901Y-114629500D01*
X152847903Y-114629500D01*
X152968097Y-114629500D01*
X152968099Y-114629500D01*
X153084202Y-114598390D01*
X153188298Y-114538291D01*
X153273291Y-114453298D01*
X153333390Y-114349202D01*
X153364500Y-114233099D01*
X153364500Y-114112901D01*
X153333390Y-113996798D01*
X153273291Y-113892702D01*
X153188298Y-113807709D01*
X153084202Y-113747610D01*
X153084199Y-113747609D01*
X152968103Y-113716500D01*
X152968099Y-113716500D01*
X152847901Y-113716500D01*
X152847896Y-113716500D01*
X152731800Y-113747609D01*
X152731798Y-113747610D01*
X152627701Y-113807709D01*
X152542709Y-113892701D01*
X152482610Y-113996798D01*
X152482609Y-113996800D01*
X152451500Y-114112896D01*
X146592148Y-114112896D01*
X145570306Y-113091054D01*
X145552000Y-113046860D01*
X145552000Y-111699896D01*
X150927500Y-111699896D01*
X150927500Y-111820103D01*
X150947643Y-111895274D01*
X150958610Y-111936202D01*
X151018709Y-112040298D01*
X151103702Y-112125291D01*
X151207798Y-112185390D01*
X151278850Y-112204428D01*
X151323896Y-112216499D01*
X151323898Y-112216499D01*
X151323901Y-112216500D01*
X151323903Y-112216500D01*
X151444097Y-112216500D01*
X151444099Y-112216500D01*
X151560202Y-112185390D01*
X151664298Y-112125291D01*
X151749291Y-112040298D01*
X151809390Y-111936202D01*
X151840500Y-111820099D01*
X151840500Y-111699901D01*
X151809390Y-111583798D01*
X151749291Y-111479702D01*
X151664298Y-111394709D01*
X151560202Y-111334610D01*
X151560199Y-111334609D01*
X151444103Y-111303500D01*
X151444099Y-111303500D01*
X151323901Y-111303500D01*
X151323896Y-111303500D01*
X151207800Y-111334609D01*
X151207798Y-111334610D01*
X151103701Y-111394709D01*
X151018709Y-111479701D01*
X150958610Y-111583798D01*
X150958609Y-111583800D01*
X150927500Y-111699896D01*
X145552000Y-111699896D01*
X145552000Y-110399173D01*
X156560963Y-110399173D01*
X156560963Y-110535826D01*
X156560964Y-110535834D01*
X156596330Y-110667821D01*
X156596331Y-110667825D01*
X156602971Y-110679325D01*
X156664659Y-110786172D01*
X156664661Y-110786174D01*
X156664664Y-110786178D01*
X156761284Y-110882798D01*
X156761288Y-110882801D01*
X156761290Y-110882803D01*
X156879637Y-110951131D01*
X157011635Y-110986500D01*
X157011636Y-110986500D01*
X157148290Y-110986500D01*
X157148291Y-110986500D01*
X157280289Y-110951131D01*
X157317455Y-110929673D01*
X157596000Y-110929673D01*
X157596000Y-111066326D01*
X157596001Y-111066334D01*
X157631367Y-111198321D01*
X157631368Y-111198325D01*
X157699698Y-111316674D01*
X157699701Y-111316678D01*
X157796321Y-111413298D01*
X157796325Y-111413301D01*
X157796327Y-111413303D01*
X157914674Y-111481631D01*
X158046672Y-111517000D01*
X158046673Y-111517000D01*
X158183327Y-111517000D01*
X158183328Y-111517000D01*
X158315326Y-111481631D01*
X158433673Y-111413303D01*
X158530303Y-111316673D01*
X158598631Y-111198326D01*
X158634000Y-111066328D01*
X158634000Y-110929672D01*
X158598631Y-110797674D01*
X158530303Y-110679327D01*
X158530301Y-110679325D01*
X158530298Y-110679321D01*
X158433678Y-110582701D01*
X158433674Y-110582698D01*
X158433673Y-110582697D01*
X158374499Y-110548533D01*
X158315325Y-110514368D01*
X158315321Y-110514367D01*
X158183334Y-110479001D01*
X158183329Y-110479000D01*
X158183328Y-110479000D01*
X158046672Y-110479000D01*
X158046671Y-110479000D01*
X158046665Y-110479001D01*
X157914678Y-110514367D01*
X157914674Y-110514368D01*
X157796325Y-110582698D01*
X157796321Y-110582701D01*
X157699701Y-110679321D01*
X157699696Y-110679327D01*
X157677531Y-110717718D01*
X157677503Y-110717766D01*
X157631369Y-110797674D01*
X157630097Y-110802417D01*
X157630095Y-110802423D01*
X157596001Y-110929665D01*
X157596000Y-110929673D01*
X157317455Y-110929673D01*
X157398636Y-110882803D01*
X157495266Y-110786173D01*
X157563594Y-110667826D01*
X157598963Y-110535828D01*
X157598963Y-110399172D01*
X157563594Y-110267174D01*
X157495266Y-110148827D01*
X157495264Y-110148825D01*
X157495261Y-110148821D01*
X157398641Y-110052201D01*
X157398637Y-110052198D01*
X157398636Y-110052197D01*
X157339462Y-110018033D01*
X157280288Y-109983868D01*
X157280284Y-109983867D01*
X157148297Y-109948501D01*
X157148292Y-109948500D01*
X157148291Y-109948500D01*
X157011635Y-109948500D01*
X157011634Y-109948500D01*
X157011628Y-109948501D01*
X156879641Y-109983867D01*
X156879637Y-109983868D01*
X156761288Y-110052198D01*
X156761284Y-110052201D01*
X156664664Y-110148821D01*
X156664661Y-110148825D01*
X156596331Y-110267174D01*
X156596330Y-110267178D01*
X156560964Y-110399165D01*
X156560963Y-110399173D01*
X145552000Y-110399173D01*
X145552000Y-106198477D01*
X145570306Y-106154283D01*
X145653291Y-106071298D01*
X145713390Y-105967202D01*
X145744500Y-105851099D01*
X145744500Y-105730901D01*
X145713390Y-105614798D01*
X145653291Y-105510702D01*
X145568298Y-105425709D01*
X145464202Y-105365610D01*
X145464199Y-105365609D01*
X145348103Y-105334500D01*
X145348099Y-105334500D01*
X145227901Y-105334500D01*
X145227896Y-105334500D01*
X145111800Y-105365609D01*
X145111798Y-105365610D01*
X145007701Y-105425709D01*
X144922709Y-105510701D01*
X144862610Y-105614798D01*
X144862609Y-105614800D01*
X144831500Y-105730896D01*
X144831500Y-105851103D01*
X144862609Y-105967199D01*
X144862610Y-105967202D01*
X144922709Y-106071298D01*
X145005694Y-106154283D01*
X145024000Y-106198477D01*
X145024000Y-110068822D01*
X145005694Y-110113016D01*
X144961500Y-110131322D01*
X144930251Y-110122949D01*
X144829204Y-110064611D01*
X144829199Y-110064609D01*
X144713103Y-110033500D01*
X144713099Y-110033500D01*
X144592901Y-110033500D01*
X144592896Y-110033500D01*
X144476800Y-110064609D01*
X144476798Y-110064610D01*
X144372701Y-110124709D01*
X144287709Y-110209701D01*
X144227610Y-110313798D01*
X144227609Y-110313800D01*
X144196500Y-110429896D01*
X144196500Y-110550103D01*
X144226772Y-110663075D01*
X144227610Y-110666202D01*
X144274714Y-110747789D01*
X144287709Y-110770298D01*
X144370694Y-110853283D01*
X144389000Y-110897477D01*
X144389000Y-113570015D01*
X144429189Y-113667040D01*
X144429193Y-113667045D01*
X147142201Y-116380053D01*
X147160507Y-116424247D01*
X147142201Y-116468441D01*
X147098007Y-116486747D01*
X147081832Y-116484618D01*
X147068329Y-116481000D01*
X147068328Y-116481000D01*
X146931672Y-116481000D01*
X146931671Y-116481000D01*
X146931665Y-116481001D01*
X146799678Y-116516367D01*
X146799674Y-116516368D01*
X146681325Y-116584698D01*
X146681321Y-116584701D01*
X146584701Y-116681321D01*
X146584698Y-116681325D01*
X146516368Y-116799674D01*
X146516367Y-116799678D01*
X146481001Y-116931665D01*
X146481000Y-116931673D01*
X146481000Y-117068326D01*
X146481001Y-117068334D01*
X146516367Y-117200321D01*
X146516368Y-117200325D01*
X146584698Y-117318674D01*
X146584701Y-117318678D01*
X146681321Y-117415298D01*
X146681325Y-117415301D01*
X146681327Y-117415303D01*
X146799674Y-117483631D01*
X146931672Y-117519000D01*
X146931673Y-117519000D01*
X147068327Y-117519000D01*
X147068328Y-117519000D01*
X147200326Y-117483631D01*
X147318673Y-117415303D01*
X147415303Y-117318673D01*
X147483631Y-117200326D01*
X147519000Y-117068328D01*
X147519000Y-116931672D01*
X147515382Y-116918169D01*
X147521625Y-116870743D01*
X147559575Y-116841622D01*
X147607001Y-116847865D01*
X147619946Y-116857798D01*
X150468773Y-119706625D01*
X150487079Y-119750819D01*
X150468773Y-119795013D01*
X150438463Y-119809962D01*
X150438859Y-119811439D01*
X150318800Y-119843609D01*
X150318798Y-119843610D01*
X150214701Y-119903709D01*
X150129709Y-119988701D01*
X150069610Y-120092798D01*
X150069609Y-120092800D01*
X150038500Y-120208896D01*
X150038500Y-120329103D01*
X150063717Y-120423209D01*
X150069610Y-120445202D01*
X150129709Y-120549298D01*
X150214702Y-120634291D01*
X150318798Y-120694390D01*
X150389850Y-120713428D01*
X150434896Y-120725499D01*
X150434898Y-120725499D01*
X150434901Y-120725500D01*
X150434903Y-120725500D01*
X150555097Y-120725500D01*
X150555099Y-120725500D01*
X150671202Y-120694390D01*
X150775298Y-120634291D01*
X150860291Y-120549298D01*
X150920390Y-120445202D01*
X150951500Y-120329099D01*
X150952561Y-120325141D01*
X150954463Y-120325650D01*
X150975110Y-120289853D01*
X151021310Y-120277451D01*
X151057374Y-120295226D01*
X156644694Y-125882546D01*
X156663000Y-125926740D01*
X156663000Y-126044103D01*
X156694109Y-126160199D01*
X156694110Y-126160202D01*
X156754209Y-126264298D01*
X156839202Y-126349291D01*
X156943298Y-126409390D01*
X157014350Y-126428428D01*
X157059396Y-126440499D01*
X157059398Y-126440499D01*
X157059401Y-126440500D01*
X157059403Y-126440500D01*
X157179597Y-126440500D01*
X157179599Y-126440500D01*
X157295702Y-126409390D01*
X157295704Y-126409388D01*
X157297323Y-126408955D01*
X157344749Y-126415198D01*
X157373870Y-126453148D01*
X157376000Y-126469325D01*
X157376000Y-127530674D01*
X157357694Y-127574868D01*
X157313500Y-127593174D01*
X157297324Y-127591044D01*
X157179605Y-127559501D01*
X157179600Y-127559500D01*
X157179599Y-127559500D01*
X157059401Y-127559500D01*
X157059396Y-127559500D01*
X156943300Y-127590609D01*
X156943298Y-127590610D01*
X156839201Y-127650709D01*
X156754209Y-127735701D01*
X156694110Y-127839798D01*
X156694109Y-127839800D01*
X156663000Y-127955896D01*
X156663000Y-128073259D01*
X156644694Y-128117453D01*
X155806456Y-128955692D01*
X155732193Y-129029954D01*
X155732189Y-129029959D01*
X155692000Y-129126984D01*
X155692000Y-130070406D01*
X155673694Y-130114600D01*
X155629500Y-130132906D01*
X155613324Y-130130776D01*
X155496605Y-130099501D01*
X155496600Y-130099500D01*
X155496599Y-130099500D01*
X155376401Y-130099500D01*
X155376396Y-130099500D01*
X155260300Y-130130609D01*
X155260298Y-130130610D01*
X155156201Y-130190709D01*
X155071209Y-130275701D01*
X155011110Y-130379798D01*
X155011109Y-130379800D01*
X154980000Y-130495896D01*
X154980000Y-130616103D01*
X155011109Y-130732199D01*
X155011110Y-130732202D01*
X155071209Y-130836298D01*
X155156202Y-130921291D01*
X155156205Y-130921293D01*
X155159452Y-130923784D01*
X155157801Y-130925935D01*
X155181835Y-130957117D01*
X155184000Y-130973424D01*
X155184000Y-133880406D01*
X155165694Y-133924600D01*
X155121500Y-133942906D01*
X155105324Y-133940776D01*
X154988605Y-133909501D01*
X154988600Y-133909500D01*
X154988599Y-133909500D01*
X154868401Y-133909500D01*
X154868396Y-133909500D01*
X154752300Y-133940609D01*
X154752298Y-133940610D01*
X154648201Y-134000709D01*
X154563209Y-134085701D01*
X154503110Y-134189798D01*
X154503109Y-134189800D01*
X154472000Y-134305896D01*
X154472000Y-134426103D01*
X154503109Y-134542199D01*
X154503110Y-134542202D01*
X154563209Y-134646298D01*
X154648202Y-134731291D01*
X154752298Y-134791390D01*
X154809678Y-134806765D01*
X154847626Y-134835883D01*
X154856000Y-134867134D01*
X154856000Y-137712099D01*
X154837694Y-137756293D01*
X154793500Y-137774599D01*
X154762251Y-137766226D01*
X154735205Y-137750611D01*
X154735199Y-137750609D01*
X154619103Y-137719500D01*
X154619099Y-137719500D01*
X154498901Y-137719500D01*
X154498896Y-137719500D01*
X154382800Y-137750609D01*
X154382798Y-137750610D01*
X154278701Y-137810709D01*
X154193709Y-137895701D01*
X154133610Y-137999798D01*
X154133609Y-137999800D01*
X154102500Y-138115896D01*
X154102500Y-138236103D01*
X154116341Y-138287755D01*
X154133610Y-138352202D01*
X154193709Y-138456298D01*
X154278702Y-138541291D01*
X154382798Y-138601390D01*
X154453850Y-138620428D01*
X154498896Y-138632499D01*
X154498898Y-138632499D01*
X154498901Y-138632500D01*
X154498903Y-138632500D01*
X154619097Y-138632500D01*
X154619099Y-138632500D01*
X154735202Y-138601390D01*
X154762250Y-138585773D01*
X154778426Y-138583643D01*
X154793500Y-138577400D01*
X154801301Y-138580631D01*
X154809676Y-138579529D01*
X154822622Y-138589463D01*
X154837694Y-138595706D01*
X154840925Y-138603507D01*
X154847626Y-138608649D01*
X154856000Y-138639900D01*
X154856000Y-138758259D01*
X154837693Y-138802453D01*
X153087407Y-140552741D01*
X152307454Y-141332694D01*
X152263260Y-141351000D01*
X149495240Y-141351000D01*
X149451046Y-141332694D01*
X149432740Y-141288500D01*
X149451045Y-141244306D01*
X150718809Y-139976544D01*
X150718809Y-139976543D01*
X150727597Y-139967755D01*
X150727598Y-139967752D01*
X151099808Y-139595544D01*
X151105004Y-139583000D01*
X151140000Y-139498513D01*
X151140000Y-138045509D01*
X151562698Y-138045509D01*
X151562698Y-138165716D01*
X151583381Y-138242902D01*
X151593808Y-138281815D01*
X151653907Y-138385911D01*
X151738900Y-138470904D01*
X151842996Y-138531003D01*
X151914048Y-138550041D01*
X151959094Y-138562112D01*
X151959096Y-138562112D01*
X151959099Y-138562113D01*
X151959101Y-138562113D01*
X152079295Y-138562113D01*
X152079297Y-138562113D01*
X152195400Y-138531003D01*
X152299496Y-138470904D01*
X152384489Y-138385911D01*
X152444588Y-138281815D01*
X152475698Y-138165712D01*
X152475698Y-138045514D01*
X152469585Y-138022702D01*
X152449397Y-137947358D01*
X152444588Y-137929411D01*
X152384489Y-137825315D01*
X152299496Y-137740322D01*
X152195400Y-137680223D01*
X152195397Y-137680222D01*
X152079301Y-137649113D01*
X152079297Y-137649113D01*
X151959099Y-137649113D01*
X151959094Y-137649113D01*
X151842998Y-137680222D01*
X151842996Y-137680223D01*
X151738899Y-137740322D01*
X151653907Y-137825314D01*
X151593808Y-137929411D01*
X151593807Y-137929413D01*
X151562698Y-138045509D01*
X151140000Y-138045509D01*
X151140000Y-136464698D01*
X151619113Y-136464698D01*
X151619113Y-136584905D01*
X151650222Y-136701001D01*
X151650223Y-136701004D01*
X151710322Y-136805100D01*
X151795315Y-136890093D01*
X151899411Y-136950192D01*
X151970463Y-136969230D01*
X152015509Y-136981301D01*
X152015511Y-136981301D01*
X152015514Y-136981302D01*
X152015516Y-136981302D01*
X152135710Y-136981302D01*
X152135712Y-136981302D01*
X152251815Y-136950192D01*
X152355911Y-136890093D01*
X152440904Y-136805100D01*
X152501003Y-136701004D01*
X152532113Y-136584901D01*
X152532113Y-136464703D01*
X152501003Y-136348600D01*
X152440904Y-136244504D01*
X152355911Y-136159511D01*
X152251815Y-136099412D01*
X152251812Y-136099411D01*
X152135716Y-136068302D01*
X152135712Y-136068302D01*
X152015514Y-136068302D01*
X152015509Y-136068302D01*
X151899413Y-136099411D01*
X151899411Y-136099412D01*
X151795314Y-136159511D01*
X151710322Y-136244503D01*
X151650223Y-136348600D01*
X151650222Y-136348602D01*
X151619113Y-136464698D01*
X151140000Y-136464698D01*
X151140000Y-135956896D01*
X152864000Y-135956896D01*
X152864000Y-136077103D01*
X152886082Y-136159511D01*
X152895110Y-136193202D01*
X152955209Y-136297298D01*
X153040202Y-136382291D01*
X153144298Y-136442390D01*
X153215350Y-136461428D01*
X153260396Y-136473499D01*
X153260398Y-136473499D01*
X153260401Y-136473500D01*
X153260403Y-136473500D01*
X153380597Y-136473500D01*
X153380599Y-136473500D01*
X153496702Y-136442390D01*
X153600798Y-136382291D01*
X153685791Y-136297298D01*
X153745890Y-136193202D01*
X153777000Y-136077099D01*
X153777000Y-135956901D01*
X153745890Y-135840798D01*
X153685791Y-135736702D01*
X153600798Y-135651709D01*
X153496702Y-135591610D01*
X153496699Y-135591609D01*
X153380603Y-135560500D01*
X153380599Y-135560500D01*
X153260401Y-135560500D01*
X153260396Y-135560500D01*
X153144300Y-135591609D01*
X153144298Y-135591610D01*
X153040201Y-135651709D01*
X152955209Y-135736701D01*
X152895110Y-135840798D01*
X152895109Y-135840800D01*
X152864000Y-135956896D01*
X151140000Y-135956896D01*
X151140000Y-135027477D01*
X151158306Y-134983283D01*
X151241291Y-134900298D01*
X151301390Y-134796202D01*
X151332500Y-134680099D01*
X151332500Y-134559901D01*
X151301390Y-134443798D01*
X151241291Y-134339702D01*
X151156298Y-134254709D01*
X151052202Y-134194610D01*
X151052199Y-134194609D01*
X150936103Y-134163500D01*
X150936099Y-134163500D01*
X150815901Y-134163500D01*
X150815896Y-134163500D01*
X150699800Y-134194609D01*
X150699798Y-134194610D01*
X150595701Y-134254709D01*
X150510709Y-134339701D01*
X150450610Y-134443798D01*
X150450609Y-134443800D01*
X150419500Y-134559896D01*
X150419500Y-134680103D01*
X150450609Y-134796199D01*
X150450610Y-134796202D01*
X150473520Y-134835883D01*
X150510709Y-134900298D01*
X150593694Y-134983283D01*
X150612000Y-135027477D01*
X150612000Y-135214822D01*
X150593694Y-135259016D01*
X150549500Y-135277322D01*
X150518251Y-135268949D01*
X150417204Y-135210611D01*
X150417199Y-135210609D01*
X150301103Y-135179500D01*
X150301099Y-135179500D01*
X150180901Y-135179500D01*
X150180896Y-135179500D01*
X150064800Y-135210609D01*
X150064798Y-135210610D01*
X149960701Y-135270709D01*
X149875709Y-135355701D01*
X149815610Y-135459798D01*
X149815609Y-135459800D01*
X149784500Y-135575896D01*
X149784500Y-135696103D01*
X149815609Y-135812199D01*
X149815610Y-135812202D01*
X149875709Y-135916298D01*
X149960702Y-136001291D01*
X150064798Y-136061390D01*
X150135850Y-136080428D01*
X150180896Y-136092499D01*
X150180898Y-136092499D01*
X150180901Y-136092500D01*
X150180903Y-136092500D01*
X150301097Y-136092500D01*
X150301099Y-136092500D01*
X150417202Y-136061390D01*
X150518251Y-136003049D01*
X150565676Y-135996807D01*
X150603627Y-136025927D01*
X150612000Y-136057177D01*
X150612000Y-137521863D01*
X150593694Y-137566057D01*
X150549500Y-137584363D01*
X150533324Y-137582233D01*
X150416605Y-137550958D01*
X150416600Y-137550957D01*
X150416599Y-137550957D01*
X150296401Y-137550957D01*
X150296396Y-137550957D01*
X150180300Y-137582066D01*
X150180298Y-137582067D01*
X150076201Y-137642166D01*
X149991209Y-137727158D01*
X149931110Y-137831255D01*
X149931109Y-137831257D01*
X149900000Y-137947353D01*
X149900000Y-138067560D01*
X149926301Y-138165712D01*
X149931110Y-138183659D01*
X149987778Y-138281812D01*
X149991209Y-138287755D01*
X150074194Y-138370740D01*
X150092500Y-138414934D01*
X150092500Y-139366397D01*
X150074193Y-139410591D01*
X148913739Y-140571047D01*
X148152092Y-141332694D01*
X148107898Y-141351000D01*
X140651500Y-141351000D01*
X140607306Y-141332694D01*
X140589000Y-141288500D01*
X140589000Y-139631451D01*
X146488899Y-139631451D01*
X146488899Y-139751658D01*
X146515448Y-139850737D01*
X146520009Y-139867757D01*
X146580108Y-139971853D01*
X146665101Y-140056846D01*
X146769197Y-140116945D01*
X146840249Y-140135983D01*
X146885295Y-140148054D01*
X146885297Y-140148054D01*
X146885300Y-140148055D01*
X146885302Y-140148055D01*
X147005496Y-140148055D01*
X147005498Y-140148055D01*
X147121601Y-140116945D01*
X147225697Y-140056846D01*
X147310690Y-139971853D01*
X147370789Y-139867757D01*
X147401899Y-139751654D01*
X147401899Y-139631456D01*
X147399419Y-139622202D01*
X147388915Y-139583000D01*
X147370789Y-139515353D01*
X147310690Y-139411257D01*
X147225697Y-139326264D01*
X147121601Y-139266165D01*
X147121598Y-139266164D01*
X147005502Y-139235055D01*
X147005498Y-139235055D01*
X146885300Y-139235055D01*
X146885295Y-139235055D01*
X146769199Y-139266164D01*
X146769197Y-139266165D01*
X146665100Y-139326264D01*
X146580108Y-139411256D01*
X146520009Y-139515353D01*
X146520008Y-139515355D01*
X146488899Y-139631451D01*
X140589000Y-139631451D01*
X140589000Y-138242896D01*
X143434500Y-138242896D01*
X143434500Y-138363103D01*
X143465609Y-138479199D01*
X143465610Y-138479202D01*
X143525709Y-138583298D01*
X143610702Y-138668291D01*
X143714798Y-138728390D01*
X143785850Y-138747428D01*
X143830896Y-138759499D01*
X143830898Y-138759499D01*
X143830901Y-138759500D01*
X143830903Y-138759500D01*
X143951097Y-138759500D01*
X143951099Y-138759500D01*
X143955731Y-138758259D01*
X143963002Y-138756310D01*
X144067202Y-138728390D01*
X144067204Y-138728388D01*
X144070536Y-138727496D01*
X144117962Y-138733739D01*
X144147083Y-138771689D01*
X144140840Y-138819115D01*
X144100611Y-138888794D01*
X144100609Y-138888800D01*
X144069500Y-139004896D01*
X144069500Y-139125103D01*
X144087206Y-139191179D01*
X144100610Y-139241202D01*
X144160709Y-139345298D01*
X144245702Y-139430291D01*
X144349798Y-139490390D01*
X144420850Y-139509428D01*
X144465896Y-139521499D01*
X144465898Y-139521499D01*
X144465901Y-139521500D01*
X144465903Y-139521500D01*
X144586097Y-139521500D01*
X144586099Y-139521500D01*
X144702202Y-139490390D01*
X144806298Y-139430291D01*
X144891291Y-139345298D01*
X144951390Y-139241202D01*
X144982500Y-139125099D01*
X144982500Y-139004901D01*
X144951390Y-138888798D01*
X144891291Y-138784702D01*
X144806298Y-138699709D01*
X144702202Y-138639610D01*
X144702199Y-138639609D01*
X144586103Y-138608500D01*
X144586099Y-138608500D01*
X144465901Y-138608500D01*
X144465899Y-138608500D01*
X144465893Y-138608501D01*
X144346462Y-138640503D01*
X144299036Y-138634260D01*
X144269916Y-138596309D01*
X144276158Y-138548885D01*
X144316390Y-138479202D01*
X144347500Y-138363099D01*
X144347500Y-138242901D01*
X144345678Y-138236103D01*
X144326817Y-138165712D01*
X144316390Y-138126798D01*
X144256291Y-138022702D01*
X144171298Y-137937709D01*
X144067202Y-137877610D01*
X144067199Y-137877609D01*
X143951103Y-137846500D01*
X143951099Y-137846500D01*
X143830901Y-137846500D01*
X143830896Y-137846500D01*
X143714800Y-137877609D01*
X143714798Y-137877610D01*
X143610701Y-137937709D01*
X143525709Y-138022701D01*
X143465610Y-138126798D01*
X143465609Y-138126800D01*
X143434500Y-138242896D01*
X140589000Y-138242896D01*
X140589000Y-136807399D01*
X148514500Y-136807399D01*
X148514500Y-136927606D01*
X148545609Y-137043702D01*
X148545610Y-137043705D01*
X148605709Y-137147801D01*
X148690702Y-137232794D01*
X148794798Y-137292893D01*
X148865850Y-137311931D01*
X148910896Y-137324002D01*
X148910898Y-137324002D01*
X148910901Y-137324003D01*
X148910903Y-137324003D01*
X149031097Y-137324003D01*
X149031099Y-137324003D01*
X149147202Y-137292893D01*
X149251298Y-137232794D01*
X149336291Y-137147801D01*
X149396390Y-137043705D01*
X149427500Y-136927602D01*
X149427500Y-136807404D01*
X149396390Y-136691301D01*
X149336291Y-136587205D01*
X149251298Y-136502212D01*
X149147202Y-136442113D01*
X149147199Y-136442112D01*
X149031103Y-136411003D01*
X149031099Y-136411003D01*
X148910901Y-136411003D01*
X148910896Y-136411003D01*
X148794800Y-136442112D01*
X148794798Y-136442113D01*
X148690701Y-136502212D01*
X148605709Y-136587204D01*
X148545610Y-136691301D01*
X148545609Y-136691303D01*
X148514500Y-136807399D01*
X140589000Y-136807399D01*
X140589000Y-133535673D01*
X144642000Y-133535673D01*
X144642000Y-133672326D01*
X144642001Y-133672334D01*
X144677367Y-133804321D01*
X144677368Y-133804325D01*
X144745698Y-133922674D01*
X144745701Y-133922678D01*
X144842321Y-134019298D01*
X144842325Y-134019301D01*
X144842327Y-134019303D01*
X144960674Y-134087631D01*
X145092672Y-134123000D01*
X145092673Y-134123000D01*
X145229327Y-134123000D01*
X145229328Y-134123000D01*
X145361326Y-134087631D01*
X145479673Y-134019303D01*
X145576303Y-133922673D01*
X145644631Y-133804326D01*
X145680000Y-133672328D01*
X145680000Y-133535672D01*
X145652133Y-133431673D01*
X148981000Y-133431673D01*
X148981000Y-133568326D01*
X148981001Y-133568334D01*
X149016367Y-133700321D01*
X149016368Y-133700325D01*
X149084698Y-133818674D01*
X149084701Y-133818678D01*
X149181321Y-133915298D01*
X149181325Y-133915301D01*
X149181327Y-133915303D01*
X149299674Y-133983631D01*
X149431672Y-134019000D01*
X149431673Y-134019000D01*
X149568327Y-134019000D01*
X149568328Y-134019000D01*
X149700326Y-133983631D01*
X149818673Y-133915303D01*
X149915303Y-133818673D01*
X149983631Y-133700326D01*
X150019000Y-133568328D01*
X150019000Y-133431672D01*
X149983631Y-133299674D01*
X149915303Y-133181327D01*
X149915301Y-133181325D01*
X149915298Y-133181321D01*
X149818678Y-133084701D01*
X149818674Y-133084698D01*
X149818673Y-133084697D01*
X149739072Y-133038739D01*
X149700325Y-133016368D01*
X149700321Y-133016367D01*
X149568334Y-132981001D01*
X149568329Y-132981000D01*
X149568328Y-132981000D01*
X149431672Y-132981000D01*
X149431671Y-132981000D01*
X149431665Y-132981001D01*
X149299678Y-133016367D01*
X149299674Y-133016368D01*
X149181325Y-133084698D01*
X149181321Y-133084701D01*
X149084701Y-133181321D01*
X149084698Y-133181325D01*
X149016368Y-133299674D01*
X149016367Y-133299678D01*
X148981001Y-133431665D01*
X148981000Y-133431673D01*
X145652133Y-133431673D01*
X145644631Y-133403674D01*
X145576303Y-133285327D01*
X145576301Y-133285325D01*
X145576298Y-133285321D01*
X145479678Y-133188701D01*
X145479674Y-133188698D01*
X145479673Y-133188697D01*
X145420499Y-133154533D01*
X145361325Y-133120368D01*
X145361321Y-133120367D01*
X145229334Y-133085001D01*
X145229329Y-133085000D01*
X145229328Y-133085000D01*
X145092672Y-133085000D01*
X145092671Y-133085000D01*
X145092665Y-133085001D01*
X144960678Y-133120367D01*
X144960674Y-133120368D01*
X144842325Y-133188698D01*
X144842321Y-133188701D01*
X144745701Y-133285321D01*
X144745698Y-133285325D01*
X144677368Y-133403674D01*
X144677367Y-133403678D01*
X144642001Y-133535665D01*
X144642000Y-133535673D01*
X140589000Y-133535673D01*
X140589000Y-131630673D01*
X142356000Y-131630673D01*
X142356000Y-131767326D01*
X142356001Y-131767334D01*
X142391367Y-131899321D01*
X142391368Y-131899325D01*
X142391369Y-131899326D01*
X142457058Y-132013103D01*
X142459698Y-132017674D01*
X142459701Y-132017678D01*
X142556321Y-132114298D01*
X142556325Y-132114301D01*
X142556327Y-132114303D01*
X142674674Y-132182631D01*
X142806672Y-132218000D01*
X142806673Y-132218000D01*
X142943327Y-132218000D01*
X142943328Y-132218000D01*
X143075326Y-132182631D01*
X143193673Y-132114303D01*
X143290303Y-132017673D01*
X143358631Y-131899326D01*
X143394000Y-131767328D01*
X143394000Y-131630672D01*
X143358631Y-131498674D01*
X143290303Y-131380327D01*
X143290301Y-131380325D01*
X143290298Y-131380321D01*
X143193678Y-131283701D01*
X143193674Y-131283698D01*
X143193673Y-131283697D01*
X143134499Y-131249533D01*
X143075325Y-131215368D01*
X143075321Y-131215367D01*
X142943334Y-131180001D01*
X142943329Y-131180000D01*
X142943328Y-131180000D01*
X142806672Y-131180000D01*
X142806671Y-131180000D01*
X142806665Y-131180001D01*
X142674678Y-131215367D01*
X142674674Y-131215368D01*
X142556325Y-131283698D01*
X142556321Y-131283701D01*
X142459701Y-131380321D01*
X142459698Y-131380325D01*
X142391368Y-131498674D01*
X142391367Y-131498678D01*
X142356001Y-131630665D01*
X142356000Y-131630673D01*
X140589000Y-131630673D01*
X140589000Y-130422393D01*
X146972500Y-130422393D01*
X146972500Y-130547606D01*
X146994981Y-130631500D01*
X147004905Y-130668536D01*
X147067505Y-130776964D01*
X147156036Y-130865495D01*
X147264464Y-130928095D01*
X147264755Y-130928173D01*
X147264876Y-130928265D01*
X147268248Y-130929662D01*
X147267874Y-130930564D01*
X147302709Y-130957284D01*
X147308963Y-131004709D01*
X147292783Y-131032739D01*
X147199201Y-131126321D01*
X147199198Y-131126325D01*
X147130868Y-131244674D01*
X147130867Y-131244678D01*
X147095501Y-131376665D01*
X147095500Y-131376673D01*
X147095500Y-131513326D01*
X147095501Y-131513334D01*
X147130867Y-131645321D01*
X147130868Y-131645325D01*
X147199198Y-131763674D01*
X147199201Y-131763678D01*
X147295821Y-131860298D01*
X147295825Y-131860301D01*
X147295827Y-131860303D01*
X147414174Y-131928631D01*
X147546172Y-131964000D01*
X147546173Y-131964000D01*
X147682827Y-131964000D01*
X147682828Y-131964000D01*
X147814826Y-131928631D01*
X147876721Y-131892896D01*
X149530500Y-131892896D01*
X149530500Y-132013103D01*
X149561609Y-132129199D01*
X149561610Y-132129202D01*
X149621709Y-132233298D01*
X149706702Y-132318291D01*
X149810798Y-132378390D01*
X149881850Y-132397428D01*
X149926896Y-132409499D01*
X149926898Y-132409499D01*
X149926901Y-132409500D01*
X149926903Y-132409500D01*
X150024507Y-132409500D01*
X150068701Y-132427806D01*
X150087007Y-132472000D01*
X150078634Y-132503247D01*
X150070592Y-132517176D01*
X150058109Y-132538798D01*
X150058109Y-132538800D01*
X150027000Y-132654896D01*
X150027000Y-132775103D01*
X150058109Y-132891199D01*
X150058110Y-132891202D01*
X150118209Y-132995298D01*
X150203202Y-133080291D01*
X150307298Y-133140390D01*
X150378350Y-133159428D01*
X150423396Y-133171499D01*
X150423398Y-133171499D01*
X150423401Y-133171500D01*
X150423403Y-133171500D01*
X150543597Y-133171500D01*
X150543599Y-133171500D01*
X150659702Y-133140390D01*
X150763798Y-133080291D01*
X150848791Y-132995298D01*
X150908890Y-132891202D01*
X150940000Y-132775099D01*
X150940000Y-132654901D01*
X150908890Y-132538798D01*
X150848791Y-132434702D01*
X150763798Y-132349709D01*
X150659702Y-132289610D01*
X150659699Y-132289609D01*
X150543603Y-132258500D01*
X150543599Y-132258500D01*
X150445993Y-132258500D01*
X150401799Y-132240194D01*
X150383493Y-132196000D01*
X150391865Y-132164752D01*
X150412390Y-132129202D01*
X150443500Y-132013099D01*
X150443500Y-131892901D01*
X150412390Y-131776798D01*
X150352291Y-131672702D01*
X150267298Y-131587709D01*
X150163202Y-131527610D01*
X150163199Y-131527609D01*
X150047103Y-131496500D01*
X150047099Y-131496500D01*
X149926901Y-131496500D01*
X149926896Y-131496500D01*
X149810800Y-131527609D01*
X149810798Y-131527610D01*
X149706701Y-131587709D01*
X149621709Y-131672701D01*
X149561610Y-131776798D01*
X149561609Y-131776800D01*
X149530500Y-131892896D01*
X147876721Y-131892896D01*
X147933173Y-131860303D01*
X147933178Y-131860298D01*
X147948867Y-131844610D01*
X148029798Y-131763678D01*
X148029803Y-131763673D01*
X148098131Y-131645326D01*
X148133500Y-131513328D01*
X148133500Y-131376672D01*
X148098131Y-131244674D01*
X148029803Y-131126327D01*
X148029801Y-131126325D01*
X148029798Y-131126321D01*
X147933178Y-131029701D01*
X147933174Y-131029698D01*
X147933173Y-131029697D01*
X147835706Y-130973424D01*
X147814825Y-130961368D01*
X147784733Y-130953305D01*
X147746784Y-130924184D01*
X147740541Y-130876757D01*
X147756715Y-130848743D01*
X147828495Y-130776964D01*
X147891095Y-130668536D01*
X147923500Y-130547601D01*
X147923500Y-130422399D01*
X147923499Y-130422393D01*
X147904422Y-130351199D01*
X147891095Y-130301464D01*
X147828495Y-130193036D01*
X147750355Y-130114896D01*
X150546500Y-130114896D01*
X150546500Y-130235103D01*
X150564283Y-130301466D01*
X150577610Y-130351202D01*
X150637709Y-130455298D01*
X150722702Y-130540291D01*
X150826798Y-130600390D01*
X150897850Y-130619428D01*
X150942896Y-130631499D01*
X150942898Y-130631499D01*
X150942901Y-130631500D01*
X150942903Y-130631500D01*
X151063097Y-130631500D01*
X151063099Y-130631500D01*
X151179202Y-130600390D01*
X151283298Y-130540291D01*
X151368291Y-130455298D01*
X151428390Y-130351202D01*
X151459500Y-130235099D01*
X151459500Y-130114901D01*
X151459419Y-130114600D01*
X151447428Y-130069850D01*
X151428390Y-129998798D01*
X151368291Y-129894702D01*
X151283298Y-129809709D01*
X151179202Y-129749610D01*
X151179199Y-129749609D01*
X151063103Y-129718500D01*
X151063099Y-129718500D01*
X150942901Y-129718500D01*
X150942896Y-129718500D01*
X150826800Y-129749609D01*
X150826798Y-129749610D01*
X150722701Y-129809709D01*
X150637709Y-129894701D01*
X150577610Y-129998798D01*
X150577609Y-129998800D01*
X150546500Y-130114896D01*
X147750355Y-130114896D01*
X147739964Y-130104505D01*
X147631536Y-130041905D01*
X147631533Y-130041904D01*
X147510606Y-130009500D01*
X147510601Y-130009500D01*
X147385399Y-130009500D01*
X147385393Y-130009500D01*
X147264466Y-130041904D01*
X147264464Y-130041905D01*
X147156035Y-130104505D01*
X147067505Y-130193035D01*
X147004905Y-130301464D01*
X147004904Y-130301466D01*
X146972500Y-130422393D01*
X140589000Y-130422393D01*
X140589000Y-127828896D01*
X146736500Y-127828896D01*
X146736500Y-127949103D01*
X146764715Y-128054398D01*
X146767610Y-128065202D01*
X146827709Y-128169298D01*
X146912702Y-128254291D01*
X147016798Y-128314390D01*
X147087850Y-128333428D01*
X147132896Y-128345499D01*
X147132898Y-128345499D01*
X147132901Y-128345500D01*
X147132903Y-128345500D01*
X147253097Y-128345500D01*
X147253099Y-128345500D01*
X147369202Y-128314390D01*
X147473298Y-128254291D01*
X147558291Y-128169298D01*
X147612922Y-128074673D01*
X150484000Y-128074673D01*
X150484000Y-128211326D01*
X150484001Y-128211334D01*
X150519367Y-128343321D01*
X150519368Y-128343325D01*
X150520624Y-128345500D01*
X150575735Y-128440955D01*
X150587698Y-128461674D01*
X150587701Y-128461678D01*
X150684321Y-128558298D01*
X150684325Y-128558301D01*
X150684327Y-128558303D01*
X150802674Y-128626631D01*
X150934672Y-128662000D01*
X150934673Y-128662000D01*
X151071327Y-128662000D01*
X151071328Y-128662000D01*
X151203326Y-128626631D01*
X151321673Y-128558303D01*
X151418303Y-128461673D01*
X151486631Y-128343326D01*
X151522000Y-128211328D01*
X151522000Y-128168710D01*
X154961963Y-128168710D01*
X154961963Y-128305363D01*
X154961964Y-128305371D01*
X154997330Y-128437358D01*
X154997331Y-128437362D01*
X155065661Y-128555711D01*
X155065664Y-128555715D01*
X155162284Y-128652335D01*
X155162288Y-128652338D01*
X155162290Y-128652340D01*
X155280637Y-128720668D01*
X155412635Y-128756037D01*
X155412636Y-128756037D01*
X155549290Y-128756037D01*
X155549291Y-128756037D01*
X155681289Y-128720668D01*
X155799636Y-128652340D01*
X155896266Y-128555710D01*
X155964594Y-128437363D01*
X155999963Y-128305365D01*
X155999963Y-128168709D01*
X155964594Y-128036711D01*
X155896266Y-127918364D01*
X155896264Y-127918362D01*
X155896261Y-127918358D01*
X155799641Y-127821738D01*
X155799637Y-127821735D01*
X155799636Y-127821734D01*
X155711314Y-127770741D01*
X155681288Y-127753405D01*
X155681284Y-127753404D01*
X155549297Y-127718038D01*
X155549292Y-127718037D01*
X155549291Y-127718037D01*
X155412635Y-127718037D01*
X155412634Y-127718037D01*
X155412628Y-127718038D01*
X155280641Y-127753404D01*
X155280637Y-127753405D01*
X155162288Y-127821735D01*
X155162284Y-127821738D01*
X155065664Y-127918358D01*
X155065661Y-127918362D01*
X154997331Y-128036711D01*
X154997330Y-128036715D01*
X154961964Y-128168702D01*
X154961963Y-128168710D01*
X151522000Y-128168710D01*
X151522000Y-128074672D01*
X151486631Y-127942674D01*
X151418303Y-127824327D01*
X151418301Y-127824325D01*
X151418298Y-127824321D01*
X151321678Y-127727701D01*
X151321674Y-127727698D01*
X151321673Y-127727697D01*
X151262499Y-127693533D01*
X151203325Y-127659368D01*
X151203321Y-127659367D01*
X151071334Y-127624001D01*
X151071329Y-127624000D01*
X151071328Y-127624000D01*
X150934672Y-127624000D01*
X150934671Y-127624000D01*
X150934665Y-127624001D01*
X150802678Y-127659367D01*
X150802674Y-127659368D01*
X150684325Y-127727698D01*
X150684321Y-127727701D01*
X150587701Y-127824321D01*
X150587698Y-127824325D01*
X150519368Y-127942674D01*
X150519367Y-127942678D01*
X150484001Y-128074665D01*
X150484000Y-128074673D01*
X147612922Y-128074673D01*
X147618390Y-128065202D01*
X147649500Y-127949099D01*
X147649500Y-127828901D01*
X147646623Y-127818165D01*
X147652865Y-127770741D01*
X147690812Y-127741618D01*
X147690816Y-127741618D01*
X147690817Y-127741618D01*
X147764146Y-127721969D01*
X147764145Y-127721969D01*
X147764150Y-127721968D01*
X147868246Y-127661869D01*
X147953239Y-127576876D01*
X148013338Y-127472780D01*
X148044448Y-127356677D01*
X148044448Y-127236479D01*
X148013338Y-127120376D01*
X147953239Y-127016280D01*
X147868246Y-126931287D01*
X147764150Y-126871188D01*
X147764147Y-126871187D01*
X147648051Y-126840078D01*
X147648047Y-126840078D01*
X147527849Y-126840078D01*
X147527844Y-126840078D01*
X147411748Y-126871187D01*
X147411746Y-126871188D01*
X147307649Y-126931287D01*
X147222657Y-127016279D01*
X147162558Y-127120376D01*
X147162557Y-127120378D01*
X147131448Y-127236474D01*
X147131448Y-127356675D01*
X147131449Y-127356684D01*
X147134324Y-127367413D01*
X147128081Y-127414839D01*
X147090131Y-127443959D01*
X147016800Y-127463609D01*
X147016798Y-127463610D01*
X146912701Y-127523709D01*
X146827709Y-127608701D01*
X146767610Y-127712798D01*
X146767609Y-127712800D01*
X146736500Y-127828896D01*
X140589000Y-127828896D01*
X140589000Y-124780896D01*
X144450500Y-124780896D01*
X144450500Y-124901103D01*
X144476187Y-124996963D01*
X144481610Y-125017202D01*
X144541709Y-125121298D01*
X144626702Y-125206291D01*
X144730798Y-125266390D01*
X144801850Y-125285428D01*
X144846896Y-125297499D01*
X144846898Y-125297499D01*
X144846901Y-125297500D01*
X144846903Y-125297500D01*
X144967097Y-125297500D01*
X144967099Y-125297500D01*
X144967107Y-125297498D01*
X144976623Y-125294947D01*
X145083202Y-125266390D01*
X145187298Y-125206291D01*
X145272291Y-125121298D01*
X145332390Y-125017202D01*
X145361679Y-124907896D01*
X145974500Y-124907896D01*
X145974500Y-125028103D01*
X146005609Y-125144199D01*
X146005610Y-125144202D01*
X146065709Y-125248298D01*
X146150702Y-125333291D01*
X146254798Y-125393390D01*
X146325850Y-125412428D01*
X146370896Y-125424499D01*
X146370898Y-125424499D01*
X146370901Y-125424500D01*
X146370903Y-125424500D01*
X146491097Y-125424500D01*
X146491099Y-125424500D01*
X146607202Y-125393390D01*
X146711298Y-125333291D01*
X146796291Y-125248298D01*
X146856390Y-125144202D01*
X146887500Y-125028099D01*
X146887500Y-124918437D01*
X146905806Y-124874243D01*
X146950000Y-124855937D01*
X146994194Y-124874243D01*
X147004127Y-124887188D01*
X147004904Y-124888535D01*
X147004905Y-124888536D01*
X147016082Y-124907896D01*
X147065965Y-124994298D01*
X147067505Y-124996964D01*
X147156036Y-125085495D01*
X147264464Y-125148095D01*
X147315969Y-125161896D01*
X147385393Y-125180499D01*
X147385399Y-125180500D01*
X147510601Y-125180500D01*
X147510606Y-125180499D01*
X147556053Y-125168321D01*
X147631536Y-125148095D01*
X147739964Y-125085495D01*
X147828495Y-124996964D01*
X147884665Y-124899673D01*
X149046500Y-124899673D01*
X149046500Y-125036326D01*
X149046501Y-125036334D01*
X149081867Y-125168321D01*
X149081868Y-125168325D01*
X149103788Y-125206291D01*
X149147558Y-125282103D01*
X149150198Y-125286674D01*
X149150201Y-125286678D01*
X149246821Y-125383298D01*
X149246825Y-125383301D01*
X149246827Y-125383303D01*
X149365174Y-125451631D01*
X149497172Y-125487000D01*
X149497173Y-125487000D01*
X149633827Y-125487000D01*
X149633828Y-125487000D01*
X149765826Y-125451631D01*
X149884173Y-125383303D01*
X149980803Y-125286673D01*
X150049131Y-125168326D01*
X150084500Y-125036328D01*
X150084500Y-124899672D01*
X150049131Y-124767674D01*
X150049088Y-124767600D01*
X149999124Y-124681059D01*
X149999122Y-124681057D01*
X149983441Y-124653896D01*
X150800500Y-124653896D01*
X150800500Y-124774103D01*
X150831609Y-124890199D01*
X150831610Y-124890202D01*
X150891709Y-124994298D01*
X150976702Y-125079291D01*
X151080798Y-125139390D01*
X151151850Y-125158428D01*
X151196896Y-125170499D01*
X151196898Y-125170499D01*
X151196901Y-125170500D01*
X151196903Y-125170500D01*
X151317097Y-125170500D01*
X151317099Y-125170500D01*
X151349209Y-125161896D01*
X152324500Y-125161896D01*
X152324500Y-125282103D01*
X152355609Y-125398199D01*
X152355610Y-125398202D01*
X152415709Y-125502298D01*
X152500702Y-125587291D01*
X152604798Y-125647390D01*
X152675850Y-125666428D01*
X152720896Y-125678499D01*
X152720898Y-125678499D01*
X152720901Y-125678500D01*
X152720903Y-125678500D01*
X152841097Y-125678500D01*
X152841099Y-125678500D01*
X152957202Y-125647390D01*
X153061298Y-125587291D01*
X153146291Y-125502298D01*
X153206390Y-125398202D01*
X153237500Y-125282099D01*
X153237500Y-125161901D01*
X153233800Y-125148094D01*
X153217027Y-125085495D01*
X153206390Y-125045798D01*
X153146291Y-124941702D01*
X153061298Y-124856709D01*
X152957202Y-124796610D01*
X152957199Y-124796609D01*
X152841103Y-124765500D01*
X152841099Y-124765500D01*
X152720901Y-124765500D01*
X152720896Y-124765500D01*
X152604800Y-124796609D01*
X152604798Y-124796610D01*
X152500701Y-124856709D01*
X152415709Y-124941701D01*
X152355610Y-125045798D01*
X152355609Y-125045800D01*
X152324500Y-125161896D01*
X151349209Y-125161896D01*
X151433202Y-125139390D01*
X151537298Y-125079291D01*
X151622291Y-124994298D01*
X151682390Y-124890202D01*
X151713500Y-124774099D01*
X151713500Y-124653901D01*
X151712274Y-124649327D01*
X151696184Y-124589278D01*
X151682390Y-124537798D01*
X151622291Y-124433702D01*
X151537298Y-124348709D01*
X151433202Y-124288610D01*
X151433199Y-124288609D01*
X151317103Y-124257500D01*
X151317099Y-124257500D01*
X151196901Y-124257500D01*
X151196896Y-124257500D01*
X151080800Y-124288609D01*
X151080798Y-124288610D01*
X150976701Y-124348709D01*
X150891709Y-124433701D01*
X150831610Y-124537798D01*
X150831609Y-124537800D01*
X150800500Y-124653896D01*
X149983441Y-124653896D01*
X149980803Y-124649327D01*
X149980801Y-124649325D01*
X149980798Y-124649321D01*
X149884178Y-124552701D01*
X149884174Y-124552698D01*
X149884173Y-124552697D01*
X149812818Y-124511500D01*
X149765825Y-124484368D01*
X149765821Y-124484367D01*
X149633834Y-124449001D01*
X149633829Y-124449000D01*
X149633828Y-124449000D01*
X149497172Y-124449000D01*
X149497171Y-124449000D01*
X149497165Y-124449001D01*
X149365178Y-124484367D01*
X149365174Y-124484368D01*
X149246825Y-124552698D01*
X149246821Y-124552701D01*
X149150201Y-124649321D01*
X149150198Y-124649325D01*
X149081868Y-124767674D01*
X149081867Y-124767678D01*
X149046501Y-124899665D01*
X149046500Y-124899673D01*
X147884665Y-124899673D01*
X147891095Y-124888536D01*
X147917016Y-124791800D01*
X147923499Y-124767606D01*
X147923500Y-124767600D01*
X147923500Y-124642399D01*
X147923499Y-124642393D01*
X147895472Y-124537800D01*
X147891095Y-124521464D01*
X147828495Y-124413036D01*
X147739964Y-124324505D01*
X147631536Y-124261905D01*
X147631533Y-124261904D01*
X147510606Y-124229500D01*
X147510601Y-124229500D01*
X147385399Y-124229500D01*
X147385393Y-124229500D01*
X147264466Y-124261904D01*
X147264464Y-124261905D01*
X147156035Y-124324505D01*
X147067505Y-124413035D01*
X147004905Y-124521464D01*
X147004904Y-124521466D01*
X146972500Y-124642393D01*
X146972500Y-124759653D01*
X146954194Y-124803847D01*
X146910000Y-124822153D01*
X146865806Y-124803847D01*
X146855873Y-124790903D01*
X146850099Y-124780902D01*
X146796291Y-124687702D01*
X146711298Y-124602709D01*
X146607202Y-124542610D01*
X146607199Y-124542609D01*
X146491103Y-124511500D01*
X146491099Y-124511500D01*
X146370901Y-124511500D01*
X146370896Y-124511500D01*
X146254800Y-124542609D01*
X146254798Y-124542610D01*
X146150701Y-124602709D01*
X146065709Y-124687701D01*
X146005610Y-124791798D01*
X146005609Y-124791800D01*
X145974500Y-124907896D01*
X145361679Y-124907896D01*
X145363500Y-124901099D01*
X145363500Y-124780901D01*
X145361678Y-124774103D01*
X145336747Y-124681059D01*
X145332390Y-124664798D01*
X145272291Y-124560702D01*
X145187298Y-124475709D01*
X145083202Y-124415610D01*
X145083199Y-124415609D01*
X144967103Y-124384500D01*
X144967099Y-124384500D01*
X144846901Y-124384500D01*
X144846896Y-124384500D01*
X144730800Y-124415609D01*
X144730798Y-124415610D01*
X144626701Y-124475709D01*
X144541709Y-124560701D01*
X144481610Y-124664798D01*
X144481609Y-124664800D01*
X144450500Y-124780896D01*
X140589000Y-124780896D01*
X140589000Y-121216673D01*
X142483000Y-121216673D01*
X142483000Y-121353326D01*
X142483001Y-121353334D01*
X142518367Y-121485321D01*
X142518368Y-121485325D01*
X142546968Y-121534860D01*
X142577764Y-121588201D01*
X142586698Y-121603674D01*
X142586701Y-121603678D01*
X142683321Y-121700298D01*
X142683325Y-121700301D01*
X142683327Y-121700303D01*
X142801674Y-121768631D01*
X142933672Y-121804000D01*
X142933673Y-121804000D01*
X143070327Y-121804000D01*
X143070328Y-121804000D01*
X143202326Y-121768631D01*
X143320673Y-121700303D01*
X143417303Y-121603673D01*
X143485631Y-121485326D01*
X143521000Y-121353328D01*
X143521000Y-121216673D01*
X144515000Y-121216673D01*
X144515000Y-121353326D01*
X144515001Y-121353334D01*
X144550367Y-121485321D01*
X144550368Y-121485325D01*
X144578968Y-121534860D01*
X144609764Y-121588201D01*
X144618698Y-121603674D01*
X144618701Y-121603678D01*
X144715321Y-121700298D01*
X144715325Y-121700301D01*
X144715327Y-121700303D01*
X144833674Y-121768631D01*
X144965672Y-121804000D01*
X144965673Y-121804000D01*
X145102327Y-121804000D01*
X145102328Y-121804000D01*
X145234326Y-121768631D01*
X145352673Y-121700303D01*
X145449303Y-121603673D01*
X145517631Y-121485326D01*
X145553000Y-121353328D01*
X145553000Y-121216672D01*
X145517631Y-121084674D01*
X145449303Y-120966327D01*
X145449301Y-120966325D01*
X145449298Y-120966321D01*
X145352678Y-120869701D01*
X145352674Y-120869698D01*
X145352673Y-120869697D01*
X145234326Y-120801369D01*
X145234325Y-120801368D01*
X145234324Y-120801368D01*
X145172021Y-120784674D01*
X145172020Y-120784673D01*
X145102334Y-120766001D01*
X145102329Y-120766000D01*
X145102328Y-120766000D01*
X144965672Y-120766000D01*
X144965671Y-120766000D01*
X144965665Y-120766001D01*
X144833678Y-120801367D01*
X144833674Y-120801368D01*
X144715325Y-120869698D01*
X144715321Y-120869701D01*
X144618701Y-120966321D01*
X144618698Y-120966325D01*
X144550368Y-121084674D01*
X144550367Y-121084678D01*
X144515001Y-121216665D01*
X144515000Y-121216673D01*
X143521000Y-121216673D01*
X143521000Y-121216672D01*
X143485631Y-121084674D01*
X143417303Y-120966327D01*
X143417301Y-120966325D01*
X143417298Y-120966321D01*
X143320678Y-120869701D01*
X143320674Y-120869698D01*
X143320673Y-120869697D01*
X143261499Y-120835533D01*
X143202325Y-120801368D01*
X143202321Y-120801367D01*
X143070334Y-120766001D01*
X143070329Y-120766000D01*
X143070328Y-120766000D01*
X142933672Y-120766000D01*
X142933671Y-120766000D01*
X142933665Y-120766001D01*
X142801678Y-120801367D01*
X142801674Y-120801368D01*
X142683325Y-120869698D01*
X142683321Y-120869701D01*
X142586701Y-120966321D01*
X142586698Y-120966325D01*
X142518368Y-121084674D01*
X142518367Y-121084678D01*
X142483001Y-121216665D01*
X142483000Y-121216673D01*
X140589000Y-121216673D01*
X140589000Y-120728396D01*
X148895500Y-120728396D01*
X148895500Y-120848603D01*
X148924144Y-120955500D01*
X148926610Y-120964702D01*
X148986709Y-121068798D01*
X149071702Y-121153791D01*
X149175798Y-121213890D01*
X149246850Y-121232928D01*
X149291896Y-121244999D01*
X149291898Y-121244999D01*
X149291901Y-121245000D01*
X149291903Y-121245000D01*
X149412097Y-121245000D01*
X149412099Y-121245000D01*
X149528202Y-121213890D01*
X149632298Y-121153791D01*
X149717291Y-121068798D01*
X149777390Y-120964702D01*
X149808500Y-120848599D01*
X149808500Y-120728401D01*
X149807722Y-120725499D01*
X149783283Y-120634291D01*
X149777390Y-120612298D01*
X149717291Y-120508202D01*
X149632298Y-120423209D01*
X149528202Y-120363110D01*
X149528199Y-120363109D01*
X149412103Y-120332000D01*
X149412099Y-120332000D01*
X149291901Y-120332000D01*
X149291896Y-120332000D01*
X149175800Y-120363109D01*
X149175798Y-120363110D01*
X149071701Y-120423209D01*
X148986709Y-120508201D01*
X148926610Y-120612298D01*
X148926609Y-120612300D01*
X148895500Y-120728396D01*
X140589000Y-120728396D01*
X140589000Y-107734227D01*
X141468000Y-107734227D01*
X141468000Y-107933772D01*
X141506928Y-108129479D01*
X141506928Y-108129480D01*
X141583291Y-108313835D01*
X141583292Y-108313837D01*
X141645207Y-108406499D01*
X141694152Y-108479750D01*
X141835250Y-108620848D01*
X142001165Y-108731709D01*
X142185519Y-108808071D01*
X142381228Y-108847000D01*
X142580772Y-108847000D01*
X142776481Y-108808071D01*
X142960835Y-108731709D01*
X143126750Y-108620848D01*
X143267848Y-108479750D01*
X143378709Y-108313835D01*
X143411764Y-108234031D01*
X143445587Y-108200209D01*
X143493422Y-108200208D01*
X143523630Y-108226699D01*
X143525706Y-108230295D01*
X143525709Y-108230298D01*
X143610702Y-108315291D01*
X143714798Y-108375390D01*
X143785850Y-108394428D01*
X143830896Y-108406499D01*
X143830898Y-108406499D01*
X143830901Y-108406500D01*
X143830903Y-108406500D01*
X143951097Y-108406500D01*
X143951099Y-108406500D01*
X144067202Y-108375390D01*
X144171298Y-108315291D01*
X144256291Y-108230298D01*
X144316390Y-108126202D01*
X144347500Y-108010099D01*
X144347500Y-107889901D01*
X144316390Y-107773798D01*
X144256291Y-107669702D01*
X144171298Y-107584709D01*
X144067202Y-107524610D01*
X144067199Y-107524609D01*
X143951103Y-107493500D01*
X143951099Y-107493500D01*
X143830901Y-107493500D01*
X143830896Y-107493500D01*
X143714800Y-107524609D01*
X143714798Y-107524610D01*
X143610703Y-107584708D01*
X143571236Y-107624175D01*
X143527041Y-107642480D01*
X143482847Y-107624174D01*
X143465743Y-107592173D01*
X143464258Y-107584709D01*
X143455071Y-107538519D01*
X143378709Y-107354165D01*
X143267848Y-107188250D01*
X143126750Y-107047152D01*
X143126749Y-107047151D01*
X142960837Y-106936292D01*
X142960835Y-106936291D01*
X142776479Y-106859928D01*
X142580772Y-106821000D01*
X142381228Y-106821000D01*
X142185520Y-106859928D01*
X142185519Y-106859928D01*
X142001164Y-106936291D01*
X142001162Y-106936292D01*
X141835250Y-107047151D01*
X141694151Y-107188250D01*
X141583292Y-107354162D01*
X141583291Y-107354164D01*
X141506928Y-107538519D01*
X141506928Y-107538520D01*
X141468000Y-107734227D01*
X140589000Y-107734227D01*
X140589000Y-102678500D01*
X140607306Y-102634306D01*
X140651500Y-102616000D01*
X159322500Y-102616000D01*
X159366694Y-102634306D01*
G37*
G04 #@! TD.AperFunction*
G04 #@! TA.AperFunction,Conductor*
G36*
X157344749Y-128447198D02*
G01*
X157373870Y-128485148D01*
X157376000Y-128501325D01*
X157376000Y-132440259D01*
X157357694Y-132484453D01*
X157220953Y-132621194D01*
X157176759Y-132639500D01*
X157059396Y-132639500D01*
X156943300Y-132670609D01*
X156943298Y-132670610D01*
X156839201Y-132730709D01*
X156754209Y-132815701D01*
X156694110Y-132919798D01*
X156694109Y-132919800D01*
X156663000Y-133035896D01*
X156663000Y-133156103D01*
X156694109Y-133272199D01*
X156694110Y-133272202D01*
X156754209Y-133376298D01*
X156839202Y-133461291D01*
X156943298Y-133521390D01*
X157014350Y-133540428D01*
X157059396Y-133552499D01*
X157059398Y-133552499D01*
X157059401Y-133552500D01*
X157059403Y-133552500D01*
X157179597Y-133552500D01*
X157179599Y-133552500D01*
X157295702Y-133521390D01*
X157399798Y-133461291D01*
X157484791Y-133376298D01*
X157544890Y-133272202D01*
X157576000Y-133156099D01*
X157576000Y-133038739D01*
X157594306Y-132994545D01*
X157868161Y-132720692D01*
X157869163Y-132721694D01*
X157903306Y-132698880D01*
X157950222Y-132708212D01*
X157976799Y-132747985D01*
X157978000Y-132760179D01*
X157978000Y-139416307D01*
X157959694Y-139460501D01*
X157915500Y-139478807D01*
X157871306Y-139460501D01*
X157861373Y-139447557D01*
X157845290Y-139419701D01*
X157760298Y-139334709D01*
X157760296Y-139334708D01*
X157656202Y-139274610D01*
X157656199Y-139274609D01*
X157540103Y-139243500D01*
X157540099Y-139243500D01*
X157419901Y-139243500D01*
X157419896Y-139243500D01*
X157303800Y-139274609D01*
X157303798Y-139274610D01*
X157199703Y-139334708D01*
X157152490Y-139381921D01*
X157108295Y-139400226D01*
X157064101Y-139381920D01*
X157047926Y-139353902D01*
X157025391Y-139269801D01*
X157025390Y-139269800D01*
X157025390Y-139269798D01*
X156965291Y-139165702D01*
X156880298Y-139080709D01*
X156776202Y-139020610D01*
X156776199Y-139020609D01*
X156660103Y-138989500D01*
X156660099Y-138989500D01*
X156539901Y-138989500D01*
X156539896Y-138989500D01*
X156423800Y-139020609D01*
X156423798Y-139020610D01*
X156340820Y-139068517D01*
X156316155Y-139082757D01*
X156315395Y-139081442D01*
X156274335Y-139092439D01*
X156232911Y-139068517D01*
X156220000Y-139030475D01*
X156220000Y-129314739D01*
X156238305Y-129270546D01*
X157018045Y-128490805D01*
X157062239Y-128472500D01*
X157179597Y-128472500D01*
X157179599Y-128472500D01*
X157295702Y-128441390D01*
X157295704Y-128441388D01*
X157297323Y-128440955D01*
X157344749Y-128447198D01*
G37*
G04 #@! TD.AperFunction*
M02*
