%TF.GenerationSoftware,KiCad,Pcbnew,9.0.4*%
%TF.CreationDate,2025-10-20T22:45:23-04:00*%
%TF.ProjectId,the-spirit-board,7468652d-7370-4697-9269-742d626f6172,rev?*%
%TF.SameCoordinates,Original*%
%TF.FileFunction,Drillmap*%
%TF.FilePolarity,Positive*%
%FSLAX45Y45*%
G04 Gerber Fmt 4.5, Leading zero omitted, Abs format (unit mm)*
G04 Created by KiCad (PCBNEW 9.0.4) date 2025-10-20 22:45:23*
%MOMM*%
%LPD*%
G01*
G04 APERTURE LIST*
%ADD10C,0.050000*%
%ADD11C,0.200000*%
%ADD12C,0.100000*%
G04 APERTURE END LIST*
D10*
X14000000Y-10200000D02*
X16000000Y-10200000D01*
X14000000Y-14200000D02*
X14000000Y-10200000D01*
X14250000Y-14200000D02*
X14000000Y-14200000D01*
X14250000Y-14500000D02*
X14250000Y-14200000D01*
X16000000Y-10200000D02*
X16000000Y-12200000D01*
X16000000Y-12200000D02*
X16500000Y-12200000D01*
X16250000Y-14200000D02*
X16250000Y-14500000D01*
X16250000Y-14500000D02*
X14250000Y-14500000D01*
X16500000Y-12200000D02*
X16500000Y-14200000D01*
X16500000Y-14200000D02*
X16250000Y-14200000D01*
D11*
D12*
X14712300Y-12438000D02*
X14777300Y-12503000D01*
X14777300Y-12438000D02*
X14712300Y-12503000D01*
X14712300Y-13016000D02*
X14777300Y-13081000D01*
X14777300Y-13016000D02*
X14712300Y-13081000D01*
D11*
X14258277Y-14813984D02*
X14258277Y-14613984D01*
X14258277Y-14613984D02*
X14305896Y-14613984D01*
X14305896Y-14613984D02*
X14334467Y-14623508D01*
X14334467Y-14623508D02*
X14353515Y-14642555D01*
X14353515Y-14642555D02*
X14363039Y-14661603D01*
X14363039Y-14661603D02*
X14372562Y-14699698D01*
X14372562Y-14699698D02*
X14372562Y-14728269D01*
X14372562Y-14728269D02*
X14363039Y-14766365D01*
X14363039Y-14766365D02*
X14353515Y-14785412D01*
X14353515Y-14785412D02*
X14334467Y-14804460D01*
X14334467Y-14804460D02*
X14305896Y-14813984D01*
X14305896Y-14813984D02*
X14258277Y-14813984D01*
X14458277Y-14813984D02*
X14458277Y-14680650D01*
X14458277Y-14718746D02*
X14467801Y-14699698D01*
X14467801Y-14699698D02*
X14477324Y-14690174D01*
X14477324Y-14690174D02*
X14496372Y-14680650D01*
X14496372Y-14680650D02*
X14515420Y-14680650D01*
X14582086Y-14813984D02*
X14582086Y-14680650D01*
X14582086Y-14613984D02*
X14572562Y-14623508D01*
X14572562Y-14623508D02*
X14582086Y-14633031D01*
X14582086Y-14633031D02*
X14591610Y-14623508D01*
X14591610Y-14623508D02*
X14582086Y-14613984D01*
X14582086Y-14613984D02*
X14582086Y-14633031D01*
X14705896Y-14813984D02*
X14686848Y-14804460D01*
X14686848Y-14804460D02*
X14677324Y-14785412D01*
X14677324Y-14785412D02*
X14677324Y-14613984D01*
X14810658Y-14813984D02*
X14791610Y-14804460D01*
X14791610Y-14804460D02*
X14782086Y-14785412D01*
X14782086Y-14785412D02*
X14782086Y-14613984D01*
X15039229Y-14813984D02*
X15039229Y-14613984D01*
X15039229Y-14613984D02*
X15105896Y-14756841D01*
X15105896Y-14756841D02*
X15172562Y-14613984D01*
X15172562Y-14613984D02*
X15172562Y-14813984D01*
X15353515Y-14813984D02*
X15353515Y-14709222D01*
X15353515Y-14709222D02*
X15343991Y-14690174D01*
X15343991Y-14690174D02*
X15324943Y-14680650D01*
X15324943Y-14680650D02*
X15286848Y-14680650D01*
X15286848Y-14680650D02*
X15267801Y-14690174D01*
X15353515Y-14804460D02*
X15334467Y-14813984D01*
X15334467Y-14813984D02*
X15286848Y-14813984D01*
X15286848Y-14813984D02*
X15267801Y-14804460D01*
X15267801Y-14804460D02*
X15258277Y-14785412D01*
X15258277Y-14785412D02*
X15258277Y-14766365D01*
X15258277Y-14766365D02*
X15267801Y-14747317D01*
X15267801Y-14747317D02*
X15286848Y-14737793D01*
X15286848Y-14737793D02*
X15334467Y-14737793D01*
X15334467Y-14737793D02*
X15353515Y-14728269D01*
X15448753Y-14680650D02*
X15448753Y-14880650D01*
X15448753Y-14690174D02*
X15467801Y-14680650D01*
X15467801Y-14680650D02*
X15505896Y-14680650D01*
X15505896Y-14680650D02*
X15524943Y-14690174D01*
X15524943Y-14690174D02*
X15534467Y-14699698D01*
X15534467Y-14699698D02*
X15543991Y-14718746D01*
X15543991Y-14718746D02*
X15543991Y-14775888D01*
X15543991Y-14775888D02*
X15534467Y-14794936D01*
X15534467Y-14794936D02*
X15524943Y-14804460D01*
X15524943Y-14804460D02*
X15505896Y-14813984D01*
X15505896Y-14813984D02*
X15467801Y-14813984D01*
X15467801Y-14813984D02*
X15448753Y-14804460D01*
X15629705Y-14794936D02*
X15639229Y-14804460D01*
X15639229Y-14804460D02*
X15629705Y-14813984D01*
X15629705Y-14813984D02*
X15620182Y-14804460D01*
X15620182Y-14804460D02*
X15629705Y-14794936D01*
X15629705Y-14794936D02*
X15629705Y-14813984D01*
X15629705Y-14690174D02*
X15639229Y-14699698D01*
X15639229Y-14699698D02*
X15629705Y-14709222D01*
X15629705Y-14709222D02*
X15620182Y-14699698D01*
X15620182Y-14699698D02*
X15629705Y-14690174D01*
X15629705Y-14690174D02*
X15629705Y-14709222D01*
D12*
X13932500Y-15110000D02*
X13997500Y-15175000D01*
X13997500Y-15110000D02*
X13932500Y-15175000D01*
D11*
X14296372Y-15033984D02*
X14315420Y-15033984D01*
X14315420Y-15033984D02*
X14334467Y-15043508D01*
X14334467Y-15043508D02*
X14343991Y-15053031D01*
X14343991Y-15053031D02*
X14353515Y-15072079D01*
X14353515Y-15072079D02*
X14363039Y-15110174D01*
X14363039Y-15110174D02*
X14363039Y-15157793D01*
X14363039Y-15157793D02*
X14353515Y-15195888D01*
X14353515Y-15195888D02*
X14343991Y-15214936D01*
X14343991Y-15214936D02*
X14334467Y-15224460D01*
X14334467Y-15224460D02*
X14315420Y-15233984D01*
X14315420Y-15233984D02*
X14296372Y-15233984D01*
X14296372Y-15233984D02*
X14277324Y-15224460D01*
X14277324Y-15224460D02*
X14267801Y-15214936D01*
X14267801Y-15214936D02*
X14258277Y-15195888D01*
X14258277Y-15195888D02*
X14248753Y-15157793D01*
X14248753Y-15157793D02*
X14248753Y-15110174D01*
X14248753Y-15110174D02*
X14258277Y-15072079D01*
X14258277Y-15072079D02*
X14267801Y-15053031D01*
X14267801Y-15053031D02*
X14277324Y-15043508D01*
X14277324Y-15043508D02*
X14296372Y-15033984D01*
X14448753Y-15214936D02*
X14458277Y-15224460D01*
X14458277Y-15224460D02*
X14448753Y-15233984D01*
X14448753Y-15233984D02*
X14439229Y-15224460D01*
X14439229Y-15224460D02*
X14448753Y-15214936D01*
X14448753Y-15214936D02*
X14448753Y-15233984D01*
X14629705Y-15033984D02*
X14591610Y-15033984D01*
X14591610Y-15033984D02*
X14572562Y-15043508D01*
X14572562Y-15043508D02*
X14563039Y-15053031D01*
X14563039Y-15053031D02*
X14543991Y-15081603D01*
X14543991Y-15081603D02*
X14534467Y-15119698D01*
X14534467Y-15119698D02*
X14534467Y-15195888D01*
X14534467Y-15195888D02*
X14543991Y-15214936D01*
X14543991Y-15214936D02*
X14553515Y-15224460D01*
X14553515Y-15224460D02*
X14572562Y-15233984D01*
X14572562Y-15233984D02*
X14610658Y-15233984D01*
X14610658Y-15233984D02*
X14629705Y-15224460D01*
X14629705Y-15224460D02*
X14639229Y-15214936D01*
X14639229Y-15214936D02*
X14648753Y-15195888D01*
X14648753Y-15195888D02*
X14648753Y-15148269D01*
X14648753Y-15148269D02*
X14639229Y-15129222D01*
X14639229Y-15129222D02*
X14629705Y-15119698D01*
X14629705Y-15119698D02*
X14610658Y-15110174D01*
X14610658Y-15110174D02*
X14572562Y-15110174D01*
X14572562Y-15110174D02*
X14553515Y-15119698D01*
X14553515Y-15119698D02*
X14543991Y-15129222D01*
X14543991Y-15129222D02*
X14534467Y-15148269D01*
X14829705Y-15033984D02*
X14734467Y-15033984D01*
X14734467Y-15033984D02*
X14724943Y-15129222D01*
X14724943Y-15129222D02*
X14734467Y-15119698D01*
X14734467Y-15119698D02*
X14753515Y-15110174D01*
X14753515Y-15110174D02*
X14801134Y-15110174D01*
X14801134Y-15110174D02*
X14820182Y-15119698D01*
X14820182Y-15119698D02*
X14829705Y-15129222D01*
X14829705Y-15129222D02*
X14839229Y-15148269D01*
X14839229Y-15148269D02*
X14839229Y-15195888D01*
X14839229Y-15195888D02*
X14829705Y-15214936D01*
X14829705Y-15214936D02*
X14820182Y-15224460D01*
X14820182Y-15224460D02*
X14801134Y-15233984D01*
X14801134Y-15233984D02*
X14753515Y-15233984D01*
X14753515Y-15233984D02*
X14734467Y-15224460D01*
X14734467Y-15224460D02*
X14724943Y-15214936D01*
X14963039Y-15033984D02*
X14982086Y-15033984D01*
X14982086Y-15033984D02*
X15001134Y-15043508D01*
X15001134Y-15043508D02*
X15010658Y-15053031D01*
X15010658Y-15053031D02*
X15020182Y-15072079D01*
X15020182Y-15072079D02*
X15029705Y-15110174D01*
X15029705Y-15110174D02*
X15029705Y-15157793D01*
X15029705Y-15157793D02*
X15020182Y-15195888D01*
X15020182Y-15195888D02*
X15010658Y-15214936D01*
X15010658Y-15214936D02*
X15001134Y-15224460D01*
X15001134Y-15224460D02*
X14982086Y-15233984D01*
X14982086Y-15233984D02*
X14963039Y-15233984D01*
X14963039Y-15233984D02*
X14943991Y-15224460D01*
X14943991Y-15224460D02*
X14934467Y-15214936D01*
X14934467Y-15214936D02*
X14924943Y-15195888D01*
X14924943Y-15195888D02*
X14915420Y-15157793D01*
X14915420Y-15157793D02*
X14915420Y-15110174D01*
X14915420Y-15110174D02*
X14924943Y-15072079D01*
X14924943Y-15072079D02*
X14934467Y-15053031D01*
X14934467Y-15053031D02*
X14943991Y-15043508D01*
X14943991Y-15043508D02*
X14963039Y-15033984D01*
X15115420Y-15233984D02*
X15115420Y-15100650D01*
X15115420Y-15119698D02*
X15124943Y-15110174D01*
X15124943Y-15110174D02*
X15143991Y-15100650D01*
X15143991Y-15100650D02*
X15172563Y-15100650D01*
X15172563Y-15100650D02*
X15191610Y-15110174D01*
X15191610Y-15110174D02*
X15201134Y-15129222D01*
X15201134Y-15129222D02*
X15201134Y-15233984D01*
X15201134Y-15129222D02*
X15210658Y-15110174D01*
X15210658Y-15110174D02*
X15229705Y-15100650D01*
X15229705Y-15100650D02*
X15258277Y-15100650D01*
X15258277Y-15100650D02*
X15277324Y-15110174D01*
X15277324Y-15110174D02*
X15286848Y-15129222D01*
X15286848Y-15129222D02*
X15286848Y-15233984D01*
X15382086Y-15233984D02*
X15382086Y-15100650D01*
X15382086Y-15119698D02*
X15391610Y-15110174D01*
X15391610Y-15110174D02*
X15410658Y-15100650D01*
X15410658Y-15100650D02*
X15439229Y-15100650D01*
X15439229Y-15100650D02*
X15458277Y-15110174D01*
X15458277Y-15110174D02*
X15467801Y-15129222D01*
X15467801Y-15129222D02*
X15467801Y-15233984D01*
X15467801Y-15129222D02*
X15477324Y-15110174D01*
X15477324Y-15110174D02*
X15496372Y-15100650D01*
X15496372Y-15100650D02*
X15524943Y-15100650D01*
X15524943Y-15100650D02*
X15543991Y-15110174D01*
X15543991Y-15110174D02*
X15553515Y-15129222D01*
X15553515Y-15129222D02*
X15553515Y-15233984D01*
X15943991Y-15024460D02*
X15772563Y-15281603D01*
X16201134Y-15033984D02*
X16220182Y-15033984D01*
X16220182Y-15033984D02*
X16239229Y-15043508D01*
X16239229Y-15043508D02*
X16248753Y-15053031D01*
X16248753Y-15053031D02*
X16258277Y-15072079D01*
X16258277Y-15072079D02*
X16267801Y-15110174D01*
X16267801Y-15110174D02*
X16267801Y-15157793D01*
X16267801Y-15157793D02*
X16258277Y-15195888D01*
X16258277Y-15195888D02*
X16248753Y-15214936D01*
X16248753Y-15214936D02*
X16239229Y-15224460D01*
X16239229Y-15224460D02*
X16220182Y-15233984D01*
X16220182Y-15233984D02*
X16201134Y-15233984D01*
X16201134Y-15233984D02*
X16182086Y-15224460D01*
X16182086Y-15224460D02*
X16172563Y-15214936D01*
X16172563Y-15214936D02*
X16163039Y-15195888D01*
X16163039Y-15195888D02*
X16153515Y-15157793D01*
X16153515Y-15157793D02*
X16153515Y-15110174D01*
X16153515Y-15110174D02*
X16163039Y-15072079D01*
X16163039Y-15072079D02*
X16172563Y-15053031D01*
X16172563Y-15053031D02*
X16182086Y-15043508D01*
X16182086Y-15043508D02*
X16201134Y-15033984D01*
X16353515Y-15214936D02*
X16363039Y-15224460D01*
X16363039Y-15224460D02*
X16353515Y-15233984D01*
X16353515Y-15233984D02*
X16343991Y-15224460D01*
X16343991Y-15224460D02*
X16353515Y-15214936D01*
X16353515Y-15214936D02*
X16353515Y-15233984D01*
X16486848Y-15033984D02*
X16505896Y-15033984D01*
X16505896Y-15033984D02*
X16524944Y-15043508D01*
X16524944Y-15043508D02*
X16534467Y-15053031D01*
X16534467Y-15053031D02*
X16543991Y-15072079D01*
X16543991Y-15072079D02*
X16553515Y-15110174D01*
X16553515Y-15110174D02*
X16553515Y-15157793D01*
X16553515Y-15157793D02*
X16543991Y-15195888D01*
X16543991Y-15195888D02*
X16534467Y-15214936D01*
X16534467Y-15214936D02*
X16524944Y-15224460D01*
X16524944Y-15224460D02*
X16505896Y-15233984D01*
X16505896Y-15233984D02*
X16486848Y-15233984D01*
X16486848Y-15233984D02*
X16467801Y-15224460D01*
X16467801Y-15224460D02*
X16458277Y-15214936D01*
X16458277Y-15214936D02*
X16448753Y-15195888D01*
X16448753Y-15195888D02*
X16439229Y-15157793D01*
X16439229Y-15157793D02*
X16439229Y-15110174D01*
X16439229Y-15110174D02*
X16448753Y-15072079D01*
X16448753Y-15072079D02*
X16458277Y-15053031D01*
X16458277Y-15053031D02*
X16467801Y-15043508D01*
X16467801Y-15043508D02*
X16486848Y-15033984D01*
X16629706Y-15053031D02*
X16639229Y-15043508D01*
X16639229Y-15043508D02*
X16658277Y-15033984D01*
X16658277Y-15033984D02*
X16705896Y-15033984D01*
X16705896Y-15033984D02*
X16724944Y-15043508D01*
X16724944Y-15043508D02*
X16734467Y-15053031D01*
X16734467Y-15053031D02*
X16743991Y-15072079D01*
X16743991Y-15072079D02*
X16743991Y-15091127D01*
X16743991Y-15091127D02*
X16734467Y-15119698D01*
X16734467Y-15119698D02*
X16620182Y-15233984D01*
X16620182Y-15233984D02*
X16743991Y-15233984D01*
X16924944Y-15033984D02*
X16829706Y-15033984D01*
X16829706Y-15033984D02*
X16820182Y-15129222D01*
X16820182Y-15129222D02*
X16829706Y-15119698D01*
X16829706Y-15119698D02*
X16848753Y-15110174D01*
X16848753Y-15110174D02*
X16896372Y-15110174D01*
X16896372Y-15110174D02*
X16915420Y-15119698D01*
X16915420Y-15119698D02*
X16924944Y-15129222D01*
X16924944Y-15129222D02*
X16934468Y-15148269D01*
X16934468Y-15148269D02*
X16934468Y-15195888D01*
X16934468Y-15195888D02*
X16924944Y-15214936D01*
X16924944Y-15214936D02*
X16915420Y-15224460D01*
X16915420Y-15224460D02*
X16896372Y-15233984D01*
X16896372Y-15233984D02*
X16848753Y-15233984D01*
X16848753Y-15233984D02*
X16829706Y-15224460D01*
X16829706Y-15224460D02*
X16820182Y-15214936D01*
X17105896Y-15033984D02*
X17067801Y-15033984D01*
X17067801Y-15033984D02*
X17048753Y-15043508D01*
X17048753Y-15043508D02*
X17039229Y-15053031D01*
X17039229Y-15053031D02*
X17020182Y-15081603D01*
X17020182Y-15081603D02*
X17010658Y-15119698D01*
X17010658Y-15119698D02*
X17010658Y-15195888D01*
X17010658Y-15195888D02*
X17020182Y-15214936D01*
X17020182Y-15214936D02*
X17029706Y-15224460D01*
X17029706Y-15224460D02*
X17048753Y-15233984D01*
X17048753Y-15233984D02*
X17086849Y-15233984D01*
X17086849Y-15233984D02*
X17105896Y-15224460D01*
X17105896Y-15224460D02*
X17115420Y-15214936D01*
X17115420Y-15214936D02*
X17124944Y-15195888D01*
X17124944Y-15195888D02*
X17124944Y-15148269D01*
X17124944Y-15148269D02*
X17115420Y-15129222D01*
X17115420Y-15129222D02*
X17105896Y-15119698D01*
X17105896Y-15119698D02*
X17086849Y-15110174D01*
X17086849Y-15110174D02*
X17048753Y-15110174D01*
X17048753Y-15110174D02*
X17029706Y-15119698D01*
X17029706Y-15119698D02*
X17020182Y-15129222D01*
X17020182Y-15129222D02*
X17010658Y-15148269D01*
X17201134Y-15033984D02*
X17201134Y-15072079D01*
X17277325Y-15033984D02*
X17277325Y-15072079D01*
X17572563Y-15310174D02*
X17563039Y-15300650D01*
X17563039Y-15300650D02*
X17543991Y-15272079D01*
X17543991Y-15272079D02*
X17534468Y-15253031D01*
X17534468Y-15253031D02*
X17524944Y-15224460D01*
X17524944Y-15224460D02*
X17515420Y-15176841D01*
X17515420Y-15176841D02*
X17515420Y-15138746D01*
X17515420Y-15138746D02*
X17524944Y-15091127D01*
X17524944Y-15091127D02*
X17534468Y-15062555D01*
X17534468Y-15062555D02*
X17543991Y-15043508D01*
X17543991Y-15043508D02*
X17563039Y-15014936D01*
X17563039Y-15014936D02*
X17572563Y-15005412D01*
X17639230Y-15053031D02*
X17648753Y-15043508D01*
X17648753Y-15043508D02*
X17667801Y-15033984D01*
X17667801Y-15033984D02*
X17715420Y-15033984D01*
X17715420Y-15033984D02*
X17734468Y-15043508D01*
X17734468Y-15043508D02*
X17743991Y-15053031D01*
X17743991Y-15053031D02*
X17753515Y-15072079D01*
X17753515Y-15072079D02*
X17753515Y-15091127D01*
X17753515Y-15091127D02*
X17743991Y-15119698D01*
X17743991Y-15119698D02*
X17629706Y-15233984D01*
X17629706Y-15233984D02*
X17753515Y-15233984D01*
X17991611Y-15233984D02*
X17991611Y-15033984D01*
X18077325Y-15233984D02*
X18077325Y-15129222D01*
X18077325Y-15129222D02*
X18067801Y-15110174D01*
X18067801Y-15110174D02*
X18048753Y-15100650D01*
X18048753Y-15100650D02*
X18020182Y-15100650D01*
X18020182Y-15100650D02*
X18001134Y-15110174D01*
X18001134Y-15110174D02*
X17991611Y-15119698D01*
X18201134Y-15233984D02*
X18182087Y-15224460D01*
X18182087Y-15224460D02*
X18172563Y-15214936D01*
X18172563Y-15214936D02*
X18163039Y-15195888D01*
X18163039Y-15195888D02*
X18163039Y-15138746D01*
X18163039Y-15138746D02*
X18172563Y-15119698D01*
X18172563Y-15119698D02*
X18182087Y-15110174D01*
X18182087Y-15110174D02*
X18201134Y-15100650D01*
X18201134Y-15100650D02*
X18229706Y-15100650D01*
X18229706Y-15100650D02*
X18248753Y-15110174D01*
X18248753Y-15110174D02*
X18258277Y-15119698D01*
X18258277Y-15119698D02*
X18267801Y-15138746D01*
X18267801Y-15138746D02*
X18267801Y-15195888D01*
X18267801Y-15195888D02*
X18258277Y-15214936D01*
X18258277Y-15214936D02*
X18248753Y-15224460D01*
X18248753Y-15224460D02*
X18229706Y-15233984D01*
X18229706Y-15233984D02*
X18201134Y-15233984D01*
X18382087Y-15233984D02*
X18363039Y-15224460D01*
X18363039Y-15224460D02*
X18353515Y-15205412D01*
X18353515Y-15205412D02*
X18353515Y-15033984D01*
X18534468Y-15224460D02*
X18515420Y-15233984D01*
X18515420Y-15233984D02*
X18477325Y-15233984D01*
X18477325Y-15233984D02*
X18458277Y-15224460D01*
X18458277Y-15224460D02*
X18448753Y-15205412D01*
X18448753Y-15205412D02*
X18448753Y-15129222D01*
X18448753Y-15129222D02*
X18458277Y-15110174D01*
X18458277Y-15110174D02*
X18477325Y-15100650D01*
X18477325Y-15100650D02*
X18515420Y-15100650D01*
X18515420Y-15100650D02*
X18534468Y-15110174D01*
X18534468Y-15110174D02*
X18543992Y-15129222D01*
X18543992Y-15129222D02*
X18543992Y-15148269D01*
X18543992Y-15148269D02*
X18448753Y-15167317D01*
X18620182Y-15224460D02*
X18639230Y-15233984D01*
X18639230Y-15233984D02*
X18677325Y-15233984D01*
X18677325Y-15233984D02*
X18696373Y-15224460D01*
X18696373Y-15224460D02*
X18705896Y-15205412D01*
X18705896Y-15205412D02*
X18705896Y-15195888D01*
X18705896Y-15195888D02*
X18696373Y-15176841D01*
X18696373Y-15176841D02*
X18677325Y-15167317D01*
X18677325Y-15167317D02*
X18648753Y-15167317D01*
X18648753Y-15167317D02*
X18629706Y-15157793D01*
X18629706Y-15157793D02*
X18620182Y-15138746D01*
X18620182Y-15138746D02*
X18620182Y-15129222D01*
X18620182Y-15129222D02*
X18629706Y-15110174D01*
X18629706Y-15110174D02*
X18648753Y-15100650D01*
X18648753Y-15100650D02*
X18677325Y-15100650D01*
X18677325Y-15100650D02*
X18696373Y-15110174D01*
X18772563Y-15310174D02*
X18782087Y-15300650D01*
X18782087Y-15300650D02*
X18801134Y-15272079D01*
X18801134Y-15272079D02*
X18810658Y-15253031D01*
X18810658Y-15253031D02*
X18820182Y-15224460D01*
X18820182Y-15224460D02*
X18829706Y-15176841D01*
X18829706Y-15176841D02*
X18829706Y-15138746D01*
X18829706Y-15138746D02*
X18820182Y-15091127D01*
X18820182Y-15091127D02*
X18810658Y-15062555D01*
X18810658Y-15062555D02*
X18801134Y-15043508D01*
X18801134Y-15043508D02*
X18782087Y-15014936D01*
X18782087Y-15014936D02*
X18772563Y-15005412D01*
X19134468Y-15310174D02*
X19124944Y-15300650D01*
X19124944Y-15300650D02*
X19105896Y-15272079D01*
X19105896Y-15272079D02*
X19096373Y-15253031D01*
X19096373Y-15253031D02*
X19086849Y-15224460D01*
X19086849Y-15224460D02*
X19077325Y-15176841D01*
X19077325Y-15176841D02*
X19077325Y-15138746D01*
X19077325Y-15138746D02*
X19086849Y-15091127D01*
X19086849Y-15091127D02*
X19096373Y-15062555D01*
X19096373Y-15062555D02*
X19105896Y-15043508D01*
X19105896Y-15043508D02*
X19124944Y-15014936D01*
X19124944Y-15014936D02*
X19134468Y-15005412D01*
X19210658Y-15100650D02*
X19210658Y-15233984D01*
X19210658Y-15119698D02*
X19220182Y-15110174D01*
X19220182Y-15110174D02*
X19239230Y-15100650D01*
X19239230Y-15100650D02*
X19267801Y-15100650D01*
X19267801Y-15100650D02*
X19286849Y-15110174D01*
X19286849Y-15110174D02*
X19296373Y-15129222D01*
X19296373Y-15129222D02*
X19296373Y-15233984D01*
X19420182Y-15233984D02*
X19401134Y-15224460D01*
X19401134Y-15224460D02*
X19391611Y-15214936D01*
X19391611Y-15214936D02*
X19382087Y-15195888D01*
X19382087Y-15195888D02*
X19382087Y-15138746D01*
X19382087Y-15138746D02*
X19391611Y-15119698D01*
X19391611Y-15119698D02*
X19401134Y-15110174D01*
X19401134Y-15110174D02*
X19420182Y-15100650D01*
X19420182Y-15100650D02*
X19448754Y-15100650D01*
X19448754Y-15100650D02*
X19467801Y-15110174D01*
X19467801Y-15110174D02*
X19477325Y-15119698D01*
X19477325Y-15119698D02*
X19486849Y-15138746D01*
X19486849Y-15138746D02*
X19486849Y-15195888D01*
X19486849Y-15195888D02*
X19477325Y-15214936D01*
X19477325Y-15214936D02*
X19467801Y-15224460D01*
X19467801Y-15224460D02*
X19448754Y-15233984D01*
X19448754Y-15233984D02*
X19420182Y-15233984D01*
X19543992Y-15100650D02*
X19620182Y-15100650D01*
X19572563Y-15033984D02*
X19572563Y-15205412D01*
X19572563Y-15205412D02*
X19582087Y-15224460D01*
X19582087Y-15224460D02*
X19601134Y-15233984D01*
X19601134Y-15233984D02*
X19620182Y-15233984D01*
X19839230Y-15100650D02*
X19839230Y-15300650D01*
X19839230Y-15110174D02*
X19858277Y-15100650D01*
X19858277Y-15100650D02*
X19896373Y-15100650D01*
X19896373Y-15100650D02*
X19915420Y-15110174D01*
X19915420Y-15110174D02*
X19924944Y-15119698D01*
X19924944Y-15119698D02*
X19934468Y-15138746D01*
X19934468Y-15138746D02*
X19934468Y-15195888D01*
X19934468Y-15195888D02*
X19924944Y-15214936D01*
X19924944Y-15214936D02*
X19915420Y-15224460D01*
X19915420Y-15224460D02*
X19896373Y-15233984D01*
X19896373Y-15233984D02*
X19858277Y-15233984D01*
X19858277Y-15233984D02*
X19839230Y-15224460D01*
X20048754Y-15233984D02*
X20029706Y-15224460D01*
X20029706Y-15224460D02*
X20020182Y-15205412D01*
X20020182Y-15205412D02*
X20020182Y-15033984D01*
X20210658Y-15233984D02*
X20210658Y-15129222D01*
X20210658Y-15129222D02*
X20201135Y-15110174D01*
X20201135Y-15110174D02*
X20182087Y-15100650D01*
X20182087Y-15100650D02*
X20143992Y-15100650D01*
X20143992Y-15100650D02*
X20124944Y-15110174D01*
X20210658Y-15224460D02*
X20191611Y-15233984D01*
X20191611Y-15233984D02*
X20143992Y-15233984D01*
X20143992Y-15233984D02*
X20124944Y-15224460D01*
X20124944Y-15224460D02*
X20115420Y-15205412D01*
X20115420Y-15205412D02*
X20115420Y-15186365D01*
X20115420Y-15186365D02*
X20124944Y-15167317D01*
X20124944Y-15167317D02*
X20143992Y-15157793D01*
X20143992Y-15157793D02*
X20191611Y-15157793D01*
X20191611Y-15157793D02*
X20210658Y-15148269D01*
X20277325Y-15100650D02*
X20353515Y-15100650D01*
X20305896Y-15033984D02*
X20305896Y-15205412D01*
X20305896Y-15205412D02*
X20315420Y-15224460D01*
X20315420Y-15224460D02*
X20334468Y-15233984D01*
X20334468Y-15233984D02*
X20353515Y-15233984D01*
X20496373Y-15224460D02*
X20477325Y-15233984D01*
X20477325Y-15233984D02*
X20439230Y-15233984D01*
X20439230Y-15233984D02*
X20420182Y-15224460D01*
X20420182Y-15224460D02*
X20410658Y-15205412D01*
X20410658Y-15205412D02*
X20410658Y-15129222D01*
X20410658Y-15129222D02*
X20420182Y-15110174D01*
X20420182Y-15110174D02*
X20439230Y-15100650D01*
X20439230Y-15100650D02*
X20477325Y-15100650D01*
X20477325Y-15100650D02*
X20496373Y-15110174D01*
X20496373Y-15110174D02*
X20505896Y-15129222D01*
X20505896Y-15129222D02*
X20505896Y-15148269D01*
X20505896Y-15148269D02*
X20410658Y-15167317D01*
X20677325Y-15233984D02*
X20677325Y-15033984D01*
X20677325Y-15224460D02*
X20658277Y-15233984D01*
X20658277Y-15233984D02*
X20620182Y-15233984D01*
X20620182Y-15233984D02*
X20601135Y-15224460D01*
X20601135Y-15224460D02*
X20591611Y-15214936D01*
X20591611Y-15214936D02*
X20582087Y-15195888D01*
X20582087Y-15195888D02*
X20582087Y-15138746D01*
X20582087Y-15138746D02*
X20591611Y-15119698D01*
X20591611Y-15119698D02*
X20601135Y-15110174D01*
X20601135Y-15110174D02*
X20620182Y-15100650D01*
X20620182Y-15100650D02*
X20658277Y-15100650D01*
X20658277Y-15100650D02*
X20677325Y-15110174D01*
X20753516Y-15310174D02*
X20763039Y-15300650D01*
X20763039Y-15300650D02*
X20782087Y-15272079D01*
X20782087Y-15272079D02*
X20791611Y-15253031D01*
X20791611Y-15253031D02*
X20801135Y-15224460D01*
X20801135Y-15224460D02*
X20810658Y-15176841D01*
X20810658Y-15176841D02*
X20810658Y-15138746D01*
X20810658Y-15138746D02*
X20801135Y-15091127D01*
X20801135Y-15091127D02*
X20791611Y-15062555D01*
X20791611Y-15062555D02*
X20782087Y-15043508D01*
X20782087Y-15043508D02*
X20763039Y-15014936D01*
X20763039Y-15014936D02*
X20753516Y-15005412D01*
M02*
