G04 #@! TF.GenerationSoftware,KiCad,Pcbnew,9.0.4*
G04 #@! TF.CreationDate,2025-10-20T22:41:46-04:00*
G04 #@! TF.ProjectId,the-spirit-board,7468652d-7370-4697-9269-742d626f6172,rev?*
G04 #@! TF.SameCoordinates,Original*
G04 #@! TF.FileFunction,Copper,L4,Bot*
G04 #@! TF.FilePolarity,Positive*
%FSLAX46Y46*%
G04 Gerber Fmt 4.6, Leading zero omitted, Abs format (unit mm)*
G04 Created by KiCad (PCBNEW 9.0.4) date 2025-10-20 22:41:46*
%MOMM*%
%LPD*%
G01*
G04 APERTURE LIST*
G04 Aperture macros list*
%AMRoundRect*
0 Rectangle with rounded corners*
0 $1 Rounding radius*
0 $2 $3 $4 $5 $6 $7 $8 $9 X,Y pos of 4 corners*
0 Add a 4 corners polygon primitive as box body*
4,1,4,$2,$3,$4,$5,$6,$7,$8,$9,$2,$3,0*
0 Add four circle primitives for the rounded corners*
1,1,$1+$1,$2,$3*
1,1,$1+$1,$4,$5*
1,1,$1+$1,$6,$7*
1,1,$1+$1,$8,$9*
0 Add four rect primitives between the rounded corners*
20,1,$1+$1,$2,$3,$4,$5,0*
20,1,$1+$1,$4,$5,$6,$7,0*
20,1,$1+$1,$6,$7,$8,$9,0*
20,1,$1+$1,$8,$9,$2,$3,0*%
G04 Aperture macros list end*
G04 #@! TA.AperFunction,SMDPad,CuDef*
%ADD10RoundRect,0.120000X0.280000X-0.880000X0.280000X0.880000X-0.280000X0.880000X-0.280000X-0.880000X0*%
G04 #@! TD*
G04 #@! TA.AperFunction,SMDPad,CuDef*
%ADD11RoundRect,0.200000X-0.200000X-0.275000X0.200000X-0.275000X0.200000X0.275000X-0.200000X0.275000X0*%
G04 #@! TD*
G04 #@! TA.AperFunction,SMDPad,CuDef*
%ADD12RoundRect,0.200000X0.275000X-0.200000X0.275000X0.200000X-0.275000X0.200000X-0.275000X-0.200000X0*%
G04 #@! TD*
G04 #@! TA.AperFunction,SMDPad,CuDef*
%ADD13R,1.000000X0.700000*%
G04 #@! TD*
G04 #@! TA.AperFunction,SMDPad,CuDef*
%ADD14RoundRect,0.225000X-0.250000X0.225000X-0.250000X-0.225000X0.250000X-0.225000X0.250000X0.225000X0*%
G04 #@! TD*
G04 #@! TA.AperFunction,SMDPad,CuDef*
%ADD15RoundRect,0.200000X0.200000X0.275000X-0.200000X0.275000X-0.200000X-0.275000X0.200000X-0.275000X0*%
G04 #@! TD*
G04 #@! TA.AperFunction,SMDPad,CuDef*
%ADD16R,0.650000X1.100000*%
G04 #@! TD*
G04 #@! TA.AperFunction,SMDPad,CuDef*
%ADD17RoundRect,0.200000X-0.275000X0.200000X-0.275000X-0.200000X0.275000X-0.200000X0.275000X0.200000X0*%
G04 #@! TD*
G04 #@! TA.AperFunction,SMDPad,CuDef*
%ADD18R,1.000000X0.900000*%
G04 #@! TD*
G04 #@! TA.AperFunction,SMDPad,CuDef*
%ADD19R,1.150000X0.600000*%
G04 #@! TD*
G04 #@! TA.AperFunction,SMDPad,CuDef*
%ADD20R,1.150000X0.300000*%
G04 #@! TD*
G04 #@! TA.AperFunction,SMDPad,CuDef*
%ADD21R,1.500000X1.500000*%
G04 #@! TD*
G04 #@! TA.AperFunction,SMDPad,CuDef*
%ADD22RoundRect,0.250000X0.250000X0.475000X-0.250000X0.475000X-0.250000X-0.475000X0.250000X-0.475000X0*%
G04 #@! TD*
G04 #@! TA.AperFunction,SMDPad,CuDef*
%ADD23RoundRect,0.250000X-0.475000X0.250000X-0.475000X-0.250000X0.475000X-0.250000X0.475000X0.250000X0*%
G04 #@! TD*
G04 #@! TA.AperFunction,SMDPad,CuDef*
%ADD24RoundRect,0.140000X0.170000X-0.140000X0.170000X0.140000X-0.170000X0.140000X-0.170000X-0.140000X0*%
G04 #@! TD*
G04 #@! TA.AperFunction,SMDPad,CuDef*
%ADD25RoundRect,0.140000X-0.140000X-0.170000X0.140000X-0.170000X0.140000X0.170000X-0.140000X0.170000X0*%
G04 #@! TD*
G04 #@! TA.AperFunction,SMDPad,CuDef*
%ADD26RoundRect,0.112500X-0.112500X0.187500X-0.112500X-0.187500X0.112500X-0.187500X0.112500X0.187500X0*%
G04 #@! TD*
G04 #@! TA.AperFunction,SMDPad,CuDef*
%ADD27R,0.522000X0.600000*%
G04 #@! TD*
G04 #@! TA.AperFunction,ComponentPad*
%ADD28C,1.625000*%
G04 #@! TD*
G04 #@! TA.AperFunction,ViaPad*
%ADD29C,0.637000*%
G04 #@! TD*
G04 #@! TA.AperFunction,ViaPad*
%ADD30C,0.512000*%
G04 #@! TD*
G04 #@! TA.AperFunction,Conductor*
%ADD31C,0.256000*%
G04 #@! TD*
G04 #@! TA.AperFunction,Conductor*
%ADD32C,0.127000*%
G04 #@! TD*
G04 APERTURE END LIST*
D10*
X144250000Y-144000000D03*
X145750000Y-144000000D03*
X147250000Y-144000000D03*
X148750000Y-144000000D03*
X150250000Y-144000000D03*
X151750000Y-144000000D03*
X153250000Y-144000000D03*
X154750000Y-144000000D03*
X156250000Y-144000000D03*
X157750000Y-144000000D03*
X159250000Y-144000000D03*
X160750000Y-144000000D03*
D11*
X149670000Y-138811000D03*
X151320000Y-138811000D03*
D12*
X152781000Y-138874000D03*
X152781000Y-137224000D03*
D13*
X154445000Y-116901000D03*
X154445000Y-115001000D03*
X156845000Y-115951000D03*
D14*
X141097000Y-117525000D03*
X141097000Y-119075000D03*
D15*
X144970000Y-135300000D03*
X143320000Y-135300000D03*
D16*
X157920000Y-105500000D03*
X156000000Y-105500000D03*
X156960000Y-103400000D03*
D17*
X141062000Y-114300000D03*
X141062000Y-115950000D03*
D11*
X155131000Y-140716000D03*
X156781000Y-140716000D03*
D13*
X154445000Y-138999000D03*
X154445000Y-137099000D03*
X156845000Y-138049000D03*
D12*
X152794000Y-113159000D03*
X152794000Y-111509000D03*
D18*
X144300000Y-114681000D03*
X142700000Y-114681000D03*
X144300000Y-118781000D03*
X142700000Y-118781000D03*
D14*
X146000000Y-103225000D03*
X146000000Y-104775000D03*
D12*
X152794000Y-127891000D03*
X152794000Y-126241000D03*
X158496000Y-135953000D03*
X158496000Y-134303000D03*
D19*
X148523000Y-130795000D03*
X148523000Y-129995000D03*
D20*
X148523000Y-128845000D03*
X148523000Y-127845000D03*
X148523000Y-127345000D03*
X148523000Y-126345000D03*
D19*
X148523000Y-125195000D03*
X148523000Y-124395000D03*
D20*
X148523000Y-125845000D03*
X148523000Y-126845000D03*
X148523000Y-128345000D03*
X148523000Y-129345000D03*
D21*
X147948000Y-132715000D03*
X147948000Y-122475000D03*
X144018000Y-132715000D03*
X144018000Y-122475000D03*
D13*
X154445000Y-131633000D03*
X154445000Y-129733000D03*
X156845000Y-130683000D03*
D12*
X158496000Y-113855000D03*
X158496000Y-112205000D03*
D13*
X154445000Y-135316000D03*
X154445000Y-133416000D03*
X156845000Y-134366000D03*
D15*
X153733000Y-140716000D03*
X152083000Y-140716000D03*
D17*
X151003000Y-117666000D03*
X151003000Y-119316000D03*
D15*
X148272000Y-137287000D03*
X146622000Y-137287000D03*
D22*
X151200000Y-105050000D03*
X149300000Y-105050000D03*
D12*
X158496000Y-128587000D03*
X158496000Y-126937000D03*
D17*
X149352000Y-117666000D03*
X149352000Y-119316000D03*
D11*
X149670000Y-137287000D03*
X151320000Y-137287000D03*
D14*
X144500000Y-103225000D03*
X144500000Y-104775000D03*
D12*
X152794000Y-131508000D03*
X152794000Y-129858000D03*
D11*
X145987000Y-139065000D03*
X147637000Y-139065000D03*
D12*
X158496000Y-124904000D03*
X158496000Y-123254000D03*
D13*
X154445000Y-120584000D03*
X154445000Y-118684000D03*
X156845000Y-119634000D03*
X154445000Y-113218000D03*
X154445000Y-111318000D03*
X156845000Y-112268000D03*
X154445000Y-127950000D03*
X154445000Y-126050000D03*
X156845000Y-127000000D03*
D12*
X158496000Y-117538000D03*
X158496000Y-115888000D03*
X158496000Y-109855000D03*
X158496000Y-108205000D03*
D11*
X145987000Y-140716000D03*
X147637000Y-140716000D03*
D12*
X152794000Y-120525000D03*
X152794000Y-118875000D03*
X158496000Y-121221000D03*
X158496000Y-119571000D03*
X152794000Y-124081000D03*
X152794000Y-122431000D03*
X152825000Y-116850000D03*
X152825000Y-115200000D03*
X152794000Y-135191000D03*
X152794000Y-133541000D03*
D19*
X152022000Y-106967000D03*
X152022000Y-107917000D03*
X152022000Y-108867000D03*
X149422000Y-108867000D03*
X149422000Y-106967000D03*
D23*
X147500000Y-107950000D03*
X147500000Y-109850000D03*
D12*
X158496000Y-139636000D03*
X158496000Y-137986000D03*
D23*
X153025000Y-103400000D03*
X153025000Y-105300000D03*
D24*
X147984000Y-106652000D03*
X147984000Y-105692000D03*
D13*
X154445000Y-124267000D03*
X154445000Y-122367000D03*
X156845000Y-123317000D03*
D25*
X143020000Y-113531000D03*
X143980000Y-113531000D03*
D26*
X156000000Y-106950000D03*
X156000000Y-109050000D03*
D18*
X147701000Y-114681000D03*
X146101000Y-114681000D03*
X147701000Y-118781000D03*
X146101000Y-118781000D03*
D15*
X148399000Y-135300000D03*
X146749000Y-135300000D03*
D17*
X154000000Y-107092000D03*
X154000000Y-108742000D03*
D15*
X160464000Y-141224000D03*
X158814000Y-141224000D03*
D27*
X144555000Y-108734000D03*
X143733000Y-108734000D03*
D28*
X142481000Y-107834000D03*
D27*
X143733000Y-106934000D03*
X144555000Y-106934000D03*
X144555000Y-107834000D03*
D12*
X158496000Y-132270000D03*
X158496000Y-130620000D03*
X151003000Y-133540000D03*
X151003000Y-131890000D03*
D11*
X149035000Y-140716000D03*
X150685000Y-140716000D03*
D29*
X155480963Y-128237037D03*
X143668000Y-142113000D03*
X145161000Y-133604000D03*
X158115000Y-110998000D03*
X147000000Y-117000000D03*
X142875000Y-131699000D03*
X149500000Y-133500000D03*
X145034000Y-121285000D03*
X147614500Y-131445000D03*
X151003000Y-128143000D03*
X143002000Y-121285000D03*
D30*
X152908000Y-114173000D03*
D29*
X152005750Y-121693324D03*
X153543000Y-132718502D03*
X152019000Y-134620000D03*
D30*
X149236500Y-138179076D03*
D29*
X157214307Y-138972496D03*
X144876463Y-137891463D03*
X141732000Y-113411000D03*
X147000000Y-104500000D03*
X157353000Y-121920000D03*
X151892000Y-127254000D03*
X152006497Y-125222000D03*
X150749000Y-113157000D03*
X146968000Y-106299000D03*
X157226000Y-135382000D03*
X150802000Y-116459000D03*
X143318500Y-142873539D03*
X159888502Y-140208000D03*
D30*
X144653000Y-110490000D03*
X157119500Y-125984000D03*
X145708389Y-142506074D03*
X150356500Y-138007457D03*
X145188315Y-142019792D03*
X146945399Y-139691555D03*
X149352000Y-142505500D03*
X146431000Y-124968000D03*
X147206201Y-142505500D03*
X149352000Y-120788500D03*
X149987000Y-131953000D03*
X157119500Y-133096000D03*
X145288000Y-105791000D03*
X147587948Y-127296578D03*
X152781000Y-125222000D03*
X144907000Y-124841000D03*
X150495000Y-120269000D03*
X146431000Y-142494000D03*
X151384000Y-111760000D03*
X152019198Y-138105613D03*
X151003000Y-130175000D03*
X154559000Y-121412000D03*
X156337000Y-118618000D03*
X156600000Y-139446000D03*
X147193000Y-127889000D03*
X153320500Y-136017000D03*
X156488651Y-142469349D03*
X148971000Y-136867503D03*
X153543000Y-116078000D03*
X143891000Y-138303000D03*
X143891000Y-107950000D03*
X148628656Y-142516841D03*
X151257000Y-124714000D03*
X150241000Y-135636000D03*
X144526000Y-139065000D03*
X154559000Y-138176000D03*
X155785067Y-142360183D03*
X157353000Y-124511002D03*
X150876000Y-134620000D03*
X147917168Y-142543889D03*
X157119500Y-128016000D03*
X154230500Y-142494000D03*
X159232876Y-142543938D03*
X158724500Y-118618000D03*
X158110027Y-142554590D03*
X152075613Y-136524802D03*
X159944876Y-142545682D03*
X154928500Y-134366000D03*
X151519500Y-142494000D03*
X158724500Y-114935000D03*
X157574951Y-142084865D03*
X159244000Y-111379000D03*
X160655000Y-142494000D03*
X157480000Y-139700000D03*
D29*
X157079963Y-110467500D03*
X149565500Y-124968000D03*
D30*
X155436500Y-130556000D03*
X153416000Y-142367000D03*
X150483500Y-132715000D03*
D31*
X148264500Y-130795000D02*
X147614500Y-131445000D01*
D32*
X144018000Y-122475000D02*
X144018000Y-122301000D01*
D31*
X149035000Y-140716000D02*
X149839000Y-141520000D01*
X148523000Y-130795000D02*
X148264500Y-130795000D01*
X149035000Y-140716000D02*
X149035000Y-139764000D01*
X152699662Y-141520000D02*
X153004000Y-141215662D01*
X149035000Y-139764000D02*
X148366000Y-139095000D01*
X154327000Y-139912000D02*
X155131000Y-140716000D01*
X153308338Y-139912000D02*
X154327000Y-139912000D01*
X143306000Y-141751000D02*
X143306000Y-138060685D01*
D32*
X144272000Y-132715000D02*
X145161000Y-133604000D01*
X144018000Y-132715000D02*
X143002000Y-131699000D01*
D31*
X147426000Y-138091000D02*
X146622000Y-137287000D01*
X144122722Y-137243963D02*
X146578963Y-137243963D01*
X143668000Y-142113000D02*
X143306000Y-141751000D01*
X143306000Y-138060685D02*
X144122722Y-137243963D01*
X144300000Y-113851000D02*
X143980000Y-113531000D01*
X158496000Y-110617000D02*
X158115000Y-110998000D01*
X144300000Y-114681000D02*
X144300000Y-113851000D01*
X148366000Y-138565338D02*
X147891662Y-138091000D01*
X158496000Y-109855000D02*
X158496000Y-110617000D01*
X147614500Y-131445000D02*
X147614500Y-132381500D01*
D32*
X144018000Y-132715000D02*
X144272000Y-132715000D01*
D31*
X147891662Y-138091000D02*
X147426000Y-138091000D01*
X153004000Y-141215662D02*
X153004000Y-140216338D01*
X153004000Y-140216338D02*
X153308338Y-139912000D01*
D32*
X144018000Y-122301000D02*
X145034000Y-121285000D01*
D31*
X149839000Y-141520000D02*
X152699662Y-141520000D01*
D32*
X144018000Y-122301000D02*
X143002000Y-121285000D01*
D31*
X147614500Y-132381500D02*
X147948000Y-132715000D01*
X148366000Y-139095000D02*
X148366000Y-138565338D01*
X146578963Y-137243963D02*
X146622000Y-137287000D01*
D32*
X143002000Y-131699000D02*
X142875000Y-131699000D01*
X152701500Y-113966500D02*
X145301430Y-113966500D01*
X152908000Y-114173000D02*
X152701500Y-113966500D01*
D31*
X141431000Y-115950000D02*
X142700000Y-114681000D01*
X141062000Y-117490000D02*
X141097000Y-117525000D01*
D32*
X144291430Y-112956500D02*
X143594500Y-112956500D01*
D31*
X141097000Y-117525000D02*
X141444000Y-117525000D01*
D32*
X145301430Y-113966500D02*
X144291430Y-112956500D01*
D31*
X141062000Y-115950000D02*
X141431000Y-115950000D01*
X143020000Y-114361000D02*
X142700000Y-114681000D01*
D32*
X143594500Y-112956500D02*
X143020000Y-113531000D01*
D31*
X143020000Y-113531000D02*
X143020000Y-114361000D01*
X141444000Y-117525000D02*
X142700000Y-118781000D01*
X141062000Y-115950000D02*
X141062000Y-117490000D01*
X152794000Y-124081000D02*
X152006497Y-124868503D01*
X154386000Y-120525000D02*
X154445000Y-120584000D01*
X154320000Y-138874000D02*
X154445000Y-138999000D01*
X152794000Y-131508000D02*
X152794000Y-131969502D01*
X146000000Y-104775000D02*
X146000000Y-106006000D01*
X149107000Y-106652000D02*
X149422000Y-106967000D01*
X152794000Y-124081000D02*
X154259000Y-124081000D01*
X154445000Y-138999000D02*
X154583000Y-138861000D01*
X141062000Y-114300000D02*
X141062000Y-114081000D01*
X141062000Y-114081000D02*
X141732000Y-113411000D01*
X154386000Y-116842000D02*
X154445000Y-116901000D01*
X144500000Y-104775000D02*
X146000000Y-104775000D01*
X152590000Y-135191000D02*
X152019000Y-134620000D01*
X145987000Y-139065000D02*
X145987000Y-139002000D01*
X154320000Y-135191000D02*
X154445000Y-135316000D01*
X154386000Y-127891000D02*
X154445000Y-127950000D01*
X152794000Y-127891000D02*
X152529000Y-127891000D01*
X149300000Y-106845000D02*
X149422000Y-106967000D01*
X152794000Y-113159000D02*
X154386000Y-113159000D01*
X147984000Y-106652000D02*
X147984000Y-107466000D01*
X149300000Y-105050000D02*
X149300000Y-106845000D01*
X152794000Y-127891000D02*
X154386000Y-127891000D01*
X152794000Y-135191000D02*
X152590000Y-135191000D01*
X147321000Y-106652000D02*
X146968000Y-106299000D01*
X152781000Y-138874000D02*
X154320000Y-138874000D01*
X149670000Y-138811000D02*
X149670000Y-138612576D01*
X147984000Y-106652000D02*
X149107000Y-106652000D01*
X152794000Y-131508000D02*
X154320000Y-131508000D01*
X147984000Y-106652000D02*
X147321000Y-106652000D01*
X152006497Y-124868503D02*
X152006497Y-125222000D01*
X145072000Y-106934000D02*
X144555000Y-106934000D01*
X151444000Y-116459000D02*
X150802000Y-116459000D01*
X152794000Y-116842000D02*
X151827000Y-116842000D01*
X152794000Y-120525000D02*
X154386000Y-120525000D01*
X152794000Y-135191000D02*
X154320000Y-135191000D01*
X147984000Y-107466000D02*
X147500000Y-107950000D01*
X145987000Y-139002000D02*
X144876463Y-137891463D01*
X152794000Y-116842000D02*
X154386000Y-116842000D01*
X145987000Y-140716000D02*
X145987000Y-139065000D01*
X152794000Y-113159000D02*
X150751000Y-113159000D01*
X152529000Y-127891000D02*
X151892000Y-127254000D01*
X151827000Y-116842000D02*
X151444000Y-116459000D01*
X150751000Y-113159000D02*
X150749000Y-113157000D01*
X146725000Y-104775000D02*
X147000000Y-104500000D01*
X149670000Y-138612576D02*
X149236500Y-138179076D01*
X154320000Y-131508000D02*
X154445000Y-131633000D01*
X146000000Y-106006000D02*
X145072000Y-106934000D01*
X146000000Y-104775000D02*
X146725000Y-104775000D01*
X152794000Y-120905074D02*
X152005750Y-121693324D01*
X152794000Y-131969502D02*
X153543000Y-132718502D01*
X152794000Y-120525000D02*
X152794000Y-120905074D01*
X154259000Y-124081000D02*
X154445000Y-124267000D01*
X157102811Y-138861000D02*
X157214307Y-138972496D01*
X154386000Y-113159000D02*
X154445000Y-113218000D01*
X154583000Y-138861000D02*
X157102811Y-138861000D01*
X151827000Y-116842000D02*
X151003000Y-117666000D01*
X159300000Y-125708000D02*
X158496000Y-124904000D01*
X159300000Y-133074000D02*
X158496000Y-132270000D01*
X158496000Y-124904000D02*
X159300000Y-124100000D01*
X159300000Y-124100000D02*
X159300000Y-122025000D01*
X159300000Y-135149000D02*
X159300000Y-133074000D01*
X158496000Y-132270000D02*
X159300000Y-131466000D01*
X159300000Y-129391000D02*
X158496000Y-128587000D01*
X159300000Y-122025000D02*
X158496000Y-121221000D01*
X158496000Y-139636000D02*
X159300000Y-138832000D01*
X159309500Y-114668500D02*
X158496000Y-113855000D01*
X155446000Y-112446000D02*
X155446000Y-108431492D01*
X159309500Y-120407500D02*
X159309500Y-118351500D01*
X159300000Y-138832000D02*
X159300000Y-136757000D01*
X158496000Y-117538000D02*
X159309500Y-116724500D01*
X159300000Y-127783000D02*
X159300000Y-125708000D01*
X159888502Y-140208000D02*
X159068000Y-140208000D01*
X156960000Y-106917492D02*
X156960000Y-103400000D01*
X159300000Y-131466000D02*
X159300000Y-129391000D01*
X159309500Y-116724500D02*
X159309500Y-114668500D01*
X159309500Y-118351500D02*
X158496000Y-117538000D01*
X158496000Y-121221000D02*
X159309500Y-120407500D01*
X159068000Y-140208000D02*
X158496000Y-139636000D01*
X159300000Y-136757000D02*
X158496000Y-135953000D01*
X155446000Y-108431492D02*
X156960000Y-106917492D01*
X158496000Y-128587000D02*
X159300000Y-127783000D01*
X158496000Y-135953000D02*
X159300000Y-135149000D01*
X156855000Y-113855000D02*
X155446000Y-112446000D01*
X158496000Y-113855000D02*
X156855000Y-113855000D01*
D32*
X144555000Y-110392000D02*
X144555000Y-108734000D01*
X144653000Y-110490000D02*
X144555000Y-110392000D01*
X150356500Y-138007457D02*
X150516457Y-138007457D01*
X145750000Y-142547685D02*
X145708389Y-142506074D01*
X150516457Y-138007457D02*
X151320000Y-138811000D01*
X145750000Y-144000000D02*
X145750000Y-142547685D01*
X145349107Y-141859000D02*
X146494000Y-141859000D01*
X145188315Y-142019792D02*
X145349107Y-141859000D01*
X146494000Y-141859000D02*
X147637000Y-140716000D01*
X149352000Y-142505500D02*
X148301500Y-141455000D01*
X148301500Y-141455000D02*
X148301500Y-140020599D01*
X146945399Y-139691555D02*
X147010445Y-139691555D01*
X147010445Y-139691555D02*
X147637000Y-139065000D01*
X148301500Y-140020599D02*
X147637000Y-139356099D01*
X147637000Y-139356099D02*
X147637000Y-139065000D01*
X147250000Y-142549299D02*
X147206201Y-142505500D01*
X147250000Y-144000000D02*
X147250000Y-142549299D01*
X149987000Y-131953000D02*
X150940000Y-131953000D01*
X150940000Y-131953000D02*
X151003000Y-131890000D01*
X149352000Y-120788500D02*
X149352000Y-119316000D01*
X143733000Y-106666000D02*
X143733000Y-106934000D01*
X144608000Y-105791000D02*
X143733000Y-106666000D01*
X145288000Y-105791000D02*
X144608000Y-105791000D01*
X148474578Y-127296578D02*
X148523000Y-127345000D01*
X148523000Y-127345000D02*
X149277000Y-127345000D01*
X149362500Y-128132500D02*
X149150000Y-128345000D01*
X149362500Y-127430500D02*
X149362500Y-128132500D01*
X149150000Y-128345000D02*
X148523000Y-128345000D01*
X147587948Y-127296578D02*
X148474578Y-127296578D01*
X149277000Y-127345000D02*
X149362500Y-127430500D01*
X152781000Y-126228000D02*
X152794000Y-126241000D01*
X152781000Y-125222000D02*
X152781000Y-126228000D01*
X152794000Y-126241000D02*
X154254000Y-126241000D01*
X154254000Y-126241000D02*
X154445000Y-126050000D01*
X150495000Y-120269000D02*
X150495000Y-119824000D01*
X150495000Y-119824000D02*
X151003000Y-119316000D01*
X151384000Y-111760000D02*
X151635000Y-111509000D01*
X152794000Y-111509000D02*
X154254000Y-111509000D01*
X154254000Y-111509000D02*
X154445000Y-111318000D01*
X151635000Y-111509000D02*
X152794000Y-111509000D01*
X150685000Y-140716000D02*
X152083000Y-140716000D01*
X152019198Y-140652198D02*
X152083000Y-140716000D01*
X152019198Y-138105613D02*
X152019198Y-140652198D01*
X154320000Y-129858000D02*
X154445000Y-129733000D01*
X151701000Y-129858000D02*
X152794000Y-129858000D01*
X152794000Y-129858000D02*
X154320000Y-129858000D01*
X151003000Y-130175000D02*
X151384000Y-130175000D01*
X151384000Y-130175000D02*
X151701000Y-129858000D01*
X152794000Y-122431000D02*
X154381000Y-122431000D01*
X154559000Y-122253000D02*
X154445000Y-122367000D01*
X154559000Y-121412000D02*
X154559000Y-122253000D01*
X154381000Y-122431000D02*
X154445000Y-122367000D01*
X156337000Y-118618000D02*
X156210000Y-118618000D01*
X156210000Y-118618000D02*
X156144000Y-118684000D01*
X152794000Y-118875000D02*
X154254000Y-118875000D01*
X154254000Y-118875000D02*
X154445000Y-118684000D01*
X156144000Y-118684000D02*
X154445000Y-118684000D01*
X147067448Y-127080979D02*
X147372349Y-126776078D01*
X147193000Y-127889000D02*
X147237000Y-127845000D01*
X147193000Y-127889000D02*
X147067448Y-127763448D01*
X147372349Y-126776078D02*
X148454078Y-126776078D01*
X147067448Y-127763448D02*
X147067448Y-127080979D01*
X148454078Y-126776078D02*
X148523000Y-126845000D01*
X147237000Y-127845000D02*
X148523000Y-127845000D01*
X153320500Y-136684500D02*
X152781000Y-137224000D01*
X152781000Y-137224000D02*
X154320000Y-137224000D01*
X153320500Y-136017000D02*
X153320500Y-136684500D01*
X154320000Y-137224000D02*
X154445000Y-137099000D01*
X148551503Y-137287000D02*
X148971000Y-136867503D01*
X156250000Y-144000000D02*
X156250000Y-142708000D01*
X148272000Y-137287000D02*
X149670000Y-137287000D01*
X148272000Y-137287000D02*
X148551503Y-137287000D01*
X156250000Y-142708000D02*
X156488651Y-142469349D01*
X152794000Y-115192000D02*
X154254000Y-115192000D01*
X154254000Y-115192000D02*
X154445000Y-115001000D01*
X153543000Y-115941000D02*
X152794000Y-115192000D01*
X153543000Y-116078000D02*
X153543000Y-115941000D01*
X144007000Y-107834000D02*
X143891000Y-107950000D01*
X144555000Y-107834000D02*
X144007000Y-107834000D01*
X148750000Y-144000000D02*
X148750000Y-142638185D01*
X148750000Y-142638185D02*
X148628656Y-142516841D01*
D31*
X152022000Y-108867000D02*
X153875000Y-108867000D01*
X153875000Y-108867000D02*
X154000000Y-108742000D01*
D32*
X144250000Y-144000000D02*
X144250000Y-139341000D01*
X144250000Y-139341000D02*
X144526000Y-139065000D01*
X156908000Y-137986000D02*
X156845000Y-138049000D01*
X154686000Y-138049000D02*
X156845000Y-138049000D01*
X158496000Y-137986000D02*
X156908000Y-137986000D01*
X154559000Y-138176000D02*
X154686000Y-138049000D01*
X156845000Y-124003002D02*
X156845000Y-123317000D01*
X158496000Y-123254000D02*
X156908000Y-123254000D01*
X157353000Y-124511002D02*
X156845000Y-124003002D01*
X156908000Y-123254000D02*
X156845000Y-123317000D01*
X150876000Y-133667000D02*
X151003000Y-133540000D01*
X150876000Y-134620000D02*
X150876000Y-133667000D01*
X157119500Y-127274500D02*
X156845000Y-127000000D01*
X158496000Y-126937000D02*
X156908000Y-126937000D01*
X156908000Y-126937000D02*
X156845000Y-127000000D01*
X157119500Y-128016000D02*
X157119500Y-127274500D01*
X158242000Y-119634000D02*
X156845000Y-119634000D01*
X158724500Y-119342500D02*
X158496000Y-119571000D01*
X158496000Y-119571000D02*
X158305000Y-119571000D01*
X158724500Y-118618000D02*
X158724500Y-119342500D01*
X158305000Y-119571000D02*
X158242000Y-119634000D01*
X154750000Y-141733000D02*
X153733000Y-140716000D01*
X154750000Y-144000000D02*
X154750000Y-141733000D01*
X152075613Y-136524802D02*
X152075613Y-136531387D01*
X152075613Y-136531387D02*
X151320000Y-137287000D01*
X157750000Y-144000000D02*
X157750000Y-142914617D01*
X157750000Y-142914617D02*
X158110027Y-142554590D01*
X159944876Y-141743124D02*
X159944876Y-142545682D01*
X160464000Y-141224000D02*
X159944876Y-141743124D01*
X158496000Y-134303000D02*
X156908000Y-134303000D01*
X150250000Y-143763500D02*
X151519500Y-142494000D01*
X156908000Y-134303000D02*
X156845000Y-134366000D01*
X154928500Y-134366000D02*
X156845000Y-134366000D01*
X150250000Y-144000000D02*
X150250000Y-143763500D01*
X156908000Y-115888000D02*
X156845000Y-115951000D01*
X158496000Y-115888000D02*
X156908000Y-115888000D01*
X158496000Y-115163500D02*
X158724500Y-114935000D01*
X158496000Y-115888000D02*
X158496000Y-115163500D01*
X160750000Y-144000000D02*
X160750000Y-142589000D01*
X159244000Y-111457000D02*
X158496000Y-112205000D01*
X159244000Y-111379000D02*
X159244000Y-111457000D01*
X158243000Y-112268000D02*
X156845000Y-112268000D01*
X160750000Y-142589000D02*
X160655000Y-142494000D01*
X158496000Y-112205000D02*
X158306000Y-112205000D01*
X158306000Y-112205000D02*
X158243000Y-112268000D01*
X156781000Y-140716000D02*
X157480000Y-140716000D01*
X157480000Y-140716000D02*
X158306000Y-140716000D01*
X158306000Y-140716000D02*
X158814000Y-141224000D01*
X157480000Y-139700000D02*
X157480000Y-140716000D01*
X146421000Y-127193000D02*
X147769000Y-125845000D01*
X146421000Y-133849000D02*
X146421000Y-127193000D01*
X147769000Y-125845000D02*
X148523000Y-125845000D01*
X144970000Y-135300000D02*
X146421000Y-133849000D01*
D31*
X149755000Y-125694000D02*
X149755000Y-129594000D01*
X148523000Y-125195000D02*
X149256000Y-125195000D01*
X156000000Y-109050000D02*
X156950000Y-110000000D01*
X156950000Y-110000000D02*
X157122338Y-110000000D01*
X149755000Y-129594000D02*
X149354000Y-129995000D01*
X148523000Y-125195000D02*
X149338500Y-125195000D01*
X158496000Y-108205000D02*
X158496000Y-108626338D01*
X157122338Y-110000000D02*
X157079963Y-110042375D01*
X157079963Y-110042375D02*
X157079963Y-110467500D01*
X149256000Y-125195000D02*
X149755000Y-125694000D01*
X157920000Y-107629000D02*
X158496000Y-108205000D01*
X158496000Y-108626338D02*
X157122338Y-110000000D01*
X149354000Y-129995000D02*
X148523000Y-129995000D01*
X149338500Y-125195000D02*
X149565500Y-124968000D01*
X157920000Y-105500000D02*
X157920000Y-107629000D01*
D32*
X146749000Y-129865000D02*
X147769000Y-128845000D01*
X146749000Y-135300000D02*
X146749000Y-129865000D01*
X147769000Y-128845000D02*
X148523000Y-128845000D01*
X155563500Y-130683000D02*
X156845000Y-130683000D01*
X156908000Y-130620000D02*
X156845000Y-130683000D01*
X151750000Y-144000000D02*
X151750000Y-143779000D01*
X151750000Y-143779000D02*
X153162000Y-142367000D01*
X153162000Y-142367000D02*
X153416000Y-142367000D01*
X158496000Y-130620000D02*
X156908000Y-130620000D01*
X155436500Y-130556000D02*
X155563500Y-130683000D01*
D31*
X154000000Y-106275000D02*
X153025000Y-105300000D01*
X152022000Y-106967000D02*
X153875000Y-106967000D01*
X154000000Y-107092000D02*
X155858000Y-107092000D01*
X156000000Y-106950000D02*
X156000000Y-105500000D01*
X153875000Y-106967000D02*
X154000000Y-107092000D01*
X154000000Y-107092000D02*
X154000000Y-106275000D01*
X155858000Y-107092000D02*
X156000000Y-106950000D01*
D32*
X150147500Y-122715500D02*
X146213000Y-118781000D01*
X146213000Y-118781000D02*
X146101000Y-118781000D01*
X151968000Y-132715000D02*
X152794000Y-133541000D01*
X150012901Y-132715000D02*
X149362500Y-132064599D01*
X150147500Y-129756578D02*
X150147500Y-122715500D01*
X149362500Y-130541578D02*
X150147500Y-129756578D01*
X150483500Y-132715000D02*
X151968000Y-132715000D01*
X152794000Y-133541000D02*
X154320000Y-133541000D01*
X150483500Y-132715000D02*
X150012901Y-132715000D01*
X154320000Y-133541000D02*
X154445000Y-133416000D01*
X146101000Y-114681000D02*
X146101000Y-118781000D01*
X149362500Y-132064599D02*
X149362500Y-130541578D01*
G04 #@! TA.AperFunction,Conductor*
G36*
X144521780Y-114699482D02*
G01*
X144548800Y-114746282D01*
X144550000Y-114760000D01*
X144550000Y-115631000D01*
X144847835Y-115631000D01*
X144907369Y-115624598D01*
X144907381Y-115624596D01*
X145042083Y-115574356D01*
X145042094Y-115574349D01*
X145157189Y-115488189D01*
X145243349Y-115373094D01*
X145243355Y-115373083D01*
X145289092Y-115250455D01*
X145324154Y-115209335D01*
X145377445Y-115200373D01*
X145424029Y-115227763D01*
X145428796Y-115234170D01*
X145456447Y-115275551D01*
X145456448Y-115275552D01*
X145522769Y-115319867D01*
X145522768Y-115319867D01*
X145581252Y-115331500D01*
X145758000Y-115331500D01*
X145808780Y-115349982D01*
X145835800Y-115396782D01*
X145837000Y-115410500D01*
X145837000Y-118051500D01*
X145818518Y-118102280D01*
X145771718Y-118129300D01*
X145758000Y-118130500D01*
X145581252Y-118130500D01*
X145522769Y-118142132D01*
X145456447Y-118186448D01*
X145428796Y-118227829D01*
X145385215Y-118259782D01*
X145331292Y-118256246D01*
X145292257Y-118218875D01*
X145289092Y-118211544D01*
X145243355Y-118088916D01*
X145243349Y-118088905D01*
X145157189Y-117973810D01*
X145042094Y-117887650D01*
X145042083Y-117887643D01*
X144907381Y-117837403D01*
X144907369Y-117837401D01*
X144847835Y-117831000D01*
X144550000Y-117831000D01*
X144550000Y-119731000D01*
X144847835Y-119731000D01*
X144907369Y-119724598D01*
X144907381Y-119724596D01*
X145042083Y-119674356D01*
X145042094Y-119674349D01*
X145157189Y-119588189D01*
X145243349Y-119473094D01*
X145243355Y-119473083D01*
X145289092Y-119350455D01*
X145324154Y-119309335D01*
X145377445Y-119300373D01*
X145424029Y-119327763D01*
X145428796Y-119334170D01*
X145452444Y-119369560D01*
X145456448Y-119375552D01*
X145522769Y-119419867D01*
X145522768Y-119419867D01*
X145581252Y-119431500D01*
X146457426Y-119431500D01*
X146508206Y-119449982D01*
X146513287Y-119454639D01*
X148184962Y-121126314D01*
X148207800Y-121175290D01*
X148198000Y-121211865D01*
X148198000Y-122225000D01*
X149212919Y-122225000D01*
X149233935Y-122215199D01*
X149286133Y-122229183D01*
X149296685Y-122238037D01*
X149860361Y-122801713D01*
X149883199Y-122850689D01*
X149883500Y-122857574D01*
X149883500Y-124415475D01*
X149865018Y-124466255D01*
X149818218Y-124493275D01*
X149771176Y-124484985D01*
X149770611Y-124486351D01*
X149765825Y-124484368D01*
X149633828Y-124449000D01*
X149497172Y-124449000D01*
X149497171Y-124449000D01*
X149365174Y-124484368D01*
X149365172Y-124484369D01*
X149246826Y-124552697D01*
X149228423Y-124571101D01*
X149177662Y-124621861D01*
X149128688Y-124644699D01*
X149121802Y-124645000D01*
X148602000Y-124645000D01*
X148551220Y-124626518D01*
X148524200Y-124579718D01*
X148523000Y-124566000D01*
X148523000Y-124224000D01*
X148541482Y-124173220D01*
X148588282Y-124146200D01*
X148602000Y-124145000D01*
X149598000Y-124145000D01*
X149598000Y-124047164D01*
X149591598Y-123987630D01*
X149591596Y-123987618D01*
X149541356Y-123852916D01*
X149541349Y-123852905D01*
X149455189Y-123737810D01*
X149340094Y-123651650D01*
X149340083Y-123651643D01*
X149205381Y-123601403D01*
X149205369Y-123601401D01*
X149191001Y-123599856D01*
X149142487Y-123576050D01*
X149120626Y-123526630D01*
X149135646Y-123474721D01*
X149136207Y-123473962D01*
X149141353Y-123467088D01*
X149141356Y-123467083D01*
X149191596Y-123332381D01*
X149191598Y-123332369D01*
X149198000Y-123272835D01*
X149198000Y-122725000D01*
X146698000Y-122725000D01*
X146698000Y-123272835D01*
X146704401Y-123332369D01*
X146704403Y-123332381D01*
X146754643Y-123467083D01*
X146754650Y-123467094D01*
X146840810Y-123582189D01*
X146955905Y-123668349D01*
X146955916Y-123668356D01*
X147090618Y-123718596D01*
X147090630Y-123718598D01*
X147150165Y-123725000D01*
X147442578Y-123725000D01*
X147493358Y-123743482D01*
X147520378Y-123790282D01*
X147510994Y-123843500D01*
X147505819Y-123851345D01*
X147504648Y-123852908D01*
X147504643Y-123852916D01*
X147454403Y-123987618D01*
X147454401Y-123987630D01*
X147448000Y-124047164D01*
X147448000Y-124152107D01*
X147429518Y-124202887D01*
X147389447Y-124228415D01*
X147264464Y-124261904D01*
X147264462Y-124261905D01*
X147156033Y-124324506D01*
X147067506Y-124413033D01*
X147004905Y-124521462D01*
X147004904Y-124521464D01*
X146972500Y-124642398D01*
X146972500Y-124698074D01*
X146954018Y-124748854D01*
X146907218Y-124775874D01*
X146854000Y-124766490D01*
X146825084Y-124737574D01*
X146796291Y-124687702D01*
X146796290Y-124687701D01*
X146796289Y-124687699D01*
X146711300Y-124602710D01*
X146711298Y-124602709D01*
X146607204Y-124542610D01*
X146607201Y-124542609D01*
X146491099Y-124511500D01*
X146370901Y-124511500D01*
X146370900Y-124511500D01*
X146254798Y-124542609D01*
X146254795Y-124542610D01*
X146150701Y-124602709D01*
X146065709Y-124687701D01*
X146005610Y-124791795D01*
X146005609Y-124791798D01*
X145974500Y-124907900D01*
X145974500Y-125028099D01*
X146005609Y-125144201D01*
X146005610Y-125144204D01*
X146065709Y-125248298D01*
X146065710Y-125248300D01*
X146150700Y-125333290D01*
X146254795Y-125393389D01*
X146254798Y-125393390D01*
X146370901Y-125424500D01*
X146370903Y-125424500D01*
X146491097Y-125424500D01*
X146491099Y-125424500D01*
X146607202Y-125393390D01*
X146711298Y-125333291D01*
X146711299Y-125333290D01*
X146711300Y-125333290D01*
X146796290Y-125248300D01*
X146796290Y-125248299D01*
X146796291Y-125248298D01*
X146850923Y-125153672D01*
X146856389Y-125144204D01*
X146856390Y-125144201D01*
X146887500Y-125028099D01*
X146887500Y-124980017D01*
X146905982Y-124929237D01*
X146952782Y-124902217D01*
X147006000Y-124911601D01*
X147034915Y-124940516D01*
X147035600Y-124941702D01*
X147067506Y-124996966D01*
X147156033Y-125085493D01*
X147156035Y-125085494D01*
X147156036Y-125085495D01*
X147207020Y-125114930D01*
X147249384Y-125139389D01*
X147264464Y-125148095D01*
X147385399Y-125180500D01*
X147385401Y-125180500D01*
X147510599Y-125180500D01*
X147510601Y-125180500D01*
X147631536Y-125148095D01*
X147631538Y-125148094D01*
X147636319Y-125146114D01*
X147637151Y-125148124D01*
X147682209Y-125140173D01*
X147729011Y-125167187D01*
X147747500Y-125217965D01*
X147747500Y-125515367D01*
X147729018Y-125566147D01*
X147698731Y-125588354D01*
X147688067Y-125592771D01*
X147688066Y-125592770D01*
X147619459Y-125621188D01*
X147619453Y-125621193D01*
X146607148Y-126633500D01*
X146271456Y-126969192D01*
X146234323Y-127006324D01*
X146197191Y-127043456D01*
X146197189Y-127043459D01*
X146157000Y-127140484D01*
X146157000Y-133706924D01*
X146138518Y-133757704D01*
X146133861Y-133762785D01*
X145290952Y-134605693D01*
X145241976Y-134628531D01*
X145222735Y-134627860D01*
X145201519Y-134624500D01*
X145201516Y-134624500D01*
X144738484Y-134624500D01*
X144662345Y-134636558D01*
X144644696Y-134639354D01*
X144589213Y-134667623D01*
X144531655Y-134696951D01*
X144441950Y-134786656D01*
X144441948Y-134786659D01*
X144384354Y-134899693D01*
X144384353Y-134899697D01*
X144375222Y-134957348D01*
X144349023Y-135004611D01*
X144298573Y-135023977D01*
X144247478Y-135006383D01*
X144219646Y-134960063D01*
X144218519Y-134952137D01*
X144213591Y-134897898D01*
X144213589Y-134897890D01*
X144163017Y-134735601D01*
X144075074Y-134590125D01*
X143954874Y-134469925D01*
X143809398Y-134381982D01*
X143647105Y-134331408D01*
X143576575Y-134325000D01*
X143570000Y-134325000D01*
X143570000Y-136274999D01*
X143576575Y-136274999D01*
X143647101Y-136268591D01*
X143647109Y-136268589D01*
X143809398Y-136218017D01*
X143954874Y-136130074D01*
X144075074Y-136009874D01*
X144163017Y-135864398D01*
X144213591Y-135702105D01*
X144218520Y-135647861D01*
X144241522Y-135598962D01*
X144290574Y-135576288D01*
X144342725Y-135590449D01*
X144373572Y-135634819D01*
X144375222Y-135642648D01*
X144377112Y-135654578D01*
X144384354Y-135700302D01*
X144384353Y-135700302D01*
X144441951Y-135813344D01*
X144531656Y-135903049D01*
X144531659Y-135903051D01*
X144644693Y-135960645D01*
X144644695Y-135960645D01*
X144644696Y-135960646D01*
X144738481Y-135975500D01*
X145201518Y-135975499D01*
X145295304Y-135960646D01*
X145408342Y-135903050D01*
X145498050Y-135813342D01*
X145555646Y-135700304D01*
X145570500Y-135606519D01*
X145570499Y-135105573D01*
X145588981Y-135054794D01*
X145593627Y-135049724D01*
X146350139Y-134293213D01*
X146399115Y-134270375D01*
X146451313Y-134284361D01*
X146482308Y-134328627D01*
X146485000Y-134349074D01*
X146485000Y-134562171D01*
X146466518Y-134612951D01*
X146428743Y-134634759D01*
X146429612Y-134637432D01*
X146423697Y-134639353D01*
X146310655Y-134696951D01*
X146220950Y-134786656D01*
X146220948Y-134786659D01*
X146163354Y-134899693D01*
X146163353Y-134899697D01*
X146148501Y-134993469D01*
X146148500Y-134993485D01*
X146148500Y-135606515D01*
X146163354Y-135700302D01*
X146163353Y-135700302D01*
X146220951Y-135813344D01*
X146310656Y-135903049D01*
X146310659Y-135903051D01*
X146423693Y-135960645D01*
X146423695Y-135960645D01*
X146423696Y-135960646D01*
X146517481Y-135975500D01*
X146980518Y-135975499D01*
X147074304Y-135960646D01*
X147187342Y-135903050D01*
X147277050Y-135813342D01*
X147334646Y-135700304D01*
X147343777Y-135642650D01*
X147369975Y-135595389D01*
X147420424Y-135576022D01*
X147471520Y-135593615D01*
X147499352Y-135639935D01*
X147500480Y-135647861D01*
X147505408Y-135702101D01*
X147505410Y-135702109D01*
X147555982Y-135864398D01*
X147643925Y-136009874D01*
X147764125Y-136130074D01*
X147909601Y-136218017D01*
X148071894Y-136268591D01*
X148142424Y-136274999D01*
X148649000Y-136274999D01*
X148655575Y-136274999D01*
X148726101Y-136268591D01*
X148726109Y-136268589D01*
X148888398Y-136218017D01*
X149033874Y-136130074D01*
X149154074Y-136009874D01*
X149242017Y-135864398D01*
X149292591Y-135702105D01*
X149299000Y-135631574D01*
X149299000Y-135575900D01*
X149784500Y-135575900D01*
X149784500Y-135696099D01*
X149815609Y-135812201D01*
X149815610Y-135812204D01*
X149875709Y-135916298D01*
X149875710Y-135916300D01*
X149960700Y-136001290D01*
X150064795Y-136061389D01*
X150064798Y-136061390D01*
X150180901Y-136092500D01*
X150180903Y-136092500D01*
X150301097Y-136092500D01*
X150301099Y-136092500D01*
X150417202Y-136061390D01*
X150521298Y-136001291D01*
X150521299Y-136001290D01*
X150521300Y-136001290D01*
X150606290Y-135916300D01*
X150606290Y-135916299D01*
X150606291Y-135916298D01*
X150666390Y-135812202D01*
X150697500Y-135696099D01*
X150697500Y-135575901D01*
X150666390Y-135459798D01*
X150666389Y-135459795D01*
X150606290Y-135355701D01*
X150606290Y-135355700D01*
X150521300Y-135270710D01*
X150521298Y-135270709D01*
X150417204Y-135210610D01*
X150417201Y-135210609D01*
X150301099Y-135179500D01*
X150180901Y-135179500D01*
X150180900Y-135179500D01*
X150064798Y-135210609D01*
X150064795Y-135210610D01*
X149960701Y-135270709D01*
X149875709Y-135355701D01*
X149815610Y-135459795D01*
X149815609Y-135459798D01*
X149784500Y-135575900D01*
X149299000Y-135575900D01*
X149299000Y-135550000D01*
X148649000Y-135550000D01*
X148649000Y-136274999D01*
X148142424Y-136274999D01*
X148148999Y-136274998D01*
X148149000Y-136274998D01*
X148149000Y-135050000D01*
X148649000Y-135050000D01*
X149298999Y-135050000D01*
X149298999Y-134968424D01*
X149292591Y-134897898D01*
X149292589Y-134897890D01*
X149242017Y-134735601D01*
X149154074Y-134590125D01*
X149033874Y-134469925D01*
X148888398Y-134381982D01*
X148726105Y-134331408D01*
X148655575Y-134325000D01*
X148649000Y-134325000D01*
X148649000Y-135050000D01*
X148149000Y-135050000D01*
X148149000Y-134325000D01*
X148148999Y-134324999D01*
X148142428Y-134325000D01*
X148142420Y-134325001D01*
X148071899Y-134331408D01*
X148071890Y-134331410D01*
X147909601Y-134381982D01*
X147764125Y-134469925D01*
X147643925Y-134590125D01*
X147555982Y-134735601D01*
X147505408Y-134897894D01*
X147500479Y-134952139D01*
X147477476Y-135001038D01*
X147428423Y-135023711D01*
X147376273Y-135009549D01*
X147345426Y-134965179D01*
X147343776Y-134957348D01*
X147334646Y-134899696D01*
X147277050Y-134786658D01*
X147277049Y-134786657D01*
X147277048Y-134786655D01*
X147187343Y-134696950D01*
X147187340Y-134696948D01*
X147074308Y-134639355D01*
X147068389Y-134637432D01*
X147069341Y-134634502D01*
X147032337Y-134613952D01*
X147013011Y-134563487D01*
X147013000Y-134562171D01*
X147013000Y-134038201D01*
X147031482Y-133987421D01*
X147078282Y-133960401D01*
X147100446Y-133959654D01*
X147150166Y-133965000D01*
X147698000Y-133965000D01*
X148198000Y-133965000D01*
X148745835Y-133965000D01*
X148805369Y-133958598D01*
X148805381Y-133958596D01*
X148940083Y-133908356D01*
X148940094Y-133908349D01*
X149055189Y-133822189D01*
X149141349Y-133707094D01*
X149141356Y-133707083D01*
X149191596Y-133572381D01*
X149191598Y-133572369D01*
X149198000Y-133512835D01*
X149198000Y-132965000D01*
X148198000Y-132965000D01*
X148198000Y-133965000D01*
X147698000Y-133965000D01*
X147698000Y-132794000D01*
X147716482Y-132743220D01*
X147763282Y-132716200D01*
X147777000Y-132715000D01*
X147948000Y-132715000D01*
X147948000Y-132544000D01*
X147966482Y-132493220D01*
X148013282Y-132466200D01*
X148027000Y-132465000D01*
X149198000Y-132465000D01*
X149198000Y-132464173D01*
X149216482Y-132413393D01*
X149263282Y-132386373D01*
X149316500Y-132395757D01*
X149332856Y-132408307D01*
X149863357Y-132938809D01*
X149960388Y-132979000D01*
X150069188Y-132979000D01*
X150119968Y-132997482D01*
X150125049Y-133002139D01*
X150203199Y-133080289D01*
X150203201Y-133080290D01*
X150203202Y-133080291D01*
X150303178Y-133138011D01*
X150337914Y-133179407D01*
X150341705Y-133218785D01*
X150327501Y-133308468D01*
X150327500Y-133308485D01*
X150327500Y-133771515D01*
X150333558Y-133809764D01*
X150342251Y-133864656D01*
X150342354Y-133865302D01*
X150342353Y-133865302D01*
X150399951Y-133978344D01*
X150489655Y-134068048D01*
X150489657Y-134068049D01*
X150489658Y-134068050D01*
X150568867Y-134108409D01*
X150570352Y-134110002D01*
X150572500Y-134110381D01*
X150588618Y-134129590D01*
X150605720Y-134147929D01*
X150606268Y-134150623D01*
X150607236Y-134151777D01*
X150612000Y-134178797D01*
X150612000Y-134205688D01*
X150593518Y-134256468D01*
X150588861Y-134261549D01*
X150510709Y-134339701D01*
X150450610Y-134443795D01*
X150450609Y-134443798D01*
X150419500Y-134559900D01*
X150419500Y-134680099D01*
X150450609Y-134796201D01*
X150450610Y-134796204D01*
X150510709Y-134900298D01*
X150510710Y-134900300D01*
X150595700Y-134985290D01*
X150699795Y-135045389D01*
X150699798Y-135045390D01*
X150815901Y-135076500D01*
X150815903Y-135076500D01*
X150936097Y-135076500D01*
X150936099Y-135076500D01*
X151052202Y-135045390D01*
X151156298Y-134985291D01*
X151156299Y-134985290D01*
X151156300Y-134985290D01*
X151241290Y-134900300D01*
X151241290Y-134900299D01*
X151241291Y-134900298D01*
X151301390Y-134796202D01*
X151332500Y-134680099D01*
X151332500Y-134559901D01*
X151301390Y-134443798D01*
X151301389Y-134443795D01*
X151241290Y-134339701D01*
X151241290Y-134339700D01*
X151176950Y-134275360D01*
X151154112Y-134226384D01*
X151168098Y-134174186D01*
X151212364Y-134143191D01*
X151232811Y-134140499D01*
X151309515Y-134140499D01*
X151309518Y-134140499D01*
X151403304Y-134125646D01*
X151516342Y-134068050D01*
X151606050Y-133978342D01*
X151663136Y-133866304D01*
X151663645Y-133865306D01*
X151663645Y-133865305D01*
X151663646Y-133865304D01*
X151678500Y-133771519D01*
X151678499Y-133308482D01*
X151663646Y-133214696D01*
X151606050Y-133101658D01*
X151606049Y-133101657D01*
X151603227Y-133096118D01*
X151605370Y-133095026D01*
X151603132Y-133087224D01*
X151594180Y-133071718D01*
X151595895Y-133061988D01*
X151593172Y-133052492D01*
X151600454Y-133036134D01*
X151603564Y-133018500D01*
X151611133Y-133012148D01*
X151615151Y-133003124D01*
X151631241Y-132995275D01*
X151644960Y-132983764D01*
X151660434Y-132981035D01*
X151663720Y-132979433D01*
X151671980Y-132979000D01*
X151825926Y-132979000D01*
X151876706Y-132997482D01*
X151881787Y-133002139D01*
X152099693Y-133220045D01*
X152122531Y-133269021D01*
X152121860Y-133288261D01*
X152118500Y-133309481D01*
X152118500Y-133772515D01*
X152118886Y-133774950D01*
X152133195Y-133865302D01*
X152133354Y-133866302D01*
X152133353Y-133866302D01*
X152190951Y-133979345D01*
X152194604Y-133984372D01*
X152191887Y-133986345D01*
X152209426Y-134023957D01*
X152195440Y-134076155D01*
X152151174Y-134107150D01*
X152110281Y-134107150D01*
X152087330Y-134101000D01*
X152087328Y-134101000D01*
X151950672Y-134101000D01*
X151950671Y-134101000D01*
X151818674Y-134136368D01*
X151818672Y-134136369D01*
X151700324Y-134204698D01*
X151603698Y-134301324D01*
X151535369Y-134419672D01*
X151535368Y-134419674D01*
X151500000Y-134551671D01*
X151500000Y-134688328D01*
X151535368Y-134820325D01*
X151535369Y-134820327D01*
X151603698Y-134938675D01*
X151700324Y-135035301D01*
X151700326Y-135035302D01*
X151700327Y-135035303D01*
X151818674Y-135103631D01*
X151950672Y-135139000D01*
X152039500Y-135139000D01*
X152090280Y-135157482D01*
X152117300Y-135204282D01*
X152118500Y-135218000D01*
X152118500Y-135422515D01*
X152124405Y-135459798D01*
X152133093Y-135514658D01*
X152133354Y-135516302D01*
X152133353Y-135516302D01*
X152190951Y-135629344D01*
X152280656Y-135719049D01*
X152280659Y-135719051D01*
X152393693Y-135776645D01*
X152393695Y-135776645D01*
X152393696Y-135776646D01*
X152487481Y-135791500D01*
X152805364Y-135791499D01*
X152856144Y-135809981D01*
X152883164Y-135856781D01*
X152881672Y-135890945D01*
X152864000Y-135956898D01*
X152864000Y-136077099D01*
X152895109Y-136193201D01*
X152895110Y-136193204D01*
X152955209Y-136297298D01*
X152955210Y-136297300D01*
X153033361Y-136375451D01*
X153040648Y-136391078D01*
X153051736Y-136404292D01*
X153054731Y-136421278D01*
X153056199Y-136424427D01*
X153056500Y-136431312D01*
X153056500Y-136542424D01*
X153038018Y-136593204D01*
X153033361Y-136598285D01*
X153031285Y-136600361D01*
X153001838Y-136614091D01*
X152991218Y-136620224D01*
X152989382Y-136619900D01*
X152982309Y-136623199D01*
X152975424Y-136623500D01*
X152611113Y-136623500D01*
X152560333Y-136605018D01*
X152533313Y-136558218D01*
X152532113Y-136544500D01*
X152532113Y-136464705D01*
X152532113Y-136464703D01*
X152501003Y-136348600D01*
X152501002Y-136348597D01*
X152440903Y-136244503D01*
X152440903Y-136244502D01*
X152355913Y-136159512D01*
X152355911Y-136159511D01*
X152251817Y-136099412D01*
X152251814Y-136099411D01*
X152135712Y-136068302D01*
X152015514Y-136068302D01*
X152015513Y-136068302D01*
X151899411Y-136099411D01*
X151899408Y-136099412D01*
X151795314Y-136159511D01*
X151710322Y-136244503D01*
X151650223Y-136348597D01*
X151650222Y-136348600D01*
X151619113Y-136464702D01*
X151619113Y-136532500D01*
X151600631Y-136583280D01*
X151553831Y-136610300D01*
X151540113Y-136611500D01*
X151088484Y-136611500D01*
X151012717Y-136623500D01*
X150994696Y-136626354D01*
X150939213Y-136654623D01*
X150881655Y-136683951D01*
X150791950Y-136773656D01*
X150791948Y-136773659D01*
X150734354Y-136886693D01*
X150734353Y-136886697D01*
X150719501Y-136980469D01*
X150719500Y-136980485D01*
X150719500Y-137553083D01*
X150701018Y-137603863D01*
X150654218Y-137630883D01*
X150601001Y-137621499D01*
X150532702Y-137582067D01*
X150532701Y-137582066D01*
X150416599Y-137550957D01*
X150349499Y-137550957D01*
X150298719Y-137532475D01*
X150271699Y-137485675D01*
X150270499Y-137471957D01*
X150270499Y-136980484D01*
X150270497Y-136980469D01*
X150255646Y-136886696D01*
X150198050Y-136773658D01*
X150198049Y-136773657D01*
X150198048Y-136773655D01*
X150108343Y-136683950D01*
X150108340Y-136683948D01*
X149995306Y-136626354D01*
X149995302Y-136626353D01*
X149901530Y-136611501D01*
X149901522Y-136611500D01*
X149901519Y-136611500D01*
X149901514Y-136611500D01*
X149438483Y-136611500D01*
X149410405Y-136615947D01*
X149357359Y-136605634D01*
X149340359Y-136590459D01*
X149339953Y-136590866D01*
X149251300Y-136502213D01*
X149251298Y-136502212D01*
X149147204Y-136442113D01*
X149147201Y-136442112D01*
X149031099Y-136411003D01*
X148910901Y-136411003D01*
X148910900Y-136411003D01*
X148794798Y-136442112D01*
X148794795Y-136442113D01*
X148690701Y-136502212D01*
X148602047Y-136590866D01*
X148600865Y-136589684D01*
X148561036Y-136615048D01*
X148531594Y-136615946D01*
X148516693Y-136613586D01*
X148503519Y-136611500D01*
X148503517Y-136611500D01*
X148040484Y-136611500D01*
X147964717Y-136623500D01*
X147946696Y-136626354D01*
X147891213Y-136654623D01*
X147833655Y-136683951D01*
X147743950Y-136773656D01*
X147743948Y-136773659D01*
X147686354Y-136886693D01*
X147686353Y-136886697D01*
X147677222Y-136944348D01*
X147651023Y-136991611D01*
X147600573Y-137010977D01*
X147549478Y-136993383D01*
X147521646Y-136947063D01*
X147520519Y-136939137D01*
X147515591Y-136884898D01*
X147515589Y-136884890D01*
X147465017Y-136722601D01*
X147377074Y-136577125D01*
X147256874Y-136456925D01*
X147111398Y-136368982D01*
X146949105Y-136318408D01*
X146878575Y-136312000D01*
X146872000Y-136312000D01*
X146872000Y-138261999D01*
X146878575Y-138261999D01*
X146949101Y-138255591D01*
X146949109Y-138255589D01*
X147111398Y-138205017D01*
X147256874Y-138117074D01*
X147377074Y-137996874D01*
X147465017Y-137851398D01*
X147515591Y-137689105D01*
X147520520Y-137634861D01*
X147543522Y-137585962D01*
X147592574Y-137563288D01*
X147644725Y-137577449D01*
X147675572Y-137621819D01*
X147677222Y-137629648D01*
X147683059Y-137666500D01*
X147686354Y-137687302D01*
X147686353Y-137687302D01*
X147743951Y-137800344D01*
X147833656Y-137890049D01*
X147833659Y-137890051D01*
X147946693Y-137947645D01*
X147946695Y-137947645D01*
X147946696Y-137947646D01*
X148040481Y-137962500D01*
X148503518Y-137962499D01*
X148597304Y-137947646D01*
X148707765Y-137891362D01*
X148761401Y-137884777D01*
X148806722Y-137914208D01*
X148822522Y-137965886D01*
X148812995Y-137998052D01*
X148813091Y-137998092D01*
X148812714Y-137998999D01*
X148812050Y-138001245D01*
X148811111Y-138002871D01*
X148811109Y-138002874D01*
X148780000Y-138118976D01*
X148780000Y-138239175D01*
X148811109Y-138355277D01*
X148811110Y-138355280D01*
X148871209Y-138459374D01*
X148871210Y-138459376D01*
X148956200Y-138544366D01*
X148998900Y-138569018D01*
X149025502Y-138584377D01*
X149029999Y-138586973D01*
X149064735Y-138628369D01*
X149069500Y-138655389D01*
X149069500Y-139117515D01*
X149073580Y-139143277D01*
X149083954Y-139208780D01*
X149084354Y-139211302D01*
X149084353Y-139211302D01*
X149141951Y-139324344D01*
X149231656Y-139414049D01*
X149231659Y-139414051D01*
X149344693Y-139471645D01*
X149344695Y-139471645D01*
X149344696Y-139471646D01*
X149438481Y-139486500D01*
X149901518Y-139486499D01*
X149995304Y-139471646D01*
X150108342Y-139414050D01*
X150198050Y-139324342D01*
X150255646Y-139211304D01*
X150270500Y-139117519D01*
X150270499Y-138542956D01*
X150288981Y-138492177D01*
X150335781Y-138465157D01*
X150349499Y-138463957D01*
X150416597Y-138463957D01*
X150416599Y-138463957D01*
X150516875Y-138437088D01*
X150570709Y-138441798D01*
X150593183Y-138457535D01*
X150696361Y-138560713D01*
X150719199Y-138609689D01*
X150719500Y-138616574D01*
X150719500Y-139117515D01*
X150723580Y-139143277D01*
X150733954Y-139208780D01*
X150734354Y-139211302D01*
X150734353Y-139211302D01*
X150791951Y-139324344D01*
X150881656Y-139414049D01*
X150881659Y-139414051D01*
X150994693Y-139471645D01*
X150994695Y-139471645D01*
X150994696Y-139471646D01*
X151088481Y-139486500D01*
X151551518Y-139486499D01*
X151645304Y-139471646D01*
X151645305Y-139471645D01*
X151645307Y-139471645D01*
X151651217Y-139469725D01*
X151652194Y-139472734D01*
X151693906Y-139467578D01*
X151739251Y-139496973D01*
X151755198Y-139544568D01*
X151755198Y-140008215D01*
X151736716Y-140058995D01*
X151712064Y-140078604D01*
X151644657Y-140112950D01*
X151644656Y-140112950D01*
X151554950Y-140202656D01*
X151554948Y-140202659D01*
X151497354Y-140315693D01*
X151497353Y-140315697D01*
X151486320Y-140385358D01*
X151479243Y-140398123D01*
X151476709Y-140412500D01*
X151466550Y-140421024D01*
X151460122Y-140432622D01*
X151446495Y-140437852D01*
X151435313Y-140447236D01*
X151410785Y-140451560D01*
X151409672Y-140451988D01*
X151408293Y-140452000D01*
X151359706Y-140452000D01*
X151308926Y-140433518D01*
X151281906Y-140386718D01*
X151281678Y-140385357D01*
X151278951Y-140368137D01*
X151270646Y-140315696D01*
X151213050Y-140202658D01*
X151213049Y-140202657D01*
X151213048Y-140202655D01*
X151123343Y-140112950D01*
X151123340Y-140112948D01*
X151010306Y-140055354D01*
X151010302Y-140055353D01*
X150916530Y-140040501D01*
X150916522Y-140040500D01*
X150916519Y-140040500D01*
X150916514Y-140040500D01*
X150453484Y-140040500D01*
X150377345Y-140052558D01*
X150359696Y-140055354D01*
X150322430Y-140074342D01*
X150246655Y-140112951D01*
X150156950Y-140202656D01*
X150156948Y-140202659D01*
X150099354Y-140315693D01*
X150099353Y-140315697D01*
X150090222Y-140373348D01*
X150064023Y-140420611D01*
X150013573Y-140439977D01*
X149962478Y-140422383D01*
X149934646Y-140376063D01*
X149933519Y-140368137D01*
X149928591Y-140313898D01*
X149928589Y-140313890D01*
X149878017Y-140151601D01*
X149790074Y-140006125D01*
X149669874Y-139885925D01*
X149524398Y-139797982D01*
X149362105Y-139747408D01*
X149291575Y-139741000D01*
X149285000Y-139741000D01*
X149285000Y-140637000D01*
X149266518Y-140687780D01*
X149219718Y-140714800D01*
X149206000Y-140716000D01*
X148864000Y-140716000D01*
X148813220Y-140697518D01*
X148786200Y-140650718D01*
X148785000Y-140637000D01*
X148785000Y-139741000D01*
X148784999Y-139740999D01*
X148778428Y-139741000D01*
X148778420Y-139741001D01*
X148707899Y-139747408D01*
X148707890Y-139747410D01*
X148545600Y-139797982D01*
X148545599Y-139797983D01*
X148540373Y-139801142D01*
X148487354Y-139811591D01*
X148443647Y-139789393D01*
X148228435Y-139574181D01*
X148205597Y-139525205D01*
X148213908Y-139482453D01*
X148222646Y-139465304D01*
X148222646Y-139465302D01*
X148223836Y-139457792D01*
X148237500Y-139371519D01*
X148237499Y-138758482D01*
X148222646Y-138664696D01*
X148165050Y-138551658D01*
X148165049Y-138551657D01*
X148165048Y-138551655D01*
X148075343Y-138461950D01*
X148075340Y-138461948D01*
X147962306Y-138404354D01*
X147962302Y-138404353D01*
X147868530Y-138389501D01*
X147868522Y-138389500D01*
X147868519Y-138389500D01*
X147868514Y-138389500D01*
X147405484Y-138389500D01*
X147329345Y-138401558D01*
X147311696Y-138404354D01*
X147281490Y-138419745D01*
X147198655Y-138461951D01*
X147108950Y-138551656D01*
X147108948Y-138551659D01*
X147051354Y-138664693D01*
X147051353Y-138664697D01*
X147036501Y-138758469D01*
X147036500Y-138758485D01*
X147036500Y-139156055D01*
X147018018Y-139206835D01*
X146971218Y-139233855D01*
X146957500Y-139235055D01*
X146885299Y-139235055D01*
X146769199Y-139266164D01*
X146769197Y-139266164D01*
X146769197Y-139266165D01*
X146761417Y-139270657D01*
X146705998Y-139302652D01*
X146652779Y-139312035D01*
X146605980Y-139285014D01*
X146587499Y-139234237D01*
X146587499Y-138758482D01*
X146572646Y-138664696D01*
X146515050Y-138551658D01*
X146515049Y-138551657D01*
X146515048Y-138551655D01*
X146425343Y-138461950D01*
X146335831Y-138416341D01*
X146335828Y-138416340D01*
X146312304Y-138404354D01*
X146218519Y-138389500D01*
X146197945Y-138389500D01*
X145871792Y-138389500D01*
X145821012Y-138371018D01*
X145815931Y-138366361D01*
X145418602Y-137969032D01*
X145395764Y-137920056D01*
X145395463Y-137913171D01*
X145395463Y-137823137D01*
X145395463Y-137823135D01*
X145360094Y-137691137D01*
X145355107Y-137682500D01*
X145318200Y-137618575D01*
X145722001Y-137618575D01*
X145728408Y-137689101D01*
X145728410Y-137689109D01*
X145778982Y-137851398D01*
X145866925Y-137996874D01*
X145987125Y-138117074D01*
X146132601Y-138205017D01*
X146224922Y-138233786D01*
X146369852Y-138261999D01*
X146371999Y-138261998D01*
X146372000Y-138261998D01*
X146372000Y-137537000D01*
X145722001Y-137537000D01*
X145722001Y-137618575D01*
X145318200Y-137618575D01*
X145299371Y-137585962D01*
X145291766Y-137572790D01*
X145291765Y-137572789D01*
X145291764Y-137572787D01*
X145195138Y-137476161D01*
X145076790Y-137407832D01*
X145076788Y-137407831D01*
X144944791Y-137372463D01*
X144808135Y-137372463D01*
X144808134Y-137372463D01*
X144676137Y-137407831D01*
X144676135Y-137407832D01*
X144557787Y-137476161D01*
X144461161Y-137572787D01*
X144392832Y-137691135D01*
X144392831Y-137691137D01*
X144357463Y-137823134D01*
X144357463Y-137933151D01*
X144338981Y-137983931D01*
X144292181Y-138010951D01*
X144238963Y-138001567D01*
X144222602Y-137989012D01*
X144171300Y-137937710D01*
X144171298Y-137937709D01*
X144067204Y-137877610D01*
X144067201Y-137877609D01*
X143951099Y-137846500D01*
X143830901Y-137846500D01*
X143830900Y-137846500D01*
X143714798Y-137877609D01*
X143714795Y-137877610D01*
X143610701Y-137937709D01*
X143525709Y-138022701D01*
X143465610Y-138126795D01*
X143465609Y-138126798D01*
X143434500Y-138242900D01*
X143434500Y-138363099D01*
X143465609Y-138479201D01*
X143465610Y-138479204D01*
X143525709Y-138583298D01*
X143525710Y-138583300D01*
X143610700Y-138668290D01*
X143714795Y-138728389D01*
X143714798Y-138728390D01*
X143830901Y-138759500D01*
X143830903Y-138759500D01*
X143951097Y-138759500D01*
X143951099Y-138759500D01*
X144032061Y-138737806D01*
X144085894Y-138742516D01*
X144124105Y-138780727D01*
X144128815Y-138834560D01*
X144120924Y-138853611D01*
X144108433Y-138875248D01*
X144100609Y-138888800D01*
X144069500Y-139004900D01*
X144069500Y-139115424D01*
X144051018Y-139166204D01*
X144046363Y-139171284D01*
X144026190Y-139191456D01*
X144026190Y-139191457D01*
X143986000Y-139288484D01*
X143986000Y-141272000D01*
X143967518Y-141322780D01*
X143920718Y-141349800D01*
X143907000Y-141351000D01*
X140726400Y-141351000D01*
X140705954Y-141348308D01*
X140672944Y-141339463D01*
X140637531Y-141319016D01*
X140620983Y-141302468D01*
X140600536Y-141267053D01*
X140591692Y-141234045D01*
X140589000Y-141213599D01*
X140589000Y-136955425D01*
X145722000Y-136955425D01*
X145722000Y-137037000D01*
X146372000Y-137037000D01*
X146372000Y-136312000D01*
X146371999Y-136311999D01*
X146365428Y-136312000D01*
X146365420Y-136312001D01*
X146294899Y-136318408D01*
X146294890Y-136318410D01*
X146132601Y-136368982D01*
X145987125Y-136456925D01*
X145866925Y-136577125D01*
X145778982Y-136722601D01*
X145728408Y-136884894D01*
X145722000Y-136955425D01*
X140589000Y-136955425D01*
X140589000Y-135631575D01*
X142420001Y-135631575D01*
X142426408Y-135702101D01*
X142426410Y-135702109D01*
X142476982Y-135864398D01*
X142564925Y-136009874D01*
X142685125Y-136130074D01*
X142830601Y-136218017D01*
X142992894Y-136268591D01*
X143063424Y-136274999D01*
X143069999Y-136274998D01*
X143070000Y-136274998D01*
X143070000Y-135550000D01*
X142420001Y-135550000D01*
X142420001Y-135631575D01*
X140589000Y-135631575D01*
X140589000Y-134968425D01*
X142420000Y-134968425D01*
X142420000Y-135050000D01*
X143070000Y-135050000D01*
X143070000Y-134325000D01*
X143069999Y-134324999D01*
X143063428Y-134325000D01*
X143063420Y-134325001D01*
X142992899Y-134331408D01*
X142992890Y-134331410D01*
X142830601Y-134381982D01*
X142685125Y-134469925D01*
X142564925Y-134590125D01*
X142476982Y-134735601D01*
X142426408Y-134897894D01*
X142420000Y-134968425D01*
X140589000Y-134968425D01*
X140589000Y-133512835D01*
X142768000Y-133512835D01*
X142774401Y-133572369D01*
X142774403Y-133572381D01*
X142824643Y-133707083D01*
X142824650Y-133707094D01*
X142910810Y-133822189D01*
X143025905Y-133908349D01*
X143025916Y-133908356D01*
X143160618Y-133958596D01*
X143160630Y-133958598D01*
X143220165Y-133965000D01*
X143768000Y-133965000D01*
X144268000Y-133965000D01*
X144815835Y-133965000D01*
X144875369Y-133958598D01*
X144875381Y-133958596D01*
X145010083Y-133908356D01*
X145010094Y-133908349D01*
X145125189Y-133822189D01*
X145211349Y-133707094D01*
X145211356Y-133707083D01*
X145261596Y-133572381D01*
X145261598Y-133572369D01*
X145268000Y-133512835D01*
X145268000Y-132965000D01*
X144268000Y-132965000D01*
X144268000Y-133965000D01*
X143768000Y-133965000D01*
X143768000Y-132965000D01*
X142768000Y-132965000D01*
X142768000Y-133512835D01*
X140589000Y-133512835D01*
X140589000Y-131917164D01*
X142768000Y-131917164D01*
X142768000Y-132465000D01*
X143768000Y-132465000D01*
X144268000Y-132465000D01*
X145268000Y-132465000D01*
X145268000Y-131917164D01*
X145261598Y-131857630D01*
X145261596Y-131857618D01*
X145211356Y-131722916D01*
X145211349Y-131722905D01*
X145125189Y-131607810D01*
X145010094Y-131521650D01*
X145010083Y-131521643D01*
X144875381Y-131471403D01*
X144875369Y-131471401D01*
X144815835Y-131465000D01*
X144268000Y-131465000D01*
X144268000Y-132465000D01*
X143768000Y-132465000D01*
X143768000Y-131465000D01*
X143220165Y-131465000D01*
X143160630Y-131471401D01*
X143160618Y-131471403D01*
X143025916Y-131521643D01*
X143025905Y-131521650D01*
X142910810Y-131607810D01*
X142824650Y-131722905D01*
X142824643Y-131722916D01*
X142774403Y-131857618D01*
X142774401Y-131857630D01*
X142768000Y-131917164D01*
X140589000Y-131917164D01*
X140589000Y-124780900D01*
X144450500Y-124780900D01*
X144450500Y-124901099D01*
X144481609Y-125017201D01*
X144481610Y-125017204D01*
X144541709Y-125121298D01*
X144541710Y-125121300D01*
X144626700Y-125206290D01*
X144730795Y-125266389D01*
X144730798Y-125266390D01*
X144846901Y-125297500D01*
X144846903Y-125297500D01*
X144967097Y-125297500D01*
X144967099Y-125297500D01*
X145083202Y-125266390D01*
X145187298Y-125206291D01*
X145187299Y-125206290D01*
X145187300Y-125206290D01*
X145272290Y-125121300D01*
X145272290Y-125121299D01*
X145272291Y-125121298D01*
X145332390Y-125017202D01*
X145363500Y-124901099D01*
X145363500Y-124780901D01*
X145332390Y-124664798D01*
X145332389Y-124664795D01*
X145283270Y-124579718D01*
X145272291Y-124560702D01*
X145272290Y-124560701D01*
X145272290Y-124560700D01*
X145187300Y-124475710D01*
X145187298Y-124475709D01*
X145083204Y-124415610D01*
X145083201Y-124415609D01*
X144967099Y-124384500D01*
X144846901Y-124384500D01*
X144846900Y-124384500D01*
X144730798Y-124415609D01*
X144730795Y-124415610D01*
X144626701Y-124475709D01*
X144541709Y-124560701D01*
X144481610Y-124664795D01*
X144481609Y-124664798D01*
X144450500Y-124780900D01*
X140589000Y-124780900D01*
X140589000Y-123272835D01*
X142768000Y-123272835D01*
X142774401Y-123332369D01*
X142774403Y-123332381D01*
X142824643Y-123467083D01*
X142824650Y-123467094D01*
X142910810Y-123582189D01*
X143025905Y-123668349D01*
X143025916Y-123668356D01*
X143160618Y-123718596D01*
X143160630Y-123718598D01*
X143220165Y-123725000D01*
X143768000Y-123725000D01*
X144268000Y-123725000D01*
X144815835Y-123725000D01*
X144875369Y-123718598D01*
X144875381Y-123718596D01*
X145010083Y-123668356D01*
X145010094Y-123668349D01*
X145125189Y-123582189D01*
X145211349Y-123467094D01*
X145211356Y-123467083D01*
X145261596Y-123332381D01*
X145261598Y-123332369D01*
X145268000Y-123272835D01*
X145268000Y-122725000D01*
X144268000Y-122725000D01*
X144268000Y-123725000D01*
X143768000Y-123725000D01*
X143768000Y-122725000D01*
X142768000Y-122725000D01*
X142768000Y-123272835D01*
X140589000Y-123272835D01*
X140589000Y-121677164D01*
X142768000Y-121677164D01*
X142768000Y-122225000D01*
X143768000Y-122225000D01*
X144268000Y-122225000D01*
X145268000Y-122225000D01*
X145268000Y-121677164D01*
X146698000Y-121677164D01*
X146698000Y-122225000D01*
X147698000Y-122225000D01*
X147698000Y-121225000D01*
X147150165Y-121225000D01*
X147090630Y-121231401D01*
X147090618Y-121231403D01*
X146955916Y-121281643D01*
X146955905Y-121281650D01*
X146840810Y-121367810D01*
X146754650Y-121482905D01*
X146754643Y-121482916D01*
X146704403Y-121617618D01*
X146704401Y-121617630D01*
X146698000Y-121677164D01*
X145268000Y-121677164D01*
X145261598Y-121617630D01*
X145261596Y-121617618D01*
X145211356Y-121482916D01*
X145211349Y-121482905D01*
X145125189Y-121367810D01*
X145010094Y-121281650D01*
X145010083Y-121281643D01*
X144875381Y-121231403D01*
X144875369Y-121231401D01*
X144815835Y-121225000D01*
X144268000Y-121225000D01*
X144268000Y-122225000D01*
X143768000Y-122225000D01*
X143768000Y-121225000D01*
X143220165Y-121225000D01*
X143160630Y-121231401D01*
X143160618Y-121231403D01*
X143025916Y-121281643D01*
X143025905Y-121281650D01*
X142910810Y-121367810D01*
X142824650Y-121482905D01*
X142824643Y-121482916D01*
X142774403Y-121617618D01*
X142774401Y-121617630D01*
X142768000Y-121677164D01*
X140589000Y-121677164D01*
X140589000Y-120087677D01*
X140607482Y-120036897D01*
X140654282Y-120009877D01*
X140692853Y-120012688D01*
X140699396Y-120014856D01*
X140798688Y-120024999D01*
X140846999Y-120024998D01*
X140847000Y-120024998D01*
X140847000Y-119154000D01*
X140865482Y-119103220D01*
X140912282Y-119076200D01*
X140926000Y-119075000D01*
X141268000Y-119075000D01*
X141318780Y-119093482D01*
X141345800Y-119140282D01*
X141347000Y-119154000D01*
X141347000Y-120024999D01*
X141395311Y-120024999D01*
X141494601Y-120014856D01*
X141494611Y-120014854D01*
X141655484Y-119961547D01*
X141799731Y-119872573D01*
X141799734Y-119872571D01*
X141919571Y-119752734D01*
X141919573Y-119752731D01*
X142008547Y-119608484D01*
X142052232Y-119476650D01*
X142085749Y-119434261D01*
X142138671Y-119423333D01*
X142142615Y-119424013D01*
X142180252Y-119431500D01*
X142180253Y-119431500D01*
X143219746Y-119431500D01*
X143219748Y-119431500D01*
X143266816Y-119422137D01*
X143320223Y-119430357D01*
X143353544Y-119468351D01*
X143353942Y-119468134D01*
X143354912Y-119469911D01*
X143355854Y-119470985D01*
X143356244Y-119472008D01*
X143356647Y-119473088D01*
X143356651Y-119473095D01*
X143442810Y-119588189D01*
X143557905Y-119674349D01*
X143557916Y-119674356D01*
X143692618Y-119724596D01*
X143692630Y-119724598D01*
X143752165Y-119731000D01*
X144050000Y-119731000D01*
X144050000Y-117831000D01*
X143752165Y-117831000D01*
X143692630Y-117837401D01*
X143692618Y-117837403D01*
X143557916Y-117887643D01*
X143557905Y-117887650D01*
X143442810Y-117973810D01*
X143356651Y-118088904D01*
X143356644Y-118088916D01*
X143356242Y-118089995D01*
X143355723Y-118090602D01*
X143353942Y-118093866D01*
X143353258Y-118093492D01*
X143321175Y-118131111D01*
X143267883Y-118140067D01*
X143266814Y-118139862D01*
X143219748Y-118130500D01*
X142546791Y-118130500D01*
X142496011Y-118112018D01*
X142490930Y-118107361D01*
X141795639Y-117412069D01*
X141772801Y-117363093D01*
X141772500Y-117356208D01*
X141772500Y-117266516D01*
X141772498Y-117266500D01*
X141756720Y-117166880D01*
X141756719Y-117166875D01*
X141756719Y-117166874D01*
X141695528Y-117046780D01*
X141695527Y-117046779D01*
X141695526Y-117046777D01*
X141600222Y-116951473D01*
X141480125Y-116890280D01*
X141480122Y-116890279D01*
X141457139Y-116886639D01*
X141409876Y-116860439D01*
X141390512Y-116809988D01*
X141390500Y-116808612D01*
X141390500Y-116614490D01*
X141408982Y-116563710D01*
X141455782Y-116536690D01*
X141457001Y-116536485D01*
X141462304Y-116535646D01*
X141575342Y-116478050D01*
X141665050Y-116388342D01*
X141722646Y-116275304D01*
X141737500Y-116181519D01*
X141737499Y-116140791D01*
X141755980Y-116090012D01*
X141760615Y-116084953D01*
X142490932Y-115354637D01*
X142539907Y-115331801D01*
X142546792Y-115331500D01*
X143219746Y-115331500D01*
X143219748Y-115331500D01*
X143266816Y-115322137D01*
X143320223Y-115330357D01*
X143353544Y-115368351D01*
X143353942Y-115368134D01*
X143354912Y-115369911D01*
X143355854Y-115370985D01*
X143356244Y-115372008D01*
X143356647Y-115373088D01*
X143356651Y-115373095D01*
X143442810Y-115488189D01*
X143557905Y-115574349D01*
X143557916Y-115574356D01*
X143692618Y-115624596D01*
X143692630Y-115624598D01*
X143752165Y-115631000D01*
X144050000Y-115631000D01*
X144050000Y-114760000D01*
X144068482Y-114709220D01*
X144115282Y-114682200D01*
X144129000Y-114681000D01*
X144471000Y-114681000D01*
X144521780Y-114699482D01*
G37*
G04 #@! TD.AperFunction*
G04 #@! TA.AperFunction,Conductor*
G36*
X156143951Y-139207982D02*
G01*
X156170971Y-139254782D01*
X156169479Y-139288947D01*
X156143500Y-139385900D01*
X156143500Y-139506099D01*
X156174609Y-139622201D01*
X156174610Y-139622204D01*
X156234709Y-139726298D01*
X156234710Y-139726300D01*
X156319700Y-139811290D01*
X156423795Y-139871389D01*
X156423798Y-139871390D01*
X156508150Y-139893992D01*
X156552416Y-139924987D01*
X156566402Y-139977185D01*
X156543564Y-140026161D01*
X156500061Y-140048327D01*
X156455702Y-140055352D01*
X156455697Y-140055353D01*
X156342655Y-140112951D01*
X156252950Y-140202656D01*
X156252948Y-140202659D01*
X156195354Y-140315693D01*
X156195353Y-140315697D01*
X156186222Y-140373348D01*
X156160023Y-140420611D01*
X156109573Y-140439977D01*
X156058478Y-140422383D01*
X156030646Y-140376063D01*
X156029519Y-140368137D01*
X156024591Y-140313898D01*
X156024589Y-140313890D01*
X155974017Y-140151601D01*
X155886074Y-140006125D01*
X155765874Y-139885925D01*
X155620398Y-139797982D01*
X155458105Y-139747408D01*
X155387575Y-139741000D01*
X155381000Y-139741000D01*
X155381000Y-140637000D01*
X155362518Y-140687780D01*
X155315718Y-140714800D01*
X155302000Y-140716000D01*
X154960000Y-140716000D01*
X154909220Y-140697518D01*
X154882200Y-140650718D01*
X154881000Y-140637000D01*
X154881000Y-139741000D01*
X154880999Y-139740999D01*
X154874428Y-139741000D01*
X154874420Y-139741001D01*
X154803899Y-139747408D01*
X154803890Y-139747410D01*
X154641601Y-139797982D01*
X154496125Y-139885925D01*
X154375925Y-140006125D01*
X154310765Y-140113913D01*
X154268677Y-140147808D01*
X154214649Y-140146719D01*
X154187297Y-140128904D01*
X154171343Y-140112950D01*
X154171340Y-140112948D01*
X154058306Y-140055354D01*
X154058302Y-140055353D01*
X153964530Y-140040501D01*
X153964522Y-140040500D01*
X153964519Y-140040500D01*
X153964514Y-140040500D01*
X153501484Y-140040500D01*
X153425345Y-140052558D01*
X153407696Y-140055354D01*
X153370430Y-140074342D01*
X153294655Y-140112951D01*
X153204950Y-140202656D01*
X153204948Y-140202659D01*
X153147354Y-140315693D01*
X153147353Y-140315697D01*
X153132501Y-140409469D01*
X153132500Y-140409485D01*
X153132500Y-141022515D01*
X153147354Y-141116302D01*
X153147353Y-141116302D01*
X153207773Y-141234882D01*
X153205248Y-141236168D01*
X153217100Y-141277525D01*
X153195111Y-141326889D01*
X153146536Y-141350569D01*
X153138293Y-141351000D01*
X152677707Y-141351000D01*
X152626927Y-141332518D01*
X152599907Y-141285718D01*
X152608817Y-141235182D01*
X152608228Y-141234882D01*
X152609211Y-141232952D01*
X152609291Y-141232500D01*
X152609991Y-141231421D01*
X152668645Y-141116306D01*
X152668645Y-141116305D01*
X152668646Y-141116304D01*
X152683500Y-141022519D01*
X152683499Y-140409482D01*
X152668646Y-140315696D01*
X152611050Y-140202658D01*
X152611049Y-140202657D01*
X152611048Y-140202655D01*
X152521343Y-140112950D01*
X152521340Y-140112948D01*
X152408306Y-140055354D01*
X152408302Y-140055353D01*
X152349839Y-140046093D01*
X152302575Y-140019894D01*
X152283210Y-139969444D01*
X152283198Y-139968066D01*
X152283198Y-139536701D01*
X152301680Y-139485921D01*
X152348480Y-139458901D01*
X152374556Y-139458674D01*
X152456455Y-139471645D01*
X152474481Y-139474500D01*
X153087518Y-139474499D01*
X153181304Y-139459646D01*
X153294342Y-139402050D01*
X153384050Y-139312342D01*
X153388987Y-139302652D01*
X153418040Y-139245635D01*
X153457561Y-139208780D01*
X153488429Y-139202500D01*
X153665500Y-139202500D01*
X153716280Y-139220982D01*
X153743300Y-139267782D01*
X153744500Y-139281500D01*
X153744500Y-139368748D01*
X153746813Y-139380380D01*
X153756132Y-139427230D01*
X153770836Y-139449236D01*
X153800448Y-139493552D01*
X153866769Y-139537867D01*
X153866768Y-139537867D01*
X153925252Y-139549500D01*
X154964748Y-139549500D01*
X155023231Y-139537867D01*
X155089552Y-139493552D01*
X155133867Y-139427231D01*
X155145500Y-139368748D01*
X155145500Y-139268500D01*
X155163982Y-139217720D01*
X155210782Y-139190700D01*
X155224500Y-139189500D01*
X156093171Y-139189500D01*
X156143951Y-139207982D01*
G37*
G04 #@! TD.AperFunction*
G04 #@! TA.AperFunction,Conductor*
G36*
X155270508Y-112735079D02*
G01*
X156653293Y-114117864D01*
X156653295Y-114117865D01*
X156653296Y-114117866D01*
X156728203Y-114161114D01*
X156811752Y-114183501D01*
X156811754Y-114183501D01*
X156903084Y-114183501D01*
X156903100Y-114183500D01*
X157788571Y-114183500D01*
X157839351Y-114201982D01*
X157858960Y-114226635D01*
X157892948Y-114293340D01*
X157892950Y-114293343D01*
X157982656Y-114383049D01*
X157982659Y-114383051D01*
X158095693Y-114440645D01*
X158095695Y-114440645D01*
X158095696Y-114440646D01*
X158189481Y-114455500D01*
X158367689Y-114455499D01*
X158418468Y-114473981D01*
X158445488Y-114520780D01*
X158436104Y-114573999D01*
X158423550Y-114590360D01*
X158359208Y-114654702D01*
X158299110Y-114758795D01*
X158299109Y-114758798D01*
X158268000Y-114874900D01*
X158268000Y-114995101D01*
X158268133Y-114996113D01*
X158268000Y-114997122D01*
X158268000Y-115000276D01*
X158267585Y-115000276D01*
X158262793Y-115036645D01*
X158232000Y-115110984D01*
X158232000Y-115213294D01*
X158213518Y-115264074D01*
X158166718Y-115291094D01*
X158165389Y-115291316D01*
X158095696Y-115302354D01*
X158072781Y-115314030D01*
X157982655Y-115359951D01*
X157892950Y-115449656D01*
X157892948Y-115449659D01*
X157835355Y-115562691D01*
X157833432Y-115568611D01*
X157830485Y-115567653D01*
X157829125Y-115570108D01*
X157826588Y-115584500D01*
X157816441Y-115593014D01*
X157810025Y-115604601D01*
X157796386Y-115609842D01*
X157785192Y-115619236D01*
X157760716Y-115623551D01*
X157759583Y-115623987D01*
X157758172Y-115624000D01*
X157618837Y-115624000D01*
X157568057Y-115605518D01*
X157541355Y-115560413D01*
X157533867Y-115522769D01*
X157526443Y-115511658D01*
X157489552Y-115456448D01*
X157423231Y-115412133D01*
X157423230Y-115412132D01*
X157423231Y-115412132D01*
X157364748Y-115400500D01*
X156325252Y-115400500D01*
X156266769Y-115412132D01*
X156200448Y-115456448D01*
X156156132Y-115522769D01*
X156144500Y-115581252D01*
X156144500Y-116320747D01*
X156156132Y-116379230D01*
X156163777Y-116390671D01*
X156200448Y-116445552D01*
X156266769Y-116489867D01*
X156266768Y-116489867D01*
X156325252Y-116501500D01*
X157364748Y-116501500D01*
X157423231Y-116489867D01*
X157489552Y-116445552D01*
X157533867Y-116379231D01*
X157545500Y-116320748D01*
X157545500Y-116231000D01*
X157552519Y-116211712D01*
X157556084Y-116191500D01*
X157561544Y-116186918D01*
X157563982Y-116180220D01*
X157581756Y-116169958D01*
X157597480Y-116156764D01*
X157607743Y-116154954D01*
X157610782Y-116153200D01*
X157624500Y-116152000D01*
X157758172Y-116152000D01*
X157808952Y-116170482D01*
X157830760Y-116208256D01*
X157833432Y-116207388D01*
X157835353Y-116213302D01*
X157892951Y-116326344D01*
X157982656Y-116416049D01*
X157982659Y-116416051D01*
X158095693Y-116473645D01*
X158095695Y-116473645D01*
X158095696Y-116473646D01*
X158189481Y-116488500D01*
X158802518Y-116488499D01*
X158802520Y-116488499D01*
X158889642Y-116474701D01*
X158915513Y-116479729D01*
X158941500Y-116484312D01*
X158941970Y-116484872D01*
X158942689Y-116485012D01*
X158959277Y-116505498D01*
X158976236Y-116525708D01*
X158976401Y-116526644D01*
X158976696Y-116527009D01*
X158981000Y-116552728D01*
X158981000Y-116555708D01*
X158962518Y-116606488D01*
X158957871Y-116611558D01*
X158803430Y-116766000D01*
X158655068Y-116914362D01*
X158606092Y-116937199D01*
X158599207Y-116937500D01*
X158189484Y-116937500D01*
X158113345Y-116949558D01*
X158095696Y-116952354D01*
X158045363Y-116978000D01*
X157982655Y-117009951D01*
X157892950Y-117099656D01*
X157892948Y-117099659D01*
X157835354Y-117212693D01*
X157835353Y-117212697D01*
X157820501Y-117306469D01*
X157820500Y-117306485D01*
X157820500Y-117769515D01*
X157835354Y-117863302D01*
X157835353Y-117863302D01*
X157835353Y-117863303D01*
X157835354Y-117863304D01*
X157852793Y-117897530D01*
X157892951Y-117976344D01*
X157982656Y-118066049D01*
X157982659Y-118066051D01*
X158095693Y-118123645D01*
X158095695Y-118123645D01*
X158095696Y-118123646D01*
X158189481Y-118138500D01*
X158367689Y-118138499D01*
X158418468Y-118156981D01*
X158445488Y-118203780D01*
X158436104Y-118256999D01*
X158423550Y-118273360D01*
X158359208Y-118337702D01*
X158299110Y-118441795D01*
X158299109Y-118441798D01*
X158268000Y-118557900D01*
X158268000Y-118678099D01*
X158282001Y-118730353D01*
X158299110Y-118794202D01*
X158332480Y-118852001D01*
X158341863Y-118905219D01*
X158314842Y-118952018D01*
X158264064Y-118970500D01*
X158189484Y-118970500D01*
X158113345Y-118982558D01*
X158095696Y-118985354D01*
X158074512Y-118996148D01*
X157982655Y-119042951D01*
X157892950Y-119132656D01*
X157892948Y-119132659D01*
X157835354Y-119245693D01*
X157835353Y-119245697D01*
X157826221Y-119303358D01*
X157819144Y-119316123D01*
X157816610Y-119330500D01*
X157806451Y-119339024D01*
X157800023Y-119350622D01*
X157786396Y-119355852D01*
X157775214Y-119365236D01*
X157750686Y-119369560D01*
X157749573Y-119369988D01*
X157748194Y-119370000D01*
X157624500Y-119370000D01*
X157573720Y-119351518D01*
X157546700Y-119304718D01*
X157545500Y-119291000D01*
X157545500Y-119264252D01*
X157533867Y-119205769D01*
X157526263Y-119194389D01*
X157489552Y-119139448D01*
X157423231Y-119095133D01*
X157423230Y-119095132D01*
X157423231Y-119095132D01*
X157364748Y-119083500D01*
X156707812Y-119083500D01*
X156657032Y-119065018D01*
X156630012Y-119018218D01*
X156639396Y-118965000D01*
X156651951Y-118948639D01*
X156702290Y-118898300D01*
X156702290Y-118898299D01*
X156702291Y-118898298D01*
X156762390Y-118794202D01*
X156793500Y-118678099D01*
X156793500Y-118557901D01*
X156762390Y-118441798D01*
X156762389Y-118441795D01*
X156702290Y-118337701D01*
X156702290Y-118337700D01*
X156617300Y-118252710D01*
X156617298Y-118252709D01*
X156513204Y-118192610D01*
X156513201Y-118192609D01*
X156397099Y-118161500D01*
X156276901Y-118161500D01*
X156276900Y-118161500D01*
X156160798Y-118192609D01*
X156160795Y-118192610D01*
X156056701Y-118252709D01*
X156056700Y-118252710D01*
X155971710Y-118337699D01*
X155947000Y-118380500D01*
X155905604Y-118415236D01*
X155878584Y-118420000D01*
X155224500Y-118420000D01*
X155173720Y-118401518D01*
X155146700Y-118354718D01*
X155145500Y-118341000D01*
X155145500Y-118314252D01*
X155133867Y-118255769D01*
X155131111Y-118251645D01*
X155089552Y-118189448D01*
X155023231Y-118145133D01*
X155023230Y-118145132D01*
X155023231Y-118145132D01*
X154964748Y-118133500D01*
X153925252Y-118133500D01*
X153866769Y-118145132D01*
X153800448Y-118189448D01*
X153756132Y-118255769D01*
X153744500Y-118314252D01*
X153744500Y-118532000D01*
X153737480Y-118551287D01*
X153733916Y-118571500D01*
X153728455Y-118576081D01*
X153726018Y-118582780D01*
X153708243Y-118593041D01*
X153692520Y-118606236D01*
X153682256Y-118608045D01*
X153679218Y-118609800D01*
X153665500Y-118611000D01*
X153531828Y-118611000D01*
X153481048Y-118592518D01*
X153459239Y-118554743D01*
X153456568Y-118555612D01*
X153454646Y-118549697D01*
X153454646Y-118549696D01*
X153397050Y-118436658D01*
X153397049Y-118436657D01*
X153397048Y-118436655D01*
X153307343Y-118346950D01*
X153307340Y-118346948D01*
X153194306Y-118289354D01*
X153194302Y-118289353D01*
X153100530Y-118274501D01*
X153100522Y-118274500D01*
X153100519Y-118274500D01*
X153100514Y-118274500D01*
X152487484Y-118274500D01*
X152411345Y-118286558D01*
X152393696Y-118289354D01*
X152371087Y-118300874D01*
X152280655Y-118346951D01*
X152190950Y-118436656D01*
X152190948Y-118436659D01*
X152133354Y-118549693D01*
X152133353Y-118549697D01*
X152118501Y-118643469D01*
X152118500Y-118643485D01*
X152118500Y-119106515D01*
X152133354Y-119200302D01*
X152133353Y-119200302D01*
X152190951Y-119313344D01*
X152280656Y-119403049D01*
X152280659Y-119403051D01*
X152393693Y-119460645D01*
X152393695Y-119460645D01*
X152393696Y-119460646D01*
X152487481Y-119475500D01*
X153100518Y-119475499D01*
X153194304Y-119460646D01*
X153307342Y-119403050D01*
X153397050Y-119313342D01*
X153454646Y-119200304D01*
X153454646Y-119200299D01*
X153456568Y-119194389D01*
X153459514Y-119195346D01*
X153479975Y-119158399D01*
X153530417Y-119139013D01*
X153531828Y-119139000D01*
X153731794Y-119139000D01*
X153782574Y-119157482D01*
X153797479Y-119174109D01*
X153800448Y-119178552D01*
X153866769Y-119222867D01*
X153866768Y-119222867D01*
X153925252Y-119234500D01*
X154964748Y-119234500D01*
X155023231Y-119222867D01*
X155089552Y-119178552D01*
X155133867Y-119112231D01*
X155145500Y-119053748D01*
X155145500Y-119027000D01*
X155163982Y-118976220D01*
X155210782Y-118949200D01*
X155224500Y-118948000D01*
X155988688Y-118948000D01*
X156031209Y-118960419D01*
X156038462Y-118965051D01*
X156056702Y-118983291D01*
X156160798Y-119043390D01*
X156161366Y-119043542D01*
X156165700Y-119046310D01*
X156181124Y-119066458D01*
X156197414Y-119085871D01*
X156197414Y-119087736D01*
X156198549Y-119089219D01*
X156197414Y-119114557D01*
X156197415Y-119139910D01*
X156196169Y-119142367D01*
X156196132Y-119143204D01*
X156195269Y-119144142D01*
X156188865Y-119156781D01*
X156156133Y-119205767D01*
X156156132Y-119205768D01*
X156144500Y-119264252D01*
X156144500Y-120003747D01*
X156156132Y-120062230D01*
X156156133Y-120062231D01*
X156200448Y-120128552D01*
X156266769Y-120172867D01*
X156266768Y-120172867D01*
X156325252Y-120184500D01*
X157364748Y-120184500D01*
X157423231Y-120172867D01*
X157489552Y-120128552D01*
X157533867Y-120062231D01*
X157545500Y-120003748D01*
X157545500Y-119977000D01*
X157563982Y-119926220D01*
X157610782Y-119899200D01*
X157624500Y-119898000D01*
X157787807Y-119898000D01*
X157838587Y-119916482D01*
X157858195Y-119941133D01*
X157886635Y-119996948D01*
X157892951Y-120009344D01*
X157982656Y-120099049D01*
X157982659Y-120099051D01*
X158095693Y-120156645D01*
X158095695Y-120156645D01*
X158095696Y-120156646D01*
X158189481Y-120171500D01*
X158802518Y-120171499D01*
X158802520Y-120171499D01*
X158889642Y-120157701D01*
X158915513Y-120162729D01*
X158941500Y-120167312D01*
X158941970Y-120167872D01*
X158942689Y-120168012D01*
X158959277Y-120188498D01*
X158976236Y-120208708D01*
X158976401Y-120209644D01*
X158976696Y-120210009D01*
X158981000Y-120235728D01*
X158981000Y-120238708D01*
X158962518Y-120289488D01*
X158957871Y-120294558D01*
X158801682Y-120450748D01*
X158655068Y-120597362D01*
X158606092Y-120620199D01*
X158599207Y-120620500D01*
X158189484Y-120620500D01*
X158113345Y-120632558D01*
X158095696Y-120635354D01*
X158040213Y-120663623D01*
X157982655Y-120692951D01*
X157892950Y-120782656D01*
X157892948Y-120782659D01*
X157835354Y-120895693D01*
X157835353Y-120895697D01*
X157820501Y-120989469D01*
X157820500Y-120989485D01*
X157820500Y-121452524D01*
X157820744Y-121455612D01*
X157819420Y-121455716D01*
X157809976Y-121504266D01*
X157767974Y-121538267D01*
X157713943Y-121537315D01*
X157686405Y-121519428D01*
X157671675Y-121504698D01*
X157553327Y-121436369D01*
X157553325Y-121436368D01*
X157421328Y-121401000D01*
X157284672Y-121401000D01*
X157284671Y-121401000D01*
X157152674Y-121436368D01*
X157152672Y-121436369D01*
X157034324Y-121504698D01*
X156937698Y-121601324D01*
X156869369Y-121719672D01*
X156869368Y-121719674D01*
X156834000Y-121851671D01*
X156834000Y-121988328D01*
X156869368Y-122120325D01*
X156869369Y-122120327D01*
X156937698Y-122238675D01*
X157034324Y-122335301D01*
X157034326Y-122335302D01*
X157034327Y-122335303D01*
X157152674Y-122403631D01*
X157284672Y-122439000D01*
X157284674Y-122439000D01*
X157421326Y-122439000D01*
X157421328Y-122439000D01*
X157553326Y-122403631D01*
X157671673Y-122335303D01*
X157768303Y-122238673D01*
X157836631Y-122120326D01*
X157872000Y-121988328D01*
X157872000Y-121851672D01*
X157868582Y-121838916D01*
X157873292Y-121785083D01*
X157911503Y-121746872D01*
X157965337Y-121742162D01*
X157980755Y-121748081D01*
X158095693Y-121806645D01*
X158095695Y-121806645D01*
X158095696Y-121806646D01*
X158189481Y-121821500D01*
X158599206Y-121821499D01*
X158649986Y-121839981D01*
X158655067Y-121844637D01*
X158948361Y-122137930D01*
X158971199Y-122186907D01*
X158971500Y-122193792D01*
X158971500Y-122587766D01*
X158953018Y-122638546D01*
X158906218Y-122665566D01*
X158880142Y-122665793D01*
X158802531Y-122653501D01*
X158802521Y-122653500D01*
X158802519Y-122653500D01*
X158802514Y-122653500D01*
X158189484Y-122653500D01*
X158113345Y-122665558D01*
X158095696Y-122668354D01*
X158043401Y-122695000D01*
X157982655Y-122725951D01*
X157892950Y-122815656D01*
X157892948Y-122815659D01*
X157835355Y-122928691D01*
X157833432Y-122934611D01*
X157830485Y-122933653D01*
X157829125Y-122936108D01*
X157826588Y-122950500D01*
X157816441Y-122959014D01*
X157810025Y-122970601D01*
X157796386Y-122975842D01*
X157785192Y-122985236D01*
X157760716Y-122989551D01*
X157759583Y-122989987D01*
X157758172Y-122990000D01*
X157618837Y-122990000D01*
X157568057Y-122971518D01*
X157541355Y-122926413D01*
X157533867Y-122888769D01*
X157520887Y-122869344D01*
X157489552Y-122822448D01*
X157423231Y-122778133D01*
X157423230Y-122778132D01*
X157423231Y-122778132D01*
X157364748Y-122766500D01*
X156325252Y-122766500D01*
X156266769Y-122778132D01*
X156200448Y-122822448D01*
X156156132Y-122888769D01*
X156144500Y-122947252D01*
X156144500Y-123686747D01*
X156156132Y-123745230D01*
X156163126Y-123755697D01*
X156200448Y-123811552D01*
X156266769Y-123855867D01*
X156266768Y-123855867D01*
X156325252Y-123867500D01*
X156502000Y-123867500D01*
X156552780Y-123885982D01*
X156579800Y-123932782D01*
X156581000Y-123946500D01*
X156581000Y-124055517D01*
X156621189Y-124152542D01*
X156621191Y-124152545D01*
X156621192Y-124152546D01*
X156873361Y-124404715D01*
X156896199Y-124453691D01*
X156896500Y-124460576D01*
X156896500Y-124571101D01*
X156927609Y-124687203D01*
X156927610Y-124687206D01*
X156987709Y-124791300D01*
X156987710Y-124791302D01*
X157072700Y-124876292D01*
X157176795Y-124936391D01*
X157176798Y-124936392D01*
X157292901Y-124967502D01*
X157292903Y-124967502D01*
X157413097Y-124967502D01*
X157413099Y-124967502D01*
X157529202Y-124936392D01*
X157633298Y-124876293D01*
X157685639Y-124823951D01*
X157734614Y-124801114D01*
X157786812Y-124815100D01*
X157817808Y-124859366D01*
X157820500Y-124879813D01*
X157820500Y-125135515D01*
X157825516Y-125167187D01*
X157831709Y-125206291D01*
X157835354Y-125229302D01*
X157835353Y-125229302D01*
X157892951Y-125342344D01*
X157982656Y-125432049D01*
X157982659Y-125432051D01*
X158095693Y-125489645D01*
X158095695Y-125489645D01*
X158095696Y-125489646D01*
X158189481Y-125504500D01*
X158599206Y-125504499D01*
X158649986Y-125522981D01*
X158655067Y-125527637D01*
X158948361Y-125820930D01*
X158971199Y-125869907D01*
X158971500Y-125876792D01*
X158971500Y-126270766D01*
X158953018Y-126321546D01*
X158906218Y-126348566D01*
X158880142Y-126348793D01*
X158802531Y-126336501D01*
X158802521Y-126336500D01*
X158802519Y-126336500D01*
X158802514Y-126336500D01*
X158189484Y-126336500D01*
X158113345Y-126348558D01*
X158095696Y-126351354D01*
X158072987Y-126362925D01*
X157982655Y-126408951D01*
X157892950Y-126498656D01*
X157892948Y-126498659D01*
X157835355Y-126611691D01*
X157833432Y-126617611D01*
X157830485Y-126616653D01*
X157829125Y-126619108D01*
X157826588Y-126633500D01*
X157816441Y-126642014D01*
X157810025Y-126653601D01*
X157796386Y-126658842D01*
X157785192Y-126668236D01*
X157760716Y-126672551D01*
X157759583Y-126672987D01*
X157758172Y-126673000D01*
X157618837Y-126673000D01*
X157568057Y-126654518D01*
X157541355Y-126609413D01*
X157533867Y-126571769D01*
X157526263Y-126560389D01*
X157489552Y-126505448D01*
X157423231Y-126461133D01*
X157423230Y-126461132D01*
X157422177Y-126460429D01*
X157390224Y-126416849D01*
X157393759Y-126362925D01*
X157410204Y-126338884D01*
X157484791Y-126264298D01*
X157544890Y-126160202D01*
X157576000Y-126044099D01*
X157576000Y-125923901D01*
X157544890Y-125807798D01*
X157544889Y-125807795D01*
X157490129Y-125712948D01*
X157484791Y-125703702D01*
X157484790Y-125703701D01*
X157484790Y-125703700D01*
X157399800Y-125618710D01*
X157399798Y-125618709D01*
X157295704Y-125558610D01*
X157295701Y-125558609D01*
X157179599Y-125527500D01*
X157059401Y-125527500D01*
X157059400Y-125527500D01*
X156943298Y-125558609D01*
X156943295Y-125558610D01*
X156839201Y-125618709D01*
X156754209Y-125703701D01*
X156694110Y-125807795D01*
X156694109Y-125807798D01*
X156663000Y-125923900D01*
X156663000Y-126044099D01*
X156694109Y-126160201D01*
X156694110Y-126160204D01*
X156754209Y-126264298D01*
X156754210Y-126264300D01*
X156804549Y-126314639D01*
X156827387Y-126363615D01*
X156813401Y-126415813D01*
X156769135Y-126446808D01*
X156748688Y-126449500D01*
X156325252Y-126449500D01*
X156266769Y-126461132D01*
X156200448Y-126505448D01*
X156156132Y-126571769D01*
X156144500Y-126630252D01*
X156144500Y-127369747D01*
X156156132Y-127428230D01*
X156156133Y-127428231D01*
X156200448Y-127494552D01*
X156266769Y-127538867D01*
X156266768Y-127538867D01*
X156325252Y-127550500D01*
X156748688Y-127550500D01*
X156799468Y-127568982D01*
X156826488Y-127615782D01*
X156817104Y-127669000D01*
X156804549Y-127685361D01*
X156754209Y-127735701D01*
X156694110Y-127839795D01*
X156694109Y-127839798D01*
X156663000Y-127955900D01*
X156663000Y-128076099D01*
X156694109Y-128192201D01*
X156694110Y-128192204D01*
X156754209Y-128296298D01*
X156754210Y-128296300D01*
X156839200Y-128381290D01*
X156943295Y-128441389D01*
X156943298Y-128441390D01*
X157059401Y-128472500D01*
X157059403Y-128472500D01*
X157179597Y-128472500D01*
X157179599Y-128472500D01*
X157295702Y-128441390D01*
X157399798Y-128381291D01*
X157399799Y-128381290D01*
X157399800Y-128381290D01*
X157484790Y-128296300D01*
X157484790Y-128296299D01*
X157484791Y-128296298D01*
X157544890Y-128192202D01*
X157576000Y-128076099D01*
X157576000Y-127955901D01*
X157544890Y-127839798D01*
X157544889Y-127839795D01*
X157487127Y-127739748D01*
X157484791Y-127735702D01*
X157484790Y-127735701D01*
X157484790Y-127735700D01*
X157410207Y-127661117D01*
X157387369Y-127612141D01*
X157401355Y-127559943D01*
X157422178Y-127539570D01*
X157423229Y-127538867D01*
X157423231Y-127538867D01*
X157489552Y-127494552D01*
X157533867Y-127428231D01*
X157545500Y-127369748D01*
X157545500Y-127280000D01*
X157552519Y-127260712D01*
X157556084Y-127240500D01*
X157561544Y-127235918D01*
X157563982Y-127229220D01*
X157581756Y-127218958D01*
X157597480Y-127205764D01*
X157607743Y-127203954D01*
X157610782Y-127202200D01*
X157624500Y-127201000D01*
X157758172Y-127201000D01*
X157808952Y-127219482D01*
X157830760Y-127257256D01*
X157833432Y-127256388D01*
X157835353Y-127262302D01*
X157892951Y-127375344D01*
X157982656Y-127465049D01*
X157982659Y-127465051D01*
X158095693Y-127522645D01*
X158095695Y-127522645D01*
X158095696Y-127522646D01*
X158189481Y-127537500D01*
X158802518Y-127537499D01*
X158880144Y-127525205D01*
X158906047Y-127530240D01*
X158932000Y-127534817D01*
X158932470Y-127535377D01*
X158933189Y-127535517D01*
X158949777Y-127556003D01*
X158966736Y-127576213D01*
X158966901Y-127577149D01*
X158967196Y-127577514D01*
X158971500Y-127603233D01*
X158971500Y-127614208D01*
X158953018Y-127664988D01*
X158948371Y-127670058D01*
X158792182Y-127826248D01*
X158655068Y-127963362D01*
X158606092Y-127986199D01*
X158599207Y-127986500D01*
X158189484Y-127986500D01*
X158113345Y-127998558D01*
X158095696Y-128001354D01*
X158040213Y-128029623D01*
X157982655Y-128058951D01*
X157892950Y-128148656D01*
X157892948Y-128148659D01*
X157835354Y-128261693D01*
X157835353Y-128261697D01*
X157820501Y-128355469D01*
X157820500Y-128355485D01*
X157820500Y-128818515D01*
X157835354Y-128912302D01*
X157835353Y-128912302D01*
X157892951Y-129025344D01*
X157982656Y-129115049D01*
X157982659Y-129115051D01*
X158095693Y-129172645D01*
X158095695Y-129172645D01*
X158095696Y-129172646D01*
X158189481Y-129187500D01*
X158599206Y-129187499D01*
X158649986Y-129205981D01*
X158655067Y-129210637D01*
X158948361Y-129503930D01*
X158971199Y-129552907D01*
X158971500Y-129559792D01*
X158971500Y-129953766D01*
X158953018Y-130004546D01*
X158906218Y-130031566D01*
X158880142Y-130031793D01*
X158802531Y-130019501D01*
X158802521Y-130019500D01*
X158802519Y-130019500D01*
X158802514Y-130019500D01*
X158189484Y-130019500D01*
X158113345Y-130031558D01*
X158095696Y-130034354D01*
X158065333Y-130049825D01*
X157982655Y-130091951D01*
X157892950Y-130181656D01*
X157892948Y-130181659D01*
X157835355Y-130294691D01*
X157833432Y-130300611D01*
X157830485Y-130299653D01*
X157829125Y-130302108D01*
X157826588Y-130316500D01*
X157816441Y-130325014D01*
X157810025Y-130336601D01*
X157796386Y-130341842D01*
X157785192Y-130351236D01*
X157760716Y-130355551D01*
X157759583Y-130355987D01*
X157758172Y-130356000D01*
X157618837Y-130356000D01*
X157568057Y-130337518D01*
X157541355Y-130292413D01*
X157533867Y-130254769D01*
X157489552Y-130188448D01*
X157423231Y-130144133D01*
X157423230Y-130144132D01*
X157423231Y-130144132D01*
X157364748Y-130132500D01*
X156325252Y-130132500D01*
X156266769Y-130144132D01*
X156200448Y-130188448D01*
X156156132Y-130254769D01*
X156144500Y-130313252D01*
X156144500Y-130340000D01*
X156137480Y-130359287D01*
X156133916Y-130379500D01*
X156128455Y-130384081D01*
X156126018Y-130390780D01*
X156108243Y-130401041D01*
X156092520Y-130414236D01*
X156082256Y-130416045D01*
X156079218Y-130417800D01*
X156065500Y-130419000D01*
X155930134Y-130419000D01*
X155879354Y-130400518D01*
X155861718Y-130379500D01*
X155837480Y-130337518D01*
X155801791Y-130275702D01*
X155801790Y-130275701D01*
X155801789Y-130275699D01*
X155716800Y-130190710D01*
X155716798Y-130190709D01*
X155612704Y-130130610D01*
X155612701Y-130130609D01*
X155496599Y-130099500D01*
X155376401Y-130099500D01*
X155376400Y-130099500D01*
X155260298Y-130130609D01*
X155255516Y-130132591D01*
X155254504Y-130130148D01*
X155210777Y-130137856D01*
X155163979Y-130110833D01*
X155145500Y-130060057D01*
X155145500Y-129363252D01*
X155133867Y-129304769D01*
X155089552Y-129238448D01*
X155023231Y-129194133D01*
X155023230Y-129194132D01*
X155023231Y-129194132D01*
X154964748Y-129182500D01*
X153925252Y-129182500D01*
X153866769Y-129194132D01*
X153800448Y-129238448D01*
X153756132Y-129304769D01*
X153744500Y-129363252D01*
X153744500Y-129515000D01*
X153737480Y-129534287D01*
X153733916Y-129554500D01*
X153728455Y-129559081D01*
X153726018Y-129565780D01*
X153708243Y-129576041D01*
X153692520Y-129589236D01*
X153682256Y-129591045D01*
X153679218Y-129592800D01*
X153665500Y-129594000D01*
X153531828Y-129594000D01*
X153481048Y-129575518D01*
X153459239Y-129537743D01*
X153456568Y-129538612D01*
X153454646Y-129532697D01*
X153454646Y-129532696D01*
X153397050Y-129419658D01*
X153397049Y-129419657D01*
X153397048Y-129419655D01*
X153307343Y-129329950D01*
X153307340Y-129329948D01*
X153194306Y-129272354D01*
X153194302Y-129272353D01*
X153100530Y-129257501D01*
X153100522Y-129257500D01*
X153100519Y-129257500D01*
X153100514Y-129257500D01*
X152487484Y-129257500D01*
X152411345Y-129269558D01*
X152393696Y-129272354D01*
X152338213Y-129300623D01*
X152280655Y-129329951D01*
X152190950Y-129419656D01*
X152190948Y-129419659D01*
X152133355Y-129532691D01*
X152131432Y-129538611D01*
X152128485Y-129537653D01*
X152108025Y-129574601D01*
X152057583Y-129593987D01*
X152056172Y-129594000D01*
X151648487Y-129594000D01*
X151631588Y-129601000D01*
X151551456Y-129634191D01*
X151384705Y-129800942D01*
X151335729Y-129823779D01*
X151288465Y-129811115D01*
X151287783Y-129812298D01*
X151179204Y-129749610D01*
X151179201Y-129749609D01*
X151063099Y-129718500D01*
X150942901Y-129718500D01*
X150942900Y-129718500D01*
X150826798Y-129749609D01*
X150826795Y-129749610D01*
X150722701Y-129809709D01*
X150637709Y-129894701D01*
X150577610Y-129998795D01*
X150577609Y-129998798D01*
X150546500Y-130114900D01*
X150546500Y-130235099D01*
X150577609Y-130351201D01*
X150577610Y-130351204D01*
X150637709Y-130455298D01*
X150637710Y-130455300D01*
X150722700Y-130540290D01*
X150826795Y-130600389D01*
X150826798Y-130600390D01*
X150942901Y-130631500D01*
X150942903Y-130631500D01*
X151063097Y-130631500D01*
X151063099Y-130631500D01*
X151179202Y-130600390D01*
X151283298Y-130540291D01*
X151283299Y-130540290D01*
X151283300Y-130540290D01*
X151361451Y-130462139D01*
X151410427Y-130439301D01*
X151417312Y-130439000D01*
X151436513Y-130439000D01*
X151496298Y-130414236D01*
X151533540Y-130398810D01*
X151533541Y-130398809D01*
X151533544Y-130398808D01*
X151787215Y-130145138D01*
X151836191Y-130122301D01*
X151843076Y-130122000D01*
X152056172Y-130122000D01*
X152106952Y-130140482D01*
X152128760Y-130178256D01*
X152131432Y-130177388D01*
X152133353Y-130183302D01*
X152190951Y-130296344D01*
X152280656Y-130386049D01*
X152280659Y-130386051D01*
X152393693Y-130443645D01*
X152393695Y-130443645D01*
X152393696Y-130443646D01*
X152487481Y-130458500D01*
X153100518Y-130458499D01*
X153194304Y-130443646D01*
X153307342Y-130386050D01*
X153397050Y-130296342D01*
X153454646Y-130183304D01*
X153454646Y-130183299D01*
X153456568Y-130177389D01*
X153459514Y-130178346D01*
X153460874Y-130175891D01*
X153463412Y-130161500D01*
X153473558Y-130152985D01*
X153479975Y-130141399D01*
X153493613Y-130136157D01*
X153504808Y-130126764D01*
X153529283Y-130122448D01*
X153530417Y-130122013D01*
X153531828Y-130122000D01*
X153687693Y-130122000D01*
X153738473Y-130140482D01*
X153753379Y-130157109D01*
X153756132Y-130161230D01*
X153756133Y-130161231D01*
X153800448Y-130227552D01*
X153866769Y-130271867D01*
X153866768Y-130271867D01*
X153925252Y-130283500D01*
X154933958Y-130283500D01*
X154984738Y-130301982D01*
X155011758Y-130348782D01*
X155010266Y-130382947D01*
X154980000Y-130495900D01*
X154980000Y-130616099D01*
X155011109Y-130732201D01*
X155011110Y-130732204D01*
X155071209Y-130836298D01*
X155071210Y-130836300D01*
X155156200Y-130921290D01*
X155260295Y-130981389D01*
X155260298Y-130981390D01*
X155376401Y-131012500D01*
X155376403Y-131012500D01*
X155496597Y-131012500D01*
X155496599Y-131012500D01*
X155612702Y-130981390D01*
X155644555Y-130963000D01*
X155653936Y-130957584D01*
X155693436Y-130947000D01*
X156065500Y-130947000D01*
X156116280Y-130965482D01*
X156143300Y-131012282D01*
X156144500Y-131026000D01*
X156144500Y-131052747D01*
X156156132Y-131111230D01*
X156156133Y-131111231D01*
X156200448Y-131177552D01*
X156266769Y-131221867D01*
X156266768Y-131221867D01*
X156325252Y-131233500D01*
X157364748Y-131233500D01*
X157423231Y-131221867D01*
X157489552Y-131177552D01*
X157533867Y-131111231D01*
X157545500Y-131052748D01*
X157545500Y-130963000D01*
X157552519Y-130943712D01*
X157556084Y-130923500D01*
X157561544Y-130918918D01*
X157563982Y-130912220D01*
X157581756Y-130901958D01*
X157597480Y-130888764D01*
X157607743Y-130886954D01*
X157610782Y-130885200D01*
X157624500Y-130884000D01*
X157758172Y-130884000D01*
X157808952Y-130902482D01*
X157830760Y-130940256D01*
X157833432Y-130939388D01*
X157835353Y-130945302D01*
X157892951Y-131058344D01*
X157982656Y-131148049D01*
X157982659Y-131148051D01*
X158095693Y-131205645D01*
X158095695Y-131205645D01*
X158095696Y-131205646D01*
X158189481Y-131220500D01*
X158802518Y-131220499D01*
X158880144Y-131208205D01*
X158906047Y-131213240D01*
X158932000Y-131217817D01*
X158932470Y-131218377D01*
X158933189Y-131218517D01*
X158949777Y-131239003D01*
X158966736Y-131259213D01*
X158966901Y-131260149D01*
X158967196Y-131260514D01*
X158971500Y-131286233D01*
X158971500Y-131297208D01*
X158953018Y-131347988D01*
X158948371Y-131353058D01*
X158792182Y-131509248D01*
X158655068Y-131646362D01*
X158606092Y-131669199D01*
X158599207Y-131669500D01*
X158189484Y-131669500D01*
X158113345Y-131681558D01*
X158095696Y-131684354D01*
X158040213Y-131712623D01*
X157982655Y-131741951D01*
X157892950Y-131831656D01*
X157892948Y-131831659D01*
X157835354Y-131944693D01*
X157835353Y-131944697D01*
X157820501Y-132038469D01*
X157820500Y-132038485D01*
X157820500Y-132501515D01*
X157835354Y-132595302D01*
X157835353Y-132595302D01*
X157892951Y-132708344D01*
X157982656Y-132798049D01*
X157982659Y-132798051D01*
X158095693Y-132855645D01*
X158095695Y-132855645D01*
X158095696Y-132855646D01*
X158189481Y-132870500D01*
X158599206Y-132870499D01*
X158649986Y-132888981D01*
X158655067Y-132893637D01*
X158948361Y-133186930D01*
X158971199Y-133235907D01*
X158971500Y-133242792D01*
X158971500Y-133636766D01*
X158953018Y-133687546D01*
X158906218Y-133714566D01*
X158880142Y-133714793D01*
X158802531Y-133702501D01*
X158802521Y-133702500D01*
X158802519Y-133702500D01*
X158802514Y-133702500D01*
X158189484Y-133702500D01*
X158113345Y-133714558D01*
X158095696Y-133717354D01*
X158051944Y-133739647D01*
X157982655Y-133774951D01*
X157892950Y-133864656D01*
X157892948Y-133864659D01*
X157835355Y-133977691D01*
X157833432Y-133983611D01*
X157830485Y-133982653D01*
X157829125Y-133985108D01*
X157826588Y-133999500D01*
X157816441Y-134008014D01*
X157810025Y-134019601D01*
X157796386Y-134024842D01*
X157785192Y-134034236D01*
X157760716Y-134038551D01*
X157759583Y-134038987D01*
X157758172Y-134039000D01*
X157618837Y-134039000D01*
X157568057Y-134020518D01*
X157541355Y-133975413D01*
X157533867Y-133937769D01*
X157526476Y-133926708D01*
X157489552Y-133871448D01*
X157423231Y-133827133D01*
X157423230Y-133827132D01*
X157423231Y-133827132D01*
X157364748Y-133815500D01*
X156325252Y-133815500D01*
X156266769Y-133827132D01*
X156200448Y-133871448D01*
X156156132Y-133937769D01*
X156144500Y-133996252D01*
X156144500Y-134023000D01*
X156126018Y-134073780D01*
X156079218Y-134100800D01*
X156065500Y-134102000D01*
X155342812Y-134102000D01*
X155292032Y-134083518D01*
X155286951Y-134078861D01*
X155208800Y-134000710D01*
X155152324Y-133968104D01*
X155117588Y-133926708D01*
X155117588Y-133872669D01*
X155126139Y-133855796D01*
X155133687Y-133844500D01*
X155133867Y-133844231D01*
X155145500Y-133785748D01*
X155145500Y-133046252D01*
X155145500Y-133046249D01*
X155145476Y-133046129D01*
X155143441Y-133035900D01*
X156663000Y-133035900D01*
X156663000Y-133156099D01*
X156694109Y-133272201D01*
X156694110Y-133272204D01*
X156754209Y-133376298D01*
X156754210Y-133376300D01*
X156839200Y-133461290D01*
X156943295Y-133521389D01*
X156943298Y-133521390D01*
X157059401Y-133552500D01*
X157059403Y-133552500D01*
X157179597Y-133552500D01*
X157179599Y-133552500D01*
X157295702Y-133521390D01*
X157399798Y-133461291D01*
X157399799Y-133461290D01*
X157399800Y-133461290D01*
X157484790Y-133376300D01*
X157484790Y-133376299D01*
X157484791Y-133376298D01*
X157544890Y-133272202D01*
X157576000Y-133156099D01*
X157576000Y-133035901D01*
X157544890Y-132919798D01*
X157544889Y-132919795D01*
X157484790Y-132815701D01*
X157484790Y-132815700D01*
X157399800Y-132730710D01*
X157399798Y-132730709D01*
X157295704Y-132670610D01*
X157295701Y-132670609D01*
X157179599Y-132639500D01*
X157059401Y-132639500D01*
X157059400Y-132639500D01*
X156943298Y-132670609D01*
X156943295Y-132670610D01*
X156839201Y-132730709D01*
X156754209Y-132815701D01*
X156694110Y-132919795D01*
X156694109Y-132919798D01*
X156663000Y-133035900D01*
X155143441Y-133035900D01*
X155133867Y-132987769D01*
X155101152Y-132938809D01*
X155089552Y-132921448D01*
X155023231Y-132877133D01*
X155023230Y-132877132D01*
X155023231Y-132877132D01*
X154964748Y-132865500D01*
X154141000Y-132865500D01*
X154090220Y-132847018D01*
X154063200Y-132800218D01*
X154062000Y-132786500D01*
X154062000Y-132650176D01*
X154062000Y-132650174D01*
X154026631Y-132518176D01*
X154018278Y-132503709D01*
X153966134Y-132413393D01*
X153958303Y-132399829D01*
X153958302Y-132399828D01*
X153958301Y-132399826D01*
X153876836Y-132318361D01*
X153853998Y-132269385D01*
X153867984Y-132217187D01*
X153912250Y-132186192D01*
X153932697Y-132183500D01*
X154964748Y-132183500D01*
X155023231Y-132171867D01*
X155089552Y-132127552D01*
X155133867Y-132061231D01*
X155145500Y-132002748D01*
X155145500Y-131263252D01*
X155133867Y-131204769D01*
X155089552Y-131138448D01*
X155023231Y-131094133D01*
X155023230Y-131094132D01*
X155023231Y-131094132D01*
X154964748Y-131082500D01*
X153925252Y-131082500D01*
X153866769Y-131094132D01*
X153800447Y-131138448D01*
X153796476Y-131144392D01*
X153752895Y-131176345D01*
X153730791Y-131179500D01*
X153501429Y-131179500D01*
X153450649Y-131161018D01*
X153431040Y-131136365D01*
X153397051Y-131069659D01*
X153397049Y-131069656D01*
X153307343Y-130979950D01*
X153307340Y-130979948D01*
X153194306Y-130922354D01*
X153194302Y-130922353D01*
X153100530Y-130907501D01*
X153100522Y-130907500D01*
X153100519Y-130907500D01*
X153100514Y-130907500D01*
X152487484Y-130907500D01*
X152415392Y-130918918D01*
X152393696Y-130922354D01*
X152360265Y-130939388D01*
X152280655Y-130979951D01*
X152190950Y-131069656D01*
X152190948Y-131069659D01*
X152133354Y-131182693D01*
X152133353Y-131182697D01*
X152118501Y-131276469D01*
X152118500Y-131276485D01*
X152118500Y-131739515D01*
X152118886Y-131741950D01*
X152133093Y-131831659D01*
X152133354Y-131833302D01*
X152133353Y-131833302D01*
X152190951Y-131946344D01*
X152280656Y-132036049D01*
X152280659Y-132036051D01*
X152393693Y-132093645D01*
X152393695Y-132093645D01*
X152393696Y-132093646D01*
X152429039Y-132099243D01*
X152458462Y-132103904D01*
X152505726Y-132130102D01*
X152514519Y-132142430D01*
X152531134Y-132171206D01*
X152531134Y-132171207D01*
X153000861Y-132640933D01*
X153023699Y-132689909D01*
X153024000Y-132696794D01*
X153024000Y-132786832D01*
X153038529Y-132841054D01*
X153033819Y-132894887D01*
X152995608Y-132933098D01*
X152962221Y-132940500D01*
X152599574Y-132940500D01*
X152548794Y-132922018D01*
X152543723Y-132917371D01*
X152117544Y-132491192D01*
X152117543Y-132491191D01*
X152117540Y-132491189D01*
X152020514Y-132451000D01*
X152020513Y-132451000D01*
X151671980Y-132451000D01*
X151621200Y-132432518D01*
X151594180Y-132385718D01*
X151603312Y-132333925D01*
X151603228Y-132333882D01*
X151603369Y-132333604D01*
X151603564Y-132332500D01*
X151605273Y-132329868D01*
X151663645Y-132215306D01*
X151663645Y-132215305D01*
X151663646Y-132215304D01*
X151678500Y-132121519D01*
X151678499Y-131658482D01*
X151663646Y-131564696D01*
X151606050Y-131451658D01*
X151606049Y-131451657D01*
X151606048Y-131451655D01*
X151516343Y-131361950D01*
X151516340Y-131361948D01*
X151403306Y-131304354D01*
X151403302Y-131304353D01*
X151309530Y-131289501D01*
X151309522Y-131289500D01*
X151309519Y-131289500D01*
X151309514Y-131289500D01*
X150696484Y-131289500D01*
X150620345Y-131301558D01*
X150602696Y-131304354D01*
X150552501Y-131329930D01*
X150489655Y-131361951D01*
X150399950Y-131451656D01*
X150399950Y-131451657D01*
X150354026Y-131541787D01*
X150314504Y-131578641D01*
X150260539Y-131581469D01*
X150244138Y-131574337D01*
X150163204Y-131527611D01*
X150163201Y-131527609D01*
X150047099Y-131496500D01*
X149926901Y-131496500D01*
X149926900Y-131496500D01*
X149810798Y-131527609D01*
X149810795Y-131527610D01*
X149744999Y-131565598D01*
X149691781Y-131574982D01*
X149644982Y-131547962D01*
X149626500Y-131497182D01*
X149626500Y-130683652D01*
X149644982Y-130632872D01*
X149649639Y-130627791D01*
X149993930Y-130283500D01*
X150371309Y-129906122D01*
X150411500Y-129809090D01*
X150411500Y-129704065D01*
X150411500Y-124653900D01*
X150800500Y-124653900D01*
X150800500Y-124774099D01*
X150831609Y-124890201D01*
X150831610Y-124890204D01*
X150891709Y-124994298D01*
X150891710Y-124994300D01*
X150976700Y-125079290D01*
X151080795Y-125139389D01*
X151080798Y-125139390D01*
X151196901Y-125170500D01*
X151196903Y-125170500D01*
X151317097Y-125170500D01*
X151317099Y-125170500D01*
X151388051Y-125151488D01*
X151441883Y-125156197D01*
X151480095Y-125194409D01*
X151487497Y-125227796D01*
X151487497Y-125290328D01*
X151522865Y-125422325D01*
X151522866Y-125422327D01*
X151591195Y-125540675D01*
X151687821Y-125637301D01*
X151687823Y-125637302D01*
X151687824Y-125637303D01*
X151806171Y-125705631D01*
X151938169Y-125741000D01*
X151938171Y-125741000D01*
X152074823Y-125741000D01*
X152074825Y-125741000D01*
X152074826Y-125740999D01*
X152079956Y-125740324D01*
X152080130Y-125741651D01*
X152128128Y-125745845D01*
X152166344Y-125784051D01*
X152171061Y-125837884D01*
X152165140Y-125853312D01*
X152133352Y-125915698D01*
X152118501Y-126009469D01*
X152118500Y-126009485D01*
X152118500Y-126472515D01*
X152122641Y-126498658D01*
X152133354Y-126566304D01*
X152160259Y-126619108D01*
X152179703Y-126657269D01*
X152186288Y-126710906D01*
X152156856Y-126756226D01*
X152105178Y-126772026D01*
X152088866Y-126769442D01*
X151960328Y-126735000D01*
X151823672Y-126735000D01*
X151823671Y-126735000D01*
X151691674Y-126770368D01*
X151691672Y-126770369D01*
X151573324Y-126838698D01*
X151476698Y-126935324D01*
X151408369Y-127053672D01*
X151408368Y-127053674D01*
X151373000Y-127185671D01*
X151373000Y-127322328D01*
X151408368Y-127454325D01*
X151408369Y-127454327D01*
X151476698Y-127572675D01*
X151573324Y-127669301D01*
X151573326Y-127669302D01*
X151573327Y-127669303D01*
X151691674Y-127737631D01*
X151823672Y-127773000D01*
X151913708Y-127773000D01*
X151964488Y-127791482D01*
X151969569Y-127796139D01*
X152095361Y-127921931D01*
X152118199Y-127970907D01*
X152118500Y-127977791D01*
X152118500Y-128122515D01*
X152127763Y-128181005D01*
X152128871Y-128188000D01*
X152133354Y-128216302D01*
X152133353Y-128216302D01*
X152190951Y-128329344D01*
X152280656Y-128419049D01*
X152280659Y-128419051D01*
X152393693Y-128476645D01*
X152393695Y-128476645D01*
X152393696Y-128476646D01*
X152487481Y-128491500D01*
X153100518Y-128491499D01*
X153194304Y-128476646D01*
X153307342Y-128419050D01*
X153397050Y-128329342D01*
X153398008Y-128327459D01*
X153431040Y-128262635D01*
X153470561Y-128225780D01*
X153501429Y-128219500D01*
X153665500Y-128219500D01*
X153716280Y-128237982D01*
X153743300Y-128284782D01*
X153744500Y-128298500D01*
X153744500Y-128319747D01*
X153756132Y-128378230D01*
X153770836Y-128400236D01*
X153800448Y-128444552D01*
X153866769Y-128488867D01*
X153866768Y-128488867D01*
X153925252Y-128500500D01*
X154964748Y-128500500D01*
X155023231Y-128488867D01*
X155089552Y-128444552D01*
X155133867Y-128378231D01*
X155145500Y-128319748D01*
X155145500Y-127580252D01*
X155133867Y-127521769D01*
X155089552Y-127455448D01*
X155023231Y-127411133D01*
X155023230Y-127411132D01*
X155023231Y-127411132D01*
X154964748Y-127399500D01*
X153925252Y-127399500D01*
X153866769Y-127411132D01*
X153841180Y-127428231D01*
X153802128Y-127454326D01*
X153800447Y-127455449D01*
X153752377Y-127527390D01*
X153708797Y-127559344D01*
X153686691Y-127562500D01*
X153501429Y-127562500D01*
X153450649Y-127544018D01*
X153431040Y-127519365D01*
X153397051Y-127452659D01*
X153397049Y-127452656D01*
X153307343Y-127362950D01*
X153307340Y-127362948D01*
X153194306Y-127305354D01*
X153194302Y-127305353D01*
X153100530Y-127290501D01*
X153100522Y-127290500D01*
X153100519Y-127290500D01*
X153100514Y-127290500D01*
X152490000Y-127290500D01*
X152439220Y-127272018D01*
X152412200Y-127225218D01*
X152411000Y-127211500D01*
X152411000Y-127185674D01*
X152411000Y-127185672D01*
X152375631Y-127053674D01*
X152312359Y-126944084D01*
X152302975Y-126890866D01*
X152329995Y-126844067D01*
X152380775Y-126825584D01*
X152393134Y-126826557D01*
X152393696Y-126826646D01*
X152487481Y-126841500D01*
X153100518Y-126841499D01*
X153194304Y-126826646D01*
X153307342Y-126769050D01*
X153397050Y-126679342D01*
X153454646Y-126566304D01*
X153454646Y-126566299D01*
X153456568Y-126560389D01*
X153459514Y-126561346D01*
X153479975Y-126524399D01*
X153530417Y-126505013D01*
X153531828Y-126505000D01*
X153731794Y-126505000D01*
X153782574Y-126523482D01*
X153797479Y-126540109D01*
X153800448Y-126544552D01*
X153866769Y-126588867D01*
X153866768Y-126588867D01*
X153925252Y-126600500D01*
X154964748Y-126600500D01*
X155023231Y-126588867D01*
X155089552Y-126544552D01*
X155133867Y-126478231D01*
X155145500Y-126419748D01*
X155145500Y-125680252D01*
X155133867Y-125621769D01*
X155089552Y-125555448D01*
X155023231Y-125511133D01*
X155023230Y-125511132D01*
X155023231Y-125511132D01*
X154964748Y-125499500D01*
X153925252Y-125499500D01*
X153866769Y-125511132D01*
X153800448Y-125555448D01*
X153756132Y-125621769D01*
X153744500Y-125680252D01*
X153744500Y-125898000D01*
X153737480Y-125917287D01*
X153733916Y-125937500D01*
X153728455Y-125942081D01*
X153726018Y-125948780D01*
X153708243Y-125959041D01*
X153692520Y-125972236D01*
X153682256Y-125974045D01*
X153679218Y-125975800D01*
X153665500Y-125977000D01*
X153531828Y-125977000D01*
X153481048Y-125958518D01*
X153459239Y-125920743D01*
X153456568Y-125921612D01*
X153454646Y-125915697D01*
X153454646Y-125915696D01*
X153397050Y-125802658D01*
X153397049Y-125802657D01*
X153397048Y-125802655D01*
X153307343Y-125712950D01*
X153307340Y-125712948D01*
X153194306Y-125655354D01*
X153194302Y-125655353D01*
X153173864Y-125652116D01*
X153126600Y-125625918D01*
X153107234Y-125575468D01*
X153124827Y-125524373D01*
X153130352Y-125518236D01*
X153146291Y-125502298D01*
X153206390Y-125398202D01*
X153237500Y-125282099D01*
X153237500Y-125161901D01*
X153206390Y-125045798D01*
X153206389Y-125045795D01*
X153146290Y-124941701D01*
X153146290Y-124941700D01*
X153061300Y-124856710D01*
X153061298Y-124856709D01*
X153013157Y-124828915D01*
X152978421Y-124787519D01*
X152978420Y-124733480D01*
X153013155Y-124692083D01*
X153052656Y-124681499D01*
X153100515Y-124681499D01*
X153100518Y-124681499D01*
X153194304Y-124666646D01*
X153307342Y-124609050D01*
X153397050Y-124519342D01*
X153414870Y-124484369D01*
X153431040Y-124452635D01*
X153470561Y-124415780D01*
X153501429Y-124409500D01*
X153665500Y-124409500D01*
X153716280Y-124427982D01*
X153743300Y-124474782D01*
X153744500Y-124488500D01*
X153744500Y-124636747D01*
X153756132Y-124695230D01*
X153770836Y-124717236D01*
X153800448Y-124761552D01*
X153866769Y-124805867D01*
X153866768Y-124805867D01*
X153925252Y-124817500D01*
X154964748Y-124817500D01*
X155023231Y-124805867D01*
X155089552Y-124761552D01*
X155133867Y-124695231D01*
X155145500Y-124636748D01*
X155145500Y-123897252D01*
X155133867Y-123838769D01*
X155089552Y-123772448D01*
X155023231Y-123728133D01*
X155023230Y-123728132D01*
X155023231Y-123728132D01*
X154964748Y-123716500D01*
X153925252Y-123716500D01*
X153866768Y-123728132D01*
X153866766Y-123728133D01*
X153850228Y-123739185D01*
X153806337Y-123752500D01*
X153501429Y-123752500D01*
X153450649Y-123734018D01*
X153431040Y-123709365D01*
X153397051Y-123642659D01*
X153397049Y-123642656D01*
X153307343Y-123552950D01*
X153307340Y-123552948D01*
X153194306Y-123495354D01*
X153194302Y-123495353D01*
X153100530Y-123480501D01*
X153100522Y-123480500D01*
X153100519Y-123480500D01*
X153100514Y-123480500D01*
X152487484Y-123480500D01*
X152411345Y-123492558D01*
X152393696Y-123495354D01*
X152349251Y-123518000D01*
X152280655Y-123552951D01*
X152190950Y-123642656D01*
X152190948Y-123642659D01*
X152133354Y-123755693D01*
X152133353Y-123755697D01*
X152118501Y-123849469D01*
X152118500Y-123849485D01*
X152118500Y-124259206D01*
X152100018Y-124309986D01*
X152095361Y-124315067D01*
X151819347Y-124591081D01*
X151770371Y-124613919D01*
X151718173Y-124599933D01*
X151687178Y-124555667D01*
X151682390Y-124537798D01*
X151682389Y-124537795D01*
X151641085Y-124466255D01*
X151622291Y-124433702D01*
X151622290Y-124433701D01*
X151622290Y-124433700D01*
X151537300Y-124348710D01*
X151537298Y-124348709D01*
X151433204Y-124288610D01*
X151433201Y-124288609D01*
X151317099Y-124257500D01*
X151196901Y-124257500D01*
X151196900Y-124257500D01*
X151080798Y-124288609D01*
X151080795Y-124288610D01*
X150976701Y-124348709D01*
X150891709Y-124433701D01*
X150831610Y-124537795D01*
X150831609Y-124537798D01*
X150800500Y-124653900D01*
X150411500Y-124653900D01*
X150411500Y-122662987D01*
X150411306Y-122662518D01*
X150371310Y-122565959D01*
X150371308Y-122565956D01*
X150297044Y-122491692D01*
X149430347Y-121624995D01*
X151486750Y-121624995D01*
X151486750Y-121761652D01*
X151522118Y-121893649D01*
X151522119Y-121893651D01*
X151590448Y-122011999D01*
X151687074Y-122108625D01*
X151687076Y-122108626D01*
X151687077Y-122108627D01*
X151737831Y-122137930D01*
X151788181Y-122167000D01*
X151805424Y-122176955D01*
X151937422Y-122212324D01*
X151937424Y-122212324D01*
X152039500Y-122212324D01*
X152090280Y-122230806D01*
X152117300Y-122277606D01*
X152118500Y-122291324D01*
X152118500Y-122662515D01*
X152133354Y-122756302D01*
X152133353Y-122756302D01*
X152190951Y-122869344D01*
X152280656Y-122959049D01*
X152280659Y-122959051D01*
X152393693Y-123016645D01*
X152393695Y-123016645D01*
X152393696Y-123016646D01*
X152487481Y-123031500D01*
X153100518Y-123031499D01*
X153194304Y-123016646D01*
X153307342Y-122959050D01*
X153397050Y-122869342D01*
X153454646Y-122756304D01*
X153454646Y-122756299D01*
X153456568Y-122750389D01*
X153459514Y-122751346D01*
X153460874Y-122748891D01*
X153463412Y-122734500D01*
X153473558Y-122725985D01*
X153479975Y-122714399D01*
X153493613Y-122709157D01*
X153504808Y-122699764D01*
X153529283Y-122695448D01*
X153530417Y-122695013D01*
X153531828Y-122695000D01*
X153671362Y-122695000D01*
X153722142Y-122713482D01*
X153748844Y-122758588D01*
X153756132Y-122795230D01*
X153756133Y-122795231D01*
X153800448Y-122861552D01*
X153866769Y-122905867D01*
X153866768Y-122905867D01*
X153925252Y-122917500D01*
X154964748Y-122917500D01*
X155023231Y-122905867D01*
X155089552Y-122861552D01*
X155133867Y-122795231D01*
X155145500Y-122736748D01*
X155145500Y-121997252D01*
X155133867Y-121938769D01*
X155089552Y-121872448D01*
X155023231Y-121828133D01*
X155023230Y-121828132D01*
X155023231Y-121828132D01*
X154971566Y-121817856D01*
X154925367Y-121789822D01*
X154907997Y-121738651D01*
X154922548Y-121697271D01*
X154921702Y-121696783D01*
X154984389Y-121588204D01*
X154984390Y-121588201D01*
X155015500Y-121472099D01*
X155015500Y-121351901D01*
X154984390Y-121235798D01*
X154984314Y-121235667D01*
X154984299Y-121235578D01*
X154982408Y-121231013D01*
X154983419Y-121230594D01*
X154974923Y-121182452D01*
X155001936Y-121135649D01*
X155022497Y-121123171D01*
X155023229Y-121122867D01*
X155023231Y-121122867D01*
X155089552Y-121078552D01*
X155133867Y-121012231D01*
X155145500Y-120953748D01*
X155145500Y-120214252D01*
X155133867Y-120155769D01*
X155089552Y-120089448D01*
X155023231Y-120045133D01*
X155023230Y-120045132D01*
X155023231Y-120045132D01*
X154964748Y-120033500D01*
X153925252Y-120033500D01*
X153866769Y-120045132D01*
X153841180Y-120062231D01*
X153803099Y-120087677D01*
X153800447Y-120089449D01*
X153752377Y-120161390D01*
X153708797Y-120193344D01*
X153686691Y-120196500D01*
X153501429Y-120196500D01*
X153450649Y-120178018D01*
X153431040Y-120153365D01*
X153397051Y-120086659D01*
X153397049Y-120086656D01*
X153307343Y-119996950D01*
X153307340Y-119996948D01*
X153194306Y-119939354D01*
X153194302Y-119939353D01*
X153100530Y-119924501D01*
X153100522Y-119924500D01*
X153100519Y-119924500D01*
X153100514Y-119924500D01*
X152487484Y-119924500D01*
X152421308Y-119934981D01*
X152393696Y-119939354D01*
X152350140Y-119961547D01*
X152280655Y-119996951D01*
X152190950Y-120086656D01*
X152190948Y-120086659D01*
X152133354Y-120199693D01*
X152133353Y-120199697D01*
X152118501Y-120293469D01*
X152118500Y-120293485D01*
X152118500Y-120756515D01*
X152122641Y-120782658D01*
X152133354Y-120850304D01*
X152170180Y-120922578D01*
X152191967Y-120965339D01*
X152193004Y-120973786D01*
X152197885Y-120980757D01*
X152196210Y-120999900D01*
X152198552Y-121018976D01*
X152193789Y-121027568D01*
X152193175Y-121034590D01*
X152177439Y-121057065D01*
X152083318Y-121151185D01*
X152034344Y-121174023D01*
X152027458Y-121174324D01*
X151937421Y-121174324D01*
X151805424Y-121209692D01*
X151805422Y-121209693D01*
X151687074Y-121278022D01*
X151590448Y-121374648D01*
X151522119Y-121492996D01*
X151522118Y-121492998D01*
X151486750Y-121624995D01*
X149430347Y-121624995D01*
X149170415Y-121365063D01*
X149147577Y-121316087D01*
X149161563Y-121263889D01*
X149205829Y-121232894D01*
X149246721Y-121232894D01*
X149291901Y-121245000D01*
X149291903Y-121245000D01*
X149412097Y-121245000D01*
X149412099Y-121245000D01*
X149528202Y-121213890D01*
X149531710Y-121211865D01*
X149552638Y-121199782D01*
X149632298Y-121153791D01*
X149632299Y-121153790D01*
X149632300Y-121153790D01*
X149717290Y-121068800D01*
X149717290Y-121068799D01*
X149717291Y-121068798D01*
X149777390Y-120964702D01*
X149808500Y-120848599D01*
X149808500Y-120728401D01*
X149777390Y-120612298D01*
X149777389Y-120612295D01*
X149717290Y-120508201D01*
X149717290Y-120508200D01*
X149639139Y-120430049D01*
X149616301Y-120381073D01*
X149616000Y-120374188D01*
X149616000Y-120208900D01*
X150038500Y-120208900D01*
X150038500Y-120329099D01*
X150069609Y-120445201D01*
X150069610Y-120445204D01*
X150129709Y-120549298D01*
X150129710Y-120549300D01*
X150214700Y-120634290D01*
X150318795Y-120694389D01*
X150318798Y-120694390D01*
X150434901Y-120725500D01*
X150434903Y-120725500D01*
X150555097Y-120725500D01*
X150555099Y-120725500D01*
X150671202Y-120694390D01*
X150673695Y-120692951D01*
X150685148Y-120686338D01*
X150775298Y-120634291D01*
X150775299Y-120634290D01*
X150775300Y-120634290D01*
X150860290Y-120549300D01*
X150860290Y-120549299D01*
X150860291Y-120549298D01*
X150920390Y-120445202D01*
X150951500Y-120329099D01*
X150951500Y-120208901D01*
X150920390Y-120092798D01*
X150920389Y-120092795D01*
X150887020Y-120034998D01*
X150877636Y-119981780D01*
X150904656Y-119934981D01*
X150955436Y-119916499D01*
X151309515Y-119916499D01*
X151309518Y-119916499D01*
X151403304Y-119901646D01*
X151516342Y-119844050D01*
X151606050Y-119754342D01*
X151663646Y-119641304D01*
X151678500Y-119547519D01*
X151678499Y-119084482D01*
X151663646Y-118990696D01*
X151606050Y-118877658D01*
X151606049Y-118877657D01*
X151606048Y-118877655D01*
X151516343Y-118787950D01*
X151516340Y-118787948D01*
X151403306Y-118730354D01*
X151403302Y-118730353D01*
X151309530Y-118715501D01*
X151309522Y-118715500D01*
X151309519Y-118715500D01*
X151309514Y-118715500D01*
X150696484Y-118715500D01*
X150620345Y-118727558D01*
X150602696Y-118730354D01*
X150547213Y-118758623D01*
X150489655Y-118787951D01*
X150399950Y-118877656D01*
X150399948Y-118877659D01*
X150342354Y-118990693D01*
X150342353Y-118990697D01*
X150327501Y-119084469D01*
X150327500Y-119084485D01*
X150327500Y-119547516D01*
X150330861Y-119568735D01*
X150320548Y-119621781D01*
X150308695Y-119636952D01*
X150271190Y-119674457D01*
X150231000Y-119771484D01*
X150231000Y-119854688D01*
X150212518Y-119905468D01*
X150207861Y-119910549D01*
X150129709Y-119988701D01*
X150069610Y-120092795D01*
X150069609Y-120092798D01*
X150038500Y-120208900D01*
X149616000Y-120208900D01*
X149616000Y-119990705D01*
X149634482Y-119939925D01*
X149681282Y-119912905D01*
X149682518Y-119912698D01*
X149752304Y-119901646D01*
X149865342Y-119844050D01*
X149955050Y-119754342D01*
X150012646Y-119641304D01*
X150027500Y-119547519D01*
X150027499Y-119084482D01*
X150012646Y-118990696D01*
X149955050Y-118877658D01*
X149955049Y-118877657D01*
X149955048Y-118877655D01*
X149865343Y-118787950D01*
X149865340Y-118787948D01*
X149752306Y-118730354D01*
X149752303Y-118730353D01*
X149694651Y-118721222D01*
X149647388Y-118695023D01*
X149628022Y-118644574D01*
X149645616Y-118593479D01*
X149691936Y-118565646D01*
X149699863Y-118564519D01*
X149754100Y-118559591D01*
X149754109Y-118559589D01*
X149916398Y-118509017D01*
X150061874Y-118421074D01*
X150182074Y-118300874D01*
X150270017Y-118155398D01*
X150274137Y-118142177D01*
X150306888Y-118099193D01*
X150359606Y-118087317D01*
X150405422Y-118109815D01*
X150489656Y-118194049D01*
X150489659Y-118194051D01*
X150602693Y-118251645D01*
X150602695Y-118251645D01*
X150602696Y-118251646D01*
X150696481Y-118266500D01*
X151309518Y-118266499D01*
X151403304Y-118251646D01*
X151516342Y-118194050D01*
X151606050Y-118104342D01*
X151663646Y-117991304D01*
X151678500Y-117897519D01*
X151678499Y-117487792D01*
X151696981Y-117437013D01*
X151701638Y-117431931D01*
X151939932Y-117193638D01*
X151955561Y-117186350D01*
X151968773Y-117175264D01*
X151985759Y-117172269D01*
X151988908Y-117170801D01*
X151995793Y-117170500D01*
X152113495Y-117170500D01*
X152164275Y-117188982D01*
X152183884Y-117213635D01*
X152221948Y-117288340D01*
X152221950Y-117288343D01*
X152311656Y-117378049D01*
X152311659Y-117378051D01*
X152424693Y-117435645D01*
X152424695Y-117435645D01*
X152424696Y-117435646D01*
X152518481Y-117450500D01*
X153131518Y-117450499D01*
X153225304Y-117435646D01*
X153338342Y-117378050D01*
X153428050Y-117288342D01*
X153447841Y-117249500D01*
X153466116Y-117213635D01*
X153467710Y-117212148D01*
X153468089Y-117210000D01*
X153487302Y-117193877D01*
X153505637Y-117176780D01*
X153508331Y-117176231D01*
X153509485Y-117175264D01*
X153536505Y-117170500D01*
X153665500Y-117170500D01*
X153716280Y-117188982D01*
X153743300Y-117235782D01*
X153744500Y-117249500D01*
X153744500Y-117270747D01*
X153756132Y-117329230D01*
X153756133Y-117329231D01*
X153800448Y-117395552D01*
X153866769Y-117439867D01*
X153866768Y-117439867D01*
X153925252Y-117451500D01*
X154964748Y-117451500D01*
X155023231Y-117439867D01*
X155089552Y-117395552D01*
X155133867Y-117329231D01*
X155145500Y-117270748D01*
X155145500Y-116531252D01*
X155133867Y-116472769D01*
X155089552Y-116406448D01*
X155023231Y-116362133D01*
X155023230Y-116362132D01*
X155023231Y-116362132D01*
X154964748Y-116350500D01*
X154045542Y-116350500D01*
X153994762Y-116332018D01*
X153967742Y-116285218D01*
X153969234Y-116251053D01*
X153980934Y-116207388D01*
X153999500Y-116138099D01*
X153999500Y-116017901D01*
X153968390Y-115901798D01*
X153968389Y-115901795D01*
X153919890Y-115817792D01*
X153908291Y-115797702D01*
X153908290Y-115797701D01*
X153908290Y-115797700D01*
X153823300Y-115712710D01*
X153823298Y-115712709D01*
X153719204Y-115652610D01*
X153719200Y-115652609D01*
X153615012Y-115624692D01*
X153607708Y-115620475D01*
X153602072Y-115619982D01*
X153579598Y-115604245D01*
X153566214Y-115590861D01*
X153543376Y-115541885D01*
X153557362Y-115489687D01*
X153601628Y-115458692D01*
X153622075Y-115456000D01*
X153731794Y-115456000D01*
X153782574Y-115474482D01*
X153797479Y-115491109D01*
X153800448Y-115495552D01*
X153866769Y-115539867D01*
X153866768Y-115539867D01*
X153925252Y-115551500D01*
X154964748Y-115551500D01*
X155023231Y-115539867D01*
X155089552Y-115495552D01*
X155133867Y-115429231D01*
X155145500Y-115370748D01*
X155145500Y-114631252D01*
X155133867Y-114572769D01*
X155089552Y-114506448D01*
X155023231Y-114462133D01*
X155023230Y-114462132D01*
X155023231Y-114462132D01*
X154964748Y-114450500D01*
X153925252Y-114450500D01*
X153866769Y-114462132D01*
X153800448Y-114506448D01*
X153756132Y-114572769D01*
X153744500Y-114631252D01*
X153744500Y-114849000D01*
X153737480Y-114868287D01*
X153733916Y-114888500D01*
X153728455Y-114893081D01*
X153726018Y-114899780D01*
X153708243Y-114910041D01*
X153692520Y-114923236D01*
X153682256Y-114925045D01*
X153679218Y-114926800D01*
X153665500Y-114928000D01*
X153560362Y-114928000D01*
X153509582Y-114909518D01*
X153489482Y-114879719D01*
X153488468Y-114880236D01*
X153485646Y-114874697D01*
X153485646Y-114874696D01*
X153428050Y-114761658D01*
X153428049Y-114761657D01*
X153428048Y-114761655D01*
X153338343Y-114671950D01*
X153338340Y-114671948D01*
X153247283Y-114625552D01*
X153210428Y-114586031D01*
X153207600Y-114532065D01*
X153227285Y-114499303D01*
X153273291Y-114453298D01*
X153333390Y-114349202D01*
X153364500Y-114233099D01*
X153364500Y-114112901D01*
X153333390Y-113996798D01*
X153333389Y-113996795D01*
X153294824Y-113929999D01*
X153273291Y-113892702D01*
X153273290Y-113892701D01*
X153273290Y-113892700D01*
X153225435Y-113844845D01*
X153202597Y-113795869D01*
X153216583Y-113743671D01*
X153245429Y-113718596D01*
X153307342Y-113687050D01*
X153397050Y-113597342D01*
X153400733Y-113590114D01*
X153431040Y-113530635D01*
X153470561Y-113493780D01*
X153501429Y-113487500D01*
X153665500Y-113487500D01*
X153716280Y-113505982D01*
X153743300Y-113552782D01*
X153744500Y-113566500D01*
X153744500Y-113587747D01*
X153756132Y-113646230D01*
X153756133Y-113646231D01*
X153800448Y-113712552D01*
X153866769Y-113756867D01*
X153866768Y-113756867D01*
X153925252Y-113768500D01*
X154964748Y-113768500D01*
X155023231Y-113756867D01*
X155089552Y-113712552D01*
X155133867Y-113646231D01*
X155145500Y-113587748D01*
X155145500Y-112848252D01*
X155137165Y-112806350D01*
X155145385Y-112752943D01*
X155186014Y-112717312D01*
X155240040Y-112716132D01*
X155270508Y-112735079D01*
G37*
G04 #@! TD.AperFunction*
G04 #@! TA.AperFunction,Conductor*
G36*
X147131500Y-130844766D02*
G01*
X147147861Y-130857321D01*
X147156033Y-130865493D01*
X147238633Y-130913182D01*
X147264464Y-130928095D01*
X147385399Y-130960500D01*
X147385401Y-130960500D01*
X147389447Y-130961584D01*
X147433713Y-130992579D01*
X147448000Y-131037892D01*
X147448000Y-131142835D01*
X147454401Y-131202369D01*
X147454403Y-131202381D01*
X147504643Y-131337083D01*
X147504648Y-131337091D01*
X147505819Y-131338655D01*
X147506211Y-131339954D01*
X147507354Y-131342046D01*
X147506916Y-131342284D01*
X147521456Y-131390382D01*
X147500186Y-131440059D01*
X147451960Y-131464441D01*
X147442578Y-131465000D01*
X147150163Y-131465000D01*
X147100444Y-131470345D01*
X147047979Y-131457397D01*
X147016112Y-131413753D01*
X147013000Y-131391798D01*
X147013000Y-130913182D01*
X147031482Y-130862402D01*
X147078282Y-130835382D01*
X147131500Y-130844766D01*
G37*
G04 #@! TD.AperFunction*
G04 #@! TA.AperFunction,Conductor*
G36*
X149070280Y-130563482D02*
G01*
X149097300Y-130610282D01*
X149098500Y-130624000D01*
X149098500Y-130966000D01*
X149080018Y-131016780D01*
X149033218Y-131043800D01*
X149019500Y-131045000D01*
X148602000Y-131045000D01*
X148551220Y-131026518D01*
X148524200Y-130979718D01*
X148523000Y-130966000D01*
X148523000Y-130624000D01*
X148541482Y-130573220D01*
X148588282Y-130546200D01*
X148602000Y-130545000D01*
X149019500Y-130545000D01*
X149070280Y-130563482D01*
G37*
G04 #@! TD.AperFunction*
G04 #@! TA.AperFunction,Conductor*
G36*
X147922780Y-114248982D02*
G01*
X147949800Y-114295782D01*
X147951000Y-114309500D01*
X147951000Y-114431000D01*
X148701000Y-114431000D01*
X148701000Y-114309500D01*
X148719482Y-114258720D01*
X148766282Y-114231700D01*
X148780000Y-114230500D01*
X152390185Y-114230500D01*
X152440965Y-114248982D01*
X152466493Y-114289053D01*
X152482609Y-114349201D01*
X152482610Y-114349204D01*
X152542709Y-114453298D01*
X152542710Y-114453300D01*
X152555974Y-114466564D01*
X152578812Y-114515540D01*
X152564826Y-114567738D01*
X152520560Y-114598733D01*
X152512471Y-114600452D01*
X152424702Y-114614352D01*
X152424697Y-114614353D01*
X152311655Y-114671951D01*
X152221950Y-114761656D01*
X152221948Y-114761659D01*
X152164354Y-114874693D01*
X152164353Y-114874697D01*
X152149501Y-114968469D01*
X152149500Y-114968485D01*
X152149500Y-115431515D01*
X152164354Y-115525302D01*
X152164353Y-115525302D01*
X152221951Y-115638344D01*
X152311656Y-115728049D01*
X152311659Y-115728051D01*
X152424693Y-115785645D01*
X152424695Y-115785645D01*
X152424696Y-115785646D01*
X152518481Y-115800500D01*
X152996423Y-115800499D01*
X153012628Y-115806397D01*
X153029809Y-115807900D01*
X153043936Y-115817792D01*
X153047203Y-115818981D01*
X153052284Y-115823637D01*
X153088070Y-115859422D01*
X153110908Y-115908398D01*
X153108517Y-115935730D01*
X153086500Y-116017898D01*
X153086500Y-116017900D01*
X153086500Y-116017901D01*
X153086500Y-116138099D01*
X153089704Y-116150055D01*
X153084993Y-116203888D01*
X153046780Y-116242099D01*
X153013395Y-116249500D01*
X152518484Y-116249500D01*
X152442345Y-116261558D01*
X152424696Y-116264354D01*
X152369213Y-116292623D01*
X152311655Y-116321951D01*
X152221950Y-116411656D01*
X152221950Y-116411657D01*
X152192036Y-116470366D01*
X152190441Y-116471852D01*
X152190063Y-116474000D01*
X152170848Y-116490122D01*
X152152514Y-116507220D01*
X152149820Y-116507767D01*
X152148667Y-116508736D01*
X152121647Y-116513500D01*
X151995792Y-116513500D01*
X151945012Y-116495018D01*
X151939930Y-116490361D01*
X151802868Y-116353299D01*
X151645704Y-116196134D01*
X151620408Y-116181529D01*
X151570798Y-116152886D01*
X151570796Y-116152885D01*
X151487248Y-116130499D01*
X151400752Y-116130499D01*
X151395916Y-116130499D01*
X151395900Y-116130500D01*
X151240198Y-116130500D01*
X151189418Y-116112018D01*
X151184347Y-116107371D01*
X151120673Y-116043697D01*
X151075997Y-116017903D01*
X151002327Y-115975369D01*
X151002325Y-115975368D01*
X150870328Y-115940000D01*
X150733672Y-115940000D01*
X150733671Y-115940000D01*
X150601674Y-115975368D01*
X150601672Y-115975369D01*
X150483324Y-116043698D01*
X150386698Y-116140324D01*
X150318369Y-116258672D01*
X150318368Y-116258674D01*
X150283000Y-116390671D01*
X150283000Y-116527328D01*
X150318368Y-116659325D01*
X150318369Y-116659327D01*
X150386698Y-116777675D01*
X150483324Y-116874301D01*
X150483326Y-116874302D01*
X150483327Y-116874303D01*
X150601674Y-116942631D01*
X150601675Y-116942631D01*
X150602861Y-116943316D01*
X150637597Y-116984712D01*
X150637597Y-117038752D01*
X150602861Y-117080148D01*
X150599227Y-117082121D01*
X150489658Y-117137949D01*
X150405422Y-117222185D01*
X150356446Y-117245022D01*
X150304248Y-117231036D01*
X150274137Y-117189823D01*
X150270017Y-117176600D01*
X150182074Y-117031125D01*
X150061874Y-116910925D01*
X149916398Y-116822982D01*
X149754105Y-116772408D01*
X149683575Y-116766000D01*
X149602000Y-116766000D01*
X149602000Y-117587000D01*
X149583518Y-117637780D01*
X149536718Y-117664800D01*
X149523000Y-117666000D01*
X149352000Y-117666000D01*
X149352000Y-117837000D01*
X149333518Y-117887780D01*
X149286718Y-117914800D01*
X149273000Y-117916000D01*
X148371000Y-117916000D01*
X148320220Y-117897518D01*
X148293200Y-117850718D01*
X148292000Y-117837000D01*
X148292000Y-117835641D01*
X148291999Y-117835640D01*
X148248836Y-117831000D01*
X147951000Y-117831000D01*
X147951000Y-118531000D01*
X148701000Y-118531000D01*
X148704564Y-118527436D01*
X148753539Y-118504597D01*
X148783929Y-118507873D01*
X148949894Y-118559591D01*
X149004138Y-118564520D01*
X149053037Y-118587522D01*
X149075711Y-118636574D01*
X149061550Y-118688725D01*
X149017180Y-118719572D01*
X149009351Y-118721222D01*
X148951702Y-118730353D01*
X148951696Y-118730354D01*
X148838655Y-118787951D01*
X148748951Y-118877655D01*
X148748949Y-118877659D01*
X148692795Y-118987865D01*
X148653275Y-119024720D01*
X148622407Y-119031000D01*
X147951000Y-119031000D01*
X147951000Y-119731000D01*
X148248835Y-119731000D01*
X148308369Y-119724598D01*
X148308381Y-119724596D01*
X148443083Y-119674356D01*
X148443094Y-119674349D01*
X148562712Y-119584804D01*
X148563996Y-119586519D01*
X148605207Y-119567291D01*
X148657408Y-119581265D01*
X148688414Y-119625524D01*
X148690138Y-119633630D01*
X148691352Y-119641298D01*
X148691353Y-119641302D01*
X148748951Y-119754344D01*
X148838656Y-119844049D01*
X148838659Y-119844051D01*
X148951693Y-119901645D01*
X148951694Y-119901645D01*
X148951696Y-119901646D01*
X149021359Y-119912679D01*
X149068621Y-119938877D01*
X149087988Y-119989326D01*
X149088000Y-119990706D01*
X149088000Y-120374188D01*
X149069518Y-120424968D01*
X149064861Y-120430049D01*
X148986709Y-120508201D01*
X148926610Y-120612295D01*
X148926609Y-120612298D01*
X148895500Y-120728400D01*
X148895500Y-120848601D01*
X148907605Y-120893777D01*
X148902895Y-120947610D01*
X148864683Y-120985822D01*
X148810850Y-120990531D01*
X148775436Y-120970084D01*
X147474139Y-119668787D01*
X147451301Y-119619811D01*
X147451000Y-119612926D01*
X147451000Y-117831000D01*
X147153165Y-117831000D01*
X147093630Y-117837401D01*
X147093618Y-117837403D01*
X146958916Y-117887643D01*
X146958905Y-117887650D01*
X146843810Y-117973810D01*
X146757651Y-118088904D01*
X146757644Y-118088916D01*
X146757242Y-118089995D01*
X146756723Y-118090602D01*
X146754942Y-118093866D01*
X146754258Y-118093492D01*
X146722175Y-118131111D01*
X146668883Y-118140067D01*
X146667814Y-118139862D01*
X146620748Y-118130500D01*
X146444000Y-118130500D01*
X146393220Y-118112018D01*
X146366200Y-118065218D01*
X146365000Y-118051500D01*
X146365000Y-117409425D01*
X148377000Y-117409425D01*
X148377000Y-117416000D01*
X149102000Y-117416000D01*
X149102000Y-116766000D01*
X149020425Y-116766000D01*
X148949898Y-116772408D01*
X148949890Y-116772410D01*
X148787601Y-116822982D01*
X148642125Y-116910925D01*
X148521925Y-117031125D01*
X148433982Y-117176601D01*
X148383408Y-117338894D01*
X148377000Y-117409425D01*
X146365000Y-117409425D01*
X146365000Y-115410500D01*
X146383482Y-115359720D01*
X146430282Y-115332700D01*
X146444000Y-115331500D01*
X146620746Y-115331500D01*
X146620748Y-115331500D01*
X146667816Y-115322137D01*
X146721223Y-115330357D01*
X146754544Y-115368351D01*
X146754942Y-115368134D01*
X146755912Y-115369911D01*
X146756854Y-115370985D01*
X146757244Y-115372008D01*
X146757647Y-115373088D01*
X146757651Y-115373095D01*
X146843810Y-115488189D01*
X146958905Y-115574349D01*
X146958916Y-115574356D01*
X147093618Y-115624596D01*
X147093630Y-115624598D01*
X147153165Y-115631000D01*
X147451000Y-115631000D01*
X147951000Y-115631000D01*
X148248835Y-115631000D01*
X148308369Y-115624598D01*
X148308381Y-115624596D01*
X148443083Y-115574356D01*
X148443094Y-115574349D01*
X148558189Y-115488189D01*
X148644349Y-115373094D01*
X148644356Y-115373083D01*
X148694596Y-115238381D01*
X148694598Y-115238369D01*
X148701000Y-115178835D01*
X148701000Y-114931000D01*
X147951000Y-114931000D01*
X147951000Y-115631000D01*
X147451000Y-115631000D01*
X147451000Y-114309500D01*
X147469482Y-114258720D01*
X147516282Y-114231700D01*
X147530000Y-114230500D01*
X147872000Y-114230500D01*
X147922780Y-114248982D01*
G37*
G04 #@! TD.AperFunction*
G04 #@! TA.AperFunction,Conductor*
G36*
X143554854Y-102634482D02*
G01*
X143581874Y-102681282D01*
X143579064Y-102719849D01*
X143535143Y-102852393D01*
X143525000Y-102951689D01*
X143525000Y-102975000D01*
X146974999Y-102975000D01*
X146974999Y-102951688D01*
X146964856Y-102852398D01*
X146964854Y-102852388D01*
X146920936Y-102719849D01*
X146922508Y-102665833D01*
X146958433Y-102625464D01*
X146995926Y-102616000D01*
X151856633Y-102616000D01*
X151907413Y-102634482D01*
X151934433Y-102681282D01*
X151925049Y-102734500D01*
X151923871Y-102736473D01*
X151865641Y-102830877D01*
X151810493Y-102997303D01*
X151800000Y-103100025D01*
X151800000Y-103150000D01*
X154249999Y-103150000D01*
X154249999Y-103100024D01*
X154239506Y-102997308D01*
X154239504Y-102997298D01*
X154184358Y-102830877D01*
X154126129Y-102736473D01*
X154115201Y-102683550D01*
X154140848Y-102635985D01*
X154191069Y-102616033D01*
X154193367Y-102616000D01*
X156402416Y-102616000D01*
X156453196Y-102634482D01*
X156480216Y-102681282D01*
X156470832Y-102734500D01*
X156468102Y-102738891D01*
X156446132Y-102771769D01*
X156434500Y-102830252D01*
X156434500Y-103969747D01*
X156446132Y-104028230D01*
X156446133Y-104028231D01*
X156490448Y-104094552D01*
X156556769Y-104138867D01*
X156567910Y-104141083D01*
X156614109Y-104169115D01*
X156631500Y-104218565D01*
X156631500Y-104787391D01*
X156613018Y-104838171D01*
X156566218Y-104865191D01*
X156513000Y-104855807D01*
X156486815Y-104831282D01*
X156469553Y-104805449D01*
X156469552Y-104805448D01*
X156403231Y-104761133D01*
X156403230Y-104761132D01*
X156403231Y-104761132D01*
X156344748Y-104749500D01*
X155655252Y-104749500D01*
X155596769Y-104761132D01*
X155530448Y-104805448D01*
X155486132Y-104871769D01*
X155474500Y-104930252D01*
X155474500Y-106069747D01*
X155486132Y-106128230D01*
X155494197Y-106140299D01*
X155530448Y-106194552D01*
X155596769Y-106238867D01*
X155607910Y-106241083D01*
X155654109Y-106269115D01*
X155671500Y-106318565D01*
X155671500Y-106503128D01*
X155653018Y-106553908D01*
X155648361Y-106558989D01*
X155627152Y-106580197D01*
X155627150Y-106580200D01*
X155580501Y-106680237D01*
X155580501Y-106680238D01*
X155578582Y-106694814D01*
X155553628Y-106742747D01*
X155503701Y-106763425D01*
X155500258Y-106763500D01*
X154707429Y-106763500D01*
X154656649Y-106745018D01*
X154637040Y-106720365D01*
X154603051Y-106653659D01*
X154603049Y-106653656D01*
X154513343Y-106563950D01*
X154513340Y-106563948D01*
X154400308Y-106506355D01*
X154400301Y-106506353D01*
X154395137Y-106505535D01*
X154347875Y-106479333D01*
X154328512Y-106428882D01*
X154328500Y-106427508D01*
X154328500Y-106231754D01*
X154328499Y-106231749D01*
X154306114Y-106148204D01*
X154297216Y-106132793D01*
X154271468Y-106088195D01*
X154262866Y-106073296D01*
X154201704Y-106012134D01*
X154201701Y-106012132D01*
X154078238Y-105888669D01*
X153950764Y-105761194D01*
X153927927Y-105712218D01*
X153932058Y-105679246D01*
X153947646Y-105634699D01*
X153950500Y-105604266D01*
X153950500Y-104995734D01*
X153947646Y-104965301D01*
X153909333Y-104855807D01*
X153902794Y-104837120D01*
X153902792Y-104837117D01*
X153889181Y-104818675D01*
X153846714Y-104761133D01*
X153822150Y-104727849D01*
X153712882Y-104647207D01*
X153712879Y-104647205D01*
X153584699Y-104602354D01*
X153584696Y-104602353D01*
X153566278Y-104600626D01*
X153554266Y-104599500D01*
X152495734Y-104599500D01*
X152484601Y-104600544D01*
X152465303Y-104602353D01*
X152465300Y-104602354D01*
X152337120Y-104647205D01*
X152337113Y-104647209D01*
X152325910Y-104655478D01*
X152274077Y-104670762D01*
X152224547Y-104649151D01*
X152200496Y-104600760D01*
X152199999Y-104591915D01*
X152199999Y-104525026D01*
X152191159Y-104438492D01*
X152204385Y-104386096D01*
X152248196Y-104354460D01*
X152294599Y-104355473D01*
X152397304Y-104389506D01*
X152397303Y-104389506D01*
X152500025Y-104399999D01*
X152775000Y-104399999D01*
X153275000Y-104399999D01*
X153549975Y-104399999D01*
X153652691Y-104389506D01*
X153652701Y-104389504D01*
X153819122Y-104334358D01*
X153968343Y-104242317D01*
X153968346Y-104242315D01*
X154092315Y-104118346D01*
X154092317Y-104118343D01*
X154184358Y-103969122D01*
X154239506Y-103802696D01*
X154250000Y-103699974D01*
X154250000Y-103650000D01*
X153275000Y-103650000D01*
X153275000Y-104399999D01*
X152775000Y-104399999D01*
X152775000Y-103650000D01*
X151800001Y-103650000D01*
X151800001Y-103699975D01*
X151808840Y-103786508D01*
X151795613Y-103838904D01*
X151751802Y-103870539D01*
X151705400Y-103869526D01*
X151602695Y-103835493D01*
X151602696Y-103835493D01*
X151499975Y-103825000D01*
X151450000Y-103825000D01*
X151450000Y-106274999D01*
X151499975Y-106274999D01*
X151602691Y-106264506D01*
X151602701Y-106264504D01*
X151769122Y-106209358D01*
X151918343Y-106117317D01*
X151918346Y-106117315D01*
X152042317Y-105993344D01*
X152106881Y-105888669D01*
X152149270Y-105855152D01*
X152203286Y-105856723D01*
X152222534Y-105869383D01*
X152223087Y-105868635D01*
X152276909Y-105908357D01*
X152333496Y-105950120D01*
X152337117Y-105952792D01*
X152337120Y-105952794D01*
X152347146Y-105956302D01*
X152465301Y-105997646D01*
X152495734Y-106000500D01*
X153228207Y-106000500D01*
X153278987Y-106018982D01*
X153284068Y-106023638D01*
X153465430Y-106205000D01*
X153634650Y-106374219D01*
X153657488Y-106423196D01*
X153643502Y-106475393D01*
X153603208Y-106505212D01*
X153599703Y-106506351D01*
X153599697Y-106506353D01*
X153599696Y-106506354D01*
X153568110Y-106522448D01*
X153486657Y-106563950D01*
X153470411Y-106580197D01*
X153435246Y-106615361D01*
X153386272Y-106638199D01*
X153379386Y-106638500D01*
X152859252Y-106638500D01*
X152808472Y-106620018D01*
X152790266Y-106595187D01*
X152790190Y-106595239D01*
X152789014Y-106593479D01*
X152786263Y-106589727D01*
X152785867Y-106588772D01*
X152785867Y-106588769D01*
X152741552Y-106522448D01*
X152675231Y-106478133D01*
X152675230Y-106478132D01*
X152675231Y-106478132D01*
X152616748Y-106466500D01*
X151427252Y-106466500D01*
X151368769Y-106478132D01*
X151302448Y-106522448D01*
X151258132Y-106588769D01*
X151246500Y-106647252D01*
X151246500Y-107104064D01*
X151228018Y-107154844D01*
X151209343Y-107170139D01*
X151209434Y-107170260D01*
X151206669Y-107172329D01*
X151205365Y-107173398D01*
X151204910Y-107173645D01*
X151089810Y-107259810D01*
X151003650Y-107374905D01*
X151003643Y-107374916D01*
X150953403Y-107509618D01*
X150953401Y-107509630D01*
X150947000Y-107569164D01*
X150947000Y-107667000D01*
X153097000Y-107667000D01*
X153097000Y-107569164D01*
X153090598Y-107509630D01*
X153090596Y-107509618D01*
X153050497Y-107402107D01*
X153050437Y-107394664D01*
X153046716Y-107388218D01*
X153050228Y-107368297D01*
X153050068Y-107348070D01*
X153054807Y-107342329D01*
X153056100Y-107335000D01*
X153071595Y-107321997D01*
X153084475Y-107306399D01*
X153092926Y-107304098D01*
X153097496Y-107300264D01*
X153124516Y-107295500D01*
X153252590Y-107295500D01*
X153303370Y-107313982D01*
X153330390Y-107360782D01*
X153330617Y-107362142D01*
X153339352Y-107417297D01*
X153339353Y-107417302D01*
X153396951Y-107530344D01*
X153486656Y-107620049D01*
X153486659Y-107620051D01*
X153599693Y-107677645D01*
X153599695Y-107677645D01*
X153599696Y-107677646D01*
X153693481Y-107692500D01*
X154306518Y-107692499D01*
X154400304Y-107677646D01*
X154513342Y-107620050D01*
X154603050Y-107530342D01*
X154610323Y-107516069D01*
X154637040Y-107463635D01*
X154676561Y-107426780D01*
X154707429Y-107420500D01*
X155736260Y-107420500D01*
X155740027Y-107421309D01*
X155742127Y-107420718D01*
X155764735Y-107426619D01*
X155768719Y-107427476D01*
X155769168Y-107427678D01*
X155805240Y-107444499D01*
X155807008Y-107444731D01*
X155813828Y-107447805D01*
X155829458Y-107463036D01*
X155847055Y-107475939D01*
X155848418Y-107481512D01*
X155852530Y-107485519D01*
X155854713Y-107507236D01*
X155859899Y-107528430D01*
X155857372Y-107533696D01*
X155857935Y-107539288D01*
X155846966Y-107555391D01*
X155837230Y-107575690D01*
X155183135Y-108229785D01*
X155139886Y-108304693D01*
X155139885Y-108304695D01*
X155117499Y-108388243D01*
X155117499Y-108481101D01*
X155117500Y-108481114D01*
X155117500Y-110701622D01*
X155099018Y-110752402D01*
X155052218Y-110779422D01*
X155023089Y-110779104D01*
X154964749Y-110767500D01*
X154964748Y-110767500D01*
X153925252Y-110767500D01*
X153866769Y-110779132D01*
X153800448Y-110823448D01*
X153756132Y-110889769D01*
X153744500Y-110948252D01*
X153744500Y-111166000D01*
X153737480Y-111185287D01*
X153733916Y-111205500D01*
X153728455Y-111210081D01*
X153726018Y-111216780D01*
X153708243Y-111227041D01*
X153692520Y-111240236D01*
X153682256Y-111242045D01*
X153679218Y-111243800D01*
X153665500Y-111245000D01*
X153531828Y-111245000D01*
X153481048Y-111226518D01*
X153459239Y-111188743D01*
X153456568Y-111189612D01*
X153454646Y-111183697D01*
X153454646Y-111183696D01*
X153397050Y-111070658D01*
X153397049Y-111070657D01*
X153397048Y-111070655D01*
X153307343Y-110980950D01*
X153307340Y-110980948D01*
X153194306Y-110923354D01*
X153194302Y-110923353D01*
X153100530Y-110908501D01*
X153100522Y-110908500D01*
X153100519Y-110908500D01*
X153100514Y-110908500D01*
X152487484Y-110908500D01*
X152411345Y-110920558D01*
X152393696Y-110923354D01*
X152348272Y-110946499D01*
X152280655Y-110980951D01*
X152190950Y-111070656D01*
X152190948Y-111070659D01*
X152133355Y-111183691D01*
X152131432Y-111189611D01*
X152128485Y-111188653D01*
X152108025Y-111225601D01*
X152057583Y-111244987D01*
X152056172Y-111245000D01*
X151582485Y-111245000D01*
X151554067Y-111256771D01*
X151554066Y-111256770D01*
X151485455Y-111285190D01*
X151478985Y-111289514D01*
X151477006Y-111286552D01*
X151441309Y-111303199D01*
X151434424Y-111303500D01*
X151323900Y-111303500D01*
X151207798Y-111334609D01*
X151207795Y-111334610D01*
X151103701Y-111394709D01*
X151018709Y-111479701D01*
X150958610Y-111583795D01*
X150958609Y-111583798D01*
X150927500Y-111699900D01*
X150927500Y-111820099D01*
X150958609Y-111936201D01*
X150958610Y-111936204D01*
X151018709Y-112040298D01*
X151018710Y-112040300D01*
X151103700Y-112125290D01*
X151207795Y-112185389D01*
X151207798Y-112185390D01*
X151323901Y-112216500D01*
X151323903Y-112216500D01*
X151444097Y-112216500D01*
X151444099Y-112216500D01*
X151560202Y-112185390D01*
X151664298Y-112125291D01*
X151664299Y-112125290D01*
X151664300Y-112125290D01*
X151749290Y-112040300D01*
X151749290Y-112040299D01*
X151749291Y-112040298D01*
X151802960Y-111947340D01*
X151809389Y-111936204D01*
X151809389Y-111936203D01*
X151809390Y-111936202D01*
X151837431Y-111831553D01*
X151843488Y-111822901D01*
X151845323Y-111812500D01*
X151858535Y-111801413D01*
X151868427Y-111787287D01*
X151879549Y-111783780D01*
X151886719Y-111777764D01*
X151913739Y-111773000D01*
X152056172Y-111773000D01*
X152106952Y-111791482D01*
X152128760Y-111829256D01*
X152131432Y-111828388D01*
X152133353Y-111834302D01*
X152190951Y-111947344D01*
X152280656Y-112037049D01*
X152280659Y-112037051D01*
X152393693Y-112094645D01*
X152393695Y-112094645D01*
X152393696Y-112094646D01*
X152487481Y-112109500D01*
X153100518Y-112109499D01*
X153194304Y-112094646D01*
X153307342Y-112037050D01*
X153397050Y-111947342D01*
X153420774Y-111900782D01*
X153454644Y-111834308D01*
X153454644Y-111834307D01*
X153454646Y-111834304D01*
X153454646Y-111834299D01*
X153456568Y-111828389D01*
X153459514Y-111829346D01*
X153479975Y-111792399D01*
X153530417Y-111773013D01*
X153531828Y-111773000D01*
X153731794Y-111773000D01*
X153782574Y-111791482D01*
X153797479Y-111808109D01*
X153800448Y-111812552D01*
X153866769Y-111856867D01*
X153866768Y-111856867D01*
X153925252Y-111868500D01*
X154964747Y-111868500D01*
X154964748Y-111868500D01*
X155023088Y-111856895D01*
X155076498Y-111865115D01*
X155112128Y-111905744D01*
X155117500Y-111934377D01*
X155117500Y-112397899D01*
X155117499Y-112397917D01*
X155117499Y-112489248D01*
X155139885Y-112572796D01*
X155139887Y-112572800D01*
X155143698Y-112579401D01*
X155153080Y-112632620D01*
X155126059Y-112679418D01*
X155075278Y-112697899D01*
X155031390Y-112684585D01*
X155023231Y-112679133D01*
X155023230Y-112679132D01*
X155023231Y-112679132D01*
X154964748Y-112667500D01*
X153925252Y-112667500D01*
X153866769Y-112679132D01*
X153841180Y-112696231D01*
X153804624Y-112720658D01*
X153800447Y-112723449D01*
X153752377Y-112795390D01*
X153708797Y-112827344D01*
X153686691Y-112830500D01*
X153501429Y-112830500D01*
X153450649Y-112812018D01*
X153431040Y-112787365D01*
X153397051Y-112720659D01*
X153397049Y-112720656D01*
X153307343Y-112630950D01*
X153307340Y-112630948D01*
X153194306Y-112573354D01*
X153194302Y-112573353D01*
X153100530Y-112558501D01*
X153100522Y-112558500D01*
X153100519Y-112558500D01*
X153100514Y-112558500D01*
X152487484Y-112558500D01*
X152411345Y-112570558D01*
X152393696Y-112573354D01*
X152338213Y-112601623D01*
X152280655Y-112630951D01*
X152190950Y-112720656D01*
X152190948Y-112720659D01*
X152156960Y-112787365D01*
X152117439Y-112824220D01*
X152086571Y-112830500D01*
X151189198Y-112830500D01*
X151138418Y-112812018D01*
X151133347Y-112807371D01*
X151067673Y-112741697D01*
X151052693Y-112733048D01*
X150949327Y-112673369D01*
X150949325Y-112673368D01*
X150817328Y-112638000D01*
X150680672Y-112638000D01*
X150680671Y-112638000D01*
X150548674Y-112673368D01*
X150548672Y-112673369D01*
X150430324Y-112741698D01*
X150333698Y-112838324D01*
X150265369Y-112956672D01*
X150265368Y-112956674D01*
X150230000Y-113088671D01*
X150230000Y-113225328D01*
X150265368Y-113357325D01*
X150265369Y-113357327D01*
X150333698Y-113475675D01*
X150425662Y-113567639D01*
X150448500Y-113616615D01*
X150434514Y-113668813D01*
X150390248Y-113699808D01*
X150369801Y-113702500D01*
X145443505Y-113702500D01*
X145392725Y-113684018D01*
X145387644Y-113679361D01*
X144440977Y-112732694D01*
X144440970Y-112732689D01*
X144343944Y-112692500D01*
X144343943Y-112692500D01*
X143541987Y-112692500D01*
X143532980Y-112696231D01*
X143467271Y-112723448D01*
X143444956Y-112732691D01*
X143180285Y-112997362D01*
X143131309Y-113020199D01*
X143124424Y-113020500D01*
X142840098Y-113020500D01*
X142840092Y-113020501D01*
X142790517Y-113027026D01*
X142790511Y-113027028D01*
X142681683Y-113077776D01*
X142681680Y-113077778D01*
X142596778Y-113162680D01*
X142596776Y-113162683D01*
X142546028Y-113271510D01*
X142546028Y-113271512D01*
X142539500Y-113321096D01*
X142539500Y-113740901D01*
X142539501Y-113740907D01*
X142546026Y-113790482D01*
X142546028Y-113790488D01*
X142596776Y-113899316D01*
X142600741Y-113904979D01*
X142598262Y-113906714D01*
X142615936Y-113944615D01*
X142601950Y-113996813D01*
X142557684Y-114027808D01*
X142537237Y-114030500D01*
X142180252Y-114030500D01*
X142121769Y-114042132D01*
X142055448Y-114086448D01*
X142011132Y-114152769D01*
X141999500Y-114211252D01*
X141999500Y-114884207D01*
X141981018Y-114934987D01*
X141976361Y-114940069D01*
X141562359Y-115354070D01*
X141513383Y-115376907D01*
X141470635Y-115368599D01*
X141462304Y-115364354D01*
X141462302Y-115364353D01*
X141462297Y-115364352D01*
X141368530Y-115349501D01*
X141368522Y-115349500D01*
X141368519Y-115349500D01*
X141368514Y-115349500D01*
X140755484Y-115349500D01*
X140706501Y-115357258D01*
X140680355Y-115361398D01*
X140627311Y-115351087D01*
X140593304Y-115309090D01*
X140589000Y-115283371D01*
X140589000Y-114966629D01*
X140607482Y-114915849D01*
X140654282Y-114888829D01*
X140680359Y-114888602D01*
X140693475Y-114890679D01*
X140755481Y-114900500D01*
X141368518Y-114900499D01*
X141462304Y-114885646D01*
X141575342Y-114828050D01*
X141665050Y-114738342D01*
X141722646Y-114625304D01*
X141737500Y-114531519D01*
X141737499Y-114068482D01*
X141729983Y-114021025D01*
X141740295Y-113967981D01*
X141782292Y-113933974D01*
X141797698Y-113930346D01*
X141800320Y-113930000D01*
X141800328Y-113930000D01*
X141932326Y-113894631D01*
X142050673Y-113826303D01*
X142147303Y-113729673D01*
X142215631Y-113611326D01*
X142251000Y-113479328D01*
X142251000Y-113342672D01*
X142215631Y-113210674D01*
X142147303Y-113092327D01*
X142147302Y-113092326D01*
X142147301Y-113092324D01*
X142050675Y-112995698D01*
X141932327Y-112927369D01*
X141932325Y-112927368D01*
X141800328Y-112892000D01*
X141663672Y-112892000D01*
X141663671Y-112892000D01*
X141531674Y-112927368D01*
X141531672Y-112927369D01*
X141413324Y-112995698D01*
X141316698Y-113092324D01*
X141248369Y-113210672D01*
X141248368Y-113210674D01*
X141213000Y-113342671D01*
X141213000Y-113432706D01*
X141194518Y-113483486D01*
X141189861Y-113488568D01*
X141002066Y-113676362D01*
X140953090Y-113699199D01*
X140946205Y-113699500D01*
X140755484Y-113699500D01*
X140706501Y-113707258D01*
X140680355Y-113711398D01*
X140627311Y-113701087D01*
X140593304Y-113659090D01*
X140589000Y-113633371D01*
X140589000Y-107730708D01*
X141168500Y-107730708D01*
X141168500Y-107937291D01*
X141168501Y-107937307D01*
X141200815Y-108141334D01*
X141200821Y-108141357D01*
X141264655Y-108337819D01*
X141264662Y-108337835D01*
X141358448Y-108521899D01*
X141392575Y-108568871D01*
X141987830Y-107973615D01*
X142003426Y-108031817D01*
X142070898Y-108148682D01*
X142166318Y-108244102D01*
X142283183Y-108311574D01*
X142341383Y-108327168D01*
X141746127Y-108922423D01*
X141746127Y-108922424D01*
X141793093Y-108956546D01*
X141793099Y-108956550D01*
X141977164Y-109050337D01*
X141977180Y-109050344D01*
X142173642Y-109114178D01*
X142173665Y-109114184D01*
X142377692Y-109146498D01*
X142377709Y-109146500D01*
X142584291Y-109146500D01*
X142584307Y-109146498D01*
X142788334Y-109114184D01*
X142788353Y-109114179D01*
X142877310Y-109085275D01*
X142931316Y-109087160D01*
X142971475Y-109123319D01*
X142976553Y-109136791D01*
X142976675Y-109136746D01*
X143028643Y-109276083D01*
X143028650Y-109276094D01*
X143114810Y-109391189D01*
X143229905Y-109477349D01*
X143229916Y-109477356D01*
X143364618Y-109527596D01*
X143364630Y-109527598D01*
X143424165Y-109534000D01*
X143483000Y-109534000D01*
X143483000Y-108813000D01*
X143501482Y-108762220D01*
X143548282Y-108735200D01*
X143562000Y-108734000D01*
X143904000Y-108734000D01*
X143954780Y-108752482D01*
X143981800Y-108799282D01*
X143983000Y-108813000D01*
X143983000Y-109534000D01*
X144041835Y-109534000D01*
X144101369Y-109527598D01*
X144101378Y-109527596D01*
X144184392Y-109496634D01*
X144238430Y-109496205D01*
X144280100Y-109530611D01*
X144291000Y-109570653D01*
X144291000Y-110182834D01*
X144280416Y-110222333D01*
X144227610Y-110313795D01*
X144227609Y-110313798D01*
X144196500Y-110429900D01*
X144196500Y-110550099D01*
X144227609Y-110666201D01*
X144227610Y-110666204D01*
X144287709Y-110770298D01*
X144287710Y-110770300D01*
X144372700Y-110855290D01*
X144476795Y-110915389D01*
X144476798Y-110915390D01*
X144592901Y-110946500D01*
X144592903Y-110946500D01*
X144713097Y-110946500D01*
X144713099Y-110946500D01*
X144829202Y-110915390D01*
X144933298Y-110855291D01*
X144933299Y-110855290D01*
X144933300Y-110855290D01*
X145018290Y-110770300D01*
X145018290Y-110770299D01*
X145018291Y-110770298D01*
X145077452Y-110667827D01*
X145078389Y-110666204D01*
X145078390Y-110666201D01*
X145090322Y-110621671D01*
X145109500Y-110550099D01*
X145109500Y-110429901D01*
X145078390Y-110313798D01*
X145078389Y-110313795D01*
X145018290Y-110209701D01*
X145018290Y-110209700D01*
X144958565Y-110149975D01*
X146275001Y-110149975D01*
X146285493Y-110252691D01*
X146285495Y-110252701D01*
X146340641Y-110419122D01*
X146432682Y-110568343D01*
X146432684Y-110568346D01*
X146556653Y-110692315D01*
X146556656Y-110692317D01*
X146705877Y-110784358D01*
X146872304Y-110839506D01*
X146872303Y-110839506D01*
X146975025Y-110849999D01*
X147250000Y-110849999D01*
X147750000Y-110849999D01*
X148024975Y-110849999D01*
X148127691Y-110839506D01*
X148127701Y-110839504D01*
X148294122Y-110784358D01*
X148443343Y-110692317D01*
X148443346Y-110692315D01*
X148567315Y-110568346D01*
X148567317Y-110568343D01*
X148659358Y-110419122D01*
X148714506Y-110252696D01*
X148725000Y-110149974D01*
X148725000Y-110100000D01*
X147750000Y-110100000D01*
X147750000Y-110849999D01*
X147250000Y-110849999D01*
X147250000Y-110100000D01*
X146275001Y-110100000D01*
X146275001Y-110149975D01*
X144958565Y-110149975D01*
X144938510Y-110129920D01*
X144938507Y-110129918D01*
X144933298Y-110124709D01*
X144857840Y-110081143D01*
X144857124Y-110080711D01*
X144840640Y-110060239D01*
X144823764Y-110040127D01*
X144823572Y-110039043D01*
X144823233Y-110038621D01*
X144823260Y-110037270D01*
X144819000Y-110013108D01*
X144819000Y-109550025D01*
X146275000Y-109550025D01*
X146275000Y-109600000D01*
X147250000Y-109600000D01*
X147250000Y-108850000D01*
X147750000Y-108850000D01*
X147750000Y-109600000D01*
X148724999Y-109600000D01*
X148724999Y-109550024D01*
X148714712Y-109449322D01*
X148727938Y-109396927D01*
X148771750Y-109365291D01*
X148808712Y-109363812D01*
X148827252Y-109367500D01*
X148827255Y-109367500D01*
X150016748Y-109367500D01*
X150075231Y-109355867D01*
X150141552Y-109311552D01*
X150185867Y-109245231D01*
X150197500Y-109186748D01*
X150197500Y-108547252D01*
X150185867Y-108488769D01*
X150141552Y-108422448D01*
X150075231Y-108378133D01*
X150075230Y-108378132D01*
X150075231Y-108378132D01*
X150016748Y-108366500D01*
X148827252Y-108366500D01*
X148768769Y-108378132D01*
X148702448Y-108422448D01*
X148658132Y-108488769D01*
X148646500Y-108547252D01*
X148646500Y-109020116D01*
X148628018Y-109070896D01*
X148581218Y-109097916D01*
X148528000Y-109088532D01*
X148511639Y-109075977D01*
X148443346Y-109007684D01*
X148443343Y-109007682D01*
X148294122Y-108915641D01*
X148127695Y-108860493D01*
X148127696Y-108860493D01*
X148024975Y-108850000D01*
X147750000Y-108850000D01*
X147250000Y-108850000D01*
X146975024Y-108850000D01*
X146872308Y-108860493D01*
X146872298Y-108860495D01*
X146705877Y-108915641D01*
X146556656Y-109007682D01*
X146556653Y-109007684D01*
X146432684Y-109131653D01*
X146432682Y-109131656D01*
X146340641Y-109280877D01*
X146285493Y-109447303D01*
X146275000Y-109550025D01*
X144819000Y-109550025D01*
X144819000Y-109302664D01*
X144837482Y-109251884D01*
X144882589Y-109225182D01*
X144894231Y-109222867D01*
X144960552Y-109178552D01*
X145004867Y-109112231D01*
X145016500Y-109053748D01*
X145016500Y-108414252D01*
X145004867Y-108355769D01*
X144986238Y-108327889D01*
X144973393Y-108275402D01*
X144986237Y-108240110D01*
X145004867Y-108212231D01*
X145016500Y-108153748D01*
X145016500Y-107514252D01*
X145004867Y-107455769D01*
X144986238Y-107427889D01*
X144985290Y-107424016D01*
X144982315Y-107421358D01*
X144978963Y-107398164D01*
X144973393Y-107375402D01*
X144975000Y-107370736D01*
X144974587Y-107367874D01*
X144982416Y-107349216D01*
X144984767Y-107342396D01*
X144985478Y-107341247D01*
X145004867Y-107312231D01*
X145005535Y-107308871D01*
X145011095Y-107299897D01*
X145027587Y-107286908D01*
X145041772Y-107271428D01*
X145049711Y-107269485D01*
X145053549Y-107266463D01*
X145061103Y-107266697D01*
X145078252Y-107262501D01*
X145115246Y-107262501D01*
X145115248Y-107262501D01*
X145198797Y-107240114D01*
X145273704Y-107196866D01*
X146201701Y-106268867D01*
X146201704Y-106268866D01*
X146239899Y-106230671D01*
X146449000Y-106230671D01*
X146449000Y-106367328D01*
X146484368Y-106499325D01*
X146484369Y-106499327D01*
X146552698Y-106617675D01*
X146649324Y-106714301D01*
X146649326Y-106714302D01*
X146649327Y-106714303D01*
X146767674Y-106782631D01*
X146899672Y-106818000D01*
X146989709Y-106818000D01*
X147005916Y-106823898D01*
X147023096Y-106825402D01*
X147037220Y-106835292D01*
X147040489Y-106836482D01*
X147045570Y-106841139D01*
X147055370Y-106850939D01*
X147055375Y-106850945D01*
X147055376Y-106850945D01*
X147058132Y-106853701D01*
X147058134Y-106853704D01*
X147119296Y-106914866D01*
X147194204Y-106958114D01*
X147277752Y-106980500D01*
X147488237Y-106980500D01*
X147503694Y-106986126D01*
X147520108Y-106987214D01*
X147535343Y-106997644D01*
X147539017Y-106998982D01*
X147542909Y-107002474D01*
X147543514Y-107003054D01*
X147615684Y-107075224D01*
X147621734Y-107078045D01*
X147631172Y-107087093D01*
X147637669Y-107100294D01*
X147648081Y-107110694D01*
X147652427Y-107130274D01*
X147655037Y-107135577D01*
X147654284Y-107138642D01*
X147655500Y-107144119D01*
X147655500Y-107170500D01*
X147637018Y-107221280D01*
X147590218Y-107248300D01*
X147576500Y-107249500D01*
X146970734Y-107249500D01*
X146959601Y-107250544D01*
X146940303Y-107252353D01*
X146940300Y-107252354D01*
X146812120Y-107297205D01*
X146812117Y-107297207D01*
X146702849Y-107377849D01*
X146622207Y-107487117D01*
X146622205Y-107487120D01*
X146577354Y-107615300D01*
X146577353Y-107615303D01*
X146574500Y-107645738D01*
X146574500Y-108254261D01*
X146577353Y-108284696D01*
X146577354Y-108284699D01*
X146622205Y-108412879D01*
X146622207Y-108412882D01*
X146702849Y-108522150D01*
X146736862Y-108547252D01*
X146811249Y-108602152D01*
X146812117Y-108602792D01*
X146812120Y-108602794D01*
X146852610Y-108616961D01*
X146940301Y-108647646D01*
X146970734Y-108650500D01*
X146970739Y-108650500D01*
X148029261Y-108650500D01*
X148029266Y-108650500D01*
X148059699Y-108647646D01*
X148187882Y-108602793D01*
X148297150Y-108522150D01*
X148377793Y-108412882D01*
X148422646Y-108284699D01*
X148425500Y-108254266D01*
X148425500Y-108167000D01*
X150947000Y-108167000D01*
X150947000Y-108264835D01*
X150953401Y-108324369D01*
X150953403Y-108324381D01*
X151003643Y-108459083D01*
X151003650Y-108459094D01*
X151089810Y-108574189D01*
X151204903Y-108660348D01*
X151205355Y-108660595D01*
X151205591Y-108660863D01*
X151209434Y-108663740D01*
X151208832Y-108664543D01*
X151241069Y-108701151D01*
X151246500Y-108729935D01*
X151246500Y-109186747D01*
X151258132Y-109245230D01*
X151258133Y-109245231D01*
X151302448Y-109311552D01*
X151368769Y-109355867D01*
X151368768Y-109355867D01*
X151427252Y-109367500D01*
X152616748Y-109367500D01*
X152675231Y-109355867D01*
X152741552Y-109311552D01*
X152785867Y-109245231D01*
X152785868Y-109245225D01*
X152786263Y-109244273D01*
X152787164Y-109243289D01*
X152790190Y-109238761D01*
X152790886Y-109239226D01*
X152822769Y-109204429D01*
X152859252Y-109195500D01*
X153379386Y-109195500D01*
X153430166Y-109213982D01*
X153435236Y-109218628D01*
X153461838Y-109245230D01*
X153486659Y-109270051D01*
X153599693Y-109327645D01*
X153599695Y-109327645D01*
X153599696Y-109327646D01*
X153693481Y-109342500D01*
X154306518Y-109342499D01*
X154400304Y-109327646D01*
X154513342Y-109270050D01*
X154603050Y-109180342D01*
X154660646Y-109067304D01*
X154675500Y-108973519D01*
X154675499Y-108510482D01*
X154660646Y-108416696D01*
X154603050Y-108303658D01*
X154603049Y-108303657D01*
X154603048Y-108303655D01*
X154513343Y-108213950D01*
X154513340Y-108213948D01*
X154400306Y-108156354D01*
X154400302Y-108156353D01*
X154306530Y-108141501D01*
X154306522Y-108141500D01*
X154306519Y-108141500D01*
X154306514Y-108141500D01*
X153693484Y-108141500D01*
X153617345Y-108153558D01*
X153599696Y-108156354D01*
X153544213Y-108184623D01*
X153486655Y-108213951D01*
X153396950Y-108303656D01*
X153396948Y-108303659D01*
X153339354Y-108416693D01*
X153339353Y-108416697D01*
X153330617Y-108471858D01*
X153323540Y-108484623D01*
X153321006Y-108499000D01*
X153310847Y-108507524D01*
X153304419Y-108519122D01*
X153290792Y-108524352D01*
X153279610Y-108533736D01*
X153255082Y-108538060D01*
X153253969Y-108538488D01*
X153252590Y-108538500D01*
X153124516Y-108538500D01*
X153073736Y-108520018D01*
X153046716Y-108473218D01*
X153050497Y-108431893D01*
X153090596Y-108324381D01*
X153090598Y-108324369D01*
X153097000Y-108264835D01*
X153097000Y-108167000D01*
X150947000Y-108167000D01*
X148425500Y-108167000D01*
X148425500Y-107645734D01*
X148422646Y-107615301D01*
X148377793Y-107487118D01*
X148369543Y-107475939D01*
X148327936Y-107419563D01*
X148312500Y-107372652D01*
X148312500Y-107144119D01*
X148330982Y-107093339D01*
X148336828Y-107087093D01*
X148346265Y-107078045D01*
X148352316Y-107075224D01*
X148424485Y-107003054D01*
X148425091Y-107002474D01*
X148449115Y-106991881D01*
X148472878Y-106980801D01*
X148474398Y-106980734D01*
X148474538Y-106980673D01*
X148474703Y-106980721D01*
X148479763Y-106980500D01*
X148567500Y-106980500D01*
X148618280Y-106998982D01*
X148645300Y-107045782D01*
X148646500Y-107059500D01*
X148646500Y-107286747D01*
X148658132Y-107345230D01*
X148665613Y-107356426D01*
X148702448Y-107411552D01*
X148768769Y-107455867D01*
X148768768Y-107455867D01*
X148827252Y-107467500D01*
X150016748Y-107467500D01*
X150075231Y-107455867D01*
X150141552Y-107411552D01*
X150185867Y-107345231D01*
X150197500Y-107286748D01*
X150197500Y-106647252D01*
X150185867Y-106588769D01*
X150141552Y-106522448D01*
X150075231Y-106478133D01*
X150075230Y-106478132D01*
X150075231Y-106478132D01*
X150016748Y-106466500D01*
X149707500Y-106466500D01*
X149656720Y-106448018D01*
X149629700Y-106401218D01*
X149628500Y-106387500D01*
X149628500Y-106030869D01*
X149646982Y-105980089D01*
X149681408Y-105956302D01*
X149762879Y-105927794D01*
X149762878Y-105927794D01*
X149762882Y-105927793D01*
X149872150Y-105847150D01*
X149952793Y-105737882D01*
X149997646Y-105609699D01*
X150000500Y-105579266D01*
X150000500Y-105574975D01*
X150200001Y-105574975D01*
X150210493Y-105677691D01*
X150210495Y-105677701D01*
X150265641Y-105844122D01*
X150357682Y-105993343D01*
X150357684Y-105993346D01*
X150481653Y-106117315D01*
X150481656Y-106117317D01*
X150630877Y-106209358D01*
X150797304Y-106264506D01*
X150797303Y-106264506D01*
X150900024Y-106274999D01*
X150949999Y-106274998D01*
X150950000Y-106274998D01*
X150950000Y-105300000D01*
X150200001Y-105300000D01*
X150200001Y-105574975D01*
X150000500Y-105574975D01*
X150000500Y-104525025D01*
X150200000Y-104525025D01*
X150200000Y-104800000D01*
X150950000Y-104800000D01*
X150950000Y-103824999D01*
X150900025Y-103825000D01*
X150797308Y-103835493D01*
X150797298Y-103835495D01*
X150630877Y-103890641D01*
X150481656Y-103982682D01*
X150481653Y-103982684D01*
X150357684Y-104106653D01*
X150357682Y-104106656D01*
X150265641Y-104255877D01*
X150210493Y-104422303D01*
X150200000Y-104525025D01*
X150000500Y-104525025D01*
X150000500Y-104520734D01*
X149997646Y-104490301D01*
X149966048Y-104399999D01*
X149952794Y-104362120D01*
X149952792Y-104362117D01*
X149872150Y-104252849D01*
X149762882Y-104172207D01*
X149762879Y-104172205D01*
X149634699Y-104127354D01*
X149634696Y-104127353D01*
X149616278Y-104125626D01*
X149604266Y-104124500D01*
X148995734Y-104124500D01*
X148984601Y-104125544D01*
X148965303Y-104127353D01*
X148965300Y-104127354D01*
X148837120Y-104172205D01*
X148837117Y-104172207D01*
X148727849Y-104252849D01*
X148647207Y-104362117D01*
X148647205Y-104362120D01*
X148602354Y-104490300D01*
X148602353Y-104490303D01*
X148599500Y-104520738D01*
X148599500Y-104933421D01*
X148581018Y-104984201D01*
X148534218Y-105011221D01*
X148481000Y-105001837D01*
X148480286Y-105001420D01*
X148410192Y-104959966D01*
X148254917Y-104914856D01*
X148254903Y-104914853D01*
X148234000Y-104913208D01*
X148234000Y-105613000D01*
X148215518Y-105663780D01*
X148168718Y-105690800D01*
X148155000Y-105692000D01*
X147984000Y-105692000D01*
X147984000Y-105863000D01*
X147965518Y-105913780D01*
X147918718Y-105940800D01*
X147905000Y-105942000D01*
X147377698Y-105942000D01*
X147326918Y-105923518D01*
X147321847Y-105918871D01*
X147286673Y-105883697D01*
X147237232Y-105855152D01*
X147168327Y-105815369D01*
X147168325Y-105815368D01*
X147036328Y-105780000D01*
X146899672Y-105780000D01*
X146899671Y-105780000D01*
X146767674Y-105815368D01*
X146767672Y-105815369D01*
X146649324Y-105883698D01*
X146552698Y-105980324D01*
X146484369Y-106098672D01*
X146484368Y-106098674D01*
X146449000Y-106230671D01*
X146239899Y-106230671D01*
X146262866Y-106207704D01*
X146306114Y-106132796D01*
X146328500Y-106049248D01*
X146328500Y-105484864D01*
X146329470Y-105482197D01*
X146328684Y-105479471D01*
X146338608Y-105457089D01*
X146344101Y-105442000D01*
X147179494Y-105442000D01*
X147734000Y-105442000D01*
X147734000Y-104913208D01*
X147733999Y-104913208D01*
X147713096Y-104914853D01*
X147713082Y-104914856D01*
X147557807Y-104959966D01*
X147557804Y-104959967D01*
X147418621Y-105042281D01*
X147418615Y-105042286D01*
X147304286Y-105156615D01*
X147304281Y-105156621D01*
X147221967Y-105295804D01*
X147221966Y-105295807D01*
X147179494Y-105442000D01*
X146344101Y-105442000D01*
X146346982Y-105434084D01*
X146349782Y-105431892D01*
X146350590Y-105430071D01*
X146358185Y-105425317D01*
X146372762Y-105413911D01*
X146380462Y-105410140D01*
X146383126Y-105409719D01*
X146503220Y-105348528D01*
X146598528Y-105253220D01*
X146652835Y-105146635D01*
X146692357Y-105109781D01*
X146723225Y-105103501D01*
X146768246Y-105103501D01*
X146768248Y-105103501D01*
X146851797Y-105081114D01*
X146926704Y-105037866D01*
X146926706Y-105037864D01*
X146930019Y-105035323D01*
X146978108Y-105019000D01*
X147068326Y-105019000D01*
X147068328Y-105019000D01*
X147200326Y-104983631D01*
X147318673Y-104915303D01*
X147415303Y-104818673D01*
X147483631Y-104700326D01*
X147519000Y-104568328D01*
X147519000Y-104431672D01*
X147483631Y-104299674D01*
X147481958Y-104296777D01*
X147436802Y-104218565D01*
X147415303Y-104181327D01*
X147415302Y-104181326D01*
X147415301Y-104181324D01*
X147318675Y-104084698D01*
X147200327Y-104016369D01*
X147200325Y-104016368D01*
X147068328Y-103981000D01*
X146931672Y-103981000D01*
X146931669Y-103981000D01*
X146926541Y-103981676D01*
X146926224Y-103979271D01*
X146881351Y-103975326D01*
X146843156Y-103937098D01*
X146838470Y-103883263D01*
X146847531Y-103862268D01*
X146911547Y-103758482D01*
X146964856Y-103597606D01*
X146975000Y-103498310D01*
X146975000Y-103475000D01*
X143525001Y-103475000D01*
X143525001Y-103498311D01*
X143535143Y-103597601D01*
X143535145Y-103597611D01*
X143588452Y-103758484D01*
X143677426Y-103902731D01*
X143677428Y-103902734D01*
X143797265Y-104022571D01*
X143797268Y-104022573D01*
X143945432Y-104113963D01*
X143944199Y-104115960D01*
X143976488Y-104148245D01*
X143981201Y-104202078D01*
X143960754Y-104237497D01*
X143901472Y-104296779D01*
X143840280Y-104416875D01*
X143840279Y-104416880D01*
X143824501Y-104516500D01*
X143824500Y-104516516D01*
X143824500Y-105033483D01*
X143824501Y-105033499D01*
X143840279Y-105133119D01*
X143840280Y-105133124D01*
X143901473Y-105253222D01*
X143996777Y-105348526D01*
X143996779Y-105348527D01*
X143996780Y-105348528D01*
X144116874Y-105409719D01*
X144216512Y-105425500D01*
X144216517Y-105425500D01*
X144410083Y-105425500D01*
X144460863Y-105443982D01*
X144487883Y-105490782D01*
X144478499Y-105544000D01*
X144462912Y-105560643D01*
X144463958Y-105561689D01*
X144458456Y-105567190D01*
X144458456Y-105567191D01*
X143615286Y-106410361D01*
X143566311Y-106433199D01*
X143559426Y-106433500D01*
X143452252Y-106433500D01*
X143393769Y-106445132D01*
X143327448Y-106489448D01*
X143283132Y-106555769D01*
X143271500Y-106614252D01*
X143271500Y-106634810D01*
X143253018Y-106685590D01*
X143206218Y-106712610D01*
X143156635Y-106705199D01*
X142984840Y-106617664D01*
X142984819Y-106617655D01*
X142788357Y-106553821D01*
X142788334Y-106553815D01*
X142584307Y-106521501D01*
X142584291Y-106521500D01*
X142377709Y-106521500D01*
X142377692Y-106521501D01*
X142173665Y-106553815D01*
X142173642Y-106553821D01*
X141977180Y-106617655D01*
X141977164Y-106617662D01*
X141793100Y-106711448D01*
X141746127Y-106745575D01*
X142341384Y-107340830D01*
X142283183Y-107356426D01*
X142166318Y-107423898D01*
X142070898Y-107519318D01*
X142003426Y-107636183D01*
X141987831Y-107694383D01*
X141392575Y-107099127D01*
X141358448Y-107146100D01*
X141264662Y-107330164D01*
X141264655Y-107330180D01*
X141200821Y-107526642D01*
X141200815Y-107526665D01*
X141168501Y-107730692D01*
X141168500Y-107730708D01*
X140589000Y-107730708D01*
X140589000Y-102753400D01*
X140591692Y-102732954D01*
X140600536Y-102699946D01*
X140600537Y-102699944D01*
X140620981Y-102664533D01*
X140637533Y-102647981D01*
X140672944Y-102627536D01*
X140697675Y-102620910D01*
X140705954Y-102618692D01*
X140726400Y-102616000D01*
X143504074Y-102616000D01*
X143554854Y-102634482D01*
G37*
G04 #@! TD.AperFunction*
G04 #@! TA.AperFunction,Conductor*
G36*
X144200136Y-113238982D02*
G01*
X144205217Y-113243639D01*
X144206861Y-113245283D01*
X144229699Y-113294259D01*
X144230000Y-113301144D01*
X144230000Y-113452000D01*
X144211518Y-113502780D01*
X144164718Y-113529800D01*
X144151000Y-113531000D01*
X143809000Y-113531000D01*
X143789712Y-113523980D01*
X143769500Y-113520416D01*
X143764918Y-113514955D01*
X143758220Y-113512518D01*
X143747958Y-113494743D01*
X143734764Y-113479020D01*
X143732954Y-113468756D01*
X143731200Y-113465718D01*
X143730000Y-113452000D01*
X143730000Y-113299500D01*
X143748482Y-113248720D01*
X143795282Y-113221700D01*
X143809000Y-113220500D01*
X144149356Y-113220500D01*
X144200136Y-113238982D01*
G37*
G04 #@! TD.AperFunction*
G04 #@! TA.AperFunction,Conductor*
G36*
X156053987Y-109568981D02*
G01*
X156059068Y-109573638D01*
X156610667Y-110125237D01*
X156633505Y-110174213D01*
X156623223Y-110220597D01*
X156596331Y-110267176D01*
X156560963Y-110399171D01*
X156560963Y-110535828D01*
X156596331Y-110667825D01*
X156596332Y-110667827D01*
X156664661Y-110786175D01*
X156761287Y-110882801D01*
X156761289Y-110882802D01*
X156761290Y-110882803D01*
X156879637Y-110951131D01*
X157011635Y-110986500D01*
X157011637Y-110986500D01*
X157148289Y-110986500D01*
X157148291Y-110986500D01*
X157280289Y-110951131D01*
X157398636Y-110882803D01*
X157495266Y-110786173D01*
X157563594Y-110667826D01*
X157587410Y-110578942D01*
X157618405Y-110534676D01*
X157670603Y-110520690D01*
X157719579Y-110543527D01*
X157719579Y-110543528D01*
X157786125Y-110610074D01*
X157931601Y-110698017D01*
X158093894Y-110748591D01*
X158164424Y-110754999D01*
X158246000Y-110754999D01*
X158246000Y-109934000D01*
X158264482Y-109883220D01*
X158311282Y-109856200D01*
X158325000Y-109855000D01*
X158667000Y-109855000D01*
X158717780Y-109873482D01*
X158744800Y-109920282D01*
X158746000Y-109934000D01*
X158746000Y-110754999D01*
X158827575Y-110754999D01*
X158898101Y-110748591D01*
X158898109Y-110748589D01*
X159060398Y-110698017D01*
X159205874Y-110610074D01*
X159250139Y-110565810D01*
X159299115Y-110542972D01*
X159351313Y-110556958D01*
X159382308Y-110601224D01*
X159385000Y-110621671D01*
X159385000Y-110843500D01*
X159366518Y-110894280D01*
X159319718Y-110921300D01*
X159306000Y-110922500D01*
X159183900Y-110922500D01*
X159067798Y-110953609D01*
X159067795Y-110953610D01*
X158963701Y-111013709D01*
X158878709Y-111098701D01*
X158818610Y-111202795D01*
X158818609Y-111202798D01*
X158787500Y-111318900D01*
X158787500Y-111439101D01*
X158797048Y-111474735D01*
X158797049Y-111474736D01*
X158792339Y-111528570D01*
X158776602Y-111551044D01*
X158746285Y-111581361D01*
X158697309Y-111604199D01*
X158690424Y-111604500D01*
X158189484Y-111604500D01*
X158113345Y-111616558D01*
X158095696Y-111619354D01*
X158040213Y-111647623D01*
X157982655Y-111676951D01*
X157892950Y-111766656D01*
X157892948Y-111766659D01*
X157835354Y-111879693D01*
X157835353Y-111879697D01*
X157826221Y-111937358D01*
X157819144Y-111950123D01*
X157816610Y-111964500D01*
X157806451Y-111973024D01*
X157800023Y-111984622D01*
X157786396Y-111989852D01*
X157775214Y-111999236D01*
X157750686Y-112003560D01*
X157749573Y-112003988D01*
X157748194Y-112004000D01*
X157624500Y-112004000D01*
X157573720Y-111985518D01*
X157546700Y-111938718D01*
X157545500Y-111925000D01*
X157545500Y-111898252D01*
X157533867Y-111839769D01*
X157522596Y-111822901D01*
X157489552Y-111773448D01*
X157423231Y-111729133D01*
X157423230Y-111729132D01*
X157423231Y-111729132D01*
X157364748Y-111717500D01*
X156325252Y-111717500D01*
X156266769Y-111729132D01*
X156200448Y-111773448D01*
X156156132Y-111839769D01*
X156144500Y-111898252D01*
X156144500Y-112489208D01*
X156126018Y-112539988D01*
X156079218Y-112567008D01*
X156026000Y-112557624D01*
X156009639Y-112545069D01*
X155797639Y-112333069D01*
X155774801Y-112284093D01*
X155774500Y-112277208D01*
X155774500Y-109629499D01*
X155781519Y-109610211D01*
X155785084Y-109589999D01*
X155790544Y-109585417D01*
X155792982Y-109578719D01*
X155810756Y-109568457D01*
X155826480Y-109555263D01*
X155836743Y-109553453D01*
X155839782Y-109551699D01*
X155853488Y-109550499D01*
X156003207Y-109550499D01*
X156053987Y-109568981D01*
G37*
G04 #@! TD.AperFunction*
M02*
