G04 #@! TF.GenerationSoftware,KiCad,Pcbnew,9.0.4*
G04 #@! TF.CreationDate,2025-10-20T22:41:46-04:00*
G04 #@! TF.ProjectId,the-spirit-board,7468652d-7370-4697-9269-742d626f6172,rev?*
G04 #@! TF.SameCoordinates,Original*
G04 #@! TF.FileFunction,Copper,L1,Top*
G04 #@! TF.FilePolarity,Positive*
%FSLAX46Y46*%
G04 Gerber Fmt 4.6, Leading zero omitted, Abs format (unit mm)*
G04 Created by KiCad (PCBNEW 9.0.4) date 2025-10-20 22:41:46*
%MOMM*%
%LPD*%
G01*
G04 APERTURE LIST*
G04 Aperture macros list*
%AMRoundRect*
0 Rectangle with rounded corners*
0 $1 Rounding radius*
0 $2 $3 $4 $5 $6 $7 $8 $9 X,Y pos of 4 corners*
0 Add a 4 corners polygon primitive as box body*
4,1,4,$2,$3,$4,$5,$6,$7,$8,$9,$2,$3,0*
0 Add four circle primitives for the rounded corners*
1,1,$1+$1,$2,$3*
1,1,$1+$1,$4,$5*
1,1,$1+$1,$6,$7*
1,1,$1+$1,$8,$9*
0 Add four rect primitives between the rounded corners*
20,1,$1+$1,$2,$3,$4,$5,0*
20,1,$1+$1,$4,$5,$6,$7,0*
20,1,$1+$1,$6,$7,$8,$9,0*
20,1,$1+$1,$8,$9,$2,$3,0*%
G04 Aperture macros list end*
G04 #@! TA.AperFunction,SMDPad,CuDef*
%ADD10RoundRect,0.120000X-0.280000X0.880000X-0.280000X-0.880000X0.280000X-0.880000X0.280000X0.880000X0*%
G04 #@! TD*
G04 #@! TA.AperFunction,SMDPad,CuDef*
%ADD11RoundRect,0.218750X0.218750X0.256250X-0.218750X0.256250X-0.218750X-0.256250X0.218750X-0.256250X0*%
G04 #@! TD*
G04 #@! TA.AperFunction,SMDPad,CuDef*
%ADD12RoundRect,0.200000X-0.200000X-0.275000X0.200000X-0.275000X0.200000X0.275000X-0.200000X0.275000X0*%
G04 #@! TD*
G04 #@! TA.AperFunction,SMDPad,CuDef*
%ADD13R,0.900000X1.500000*%
G04 #@! TD*
G04 #@! TA.AperFunction,SMDPad,CuDef*
%ADD14R,0.800000X0.800000*%
G04 #@! TD*
G04 #@! TA.AperFunction,ComponentPad*
%ADD15C,1.625000*%
G04 #@! TD*
G04 #@! TA.AperFunction,ViaPad*
%ADD16C,0.637000*%
G04 #@! TD*
G04 #@! TA.AperFunction,ViaPad*
%ADD17C,0.512000*%
G04 #@! TD*
G04 #@! TA.AperFunction,Conductor*
%ADD18C,0.256000*%
G04 #@! TD*
G04 #@! TA.AperFunction,Conductor*
%ADD19C,0.127000*%
G04 #@! TD*
G04 APERTURE END LIST*
D10*
X161500000Y-144000000D03*
X160000000Y-144000000D03*
X158500000Y-144000000D03*
X157000000Y-144000000D03*
X155500000Y-144000000D03*
X154000000Y-144000000D03*
X152500000Y-144000000D03*
X151000000Y-144000000D03*
X149500000Y-144000000D03*
X148000000Y-144000000D03*
X146500000Y-144000000D03*
X145000000Y-144000000D03*
X143500000Y-144000000D03*
D11*
X156870500Y-109474000D03*
X155295500Y-109474000D03*
D12*
X152210000Y-109474000D03*
X153860000Y-109474000D03*
D13*
X158920000Y-123305000D03*
X157650000Y-123305000D03*
X156380000Y-123305000D03*
X155110000Y-123305000D03*
X153840000Y-123305000D03*
X152570000Y-123305000D03*
X151300000Y-123305000D03*
X150030000Y-123305000D03*
X148760000Y-123305000D03*
X147490000Y-123305000D03*
X146220000Y-123305000D03*
X144950000Y-123305000D03*
X143680000Y-123305000D03*
X142410000Y-123305000D03*
X142410000Y-140805000D03*
X143680000Y-140805000D03*
X144950000Y-140805000D03*
X146220000Y-140805000D03*
X147490000Y-140805000D03*
X148760000Y-140805000D03*
X150030000Y-140805000D03*
X151300000Y-140805000D03*
X152570000Y-140805000D03*
X153840000Y-140805000D03*
X155110000Y-140805000D03*
X156380000Y-140805000D03*
X157650000Y-140805000D03*
X158920000Y-140805000D03*
D14*
X153200000Y-130550000D03*
X154450000Y-129300000D03*
X153200000Y-129300000D03*
X151950000Y-129300000D03*
X151950000Y-130550000D03*
X151950000Y-131800000D03*
X153200000Y-131800000D03*
X154450000Y-131800000D03*
X154450000Y-130550000D03*
D15*
X142481000Y-107834000D03*
D16*
X155480963Y-128237037D03*
X143668000Y-142113000D03*
X145161000Y-133604000D03*
X158115000Y-110998000D03*
X147000000Y-117000000D03*
X142875000Y-131699000D03*
X149500000Y-133500000D03*
X145034000Y-121285000D03*
X147614500Y-131445000D03*
X151003000Y-128143000D03*
X143002000Y-121285000D03*
D17*
X152908000Y-114173000D03*
D16*
X152005750Y-121693324D03*
X153543000Y-132718502D03*
X152019000Y-134620000D03*
D17*
X149236500Y-138179076D03*
D16*
X157214307Y-138972496D03*
X144876463Y-137891463D03*
X141732000Y-113411000D03*
X147000000Y-104500000D03*
X157353000Y-121920000D03*
X151892000Y-127254000D03*
X152006497Y-125222000D03*
X150749000Y-113157000D03*
X146968000Y-106299000D03*
X157226000Y-135382000D03*
X150802000Y-116459000D03*
X143318500Y-142873539D03*
X159888502Y-140208000D03*
D17*
X144653000Y-110490000D03*
X157119500Y-125984000D03*
X145708389Y-142506074D03*
X150356500Y-138007457D03*
X145188315Y-142019792D03*
X146945399Y-139691555D03*
X149352000Y-142505500D03*
X146431000Y-124968000D03*
X147206201Y-142505500D03*
X149352000Y-120788500D03*
X149987000Y-131953000D03*
X157119500Y-133096000D03*
X145288000Y-105791000D03*
X147587948Y-127296578D03*
X152781000Y-125222000D03*
X144907000Y-124841000D03*
X150495000Y-120269000D03*
X146431000Y-142494000D03*
X151384000Y-111760000D03*
X152019198Y-138105613D03*
X151003000Y-130175000D03*
X154559000Y-121412000D03*
X156337000Y-118618000D03*
X156600000Y-139446000D03*
X147193000Y-127889000D03*
X153320500Y-136017000D03*
X156488651Y-142469349D03*
X148971000Y-136867503D03*
X153543000Y-116078000D03*
X143891000Y-138303000D03*
X143891000Y-107950000D03*
X148628656Y-142516841D03*
X151257000Y-124714000D03*
X150241000Y-135636000D03*
X144526000Y-139065000D03*
X154559000Y-138176000D03*
X155785067Y-142360183D03*
X157353000Y-124511002D03*
X150876000Y-134620000D03*
X147917168Y-142543889D03*
X157119500Y-128016000D03*
X154230500Y-142494000D03*
X159232876Y-142543938D03*
X158724500Y-118618000D03*
X158110027Y-142554590D03*
X152075613Y-136524802D03*
X159944876Y-142545682D03*
X154928500Y-134366000D03*
X151519500Y-142494000D03*
X158724500Y-114935000D03*
X157574951Y-142084865D03*
X159244000Y-111379000D03*
X160655000Y-142494000D03*
X157480000Y-139700000D03*
D16*
X157079963Y-110467500D03*
X149565500Y-124968000D03*
D17*
X155436500Y-130556000D03*
X153416000Y-142367000D03*
X150483500Y-132715000D03*
D18*
X154450000Y-129268000D02*
X155480963Y-128237037D01*
X154450000Y-129300000D02*
X154450000Y-129268000D01*
X144113000Y-142113000D02*
X143668000Y-142113000D01*
X151950000Y-129090000D02*
X151003000Y-128143000D01*
X145000000Y-143000000D02*
X144113000Y-142113000D01*
X151950000Y-129300000D02*
X151950000Y-129090000D01*
X145000000Y-144000000D02*
X145000000Y-143000000D01*
D19*
X155438000Y-118455099D02*
X155438000Y-116703000D01*
X156380000Y-119397099D02*
X155438000Y-118455099D01*
X156380000Y-123305000D02*
X156380000Y-119397099D01*
X155438000Y-116703000D02*
X152908000Y-114173000D01*
D18*
X157938000Y-134670000D02*
X157938000Y-123593000D01*
X157650000Y-123305000D02*
X157650000Y-122217000D01*
X157650000Y-122217000D02*
X157353000Y-121920000D01*
X157226000Y-135382000D02*
X157938000Y-134670000D01*
X157938000Y-123593000D02*
X157650000Y-123305000D01*
X143500000Y-144000000D02*
X143500000Y-143055039D01*
X143500000Y-143055039D02*
X143318500Y-142873539D01*
D19*
X156599000Y-131959401D02*
X156599000Y-126504500D01*
X153840000Y-134718401D02*
X156599000Y-131959401D01*
X156599000Y-126504500D02*
X157119500Y-125984000D01*
X153840000Y-140805000D02*
X153840000Y-134718401D01*
X152570000Y-137920316D02*
X152234797Y-137585113D01*
X152570000Y-140805000D02*
X152570000Y-137920316D01*
X152234797Y-137585113D02*
X150778844Y-137585113D01*
X150778844Y-137585113D02*
X150356500Y-138007457D01*
X150749000Y-141986000D02*
X146942000Y-141986000D01*
X146942000Y-141986000D02*
X146220000Y-141264000D01*
X145464208Y-142019792D02*
X145188315Y-142019792D01*
X151000000Y-144000000D02*
X151000000Y-142237000D01*
X151000000Y-142237000D02*
X150749000Y-141986000D01*
X146220000Y-141264000D02*
X145464208Y-142019792D01*
X146220000Y-141264000D02*
X146220000Y-140805000D01*
X146945399Y-140260399D02*
X146945399Y-139691555D01*
X147490000Y-140805000D02*
X146945399Y-140260399D01*
X149500000Y-142653500D02*
X149352000Y-142505500D01*
X149500000Y-144000000D02*
X149500000Y-142653500D01*
X146431000Y-124968000D02*
X146431000Y-124817610D01*
X146431000Y-124817610D02*
X147490000Y-123758610D01*
X147490000Y-123758610D02*
X147490000Y-123305000D01*
X148277500Y-120788500D02*
X149352000Y-120788500D01*
X147858078Y-126776078D02*
X149987000Y-128905000D01*
X146220000Y-123305000D02*
X146220000Y-122846000D01*
X145910500Y-123614500D02*
X145910500Y-125183599D01*
X145910500Y-125183599D02*
X147502979Y-126776078D01*
X146220000Y-123305000D02*
X145910500Y-123614500D01*
X146220000Y-122846000D02*
X148277500Y-120788500D01*
X147502979Y-126776078D02*
X147858078Y-126776078D01*
X149987000Y-128905000D02*
X149987000Y-131953000D01*
X155110000Y-140805000D02*
X155110000Y-135105500D01*
X155110000Y-135105500D02*
X157119500Y-133096000D01*
X143680000Y-123305000D02*
X143680000Y-124350099D01*
X146626479Y-127296578D02*
X147587948Y-127296578D01*
X143680000Y-124350099D02*
X146626479Y-127296578D01*
X152570000Y-123305000D02*
X152570000Y-125011000D01*
X152570000Y-125011000D02*
X152781000Y-125222000D01*
X144950000Y-122846000D02*
X147527000Y-120269000D01*
X144907000Y-124841000D02*
X144950000Y-124798000D01*
X144950000Y-123305000D02*
X144950000Y-122846000D01*
X144950000Y-124798000D02*
X144950000Y-123305000D01*
X146500000Y-142563000D02*
X146431000Y-142494000D01*
X147527000Y-120269000D02*
X150495000Y-120269000D01*
X146500000Y-144000000D02*
X146500000Y-142563000D01*
X148760000Y-122740099D02*
X151384000Y-120116099D01*
X148760000Y-123305000D02*
X148760000Y-122740099D01*
X151384000Y-120116099D02*
X151384000Y-111760000D01*
X150030000Y-140805000D02*
X150030000Y-140094811D01*
X150030000Y-140094811D02*
X152019198Y-138105613D01*
X144950000Y-140805000D02*
X144950000Y-139928000D01*
X151396500Y-134404401D02*
X151003000Y-134010901D01*
X151003000Y-134010901D02*
X151003000Y-130175000D01*
X148529997Y-136348003D02*
X150265096Y-136348003D01*
X150265096Y-136348003D02*
X151396500Y-135216599D01*
X144950000Y-139928000D02*
X148529997Y-136348003D01*
X151396500Y-135216599D02*
X151396500Y-134404401D01*
X153840000Y-122131000D02*
X154559000Y-121412000D01*
X153840000Y-123305000D02*
X153840000Y-122131000D01*
X156380000Y-140805000D02*
X156380000Y-139666000D01*
X156380000Y-139666000D02*
X156600000Y-139446000D01*
X142410000Y-123305000D02*
X142410000Y-123614000D01*
X142410000Y-123614000D02*
X146685000Y-127889000D01*
X146685000Y-127889000D02*
X147193000Y-127889000D01*
X152933901Y-127127000D02*
X154432000Y-127127000D01*
X155194000Y-127127000D02*
X156271000Y-128204000D01*
X150030000Y-124223099D02*
X152933901Y-127127000D01*
X150030000Y-123305000D02*
X150030000Y-124223099D01*
X156271000Y-131445000D02*
X153320500Y-134395500D01*
X152210000Y-120666000D02*
X152210000Y-109474000D01*
X154432000Y-127127000D02*
X155194000Y-127127000D01*
X156271000Y-128204000D02*
X156271000Y-131445000D01*
X153320500Y-134395500D02*
X153320500Y-136017000D01*
X150030000Y-122846000D02*
X152210000Y-120666000D01*
X150030000Y-123305000D02*
X150030000Y-122846000D01*
X148717000Y-137121503D02*
X148717000Y-140762000D01*
X148971000Y-136867503D02*
X148717000Y-137121503D01*
X148717000Y-140762000D02*
X148760000Y-140805000D01*
X155110000Y-123305000D02*
X155110000Y-117645000D01*
X155110000Y-117645000D02*
X153543000Y-116078000D01*
X143680000Y-138514000D02*
X143891000Y-138303000D01*
X143680000Y-140805000D02*
X143680000Y-138514000D01*
X151257000Y-124714000D02*
X151300000Y-124671000D01*
X151300000Y-124671000D02*
X151300000Y-123305000D01*
X147955000Y-135636000D02*
X150241000Y-135636000D01*
X144526000Y-139065000D02*
X147955000Y-135636000D01*
X144526000Y-139065000D02*
X144665500Y-138925500D01*
X155500000Y-144000000D02*
X155500000Y-142645250D01*
X155500000Y-142645250D02*
X155785067Y-142360183D01*
X148000000Y-144000000D02*
X148000000Y-142626721D01*
X148000000Y-142626721D02*
X147917168Y-142543889D01*
X154230500Y-143769500D02*
X154230500Y-142494000D01*
X154000000Y-144000000D02*
X154230500Y-143769500D01*
X158500000Y-144000000D02*
X159232876Y-143267124D01*
X159232876Y-143267124D02*
X159232876Y-142543938D01*
X160000000Y-142600806D02*
X160000000Y-144000000D01*
X159944876Y-142545682D02*
X160000000Y-142600806D01*
X157000000Y-144000000D02*
X157000000Y-142659816D01*
X157000000Y-142659816D02*
X157574951Y-142084865D01*
X157650000Y-140805000D02*
X157650000Y-139870000D01*
X157650000Y-139870000D02*
X157480000Y-139700000D01*
X153860000Y-109474000D02*
X155295500Y-109474000D01*
X142410000Y-139022000D02*
X148717000Y-132715000D01*
X148717000Y-132715000D02*
X150483500Y-132715000D01*
X142410000Y-140805000D02*
X142410000Y-139022000D01*
G04 #@! TA.AperFunction,Conductor*
G36*
X144348499Y-141698869D02*
G01*
X144350329Y-141696132D01*
X144421767Y-141743866D01*
X144421769Y-141743867D01*
X144480252Y-141755500D01*
X144705875Y-141755500D01*
X144750069Y-141773806D01*
X144768375Y-141818000D01*
X144763619Y-141841914D01*
X144762925Y-141843589D01*
X144731815Y-141959688D01*
X144731815Y-142079895D01*
X144762924Y-142195991D01*
X144762926Y-142195996D01*
X144788331Y-142240000D01*
X143129000Y-142240000D01*
X143129000Y-141815494D01*
X143147306Y-141771300D01*
X143191500Y-141752994D01*
X143203686Y-141754194D01*
X143210252Y-141755500D01*
X143210255Y-141755500D01*
X144149748Y-141755500D01*
X144208231Y-141743867D01*
X144240957Y-141722000D01*
X144279671Y-141696132D01*
X144281500Y-141698869D01*
X144315000Y-141684993D01*
X144348499Y-141698869D01*
G37*
G04 #@! TD.AperFunction*
G04 #@! TA.AperFunction,Conductor*
G36*
X159366694Y-102634306D02*
G01*
X159385000Y-102678500D01*
X159385000Y-110862725D01*
X159366694Y-110906919D01*
X159322500Y-110925225D01*
X159306328Y-110923096D01*
X159304108Y-110922501D01*
X159304099Y-110922500D01*
X159183901Y-110922500D01*
X159183896Y-110922500D01*
X159067800Y-110953609D01*
X159067798Y-110953610D01*
X158963701Y-111013709D01*
X158878709Y-111098701D01*
X158818610Y-111202798D01*
X158818609Y-111202800D01*
X158787500Y-111318896D01*
X158787500Y-111439103D01*
X158818609Y-111555199D01*
X158818610Y-111555202D01*
X158878709Y-111659298D01*
X158963702Y-111744291D01*
X159067798Y-111804390D01*
X159138850Y-111823428D01*
X159183896Y-111835499D01*
X159183898Y-111835499D01*
X159183901Y-111835500D01*
X159183903Y-111835500D01*
X159304099Y-111835500D01*
X159306316Y-111834906D01*
X159307464Y-111835057D01*
X159308164Y-111834965D01*
X159308188Y-111835152D01*
X159353743Y-111841144D01*
X159382868Y-111879090D01*
X159385000Y-111895274D01*
X159385000Y-121992500D01*
X159366694Y-122036694D01*
X159322500Y-122055000D01*
X159170000Y-122055000D01*
X159170000Y-124555000D01*
X159322500Y-124555000D01*
X159366694Y-124573306D01*
X159385000Y-124617500D01*
X159385000Y-139492500D01*
X159366694Y-139536694D01*
X159322500Y-139555000D01*
X159170000Y-139555000D01*
X159170000Y-142040224D01*
X159151694Y-142084418D01*
X159123677Y-142100594D01*
X159056676Y-142118547D01*
X159056674Y-142118548D01*
X158952577Y-142178647D01*
X158891224Y-142240000D01*
X158441026Y-142240000D01*
X158390322Y-142189296D01*
X158353341Y-142167945D01*
X158324221Y-142129995D01*
X158330465Y-142082569D01*
X158368415Y-142053449D01*
X158391274Y-142051677D01*
X158422169Y-142054999D01*
X158422178Y-142055000D01*
X158670000Y-142055000D01*
X158670000Y-139555000D01*
X158422164Y-139555000D01*
X158362622Y-139561402D01*
X158227908Y-139611647D01*
X158227905Y-139611649D01*
X158112813Y-139697808D01*
X158112808Y-139697813D01*
X158049033Y-139783006D01*
X158007894Y-139807415D01*
X157961545Y-139795584D01*
X157937136Y-139754445D01*
X157936500Y-139745551D01*
X157936500Y-139639902D01*
X157936499Y-139639896D01*
X157915466Y-139561402D01*
X157905390Y-139523798D01*
X157845291Y-139419702D01*
X157760298Y-139334709D01*
X157760295Y-139334706D01*
X157697555Y-139298483D01*
X157668435Y-139260533D01*
X157674679Y-139213107D01*
X157697938Y-139172822D01*
X157733307Y-139040824D01*
X157733307Y-138904168D01*
X157697938Y-138772170D01*
X157629610Y-138653823D01*
X157629608Y-138653821D01*
X157629605Y-138653817D01*
X157532985Y-138557197D01*
X157532981Y-138557194D01*
X157532980Y-138557193D01*
X157473806Y-138523029D01*
X157414632Y-138488864D01*
X157414628Y-138488863D01*
X157282641Y-138453497D01*
X157282636Y-138453496D01*
X157282635Y-138453496D01*
X157145979Y-138453496D01*
X157145978Y-138453496D01*
X157145972Y-138453497D01*
X157013985Y-138488863D01*
X157013981Y-138488864D01*
X156895632Y-138557194D01*
X156895628Y-138557197D01*
X156799008Y-138653817D01*
X156799005Y-138653821D01*
X156730675Y-138772170D01*
X156730674Y-138772174D01*
X156695308Y-138904161D01*
X156695307Y-138904169D01*
X156695307Y-138927000D01*
X156677001Y-138971194D01*
X156632807Y-138989500D01*
X156539896Y-138989500D01*
X156423800Y-139020609D01*
X156423798Y-139020610D01*
X156319701Y-139080709D01*
X156234709Y-139165701D01*
X156174610Y-139269798D01*
X156174609Y-139269800D01*
X156143500Y-139385896D01*
X156143500Y-139506103D01*
X156144679Y-139510501D01*
X156142051Y-139550592D01*
X156116000Y-139613487D01*
X156116000Y-139792000D01*
X156097694Y-139836194D01*
X156053500Y-139854500D01*
X155910252Y-139854500D01*
X155851769Y-139866132D01*
X155851767Y-139866133D01*
X155780329Y-139913868D01*
X155778499Y-139911130D01*
X155745000Y-139925007D01*
X155711500Y-139911130D01*
X155709671Y-139913868D01*
X155638232Y-139866133D01*
X155638230Y-139866132D01*
X155579748Y-139854500D01*
X155436500Y-139854500D01*
X155392306Y-139836194D01*
X155374000Y-139792000D01*
X155374000Y-135240739D01*
X155392305Y-135196546D01*
X157018045Y-133570805D01*
X157062239Y-133552500D01*
X157179597Y-133552500D01*
X157179599Y-133552500D01*
X157295702Y-133521390D01*
X157399798Y-133461291D01*
X157484791Y-133376298D01*
X157492873Y-133362298D01*
X157530823Y-133333179D01*
X157578250Y-133339422D01*
X157607370Y-133377372D01*
X157609500Y-133393549D01*
X157609500Y-134508042D01*
X157591194Y-134552236D01*
X157298736Y-134844694D01*
X157254542Y-134863000D01*
X157157672Y-134863000D01*
X157157671Y-134863000D01*
X157157665Y-134863001D01*
X157025678Y-134898367D01*
X157025674Y-134898368D01*
X156907325Y-134966698D01*
X156907321Y-134966701D01*
X156810701Y-135063321D01*
X156810698Y-135063325D01*
X156742368Y-135181674D01*
X156742367Y-135181678D01*
X156707001Y-135313665D01*
X156707000Y-135313673D01*
X156707000Y-135450326D01*
X156707001Y-135450334D01*
X156742367Y-135582321D01*
X156742368Y-135582325D01*
X156776533Y-135641499D01*
X156782427Y-135651709D01*
X156810698Y-135700674D01*
X156810701Y-135700678D01*
X156907321Y-135797298D01*
X156907325Y-135797301D01*
X156907327Y-135797303D01*
X157025674Y-135865631D01*
X157157672Y-135901000D01*
X157157673Y-135901000D01*
X157294327Y-135901000D01*
X157294328Y-135901000D01*
X157426326Y-135865631D01*
X157544673Y-135797303D01*
X157641303Y-135700673D01*
X157709631Y-135582326D01*
X157745000Y-135450328D01*
X157745000Y-135353456D01*
X157763305Y-135309263D01*
X158134557Y-134938010D01*
X158134562Y-134938007D01*
X158139702Y-134932866D01*
X158139704Y-134932866D01*
X158200866Y-134871704D01*
X158230529Y-134820326D01*
X158244114Y-134796797D01*
X158266501Y-134713248D01*
X158266501Y-134626752D01*
X158266501Y-134622928D01*
X158266500Y-134622910D01*
X158266500Y-124602762D01*
X158284806Y-124558568D01*
X158329000Y-124540262D01*
X158350845Y-124544204D01*
X158362623Y-124548597D01*
X158422164Y-124554999D01*
X158422178Y-124555000D01*
X158670000Y-124555000D01*
X158670000Y-122055000D01*
X158422164Y-122055000D01*
X158362622Y-122061402D01*
X158227908Y-122111647D01*
X158227905Y-122111649D01*
X158112813Y-122197808D01*
X158112811Y-122197810D01*
X158091033Y-122226902D01*
X158049893Y-122251310D01*
X158003544Y-122239479D01*
X157979136Y-122198339D01*
X157978500Y-122189446D01*
X157978500Y-122173753D01*
X157978498Y-122173745D01*
X157956115Y-122090207D01*
X157956114Y-122090204D01*
X157935789Y-122055000D01*
X157912866Y-122015296D01*
X157912864Y-122015294D01*
X157912861Y-122015290D01*
X157890306Y-121992735D01*
X157872000Y-121948541D01*
X157872000Y-121851673D01*
X157871998Y-121851665D01*
X157871665Y-121850424D01*
X157836631Y-121719674D01*
X157768303Y-121601327D01*
X157768301Y-121601325D01*
X157768298Y-121601321D01*
X157671678Y-121504701D01*
X157671674Y-121504698D01*
X157671673Y-121504697D01*
X157610291Y-121469258D01*
X157553325Y-121436368D01*
X157553321Y-121436367D01*
X157421334Y-121401001D01*
X157421329Y-121401000D01*
X157421328Y-121401000D01*
X157284672Y-121401000D01*
X157284671Y-121401000D01*
X157284665Y-121401001D01*
X157152678Y-121436367D01*
X157152674Y-121436368D01*
X157034325Y-121504698D01*
X157034321Y-121504701D01*
X156937701Y-121601321D01*
X156937698Y-121601325D01*
X156869368Y-121719674D01*
X156869367Y-121719678D01*
X156834001Y-121851665D01*
X156834000Y-121851673D01*
X156834000Y-121988326D01*
X156834001Y-121988334D01*
X156869367Y-122120321D01*
X156869368Y-122120325D01*
X156903533Y-122179499D01*
X156928097Y-122222046D01*
X156937698Y-122238674D01*
X156937701Y-122238678D01*
X156958432Y-122259409D01*
X156976738Y-122303603D01*
X156958432Y-122347797D01*
X156914238Y-122366103D01*
X156902045Y-122364902D01*
X156849748Y-122354500D01*
X156706500Y-122354500D01*
X156662306Y-122336194D01*
X156644000Y-122292000D01*
X156644000Y-119344586D01*
X156643999Y-119344583D01*
X156603810Y-119247558D01*
X156603806Y-119247553D01*
X156498803Y-119142550D01*
X156480497Y-119098356D01*
X156498803Y-119054162D01*
X156511748Y-119044229D01*
X156513200Y-119043390D01*
X156513202Y-119043390D01*
X156617298Y-118983291D01*
X156702291Y-118898298D01*
X156762390Y-118794202D01*
X156793500Y-118678099D01*
X156793500Y-118557901D01*
X156793499Y-118557896D01*
X158268000Y-118557896D01*
X158268000Y-118678103D01*
X158291138Y-118764451D01*
X158299110Y-118794202D01*
X158359209Y-118898298D01*
X158444202Y-118983291D01*
X158548298Y-119043390D01*
X158619350Y-119062428D01*
X158664396Y-119074499D01*
X158664398Y-119074499D01*
X158664401Y-119074500D01*
X158664403Y-119074500D01*
X158784597Y-119074500D01*
X158784599Y-119074500D01*
X158900702Y-119043390D01*
X159004798Y-118983291D01*
X159089791Y-118898298D01*
X159149890Y-118794202D01*
X159181000Y-118678099D01*
X159181000Y-118557901D01*
X159149890Y-118441798D01*
X159089791Y-118337702D01*
X159004798Y-118252709D01*
X158900702Y-118192610D01*
X158900699Y-118192609D01*
X158784603Y-118161500D01*
X158784599Y-118161500D01*
X158664401Y-118161500D01*
X158664396Y-118161500D01*
X158548300Y-118192609D01*
X158548298Y-118192610D01*
X158444201Y-118252709D01*
X158359209Y-118337701D01*
X158299110Y-118441798D01*
X158299109Y-118441800D01*
X158268000Y-118557896D01*
X156793499Y-118557896D01*
X156762390Y-118441798D01*
X156702291Y-118337702D01*
X156617298Y-118252709D01*
X156513202Y-118192610D01*
X156513199Y-118192609D01*
X156397103Y-118161500D01*
X156397099Y-118161500D01*
X156276901Y-118161500D01*
X156276896Y-118161500D01*
X156160800Y-118192609D01*
X156160798Y-118192610D01*
X156056701Y-118252709D01*
X155971709Y-118337701D01*
X155910770Y-118443252D01*
X155872819Y-118472372D01*
X155825393Y-118466129D01*
X155812449Y-118456196D01*
X155720306Y-118364053D01*
X155702000Y-118319859D01*
X155702000Y-116650487D01*
X155701999Y-116650484D01*
X155661810Y-116553459D01*
X155661806Y-116553454D01*
X153983248Y-114874896D01*
X158268000Y-114874896D01*
X158268000Y-114995103D01*
X158299109Y-115111199D01*
X158299110Y-115111202D01*
X158359209Y-115215298D01*
X158444202Y-115300291D01*
X158548298Y-115360390D01*
X158619350Y-115379428D01*
X158664396Y-115391499D01*
X158664398Y-115391499D01*
X158664401Y-115391500D01*
X158664403Y-115391500D01*
X158784597Y-115391500D01*
X158784599Y-115391500D01*
X158900702Y-115360390D01*
X159004798Y-115300291D01*
X159089791Y-115215298D01*
X159149890Y-115111202D01*
X159181000Y-114995099D01*
X159181000Y-114874901D01*
X159149890Y-114758798D01*
X159089791Y-114654702D01*
X159004798Y-114569709D01*
X158900702Y-114509610D01*
X158900699Y-114509609D01*
X158784603Y-114478500D01*
X158784599Y-114478500D01*
X158664401Y-114478500D01*
X158664396Y-114478500D01*
X158548300Y-114509609D01*
X158548298Y-114509610D01*
X158444201Y-114569709D01*
X158359209Y-114654701D01*
X158299110Y-114758798D01*
X158299109Y-114758800D01*
X158268000Y-114874896D01*
X153983248Y-114874896D01*
X153382806Y-114274454D01*
X153364500Y-114230260D01*
X153364500Y-114112902D01*
X153364499Y-114112896D01*
X153342000Y-114028930D01*
X153333390Y-113996798D01*
X153273291Y-113892702D01*
X153188298Y-113807709D01*
X153084202Y-113747610D01*
X153084199Y-113747609D01*
X152968103Y-113716500D01*
X152968099Y-113716500D01*
X152847901Y-113716500D01*
X152847896Y-113716500D01*
X152731800Y-113747609D01*
X152731798Y-113747610D01*
X152627701Y-113807709D01*
X152580694Y-113854717D01*
X152536500Y-113873023D01*
X152492306Y-113854717D01*
X152474000Y-113810523D01*
X152474000Y-110197735D01*
X152492306Y-110153541D01*
X152526723Y-110136004D01*
X152535304Y-110134646D01*
X152648342Y-110077050D01*
X152738050Y-109987342D01*
X152795646Y-109874304D01*
X152795647Y-109874298D01*
X152810498Y-109780532D01*
X152810498Y-109780531D01*
X152810500Y-109780519D01*
X152810499Y-109167483D01*
X153259500Y-109167483D01*
X153259500Y-109780514D01*
X153259501Y-109780519D01*
X153274354Y-109874304D01*
X153274354Y-109874305D01*
X153309646Y-109943568D01*
X153331950Y-109987342D01*
X153421658Y-110077050D01*
X153534696Y-110134646D01*
X153534699Y-110134646D01*
X153534701Y-110134647D01*
X153628467Y-110149498D01*
X153628469Y-110149498D01*
X153628481Y-110149500D01*
X154091518Y-110149499D01*
X154185304Y-110134646D01*
X154298342Y-110077050D01*
X154388050Y-109987342D01*
X154445646Y-109874304D01*
X154445647Y-109874298D01*
X154458885Y-109790722D01*
X154469007Y-109774204D01*
X154476421Y-109756306D01*
X154481184Y-109754332D01*
X154483879Y-109749936D01*
X154520615Y-109738000D01*
X154600121Y-109738000D01*
X154644315Y-109756306D01*
X154661851Y-109790723D01*
X154673047Y-109861414D01*
X154673049Y-109861421D01*
X154733264Y-109979598D01*
X154733342Y-109979751D01*
X154827249Y-110073658D01*
X154945580Y-110133951D01*
X154945583Y-110133951D01*
X154945585Y-110133952D01*
X155043740Y-110149498D01*
X155043746Y-110149498D01*
X155043754Y-110149500D01*
X155043756Y-110149500D01*
X155547244Y-110149500D01*
X155547246Y-110149500D01*
X155551496Y-110148827D01*
X155645414Y-110133952D01*
X155645414Y-110133951D01*
X155645420Y-110133951D01*
X155763751Y-110073658D01*
X155857658Y-109979751D01*
X155862175Y-109970884D01*
X155898548Y-109939817D01*
X155946236Y-109943568D01*
X155977192Y-109979598D01*
X155995906Y-110036074D01*
X156084112Y-110179078D01*
X156202921Y-110297887D01*
X156345925Y-110386093D01*
X156505418Y-110438943D01*
X156508757Y-110439658D01*
X156508497Y-110440868D01*
X156546917Y-110461580D01*
X156560963Y-110501058D01*
X156560963Y-110535826D01*
X156560964Y-110535834D01*
X156596330Y-110667821D01*
X156596331Y-110667825D01*
X156664661Y-110786174D01*
X156664664Y-110786178D01*
X156761284Y-110882798D01*
X156761288Y-110882801D01*
X156761290Y-110882803D01*
X156879637Y-110951131D01*
X157011635Y-110986500D01*
X157011636Y-110986500D01*
X157148290Y-110986500D01*
X157148291Y-110986500D01*
X157280289Y-110951131D01*
X157398636Y-110882803D01*
X157495266Y-110786173D01*
X157563594Y-110667826D01*
X157598963Y-110535828D01*
X157598963Y-110399172D01*
X157595458Y-110386093D01*
X157576087Y-110313800D01*
X157574031Y-110306126D01*
X157580274Y-110258702D01*
X157590207Y-110245756D01*
X157656888Y-110179076D01*
X157745093Y-110036074D01*
X157797944Y-109876578D01*
X157807999Y-109778150D01*
X157808000Y-109778141D01*
X157808000Y-109724000D01*
X156933000Y-109724000D01*
X156888806Y-109705694D01*
X156870500Y-109661500D01*
X156870500Y-109474000D01*
X156683000Y-109474000D01*
X156638806Y-109455694D01*
X156620500Y-109411500D01*
X156620500Y-109224000D01*
X157120500Y-109224000D01*
X157807999Y-109224000D01*
X157807999Y-109169860D01*
X157807998Y-109169848D01*
X157797944Y-109071425D01*
X157797943Y-109071418D01*
X157745093Y-108911925D01*
X157656887Y-108768921D01*
X157538078Y-108650112D01*
X157395074Y-108561906D01*
X157235578Y-108509055D01*
X157137150Y-108499000D01*
X157120500Y-108499000D01*
X157120500Y-109224000D01*
X156620500Y-109224000D01*
X156620500Y-108499000D01*
X156620499Y-108498999D01*
X156603862Y-108499000D01*
X156603846Y-108499001D01*
X156505425Y-108509055D01*
X156505418Y-108509056D01*
X156345925Y-108561906D01*
X156202921Y-108650112D01*
X156084112Y-108768921D01*
X155995905Y-108911927D01*
X155977191Y-108968402D01*
X155945913Y-109004594D01*
X155898204Y-109008069D01*
X155862176Y-108977116D01*
X155857658Y-108968249D01*
X155763751Y-108874342D01*
X155645421Y-108814049D01*
X155645414Y-108814047D01*
X155547259Y-108798501D01*
X155547247Y-108798500D01*
X155547246Y-108798500D01*
X155043754Y-108798500D01*
X155043752Y-108798500D01*
X155043740Y-108798501D01*
X154945585Y-108814047D01*
X154945578Y-108814049D01*
X154827248Y-108874342D01*
X154733342Y-108968248D01*
X154673049Y-109086578D01*
X154673047Y-109086585D01*
X154661851Y-109157277D01*
X154651729Y-109173793D01*
X154644315Y-109191694D01*
X154639551Y-109193667D01*
X154636857Y-109198064D01*
X154600121Y-109210000D01*
X154520614Y-109210000D01*
X154476420Y-109191694D01*
X154458883Y-109157277D01*
X154456572Y-109142689D01*
X154445646Y-109073696D01*
X154388050Y-108960658D01*
X154298342Y-108870950D01*
X154185305Y-108813354D01*
X154185298Y-108813352D01*
X154091532Y-108798501D01*
X154091520Y-108798500D01*
X154091519Y-108798500D01*
X154091516Y-108798500D01*
X153628485Y-108798500D01*
X153628480Y-108798501D01*
X153534695Y-108813354D01*
X153534694Y-108813354D01*
X153421657Y-108870950D01*
X153331950Y-108960657D01*
X153274354Y-109073694D01*
X153274352Y-109073701D01*
X153259501Y-109167467D01*
X153259500Y-109167483D01*
X152810499Y-109167483D01*
X152810499Y-109167482D01*
X152795646Y-109073696D01*
X152738050Y-108960658D01*
X152648342Y-108870950D01*
X152535305Y-108813354D01*
X152535298Y-108813352D01*
X152441532Y-108798501D01*
X152441520Y-108798500D01*
X152441519Y-108798500D01*
X152441516Y-108798500D01*
X151978485Y-108798500D01*
X151978480Y-108798501D01*
X151884695Y-108813354D01*
X151884694Y-108813354D01*
X151771657Y-108870950D01*
X151681950Y-108960657D01*
X151624354Y-109073694D01*
X151624352Y-109073701D01*
X151609501Y-109167467D01*
X151609500Y-109167483D01*
X151609500Y-109780514D01*
X151609501Y-109780519D01*
X151624354Y-109874304D01*
X151624354Y-109874305D01*
X151659646Y-109943568D01*
X151681950Y-109987342D01*
X151771658Y-110077050D01*
X151884696Y-110134646D01*
X151893276Y-110136004D01*
X151934062Y-110160996D01*
X151946000Y-110197735D01*
X151946000Y-111618898D01*
X151927694Y-111663092D01*
X151883500Y-111681398D01*
X151839306Y-111663092D01*
X151823130Y-111635075D01*
X151818795Y-111618898D01*
X151809390Y-111583798D01*
X151749291Y-111479702D01*
X151664298Y-111394709D01*
X151560202Y-111334610D01*
X151560199Y-111334609D01*
X151444103Y-111303500D01*
X151444099Y-111303500D01*
X151323901Y-111303500D01*
X151323896Y-111303500D01*
X151207800Y-111334609D01*
X151207798Y-111334610D01*
X151103701Y-111394709D01*
X151018709Y-111479701D01*
X150958610Y-111583798D01*
X150958609Y-111583800D01*
X150927500Y-111699896D01*
X150927500Y-111820103D01*
X150958609Y-111936198D01*
X150958610Y-111936202D01*
X151018709Y-112040298D01*
X151101694Y-112123283D01*
X151120000Y-112167477D01*
X151120000Y-112663654D01*
X151101694Y-112707848D01*
X151057500Y-112726154D01*
X151026250Y-112717781D01*
X150949325Y-112673368D01*
X150949321Y-112673367D01*
X150817334Y-112638001D01*
X150817329Y-112638000D01*
X150817328Y-112638000D01*
X150680672Y-112638000D01*
X150680671Y-112638000D01*
X150680665Y-112638001D01*
X150548678Y-112673367D01*
X150548674Y-112673368D01*
X150430325Y-112741698D01*
X150430321Y-112741701D01*
X150333701Y-112838321D01*
X150333698Y-112838325D01*
X150265368Y-112956674D01*
X150265367Y-112956678D01*
X150230001Y-113088665D01*
X150230000Y-113088673D01*
X150230000Y-113225326D01*
X150230001Y-113225334D01*
X150265367Y-113357321D01*
X150265368Y-113357325D01*
X150333698Y-113475674D01*
X150333701Y-113475678D01*
X150430321Y-113572298D01*
X150430325Y-113572301D01*
X150430327Y-113572303D01*
X150548674Y-113640631D01*
X150680672Y-113676000D01*
X150680673Y-113676000D01*
X150817327Y-113676000D01*
X150817328Y-113676000D01*
X150949326Y-113640631D01*
X151000084Y-113611326D01*
X151026250Y-113596219D01*
X151073676Y-113589975D01*
X151111626Y-113619095D01*
X151120000Y-113650345D01*
X151120000Y-115935054D01*
X151101694Y-115979248D01*
X151057500Y-115997554D01*
X151026251Y-115989181D01*
X151002329Y-115975370D01*
X151002321Y-115975367D01*
X150870334Y-115940001D01*
X150870329Y-115940000D01*
X150870328Y-115940000D01*
X150733672Y-115940000D01*
X150733671Y-115940000D01*
X150733665Y-115940001D01*
X150601678Y-115975367D01*
X150601674Y-115975368D01*
X150483325Y-116043698D01*
X150483321Y-116043701D01*
X150386701Y-116140321D01*
X150386698Y-116140325D01*
X150318368Y-116258674D01*
X150318367Y-116258678D01*
X150283001Y-116390665D01*
X150283000Y-116390673D01*
X150283000Y-116527326D01*
X150283001Y-116527334D01*
X150318367Y-116659321D01*
X150318368Y-116659325D01*
X150386698Y-116777674D01*
X150386701Y-116777678D01*
X150483321Y-116874298D01*
X150483325Y-116874301D01*
X150483327Y-116874303D01*
X150601674Y-116942631D01*
X150733672Y-116978000D01*
X150733673Y-116978000D01*
X150870327Y-116978000D01*
X150870328Y-116978000D01*
X151002326Y-116942631D01*
X151026249Y-116928819D01*
X151073675Y-116922574D01*
X151111626Y-116951694D01*
X151120000Y-116982945D01*
X151120000Y-119980858D01*
X151101694Y-120025052D01*
X151019550Y-120107196D01*
X150975356Y-120125502D01*
X150931162Y-120107196D01*
X150921229Y-120094252D01*
X150892905Y-120045193D01*
X150860291Y-119988702D01*
X150775298Y-119903709D01*
X150671202Y-119843610D01*
X150671199Y-119843609D01*
X150555103Y-119812500D01*
X150555099Y-119812500D01*
X150434901Y-119812500D01*
X150434896Y-119812500D01*
X150318800Y-119843609D01*
X150318798Y-119843610D01*
X150214701Y-119903709D01*
X150131716Y-119986694D01*
X150087522Y-120005000D01*
X147474484Y-120005000D01*
X147377459Y-120045189D01*
X147377454Y-120045193D01*
X145086454Y-122336194D01*
X145042260Y-122354500D01*
X144480252Y-122354500D01*
X144421769Y-122366132D01*
X144421767Y-122366133D01*
X144350329Y-122413868D01*
X144348499Y-122411130D01*
X144315000Y-122425007D01*
X144281500Y-122411130D01*
X144279671Y-122413868D01*
X144208232Y-122366133D01*
X144208230Y-122366132D01*
X144149748Y-122354500D01*
X143210252Y-122354500D01*
X143151769Y-122366132D01*
X143151767Y-122366133D01*
X143080329Y-122413868D01*
X143078499Y-122411130D01*
X143045000Y-122425007D01*
X143011500Y-122411130D01*
X143009671Y-122413868D01*
X142938232Y-122366133D01*
X142938230Y-122366132D01*
X142879748Y-122354500D01*
X141940252Y-122354500D01*
X141881769Y-122366132D01*
X141881767Y-122366133D01*
X141815447Y-122410447D01*
X141771133Y-122476767D01*
X141771132Y-122476769D01*
X141759500Y-122535251D01*
X141759500Y-124074748D01*
X141771132Y-124133230D01*
X141771133Y-124133232D01*
X141815447Y-124199552D01*
X141881767Y-124243866D01*
X141881769Y-124243867D01*
X141940252Y-124255500D01*
X142652260Y-124255500D01*
X142696453Y-124273805D01*
X146535456Y-128112809D01*
X146632487Y-128153000D01*
X146785522Y-128153000D01*
X146829716Y-128171306D01*
X146911590Y-128253179D01*
X146912702Y-128254291D01*
X147016798Y-128314390D01*
X147087850Y-128333428D01*
X147132896Y-128345499D01*
X147132898Y-128345499D01*
X147132901Y-128345500D01*
X147132903Y-128345500D01*
X147253097Y-128345500D01*
X147253099Y-128345500D01*
X147369202Y-128314390D01*
X147473298Y-128254291D01*
X147558291Y-128169298D01*
X147618390Y-128065202D01*
X147649500Y-127949099D01*
X147649500Y-127828901D01*
X147646623Y-127818165D01*
X147652865Y-127770741D01*
X147690812Y-127741618D01*
X147690816Y-127741618D01*
X147690817Y-127741618D01*
X147764146Y-127721969D01*
X147764145Y-127721969D01*
X147764150Y-127721968D01*
X147868246Y-127661869D01*
X147953239Y-127576876D01*
X148013338Y-127472780D01*
X148020842Y-127444776D01*
X148049962Y-127406825D01*
X148097388Y-127400582D01*
X148125406Y-127416758D01*
X149704694Y-128996046D01*
X149723000Y-129040240D01*
X149723000Y-131545522D01*
X149704694Y-131589716D01*
X149621709Y-131672701D01*
X149561610Y-131776798D01*
X149561609Y-131776800D01*
X149530500Y-131892896D01*
X149530500Y-132013103D01*
X149556181Y-132108941D01*
X149561610Y-132129202D01*
X149602197Y-132199502D01*
X149621709Y-132233298D01*
X149706702Y-132318291D01*
X149734557Y-132334373D01*
X149763678Y-132372323D01*
X149757435Y-132419749D01*
X149719485Y-132448870D01*
X149703308Y-132451000D01*
X148664487Y-132451000D01*
X148567457Y-132491190D01*
X148567454Y-132491192D01*
X142260456Y-138798192D01*
X142186193Y-138872454D01*
X142186189Y-138872459D01*
X142146000Y-138969484D01*
X142146000Y-139792000D01*
X142127694Y-139836194D01*
X142083500Y-139854500D01*
X141940252Y-139854500D01*
X141881769Y-139866132D01*
X141881767Y-139866133D01*
X141815447Y-139910447D01*
X141771133Y-139976767D01*
X141771132Y-139976769D01*
X141759500Y-140035251D01*
X141759500Y-141288500D01*
X141741194Y-141332694D01*
X141697000Y-141351000D01*
X140651500Y-141351000D01*
X140607306Y-141332694D01*
X140589000Y-141288500D01*
X140589000Y-130422393D01*
X146972500Y-130422393D01*
X146972500Y-130547606D01*
X146999725Y-130649204D01*
X147004905Y-130668536D01*
X147067505Y-130776964D01*
X147156036Y-130865495D01*
X147264464Y-130928095D01*
X147321132Y-130943279D01*
X147385393Y-130960499D01*
X147385399Y-130960500D01*
X147510601Y-130960500D01*
X147510606Y-130960499D01*
X147546533Y-130950871D01*
X147631536Y-130928095D01*
X147739964Y-130865495D01*
X147828495Y-130776964D01*
X147891095Y-130668536D01*
X147923500Y-130547601D01*
X147923500Y-130422399D01*
X147923499Y-130422393D01*
X147904422Y-130351199D01*
X147891095Y-130301464D01*
X147828495Y-130193036D01*
X147739964Y-130104505D01*
X147631536Y-130041905D01*
X147631533Y-130041904D01*
X147510606Y-130009500D01*
X147510601Y-130009500D01*
X147385399Y-130009500D01*
X147385393Y-130009500D01*
X147264466Y-130041904D01*
X147264464Y-130041905D01*
X147156035Y-130104505D01*
X147067505Y-130193035D01*
X147004905Y-130301464D01*
X147004904Y-130301466D01*
X146972500Y-130422393D01*
X140589000Y-130422393D01*
X140589000Y-113342673D01*
X141213000Y-113342673D01*
X141213000Y-113479326D01*
X141213001Y-113479334D01*
X141248367Y-113611321D01*
X141248368Y-113611325D01*
X141316698Y-113729674D01*
X141316701Y-113729678D01*
X141413321Y-113826298D01*
X141413325Y-113826301D01*
X141413327Y-113826303D01*
X141531674Y-113894631D01*
X141663672Y-113930000D01*
X141663673Y-113930000D01*
X141800327Y-113930000D01*
X141800328Y-113930000D01*
X141932326Y-113894631D01*
X142050673Y-113826303D01*
X142147303Y-113729673D01*
X142215631Y-113611326D01*
X142251000Y-113479328D01*
X142251000Y-113342672D01*
X142215631Y-113210674D01*
X142147303Y-113092327D01*
X142147301Y-113092325D01*
X142147298Y-113092321D01*
X142050678Y-112995701D01*
X142050674Y-112995698D01*
X142050673Y-112995697D01*
X141991499Y-112961533D01*
X141932325Y-112927368D01*
X141932321Y-112927367D01*
X141800334Y-112892001D01*
X141800329Y-112892000D01*
X141800328Y-112892000D01*
X141663672Y-112892000D01*
X141663671Y-112892000D01*
X141663665Y-112892001D01*
X141531678Y-112927367D01*
X141531674Y-112927368D01*
X141413325Y-112995698D01*
X141413321Y-112995701D01*
X141316701Y-113092321D01*
X141316698Y-113092325D01*
X141248368Y-113210674D01*
X141248367Y-113210678D01*
X141213001Y-113342665D01*
X141213000Y-113342673D01*
X140589000Y-113342673D01*
X140589000Y-110429896D01*
X144196500Y-110429896D01*
X144196500Y-110550103D01*
X144227609Y-110666199D01*
X144227610Y-110666202D01*
X144287709Y-110770298D01*
X144372702Y-110855291D01*
X144476798Y-110915390D01*
X144547850Y-110934428D01*
X144592896Y-110946499D01*
X144592898Y-110946499D01*
X144592901Y-110946500D01*
X144592903Y-110946500D01*
X144713097Y-110946500D01*
X144713099Y-110946500D01*
X144829202Y-110915390D01*
X144933298Y-110855291D01*
X145018291Y-110770298D01*
X145078390Y-110666202D01*
X145109500Y-110550099D01*
X145109500Y-110429901D01*
X145078390Y-110313798D01*
X145018291Y-110209702D01*
X144933298Y-110124709D01*
X144829202Y-110064610D01*
X144829199Y-110064609D01*
X144713103Y-110033500D01*
X144713099Y-110033500D01*
X144592901Y-110033500D01*
X144592896Y-110033500D01*
X144476800Y-110064609D01*
X144476798Y-110064610D01*
X144372701Y-110124709D01*
X144287709Y-110209701D01*
X144227610Y-110313798D01*
X144227609Y-110313800D01*
X144196500Y-110429896D01*
X140589000Y-110429896D01*
X140589000Y-107730706D01*
X141168500Y-107730706D01*
X141168500Y-107937293D01*
X141168501Y-107937309D01*
X141200817Y-108141339D01*
X141200819Y-108141348D01*
X141264657Y-108337823D01*
X141264658Y-108337826D01*
X141358451Y-108521903D01*
X141392574Y-108568870D01*
X141987830Y-107973614D01*
X142003426Y-108031817D01*
X142070898Y-108148682D01*
X142166318Y-108244102D01*
X142283183Y-108311574D01*
X142341383Y-108327168D01*
X141746127Y-108922424D01*
X141793096Y-108956548D01*
X141977173Y-109050341D01*
X141977176Y-109050342D01*
X142173651Y-109114180D01*
X142173660Y-109114182D01*
X142377690Y-109146498D01*
X142377706Y-109146500D01*
X142584294Y-109146500D01*
X142584309Y-109146498D01*
X142788339Y-109114182D01*
X142788348Y-109114180D01*
X142984823Y-109050342D01*
X142984831Y-109050338D01*
X143168897Y-108956552D01*
X143168902Y-108956549D01*
X143215871Y-108922424D01*
X142620615Y-108327168D01*
X142678817Y-108311574D01*
X142795682Y-108244102D01*
X142891102Y-108148682D01*
X142958574Y-108031817D01*
X142974168Y-107973615D01*
X143569424Y-108568871D01*
X143603549Y-108521902D01*
X143659620Y-108411857D01*
X143695994Y-108380790D01*
X143731483Y-108379861D01*
X143778958Y-108392581D01*
X143830896Y-108406499D01*
X143830898Y-108406499D01*
X143830901Y-108406500D01*
X143830903Y-108406500D01*
X143951097Y-108406500D01*
X143951099Y-108406500D01*
X144067202Y-108375390D01*
X144171298Y-108315291D01*
X144256291Y-108230298D01*
X144316390Y-108126202D01*
X144347500Y-108010099D01*
X144347500Y-107889901D01*
X144316390Y-107773798D01*
X144256291Y-107669702D01*
X144171298Y-107584709D01*
X144067202Y-107524610D01*
X144067199Y-107524609D01*
X143951103Y-107493500D01*
X143951099Y-107493500D01*
X143830901Y-107493500D01*
X143830899Y-107493500D01*
X143814143Y-107497990D01*
X143766717Y-107491745D01*
X143738527Y-107456932D01*
X143697343Y-107330180D01*
X143697341Y-107330173D01*
X143603548Y-107146096D01*
X143569423Y-107099127D01*
X142974168Y-107694382D01*
X142958574Y-107636183D01*
X142891102Y-107519318D01*
X142795682Y-107423898D01*
X142678817Y-107356426D01*
X142620614Y-107340830D01*
X143215871Y-106745574D01*
X143168903Y-106711451D01*
X142984826Y-106617658D01*
X142984823Y-106617657D01*
X142788348Y-106553819D01*
X142788339Y-106553817D01*
X142584309Y-106521501D01*
X142584294Y-106521500D01*
X142377706Y-106521500D01*
X142377690Y-106521501D01*
X142173660Y-106553817D01*
X142173651Y-106553819D01*
X141977176Y-106617657D01*
X141977173Y-106617658D01*
X141793098Y-106711450D01*
X141793093Y-106711453D01*
X141746128Y-106745574D01*
X141746127Y-106745574D01*
X142341384Y-107340831D01*
X142283183Y-107356426D01*
X142166318Y-107423898D01*
X142070898Y-107519318D01*
X142003426Y-107636183D01*
X141987831Y-107694384D01*
X141392574Y-107099127D01*
X141392574Y-107099128D01*
X141358453Y-107146093D01*
X141358450Y-107146098D01*
X141264658Y-107330173D01*
X141264657Y-107330176D01*
X141200819Y-107526651D01*
X141200817Y-107526660D01*
X141168501Y-107730690D01*
X141168500Y-107730706D01*
X140589000Y-107730706D01*
X140589000Y-105730896D01*
X144831500Y-105730896D01*
X144831500Y-105851103D01*
X144862609Y-105967199D01*
X144862610Y-105967202D01*
X144922709Y-106071298D01*
X145007702Y-106156291D01*
X145111798Y-106216390D01*
X145182850Y-106235428D01*
X145227896Y-106247499D01*
X145227898Y-106247499D01*
X145227901Y-106247500D01*
X145227903Y-106247500D01*
X145348097Y-106247500D01*
X145348099Y-106247500D01*
X145410898Y-106230673D01*
X146449000Y-106230673D01*
X146449000Y-106367326D01*
X146449001Y-106367334D01*
X146484367Y-106499321D01*
X146484368Y-106499325D01*
X146484369Y-106499326D01*
X146552688Y-106617658D01*
X146552698Y-106617674D01*
X146552701Y-106617678D01*
X146649321Y-106714298D01*
X146649325Y-106714301D01*
X146649327Y-106714303D01*
X146767674Y-106782631D01*
X146899672Y-106818000D01*
X146899673Y-106818000D01*
X147036327Y-106818000D01*
X147036328Y-106818000D01*
X147168326Y-106782631D01*
X147286673Y-106714303D01*
X147383303Y-106617673D01*
X147451631Y-106499326D01*
X147487000Y-106367328D01*
X147487000Y-106230672D01*
X147451631Y-106098674D01*
X147383303Y-105980327D01*
X147383301Y-105980325D01*
X147383298Y-105980321D01*
X147286678Y-105883701D01*
X147286674Y-105883698D01*
X147286673Y-105883697D01*
X147227499Y-105849533D01*
X147168325Y-105815368D01*
X147168321Y-105815367D01*
X147036334Y-105780001D01*
X147036329Y-105780000D01*
X147036328Y-105780000D01*
X146899672Y-105780000D01*
X146899671Y-105780000D01*
X146899665Y-105780001D01*
X146767678Y-105815367D01*
X146767674Y-105815368D01*
X146649325Y-105883698D01*
X146649321Y-105883701D01*
X146552701Y-105980321D01*
X146552698Y-105980325D01*
X146484368Y-106098674D01*
X146484367Y-106098678D01*
X146449001Y-106230665D01*
X146449000Y-106230673D01*
X145410898Y-106230673D01*
X145464202Y-106216390D01*
X145568298Y-106156291D01*
X145653291Y-106071298D01*
X145713390Y-105967202D01*
X145744500Y-105851099D01*
X145744500Y-105730901D01*
X145713390Y-105614798D01*
X145653291Y-105510702D01*
X145568298Y-105425709D01*
X145464202Y-105365610D01*
X145464199Y-105365609D01*
X145348103Y-105334500D01*
X145348099Y-105334500D01*
X145227901Y-105334500D01*
X145227896Y-105334500D01*
X145111800Y-105365609D01*
X145111798Y-105365610D01*
X145007701Y-105425709D01*
X144922709Y-105510701D01*
X144862610Y-105614798D01*
X144862609Y-105614800D01*
X144831500Y-105730896D01*
X140589000Y-105730896D01*
X140589000Y-104431673D01*
X146481000Y-104431673D01*
X146481000Y-104568326D01*
X146481001Y-104568334D01*
X146516367Y-104700321D01*
X146516368Y-104700325D01*
X146584698Y-104818674D01*
X146584701Y-104818678D01*
X146681321Y-104915298D01*
X146681325Y-104915301D01*
X146681327Y-104915303D01*
X146799674Y-104983631D01*
X146931672Y-105019000D01*
X146931673Y-105019000D01*
X147068327Y-105019000D01*
X147068328Y-105019000D01*
X147200326Y-104983631D01*
X147318673Y-104915303D01*
X147415303Y-104818673D01*
X147483631Y-104700326D01*
X147519000Y-104568328D01*
X147519000Y-104431672D01*
X147483631Y-104299674D01*
X147415303Y-104181327D01*
X147415301Y-104181325D01*
X147415298Y-104181321D01*
X147318678Y-104084701D01*
X147318674Y-104084698D01*
X147318673Y-104084697D01*
X147259499Y-104050533D01*
X147200325Y-104016368D01*
X147200321Y-104016367D01*
X147068334Y-103981001D01*
X147068329Y-103981000D01*
X147068328Y-103981000D01*
X146931672Y-103981000D01*
X146931671Y-103981000D01*
X146931665Y-103981001D01*
X146799678Y-104016367D01*
X146799674Y-104016368D01*
X146681325Y-104084698D01*
X146681321Y-104084701D01*
X146584701Y-104181321D01*
X146584698Y-104181325D01*
X146516368Y-104299674D01*
X146516367Y-104299678D01*
X146481001Y-104431665D01*
X146481000Y-104431673D01*
X140589000Y-104431673D01*
X140589000Y-102678500D01*
X140607306Y-102634306D01*
X140651500Y-102616000D01*
X159322500Y-102616000D01*
X159366694Y-102634306D01*
G37*
G04 #@! TD.AperFunction*
G04 #@! TA.AperFunction,Conductor*
G36*
X149428499Y-124198869D02*
G01*
X149430329Y-124196132D01*
X149501767Y-124243866D01*
X149501769Y-124243867D01*
X149560252Y-124255500D01*
X149715908Y-124255500D01*
X149725881Y-124259631D01*
X149736660Y-124259046D01*
X149746135Y-124268020D01*
X149760102Y-124273806D01*
X149772269Y-124290987D01*
X149773002Y-124292517D01*
X149806192Y-124372643D01*
X149816203Y-124382654D01*
X149820819Y-124392284D01*
X149821580Y-124406315D01*
X149826958Y-124419297D01*
X149822826Y-124429270D01*
X149823412Y-124440049D01*
X149814029Y-124450509D01*
X149808652Y-124463491D01*
X149798679Y-124467621D01*
X149791471Y-124475658D01*
X149777439Y-124476419D01*
X149764458Y-124481797D01*
X149748282Y-124479667D01*
X149633834Y-124449001D01*
X149633829Y-124449000D01*
X149633828Y-124449000D01*
X149497172Y-124449000D01*
X149497171Y-124449000D01*
X149497165Y-124449001D01*
X149365178Y-124484367D01*
X149365174Y-124484368D01*
X149246825Y-124552698D01*
X149246821Y-124552701D01*
X149150201Y-124649321D01*
X149150198Y-124649325D01*
X149081868Y-124767674D01*
X149081867Y-124767678D01*
X149046501Y-124899665D01*
X149046500Y-124899673D01*
X149046500Y-125036326D01*
X149046501Y-125036334D01*
X149081867Y-125168321D01*
X149081868Y-125168325D01*
X149103788Y-125206291D01*
X149147558Y-125282103D01*
X149150198Y-125286674D01*
X149150201Y-125286678D01*
X149246821Y-125383298D01*
X149246825Y-125383301D01*
X149246827Y-125383303D01*
X149365174Y-125451631D01*
X149497172Y-125487000D01*
X149497173Y-125487000D01*
X149633827Y-125487000D01*
X149633828Y-125487000D01*
X149765826Y-125451631D01*
X149884173Y-125383303D01*
X149980803Y-125286673D01*
X150049131Y-125168326D01*
X150084500Y-125036328D01*
X150084500Y-124899672D01*
X150072781Y-124855937D01*
X150053832Y-124785217D01*
X150060075Y-124737791D01*
X150098026Y-124708671D01*
X150145452Y-124714914D01*
X150158396Y-124724847D01*
X152079828Y-126646279D01*
X152098134Y-126690473D01*
X152079828Y-126734667D01*
X152035634Y-126752973D01*
X152019458Y-126750843D01*
X151960334Y-126735001D01*
X151960329Y-126735000D01*
X151960328Y-126735000D01*
X151823672Y-126735000D01*
X151823671Y-126735000D01*
X151823665Y-126735001D01*
X151691678Y-126770367D01*
X151691674Y-126770368D01*
X151573325Y-126838698D01*
X151573321Y-126838701D01*
X151476701Y-126935321D01*
X151476698Y-126935325D01*
X151408368Y-127053674D01*
X151408367Y-127053678D01*
X151373001Y-127185665D01*
X151373000Y-127185673D01*
X151373000Y-127322326D01*
X151373001Y-127322334D01*
X151408367Y-127454321D01*
X151408368Y-127454325D01*
X151476698Y-127572674D01*
X151476701Y-127572678D01*
X151573321Y-127669298D01*
X151573325Y-127669301D01*
X151573327Y-127669303D01*
X151691674Y-127737631D01*
X151823672Y-127773000D01*
X151823673Y-127773000D01*
X151960327Y-127773000D01*
X151960328Y-127773000D01*
X152092326Y-127737631D01*
X152210673Y-127669303D01*
X152307303Y-127572673D01*
X152375631Y-127454326D01*
X152411000Y-127322328D01*
X152411000Y-127185672D01*
X152395156Y-127126541D01*
X152401399Y-127079115D01*
X152439349Y-127049995D01*
X152486776Y-127056238D01*
X152499720Y-127066171D01*
X152784357Y-127350808D01*
X152784358Y-127350808D01*
X152784360Y-127350810D01*
X152881385Y-127390999D01*
X152881388Y-127391000D01*
X152986413Y-127391000D01*
X154379487Y-127391000D01*
X155058760Y-127391000D01*
X155102954Y-127409306D01*
X155988694Y-128295046D01*
X156007000Y-128339240D01*
X156007000Y-130446619D01*
X155988694Y-130490813D01*
X155944500Y-130509119D01*
X155900306Y-130490813D01*
X155884130Y-130462796D01*
X155872946Y-130421059D01*
X155861890Y-130379798D01*
X155801791Y-130275702D01*
X155716798Y-130190709D01*
X155612702Y-130130610D01*
X155612699Y-130130609D01*
X155496603Y-130099500D01*
X155496599Y-130099500D01*
X155405854Y-130099500D01*
X155361660Y-130081194D01*
X155346900Y-130057751D01*
X155307477Y-129945751D01*
X155307872Y-129938474D01*
X155307872Y-129903158D01*
X155343597Y-129807377D01*
X155349999Y-129747835D01*
X155350000Y-129747822D01*
X155350000Y-129550000D01*
X154700000Y-129550000D01*
X154700000Y-131550000D01*
X155350000Y-131550000D01*
X155350000Y-131352177D01*
X155349999Y-131352164D01*
X155343597Y-131292622D01*
X155307872Y-131196842D01*
X155307857Y-131153197D01*
X155345081Y-131053197D01*
X155358924Y-131038309D01*
X155370817Y-131021822D01*
X155375487Y-131020496D01*
X155377655Y-131018165D01*
X155384587Y-131017912D01*
X155403655Y-131012500D01*
X155496597Y-131012500D01*
X155496599Y-131012500D01*
X155612702Y-130981390D01*
X155716798Y-130921291D01*
X155801791Y-130836298D01*
X155861890Y-130732202D01*
X155870459Y-130700221D01*
X155884130Y-130649204D01*
X155913250Y-130611253D01*
X155960676Y-130605010D01*
X155998627Y-130634130D01*
X156007000Y-130665380D01*
X156007000Y-131309760D01*
X155988694Y-131353954D01*
X155310954Y-132031694D01*
X155266760Y-132050000D01*
X154700000Y-132050000D01*
X154700000Y-132616760D01*
X154681694Y-132660954D01*
X153096693Y-134245954D01*
X153096689Y-134245959D01*
X153056500Y-134342984D01*
X153056500Y-135609522D01*
X153038194Y-135653716D01*
X152955209Y-135736701D01*
X152895110Y-135840798D01*
X152895109Y-135840800D01*
X152864000Y-135956896D01*
X152864000Y-136077103D01*
X152886082Y-136159511D01*
X152895110Y-136193202D01*
X152955209Y-136297298D01*
X153040202Y-136382291D01*
X153144298Y-136442390D01*
X153215350Y-136461428D01*
X153260396Y-136473499D01*
X153260398Y-136473499D01*
X153260401Y-136473500D01*
X153260403Y-136473500D01*
X153380597Y-136473500D01*
X153380599Y-136473500D01*
X153496702Y-136442390D01*
X153496703Y-136442388D01*
X153497323Y-136442223D01*
X153544749Y-136448466D01*
X153573870Y-136486416D01*
X153576000Y-136502593D01*
X153576000Y-139792000D01*
X153557694Y-139836194D01*
X153513500Y-139854500D01*
X153370252Y-139854500D01*
X153311769Y-139866132D01*
X153311767Y-139866133D01*
X153240329Y-139913868D01*
X153238499Y-139911130D01*
X153205000Y-139925007D01*
X153171500Y-139911130D01*
X153169671Y-139913868D01*
X153098232Y-139866133D01*
X153098230Y-139866132D01*
X153039748Y-139854500D01*
X152896500Y-139854500D01*
X152852306Y-139836194D01*
X152834000Y-139792000D01*
X152834000Y-137867803D01*
X152833999Y-137867801D01*
X152833841Y-137867419D01*
X152808298Y-137805753D01*
X152793809Y-137770772D01*
X152384341Y-137361305D01*
X152384340Y-137361304D01*
X152384337Y-137361302D01*
X152287312Y-137321113D01*
X152287310Y-137321113D01*
X150726331Y-137321113D01*
X150726328Y-137321113D01*
X150697910Y-137332884D01*
X150629303Y-137361301D01*
X150629298Y-137361305D01*
X150457952Y-137532651D01*
X150413758Y-137550957D01*
X150296396Y-137550957D01*
X150180300Y-137582066D01*
X150180298Y-137582067D01*
X150076201Y-137642166D01*
X149991209Y-137727158D01*
X149931110Y-137831255D01*
X149931109Y-137831257D01*
X149900000Y-137947353D01*
X149900000Y-138067560D01*
X149926301Y-138165712D01*
X149931110Y-138183659D01*
X149991209Y-138287755D01*
X150076202Y-138372748D01*
X150180298Y-138432847D01*
X150251350Y-138451885D01*
X150296396Y-138463956D01*
X150296398Y-138463956D01*
X150296401Y-138463957D01*
X150296403Y-138463957D01*
X150416597Y-138463957D01*
X150416599Y-138463957D01*
X150532702Y-138432847D01*
X150636798Y-138372748D01*
X150721791Y-138287755D01*
X150781890Y-138183659D01*
X150813000Y-138067556D01*
X150813000Y-137950197D01*
X150817141Y-137940201D01*
X150831305Y-137906004D01*
X150869892Y-137867417D01*
X150914085Y-137849113D01*
X151533872Y-137849113D01*
X151578066Y-137867419D01*
X151596372Y-137911613D01*
X151594242Y-137927789D01*
X151562699Y-138045507D01*
X151562698Y-138045515D01*
X151562698Y-138162871D01*
X151544392Y-138207065D01*
X151137034Y-138614424D01*
X150321168Y-139430291D01*
X149915265Y-139836194D01*
X149871071Y-139854500D01*
X149560252Y-139854500D01*
X149501769Y-139866132D01*
X149501767Y-139866133D01*
X149430329Y-139913868D01*
X149428499Y-139911130D01*
X149395000Y-139925007D01*
X149361500Y-139911130D01*
X149359671Y-139913868D01*
X149288232Y-139866133D01*
X149288230Y-139866132D01*
X149229748Y-139854500D01*
X149043500Y-139854500D01*
X148999306Y-139836194D01*
X148981000Y-139792000D01*
X148981000Y-138664669D01*
X148999306Y-138620475D01*
X149043500Y-138602169D01*
X149059677Y-138604299D01*
X149060296Y-138604464D01*
X149060298Y-138604466D01*
X149120044Y-138620475D01*
X149176396Y-138635575D01*
X149176398Y-138635575D01*
X149176401Y-138635576D01*
X149176403Y-138635576D01*
X149296597Y-138635576D01*
X149296599Y-138635576D01*
X149412702Y-138604466D01*
X149516798Y-138544367D01*
X149601791Y-138459374D01*
X149661890Y-138355278D01*
X149693000Y-138239175D01*
X149693000Y-138118977D01*
X149661890Y-138002874D01*
X149601791Y-137898778D01*
X149516798Y-137813785D01*
X149412702Y-137753686D01*
X149412699Y-137753685D01*
X149296603Y-137722576D01*
X149296599Y-137722576D01*
X149176401Y-137722576D01*
X149176399Y-137722576D01*
X149176394Y-137722577D01*
X149059676Y-137753852D01*
X149012250Y-137747609D01*
X148983130Y-137709658D01*
X148981000Y-137693482D01*
X148981000Y-137385385D01*
X148999306Y-137341191D01*
X149027324Y-137325015D01*
X149147198Y-137292894D01*
X149147197Y-137292894D01*
X149147202Y-137292893D01*
X149251298Y-137232794D01*
X149336291Y-137147801D01*
X149396390Y-137043705D01*
X149427500Y-136927602D01*
X149427500Y-136807404D01*
X149401676Y-136711027D01*
X149396224Y-136690679D01*
X149402467Y-136643253D01*
X149440418Y-136614133D01*
X149456594Y-136612003D01*
X150317609Y-136612003D01*
X150383029Y-136584905D01*
X150414636Y-136571813D01*
X150414636Y-136571812D01*
X150414640Y-136571811D01*
X150521753Y-136464698D01*
X151619113Y-136464698D01*
X151619113Y-136584905D01*
X151647456Y-136690679D01*
X151650223Y-136701004D01*
X151710322Y-136805100D01*
X151795315Y-136890093D01*
X151899411Y-136950192D01*
X151969427Y-136968953D01*
X152015509Y-136981301D01*
X152015511Y-136981301D01*
X152015514Y-136981302D01*
X152015516Y-136981302D01*
X152135710Y-136981302D01*
X152135712Y-136981302D01*
X152251815Y-136950192D01*
X152355911Y-136890093D01*
X152440904Y-136805100D01*
X152501003Y-136701004D01*
X152532113Y-136584901D01*
X152532113Y-136464703D01*
X152526089Y-136442223D01*
X152519173Y-136416412D01*
X152501003Y-136348600D01*
X152440904Y-136244504D01*
X152355911Y-136159511D01*
X152251815Y-136099412D01*
X152251812Y-136099411D01*
X152135716Y-136068302D01*
X152135712Y-136068302D01*
X152015514Y-136068302D01*
X152015509Y-136068302D01*
X151899413Y-136099411D01*
X151899411Y-136099412D01*
X151795314Y-136159511D01*
X151710322Y-136244503D01*
X151650223Y-136348600D01*
X151650222Y-136348602D01*
X151619113Y-136464698D01*
X150521753Y-136464698D01*
X151620309Y-135366143D01*
X151660500Y-135269111D01*
X151660500Y-135164086D01*
X151660500Y-135120562D01*
X151678806Y-135076368D01*
X151723000Y-135058062D01*
X151754250Y-135066436D01*
X151818668Y-135103628D01*
X151818670Y-135103629D01*
X151818674Y-135103631D01*
X151950672Y-135139000D01*
X151950673Y-135139000D01*
X152087327Y-135139000D01*
X152087328Y-135139000D01*
X152219326Y-135103631D01*
X152337673Y-135035303D01*
X152434303Y-134938673D01*
X152502631Y-134820326D01*
X152538000Y-134688328D01*
X152538000Y-134551672D01*
X152502631Y-134419674D01*
X152434303Y-134301327D01*
X152434301Y-134301325D01*
X152434298Y-134301321D01*
X152337678Y-134204701D01*
X152337674Y-134204698D01*
X152337673Y-134204697D01*
X152249935Y-134154041D01*
X152219325Y-134136368D01*
X152219321Y-134136367D01*
X152087334Y-134101001D01*
X152087329Y-134101000D01*
X152087328Y-134101000D01*
X151950672Y-134101000D01*
X151950671Y-134101000D01*
X151950665Y-134101001D01*
X151818678Y-134136367D01*
X151818674Y-134136368D01*
X151700325Y-134204698D01*
X151679430Y-134225593D01*
X151635236Y-134243898D01*
X151591043Y-134225592D01*
X151285306Y-133919855D01*
X151267000Y-133875661D01*
X151267000Y-132718110D01*
X151285306Y-132673916D01*
X151329500Y-132655610D01*
X151351342Y-132659551D01*
X151442622Y-132693597D01*
X151502164Y-132699999D01*
X151502178Y-132700000D01*
X151700000Y-132700000D01*
X152200000Y-132700000D01*
X152397822Y-132700000D01*
X152397835Y-132699999D01*
X152457377Y-132693597D01*
X152553158Y-132657872D01*
X152596842Y-132657872D01*
X152692622Y-132693597D01*
X152752164Y-132699999D01*
X152752178Y-132700000D01*
X152961500Y-132700000D01*
X153005694Y-132718306D01*
X153024000Y-132762500D01*
X153024000Y-132786828D01*
X153024001Y-132786836D01*
X153059367Y-132918823D01*
X153059368Y-132918827D01*
X153059369Y-132918828D01*
X153126961Y-133035901D01*
X153127698Y-133037176D01*
X153127701Y-133037180D01*
X153224321Y-133133800D01*
X153224325Y-133133803D01*
X153224327Y-133133805D01*
X153342674Y-133202133D01*
X153474672Y-133237502D01*
X153474673Y-133237502D01*
X153611327Y-133237502D01*
X153611328Y-133237502D01*
X153743326Y-133202133D01*
X153861673Y-133133805D01*
X153958303Y-133037175D01*
X154026631Y-132918828D01*
X154062000Y-132786830D01*
X154062000Y-132762500D01*
X154080306Y-132718306D01*
X154124500Y-132700000D01*
X154200000Y-132700000D01*
X154200000Y-132050000D01*
X152200000Y-132050000D01*
X152200000Y-132700000D01*
X151700000Y-132700000D01*
X151700000Y-131550000D01*
X152200000Y-131550000D01*
X152950000Y-131550000D01*
X153450000Y-131550000D01*
X154200000Y-131550000D01*
X154200000Y-130800000D01*
X153450000Y-130800000D01*
X153450000Y-131550000D01*
X152950000Y-131550000D01*
X152950000Y-130800000D01*
X152200000Y-130800000D01*
X152200000Y-131550000D01*
X151700000Y-131550000D01*
X151700000Y-130300000D01*
X152200000Y-130300000D01*
X152950000Y-130300000D01*
X153450000Y-130300000D01*
X154200000Y-130300000D01*
X154200000Y-129550000D01*
X153450000Y-129550000D01*
X153450000Y-130300000D01*
X152950000Y-130300000D01*
X152950000Y-129550000D01*
X152200000Y-129550000D01*
X152200000Y-130300000D01*
X151700000Y-130300000D01*
X151700000Y-129550000D01*
X151050000Y-129550000D01*
X151050000Y-129656000D01*
X151031694Y-129700194D01*
X150987500Y-129718500D01*
X150942896Y-129718500D01*
X150826800Y-129749609D01*
X150826798Y-129749610D01*
X150722701Y-129809709D01*
X150637709Y-129894701D01*
X150577610Y-129998798D01*
X150577609Y-129998800D01*
X150546500Y-130114896D01*
X150546500Y-130235103D01*
X150564283Y-130301466D01*
X150577610Y-130351202D01*
X150594120Y-130379798D01*
X150637709Y-130455298D01*
X150720694Y-130538283D01*
X150739000Y-130582477D01*
X150739000Y-132229406D01*
X150720694Y-132273600D01*
X150676500Y-132291906D01*
X150660324Y-132289776D01*
X150543605Y-132258501D01*
X150543600Y-132258500D01*
X150543599Y-132258500D01*
X150445993Y-132258500D01*
X150401799Y-132240194D01*
X150383493Y-132196000D01*
X150391865Y-132164752D01*
X150412390Y-132129202D01*
X150443500Y-132013099D01*
X150443500Y-131892901D01*
X150412390Y-131776798D01*
X150352291Y-131672702D01*
X150352290Y-131672701D01*
X150269306Y-131589716D01*
X150251000Y-131545522D01*
X150251000Y-128852487D01*
X150250999Y-128852484D01*
X150250866Y-128852164D01*
X151050000Y-128852164D01*
X151050000Y-129050000D01*
X151700000Y-129050000D01*
X152200000Y-129050000D01*
X152950000Y-129050000D01*
X153450000Y-129050000D01*
X154200000Y-129050000D01*
X154700000Y-129050000D01*
X155350000Y-129050000D01*
X155350000Y-128852177D01*
X155349999Y-128852164D01*
X155343597Y-128792622D01*
X155293352Y-128657908D01*
X155293350Y-128657905D01*
X155207191Y-128542813D01*
X155207186Y-128542808D01*
X155092094Y-128456649D01*
X155092091Y-128456647D01*
X154957377Y-128406402D01*
X154897835Y-128400000D01*
X154700000Y-128400000D01*
X154700000Y-129050000D01*
X154200000Y-129050000D01*
X154200000Y-128400000D01*
X154002164Y-128400000D01*
X153942620Y-128406402D01*
X153846841Y-128442126D01*
X153803159Y-128442126D01*
X153707378Y-128406402D01*
X153707380Y-128406402D01*
X153647835Y-128400000D01*
X153450000Y-128400000D01*
X153450000Y-129050000D01*
X152950000Y-129050000D01*
X152950000Y-128400000D01*
X152752164Y-128400000D01*
X152692620Y-128406402D01*
X152596841Y-128442126D01*
X152553159Y-128442126D01*
X152457378Y-128406402D01*
X152457380Y-128406402D01*
X152397835Y-128400000D01*
X152200000Y-128400000D01*
X152200000Y-129050000D01*
X151700000Y-129050000D01*
X151700000Y-128400000D01*
X151502164Y-128400000D01*
X151442622Y-128406402D01*
X151307908Y-128456647D01*
X151307905Y-128456649D01*
X151192813Y-128542808D01*
X151192808Y-128542813D01*
X151106649Y-128657905D01*
X151106647Y-128657908D01*
X151056402Y-128792622D01*
X151050000Y-128852164D01*
X150250866Y-128852164D01*
X150210810Y-128755459D01*
X150210806Y-128755454D01*
X148007623Y-126552271D01*
X148007618Y-126552267D01*
X147910593Y-126512078D01*
X147910591Y-126512078D01*
X147638219Y-126512078D01*
X147594025Y-126493772D01*
X146592803Y-125492550D01*
X146574497Y-125448356D01*
X146592803Y-125404162D01*
X146605748Y-125394229D01*
X146607200Y-125393390D01*
X146607202Y-125393390D01*
X146711298Y-125333291D01*
X146796291Y-125248298D01*
X146856390Y-125144202D01*
X146887500Y-125028099D01*
X146887500Y-124918437D01*
X146905806Y-124874243D01*
X146950000Y-124855937D01*
X146994194Y-124874243D01*
X147004127Y-124887188D01*
X147004904Y-124888533D01*
X147004905Y-124888536D01*
X147016085Y-124907901D01*
X147057797Y-124980150D01*
X147067505Y-124996964D01*
X147156036Y-125085495D01*
X147264464Y-125148095D01*
X147315969Y-125161896D01*
X147385393Y-125180499D01*
X147385399Y-125180500D01*
X147510601Y-125180500D01*
X147510606Y-125180499D01*
X147556053Y-125168321D01*
X147631536Y-125148095D01*
X147739964Y-125085495D01*
X147828495Y-124996964D01*
X147891095Y-124888536D01*
X147921759Y-124774099D01*
X147923499Y-124767606D01*
X147923500Y-124767600D01*
X147923500Y-124642399D01*
X147923499Y-124642393D01*
X147895472Y-124537800D01*
X147891095Y-124521464D01*
X147828495Y-124413036D01*
X147777653Y-124362194D01*
X147759347Y-124318000D01*
X147777653Y-124273806D01*
X147821847Y-124255500D01*
X147959748Y-124255500D01*
X148018231Y-124243867D01*
X148063501Y-124213618D01*
X148089671Y-124196132D01*
X148091500Y-124198869D01*
X148125000Y-124184993D01*
X148158499Y-124198869D01*
X148160329Y-124196132D01*
X148231767Y-124243866D01*
X148231769Y-124243867D01*
X148290252Y-124255500D01*
X149229748Y-124255500D01*
X149288231Y-124243867D01*
X149333501Y-124213618D01*
X149359671Y-124196132D01*
X149361500Y-124198869D01*
X149395000Y-124184993D01*
X149428499Y-124198869D01*
G37*
G04 #@! TD.AperFunction*
G04 #@! TA.AperFunction,Conductor*
G36*
X150120216Y-132997306D02*
G01*
X150203201Y-133080290D01*
X150203202Y-133080291D01*
X150307298Y-133140390D01*
X150378350Y-133159428D01*
X150423396Y-133171499D01*
X150423398Y-133171499D01*
X150423401Y-133171500D01*
X150423403Y-133171500D01*
X150543597Y-133171500D01*
X150543599Y-133171500D01*
X150659702Y-133140390D01*
X150659703Y-133140388D01*
X150660323Y-133140223D01*
X150707749Y-133146466D01*
X150736870Y-133184416D01*
X150739000Y-133200593D01*
X150739000Y-134063413D01*
X150756725Y-134106206D01*
X150756724Y-134154041D01*
X150722899Y-134187866D01*
X150715160Y-134190493D01*
X150699799Y-134194609D01*
X150595701Y-134254709D01*
X150510709Y-134339701D01*
X150450610Y-134443798D01*
X150450609Y-134443800D01*
X150419500Y-134559896D01*
X150419500Y-134680103D01*
X150450609Y-134796199D01*
X150450610Y-134796202D01*
X150510709Y-134900298D01*
X150595702Y-134985291D01*
X150699798Y-135045390D01*
X150754215Y-135059971D01*
X150815896Y-135076499D01*
X150815898Y-135076499D01*
X150815901Y-135076500D01*
X150815903Y-135076500D01*
X150936097Y-135076500D01*
X150936099Y-135076500D01*
X151021083Y-135053728D01*
X151068508Y-135059971D01*
X151097629Y-135097921D01*
X151091386Y-135145347D01*
X151081453Y-135158292D01*
X150765549Y-135474195D01*
X150721355Y-135492501D01*
X150677161Y-135474195D01*
X150667228Y-135461250D01*
X150660922Y-135450328D01*
X150606291Y-135355702D01*
X150521298Y-135270709D01*
X150417202Y-135210610D01*
X150417199Y-135210609D01*
X150301103Y-135179500D01*
X150301099Y-135179500D01*
X150180901Y-135179500D01*
X150180896Y-135179500D01*
X150064800Y-135210609D01*
X150064798Y-135210610D01*
X149960701Y-135270709D01*
X149877716Y-135353694D01*
X149833522Y-135372000D01*
X147902484Y-135372000D01*
X147805459Y-135412189D01*
X147805454Y-135412193D01*
X145471808Y-137745838D01*
X145427614Y-137764144D01*
X145383420Y-137745838D01*
X145367244Y-137717820D01*
X145360095Y-137691140D01*
X145360094Y-137691137D01*
X145331820Y-137642166D01*
X145291766Y-137572790D01*
X145291764Y-137572788D01*
X145291761Y-137572784D01*
X145195141Y-137476164D01*
X145195137Y-137476161D01*
X145195136Y-137476160D01*
X145135962Y-137441996D01*
X145076788Y-137407831D01*
X145076784Y-137407830D01*
X144944797Y-137372464D01*
X144944792Y-137372463D01*
X144944791Y-137372463D01*
X144808135Y-137372463D01*
X144808134Y-137372463D01*
X144808128Y-137372464D01*
X144676141Y-137407830D01*
X144676137Y-137407831D01*
X144557788Y-137476161D01*
X144557784Y-137476164D01*
X144461164Y-137572784D01*
X144461161Y-137572788D01*
X144392831Y-137691137D01*
X144392830Y-137691141D01*
X144357464Y-137823128D01*
X144357463Y-137823136D01*
X144357463Y-137959789D01*
X144357998Y-137963855D01*
X144356437Y-137964060D01*
X144350903Y-138006060D01*
X144312948Y-138035175D01*
X144265523Y-138028926D01*
X144252586Y-138018997D01*
X144171298Y-137937709D01*
X144154116Y-137927789D01*
X144067202Y-137877610D01*
X144067203Y-137877610D01*
X144065620Y-137877186D01*
X144061775Y-137876155D01*
X144023826Y-137847037D01*
X144017581Y-137799611D01*
X144033756Y-137771594D01*
X148808047Y-132997306D01*
X148852241Y-132979000D01*
X150076022Y-132979000D01*
X150120216Y-132997306D01*
G37*
G04 #@! TD.AperFunction*
G04 #@! TA.AperFunction,Conductor*
G36*
X144823024Y-142300090D02*
G01*
X144908017Y-142385083D01*
X145012113Y-142445182D01*
X145060846Y-142458240D01*
X145128211Y-142476291D01*
X145128213Y-142476291D01*
X145128216Y-142476292D01*
X145128218Y-142476292D01*
X145189389Y-142476292D01*
X145233583Y-142494598D01*
X145251889Y-142538792D01*
X145251889Y-142566177D01*
X145280571Y-142673216D01*
X145282999Y-142682276D01*
X145343098Y-142786372D01*
X145428091Y-142871365D01*
X145510750Y-142919087D01*
X145539870Y-142957037D01*
X145542000Y-142973214D01*
X145542000Y-144844500D01*
X145523694Y-144888694D01*
X145479500Y-144907000D01*
X144461500Y-144907000D01*
X144417306Y-144888694D01*
X144399000Y-144844500D01*
X144399000Y-142875000D01*
X144014144Y-142875000D01*
X143969950Y-142856694D01*
X143966669Y-142853413D01*
X143860228Y-142803778D01*
X143827911Y-142768510D01*
X143826275Y-142763320D01*
X143806733Y-142690386D01*
X143802132Y-142673216D01*
X143802131Y-142673213D01*
X143787169Y-142647298D01*
X143733803Y-142554866D01*
X143733801Y-142554864D01*
X143733798Y-142554860D01*
X143637178Y-142458240D01*
X143637174Y-142458237D01*
X143637173Y-142458236D01*
X143566514Y-142417441D01*
X143518825Y-142389907D01*
X143518821Y-142389906D01*
X143386834Y-142354540D01*
X143386829Y-142354539D01*
X143386828Y-142354539D01*
X143250172Y-142354539D01*
X143250171Y-142354539D01*
X143250165Y-142354540D01*
X143207676Y-142365925D01*
X143160250Y-142359682D01*
X143131130Y-142321731D01*
X143129000Y-142305555D01*
X143129000Y-142240000D01*
X144788332Y-142240000D01*
X144823024Y-142300090D01*
G37*
G04 #@! TD.AperFunction*
G04 #@! TA.AperFunction,Conductor*
G36*
X158867585Y-142263639D02*
G01*
X158807486Y-142367736D01*
X158807485Y-142367738D01*
X158776376Y-142483834D01*
X158776376Y-142604041D01*
X158807669Y-142720823D01*
X158801426Y-142768250D01*
X158763476Y-142797370D01*
X158747299Y-142799500D01*
X158598458Y-142799500D01*
X158554264Y-142781194D01*
X158535958Y-142737000D01*
X158538088Y-142720823D01*
X158566526Y-142614693D01*
X158566527Y-142614687D01*
X158566527Y-142494492D01*
X158566526Y-142494486D01*
X158554455Y-142449440D01*
X158535417Y-142378388D01*
X158475318Y-142274292D01*
X158441026Y-142240000D01*
X158891225Y-142240000D01*
X158867585Y-142263639D01*
G37*
G04 #@! TD.AperFunction*
M02*
