%TF.GenerationSoftware,KiCad,Pcbnew,9.0.4*%
%TF.CreationDate,2025-10-19T20:36:53-04:00*%
%TF.ProjectId,the-spirit-board,7468652d-7370-4697-9269-742d626f6172,rev?*%
%TF.SameCoordinates,Original*%
%TF.FileFunction,Copper,L2,Inr*%
%TF.FilePolarity,Positive*%
%FSLAX46Y46*%
G04 Gerber Fmt 4.6, Leading zero omitted, Abs format (unit mm)*
G04 Created by KiCad (PCBNEW 9.0.4) date 2025-10-19 20:36:53*
%MOMM*%
%LPD*%
G01*
G04 APERTURE LIST*
%TA.AperFunction,ComponentPad*%
%ADD10C,1.625000*%
%TD*%
%TA.AperFunction,ViaPad*%
%ADD11C,0.637000*%
%TD*%
%TA.AperFunction,ViaPad*%
%ADD12C,0.512000*%
%TD*%
%TA.AperFunction,Conductor*%
%ADD13C,0.256000*%
%TD*%
%TA.AperFunction,Conductor*%
%ADD14C,0.127000*%
%TD*%
G04 APERTURE END LIST*
D10*
%TO.N,GND*%
%TO.C,IC3*%
X142481000Y-107834000D03*
%TD*%
D11*
%TO.N,GND*%
X155480963Y-128237037D03*
X143668000Y-142113000D03*
X145161000Y-133604000D03*
X158115000Y-110998000D03*
X147000000Y-117000000D03*
X142875000Y-131699000D03*
X149500000Y-133500000D03*
X145034000Y-121285000D03*
X147614500Y-131445000D03*
X151003000Y-128143000D03*
X143002000Y-121285000D03*
D12*
%TO.N,/EN*%
X152908000Y-114173000D03*
D11*
%TO.N,+3.3V*%
X152005750Y-121693324D03*
X153543000Y-132718502D03*
X152019000Y-134620000D03*
D12*
X149236500Y-138179076D03*
D11*
X157214307Y-138972496D03*
X144876463Y-137891463D03*
X141732000Y-113411000D03*
X147000000Y-104500000D03*
X157353000Y-121920000D03*
X151892000Y-127254000D03*
X152006497Y-125222000D03*
X150749000Y-113157000D03*
X146968000Y-106299000D03*
X157226000Y-135382000D03*
X150802000Y-116459000D03*
%TO.N,+5.31V*%
X143318500Y-142873539D03*
X159888502Y-140208000D03*
D12*
%TO.N,/RXD0*%
X144653000Y-110490000D03*
X157119500Y-125984000D03*
%TO.N,/IO15*%
X145708389Y-142506074D03*
X150356500Y-138007457D03*
%TO.N,/IO20*%
X145188315Y-142019792D03*
%TO.N,/IO21*%
X146945399Y-139691555D03*
X149352000Y-142505500D03*
%TO.N,/IO8*%
X146431000Y-124968000D03*
X147206201Y-142505500D03*
%TO.N,/IO10*%
X149352000Y-120788500D03*
X149987000Y-131953000D03*
%TO.N,/TXD0*%
X157119500Y-133096000D03*
X145288000Y-105791000D03*
%TO.N,/IO12*%
X147587948Y-127296578D03*
%TO.N,/IO6*%
X152781000Y-125222000D03*
%TO.N,/IO11*%
X144907000Y-124841000D03*
X150495000Y-120269000D03*
X146431000Y-142494000D03*
%TO.N,/IO1*%
X151384000Y-111760000D03*
%TO.N,/IO23*%
X152019198Y-138105613D03*
%TO.N,/IO19*%
X151003000Y-130175000D03*
%TO.N,/IO5*%
X154559000Y-121412000D03*
%TO.N,/IO3*%
X156337000Y-118618000D03*
X156600000Y-139446000D03*
%TO.N,/IO13*%
X147193000Y-127889000D03*
%TO.N,/IO0*%
X153320500Y-136017000D03*
%TO.N,/IO22*%
X156488651Y-142469349D03*
X148971000Y-136867503D03*
%TO.N,/IO4*%
X153543000Y-116078000D03*
%TO.N,/IO18*%
X143891000Y-138303000D03*
X143891000Y-107950000D03*
%TO.N,/IO7*%
X148628656Y-142516841D03*
X151257000Y-124714000D03*
%TO.N,/{slash}INIT*%
X150241000Y-135636000D03*
X144526000Y-139065000D03*
X154559000Y-138176000D03*
%TO.N,/D2_(SDO)*%
X155785067Y-142360183D03*
X157353000Y-124511002D03*
%TO.N,/GEAR_ROT*%
X150876000Y-134620000D03*
X147917168Y-142543889D03*
%TO.N,/D3_(SCLK)*%
X157119500Y-128016000D03*
X154230500Y-142494000D03*
%TO.N,/D0*%
X159232876Y-142543938D03*
X158724500Y-118618000D03*
%TO.N,/TILT*%
X158110027Y-142554590D03*
X152075613Y-136524802D03*
%TO.N,/{slash}RTS_(SDI)*%
X159944876Y-142545682D03*
%TO.N,/GEAR_LED*%
X154928500Y-134366000D03*
X151519500Y-142494000D03*
%TO.N,/D1*%
X158724500Y-114935000D03*
X157574951Y-142084865D03*
%TO.N,/{slash}CTS*%
X159244000Y-111379000D03*
X160655000Y-142494000D03*
%TO.N,/IO2*%
X157480000Y-139700000D03*
D11*
%TO.N,V_USB*%
X157079963Y-110467500D03*
X149565500Y-124968000D03*
D12*
%TO.N,/{slash}POWER_DOWN*%
X155436500Y-130556000D03*
X153416000Y-142367000D03*
%TO.N,/IO9*%
X150483500Y-132715000D03*
%TD*%
D13*
%TO.N,GND*%
X149500000Y-133500000D02*
X149402000Y-133402000D01*
X149402000Y-129744000D02*
X151003000Y-128143000D01*
X151003000Y-128143000D02*
X155386926Y-128143000D01*
X149402000Y-133402000D02*
X149402000Y-129744000D01*
X155386926Y-128143000D02*
X155480963Y-128237037D01*
%TO.N,+5.31V*%
X161240000Y-141559498D02*
X159888502Y-140208000D01*
X161240000Y-142736315D02*
X161240000Y-141559498D01*
X160836725Y-143139590D02*
X161240000Y-142736315D01*
X143318500Y-142873539D02*
X143584551Y-143139590D01*
X143584551Y-143139590D02*
X160836725Y-143139590D01*
D14*
%TO.N,/IO8*%
X146431000Y-135382000D02*
X146431000Y-124968000D01*
X147701000Y-142010701D02*
X147701000Y-136652000D01*
X147206201Y-142505500D02*
X147701000Y-142010701D01*
X147701000Y-136652000D02*
X146431000Y-135382000D01*
%TO.N,/IO11*%
X146050000Y-132969000D02*
X144907000Y-131826000D01*
X146431000Y-142494000D02*
X146050000Y-142113000D01*
X146050000Y-142113000D02*
X146050000Y-132969000D01*
X144907000Y-131826000D02*
X144907000Y-124841000D01*
%TO.N,/IO3*%
X156600000Y-118881000D02*
X156337000Y-118618000D01*
X156600000Y-139446000D02*
X156600000Y-118881000D01*
%TO.N,/IO22*%
X149952645Y-136867503D02*
X148971000Y-136867503D01*
X151784718Y-138699576D02*
X149952645Y-136867503D01*
X156488651Y-142327668D02*
X152860559Y-138699576D01*
X156488651Y-142469349D02*
X156488651Y-142327668D01*
X152860559Y-138699576D02*
X151784718Y-138699576D01*
%TO.N,/IO18*%
X143891000Y-138303000D02*
X143891000Y-107950000D01*
%TO.N,/IO7*%
X148628656Y-142516841D02*
X148196500Y-142084685D01*
X148196500Y-142084685D02*
X148196500Y-127774500D01*
X148196500Y-127774500D02*
X151257000Y-124714000D01*
%TO.N,/{slash}INIT*%
X150241000Y-135636000D02*
X152019000Y-135636000D01*
X152019000Y-135636000D02*
X154559000Y-138176000D01*
%TO.N,/D0*%
X159232876Y-142543938D02*
X158724500Y-142035562D01*
X158724500Y-142035562D02*
X158724500Y-118618000D01*
%TO.N,/TILT*%
X158059252Y-142605365D02*
X157359352Y-142605365D01*
X158110027Y-142554590D02*
X158059252Y-142605365D01*
X157359352Y-142605365D02*
X152075613Y-137321626D01*
X152075613Y-137321626D02*
X152075613Y-136524802D01*
%TO.N,/D1*%
X158724500Y-117029500D02*
X158724500Y-114935000D01*
X157574951Y-142084865D02*
X158000500Y-141659316D01*
X158000500Y-141659316D02*
X158000500Y-117753500D01*
X158000500Y-117753500D02*
X158724500Y-117029500D01*
%TO.N,/{slash}CTS*%
X160655000Y-142494000D02*
X159244000Y-141083000D01*
X159244000Y-141083000D02*
X159244000Y-111379000D01*
D13*
%TO.N,V_USB*%
X157079963Y-115703407D02*
X149565500Y-123217870D01*
X157079963Y-110467500D02*
X157079963Y-115703407D01*
X149565500Y-123217870D02*
X149565500Y-124968000D01*
%TD*%
%TA.AperFunction,Conductor*%
%TO.N,+3.3V*%
G36*
X159366694Y-102634306D02*
G01*
X159385000Y-102678500D01*
X159385000Y-110862725D01*
X159366694Y-110906919D01*
X159322500Y-110925225D01*
X159306328Y-110923096D01*
X159304108Y-110922501D01*
X159304099Y-110922500D01*
X159183901Y-110922500D01*
X159183896Y-110922500D01*
X159067800Y-110953609D01*
X159067798Y-110953610D01*
X158963701Y-111013709D01*
X158878709Y-111098701D01*
X158818610Y-111202798D01*
X158818609Y-111202800D01*
X158787500Y-111318896D01*
X158787500Y-111439103D01*
X158818609Y-111555199D01*
X158818610Y-111555202D01*
X158835120Y-111583798D01*
X158878709Y-111659298D01*
X158961694Y-111742283D01*
X158980000Y-111786477D01*
X158980000Y-114449406D01*
X158961694Y-114493600D01*
X158917500Y-114511906D01*
X158901324Y-114509776D01*
X158784605Y-114478501D01*
X158784600Y-114478500D01*
X158784599Y-114478500D01*
X158664401Y-114478500D01*
X158664396Y-114478500D01*
X158548300Y-114509609D01*
X158548298Y-114509610D01*
X158444201Y-114569709D01*
X158359209Y-114654701D01*
X158299110Y-114758798D01*
X158299109Y-114758800D01*
X158268000Y-114874896D01*
X158268000Y-114995103D01*
X158299109Y-115111199D01*
X158299110Y-115111202D01*
X158359209Y-115215298D01*
X158442194Y-115298283D01*
X158460500Y-115342477D01*
X158460500Y-116894259D01*
X158442194Y-116938453D01*
X157850956Y-117529692D01*
X157776693Y-117603954D01*
X157776689Y-117603959D01*
X157736500Y-117700984D01*
X157736500Y-124098163D01*
X157718194Y-124142357D01*
X157674000Y-124160663D01*
X157635953Y-124147748D01*
X157633300Y-124145712D01*
X157550941Y-124098163D01*
X157529202Y-124085612D01*
X157529199Y-124085611D01*
X157413103Y-124054502D01*
X157413099Y-124054502D01*
X157292901Y-124054502D01*
X157292896Y-124054502D01*
X157176800Y-124085611D01*
X157176798Y-124085612D01*
X157072701Y-124145711D01*
X156987708Y-124230704D01*
X156980626Y-124242971D01*
X156942675Y-124272091D01*
X156895249Y-124265846D01*
X156866129Y-124227895D01*
X156864000Y-124211720D01*
X156864000Y-118828487D01*
X156863999Y-118828484D01*
X156823810Y-118731459D01*
X156823806Y-118731454D01*
X156811806Y-118719454D01*
X156793500Y-118675260D01*
X156793500Y-118557902D01*
X156793499Y-118557896D01*
X156781428Y-118512850D01*
X156762390Y-118441798D01*
X156702291Y-118337702D01*
X156617298Y-118252709D01*
X156513202Y-118192610D01*
X156513199Y-118192609D01*
X156397103Y-118161500D01*
X156397099Y-118161500D01*
X156276901Y-118161500D01*
X156276896Y-118161500D01*
X156160800Y-118192609D01*
X156160798Y-118192610D01*
X156056701Y-118252709D01*
X155971709Y-118337701D01*
X155911610Y-118441798D01*
X155911609Y-118441800D01*
X155880500Y-118557896D01*
X155880500Y-118678103D01*
X155911609Y-118794199D01*
X155911610Y-118794202D01*
X155971709Y-118898298D01*
X156056702Y-118983291D01*
X156160798Y-119043390D01*
X156231850Y-119062428D01*
X156276896Y-119074499D01*
X156276898Y-119074499D01*
X156276901Y-119074500D01*
X156276904Y-119074500D01*
X156280960Y-119075034D01*
X156280640Y-119077457D01*
X156317694Y-119092806D01*
X156336000Y-119137000D01*
X156336000Y-139038522D01*
X156317694Y-139082716D01*
X156234709Y-139165701D01*
X156174610Y-139269798D01*
X156174609Y-139269800D01*
X156143500Y-139385896D01*
X156143500Y-139506103D01*
X156148242Y-139523798D01*
X156174610Y-139622202D01*
X156234709Y-139726298D01*
X156319702Y-139811291D01*
X156423798Y-139871390D01*
X156490739Y-139889327D01*
X156539896Y-139902499D01*
X156539898Y-139902499D01*
X156539901Y-139902500D01*
X156539903Y-139902500D01*
X156660097Y-139902500D01*
X156660099Y-139902500D01*
X156776202Y-139871390D01*
X156880298Y-139811291D01*
X156927511Y-139764077D01*
X156971702Y-139745773D01*
X157015897Y-139764078D01*
X157032073Y-139792096D01*
X157054609Y-139876199D01*
X157054610Y-139876202D01*
X157114709Y-139980298D01*
X157199702Y-140065291D01*
X157303798Y-140125390D01*
X157357099Y-140139672D01*
X157419896Y-140156499D01*
X157419898Y-140156499D01*
X157419901Y-140156500D01*
X157419903Y-140156500D01*
X157540097Y-140156500D01*
X157540099Y-140156500D01*
X157656202Y-140125390D01*
X157656204Y-140125388D01*
X157657823Y-140124955D01*
X157705249Y-140131198D01*
X157734370Y-140169148D01*
X157736500Y-140185325D01*
X157736500Y-141288500D01*
X157718194Y-141332694D01*
X157674000Y-141351000D01*
X156504227Y-141351000D01*
X156460033Y-141332694D01*
X152357919Y-137230580D01*
X152339613Y-137186386D01*
X152339613Y-136932279D01*
X152357919Y-136888085D01*
X152440904Y-136805100D01*
X152501003Y-136701004D01*
X152517289Y-136640222D01*
X152546409Y-136602273D01*
X152593835Y-136596029D01*
X152621853Y-136612205D01*
X154084194Y-138074546D01*
X154102500Y-138118740D01*
X154102500Y-138236103D01*
X154116341Y-138287755D01*
X154133610Y-138352202D01*
X154193709Y-138456298D01*
X154278702Y-138541291D01*
X154382798Y-138601390D01*
X154453850Y-138620428D01*
X154498896Y-138632499D01*
X154498898Y-138632499D01*
X154498901Y-138632500D01*
X154498903Y-138632500D01*
X154619097Y-138632500D01*
X154619099Y-138632500D01*
X154735202Y-138601390D01*
X154839298Y-138541291D01*
X154924291Y-138456298D01*
X154984390Y-138352202D01*
X155015500Y-138236099D01*
X155015500Y-138115901D01*
X155009916Y-138095063D01*
X155002546Y-138067556D01*
X154984390Y-137999798D01*
X154924291Y-137895702D01*
X154839298Y-137810709D01*
X154735202Y-137750610D01*
X154735199Y-137750609D01*
X154619103Y-137719500D01*
X154619099Y-137719500D01*
X154501740Y-137719500D01*
X154457546Y-137701194D01*
X153336546Y-136580194D01*
X153318240Y-136536000D01*
X153336546Y-136491806D01*
X153376690Y-136475177D01*
X153376540Y-136474034D01*
X153380595Y-136473500D01*
X153380599Y-136473500D01*
X153496702Y-136442390D01*
X153600798Y-136382291D01*
X153685791Y-136297298D01*
X153745890Y-136193202D01*
X153777000Y-136077099D01*
X153777000Y-135956901D01*
X153745890Y-135840798D01*
X153685791Y-135736702D01*
X153600798Y-135651709D01*
X153496702Y-135591610D01*
X153496699Y-135591609D01*
X153380603Y-135560500D01*
X153380599Y-135560500D01*
X153260401Y-135560500D01*
X153260396Y-135560500D01*
X153144300Y-135591609D01*
X153144298Y-135591610D01*
X153040201Y-135651709D01*
X152955209Y-135736701D01*
X152895110Y-135840798D01*
X152895109Y-135840800D01*
X152864000Y-135956896D01*
X152863466Y-135960960D01*
X152862322Y-135960809D01*
X152845694Y-136000954D01*
X152801500Y-136019260D01*
X152757306Y-136000954D01*
X152168545Y-135412193D01*
X152168540Y-135412189D01*
X152071515Y-135372000D01*
X152071513Y-135372000D01*
X150648478Y-135372000D01*
X150604284Y-135353694D01*
X150521298Y-135270709D01*
X150417202Y-135210610D01*
X150417199Y-135210609D01*
X150301103Y-135179500D01*
X150301099Y-135179500D01*
X150180901Y-135179500D01*
X150180896Y-135179500D01*
X150064800Y-135210609D01*
X150064798Y-135210610D01*
X149960701Y-135270709D01*
X149875709Y-135355701D01*
X149815610Y-135459798D01*
X149815609Y-135459800D01*
X149784500Y-135575896D01*
X149784500Y-135696103D01*
X149797615Y-135745046D01*
X149815610Y-135812202D01*
X149875709Y-135916298D01*
X149960702Y-136001291D01*
X150064798Y-136061390D01*
X150135850Y-136080428D01*
X150180896Y-136092499D01*
X150180898Y-136092499D01*
X150180901Y-136092500D01*
X150180903Y-136092500D01*
X150301097Y-136092500D01*
X150301099Y-136092500D01*
X150417202Y-136061390D01*
X150521298Y-136001291D01*
X150565693Y-135956896D01*
X150604284Y-135918306D01*
X150648478Y-135900000D01*
X151883760Y-135900000D01*
X151927954Y-135918306D01*
X151988209Y-135978561D01*
X152006515Y-136022755D01*
X151988209Y-136066949D01*
X151960192Y-136083125D01*
X151899413Y-136099411D01*
X151899411Y-136099412D01*
X151795314Y-136159511D01*
X151710322Y-136244503D01*
X151650223Y-136348600D01*
X151650222Y-136348602D01*
X151619113Y-136464698D01*
X151619113Y-136584905D01*
X151640798Y-136665831D01*
X151650223Y-136701004D01*
X151700011Y-136787240D01*
X151710322Y-136805100D01*
X151793307Y-136888085D01*
X151811613Y-136932279D01*
X151811613Y-137374141D01*
X151851802Y-137471166D01*
X151851806Y-137471171D01*
X151938271Y-137557636D01*
X151956577Y-137601830D01*
X151938271Y-137646024D01*
X151910254Y-137662200D01*
X151842998Y-137680222D01*
X151842996Y-137680223D01*
X151738899Y-137740322D01*
X151653907Y-137825314D01*
X151593808Y-137929411D01*
X151593807Y-137929411D01*
X151578312Y-137987238D01*
X151549191Y-138025187D01*
X151501764Y-138031430D01*
X151473748Y-138015254D01*
X150102190Y-136643696D01*
X150102185Y-136643692D01*
X150005160Y-136603503D01*
X150005158Y-136603503D01*
X149378478Y-136603503D01*
X149334284Y-136585197D01*
X149251298Y-136502212D01*
X149204471Y-136475177D01*
X149147202Y-136442113D01*
X149147199Y-136442112D01*
X149031103Y-136411003D01*
X149031099Y-136411003D01*
X148910901Y-136411003D01*
X148910896Y-136411003D01*
X148794800Y-136442112D01*
X148794798Y-136442113D01*
X148690701Y-136502212D01*
X148605709Y-136587204D01*
X148577127Y-136636711D01*
X148539176Y-136665831D01*
X148491750Y-136659588D01*
X148462630Y-136621637D01*
X148460500Y-136605461D01*
X148460500Y-134559896D01*
X150419500Y-134559896D01*
X150419500Y-134680103D01*
X150450609Y-134796199D01*
X150450610Y-134796202D01*
X150510709Y-134900298D01*
X150595702Y-134985291D01*
X150699798Y-135045390D01*
X150770850Y-135064428D01*
X150815896Y-135076499D01*
X150815898Y-135076499D01*
X150815901Y-135076500D01*
X150815903Y-135076500D01*
X150936097Y-135076500D01*
X150936099Y-135076500D01*
X151052202Y-135045390D01*
X151156298Y-134985291D01*
X151241291Y-134900298D01*
X151301390Y-134796202D01*
X151332500Y-134680099D01*
X151332500Y-134559901D01*
X151301390Y-134443798D01*
X151241291Y-134339702D01*
X151207485Y-134305896D01*
X154472000Y-134305896D01*
X154472000Y-134426103D01*
X154503109Y-134542199D01*
X154503110Y-134542202D01*
X154563209Y-134646298D01*
X154648202Y-134731291D01*
X154752298Y-134791390D01*
X154823350Y-134810428D01*
X154868396Y-134822499D01*
X154868398Y-134822499D01*
X154868401Y-134822500D01*
X154868403Y-134822500D01*
X154988597Y-134822500D01*
X154988599Y-134822500D01*
X155104702Y-134791390D01*
X155208798Y-134731291D01*
X155293791Y-134646298D01*
X155353890Y-134542202D01*
X155385000Y-134426099D01*
X155385000Y-134305901D01*
X155353890Y-134189798D01*
X155293791Y-134085702D01*
X155208798Y-134000709D01*
X155104702Y-133940610D01*
X155104699Y-133940609D01*
X154988603Y-133909500D01*
X154988599Y-133909500D01*
X154868401Y-133909500D01*
X154868396Y-133909500D01*
X154752300Y-133940609D01*
X154752298Y-133940610D01*
X154648201Y-134000709D01*
X154563209Y-134085701D01*
X154503110Y-134189798D01*
X154503109Y-134189800D01*
X154472000Y-134305896D01*
X151207485Y-134305896D01*
X151156298Y-134254709D01*
X151052202Y-134194610D01*
X151052199Y-134194609D01*
X150936103Y-134163500D01*
X150936099Y-134163500D01*
X150815901Y-134163500D01*
X150815896Y-134163500D01*
X150699800Y-134194609D01*
X150699798Y-134194610D01*
X150595701Y-134254709D01*
X150510709Y-134339701D01*
X150450610Y-134443798D01*
X150450609Y-134443800D01*
X150419500Y-134559896D01*
X148460500Y-134559896D01*
X148460500Y-133431673D01*
X148981000Y-133431673D01*
X148981000Y-133568326D01*
X148981001Y-133568334D01*
X149016367Y-133700321D01*
X149016368Y-133700325D01*
X149084698Y-133818674D01*
X149084701Y-133818678D01*
X149181321Y-133915298D01*
X149181325Y-133915301D01*
X149181327Y-133915303D01*
X149299674Y-133983631D01*
X149431672Y-134019000D01*
X149431673Y-134019000D01*
X149568327Y-134019000D01*
X149568328Y-134019000D01*
X149700326Y-133983631D01*
X149818673Y-133915303D01*
X149915303Y-133818673D01*
X149983631Y-133700326D01*
X150019000Y-133568328D01*
X150019000Y-133431672D01*
X149983631Y-133299674D01*
X149915303Y-133181327D01*
X149915301Y-133181325D01*
X149915298Y-133181321D01*
X149818678Y-133084701D01*
X149818672Y-133084696D01*
X149761749Y-133051831D01*
X149732629Y-133013880D01*
X149730500Y-132997705D01*
X149730500Y-132438325D01*
X149748806Y-132394131D01*
X149793000Y-132375825D01*
X149809177Y-132377955D01*
X149810795Y-132378388D01*
X149810798Y-132378390D01*
X149869544Y-132394131D01*
X149926896Y-132409499D01*
X149926898Y-132409499D01*
X149926901Y-132409500D01*
X149926903Y-132409500D01*
X150024507Y-132409500D01*
X150068701Y-132427806D01*
X150087007Y-132472000D01*
X150078634Y-132503247D01*
X150070592Y-132517176D01*
X150058109Y-132538798D01*
X150058109Y-132538800D01*
X150027000Y-132654896D01*
X150027000Y-132775103D01*
X150058109Y-132891199D01*
X150058110Y-132891202D01*
X150118209Y-132995298D01*
X150203202Y-133080291D01*
X150307298Y-133140390D01*
X150378350Y-133159428D01*
X150423396Y-133171499D01*
X150423398Y-133171499D01*
X150423401Y-133171500D01*
X150423403Y-133171500D01*
X150543597Y-133171500D01*
X150543599Y-133171500D01*
X150659702Y-133140390D01*
X150763798Y-133080291D01*
X150848791Y-132995298D01*
X150908890Y-132891202D01*
X150940000Y-132775099D01*
X150940000Y-132654901D01*
X150908890Y-132538798D01*
X150848791Y-132434702D01*
X150763798Y-132349709D01*
X150659702Y-132289610D01*
X150659699Y-132289609D01*
X150543603Y-132258500D01*
X150543599Y-132258500D01*
X150445993Y-132258500D01*
X150401799Y-132240194D01*
X150383493Y-132196000D01*
X150391865Y-132164752D01*
X150412390Y-132129202D01*
X150443500Y-132013099D01*
X150443500Y-131892901D01*
X150412390Y-131776798D01*
X150352291Y-131672702D01*
X150267298Y-131587709D01*
X150163202Y-131527610D01*
X150163199Y-131527609D01*
X150047103Y-131496500D01*
X150047099Y-131496500D01*
X149926901Y-131496500D01*
X149926899Y-131496500D01*
X149926894Y-131496501D01*
X149809176Y-131528044D01*
X149761750Y-131521801D01*
X149732630Y-131483850D01*
X149730500Y-131467674D01*
X149730500Y-130114896D01*
X150546500Y-130114896D01*
X150546500Y-130235103D01*
X150564283Y-130301466D01*
X150577610Y-130351202D01*
X150637709Y-130455298D01*
X150722702Y-130540291D01*
X150826798Y-130600390D01*
X150897850Y-130619428D01*
X150942896Y-130631499D01*
X150942898Y-130631499D01*
X150942901Y-130631500D01*
X150942903Y-130631500D01*
X151063097Y-130631500D01*
X151063099Y-130631500D01*
X151179202Y-130600390D01*
X151283298Y-130540291D01*
X151327693Y-130495896D01*
X154980000Y-130495896D01*
X154980000Y-130616103D01*
X155011109Y-130732199D01*
X155011110Y-130732202D01*
X155071209Y-130836298D01*
X155156202Y-130921291D01*
X155260298Y-130981390D01*
X155331350Y-131000428D01*
X155376396Y-131012499D01*
X155376398Y-131012499D01*
X155376401Y-131012500D01*
X155376403Y-131012500D01*
X155496597Y-131012500D01*
X155496599Y-131012500D01*
X155612702Y-130981390D01*
X155716798Y-130921291D01*
X155801791Y-130836298D01*
X155861890Y-130732202D01*
X155893000Y-130616099D01*
X155893000Y-130495901D01*
X155861890Y-130379798D01*
X155801791Y-130275702D01*
X155716798Y-130190709D01*
X155612702Y-130130610D01*
X155612699Y-130130609D01*
X155496603Y-130099500D01*
X155496599Y-130099500D01*
X155376401Y-130099500D01*
X155376396Y-130099500D01*
X155260300Y-130130609D01*
X155260298Y-130130610D01*
X155156201Y-130190709D01*
X155071209Y-130275701D01*
X155011110Y-130379798D01*
X155011109Y-130379800D01*
X154980000Y-130495896D01*
X151327693Y-130495896D01*
X151368291Y-130455298D01*
X151428390Y-130351202D01*
X151459500Y-130235099D01*
X151459500Y-130114901D01*
X151456714Y-130104505D01*
X151447428Y-130069850D01*
X151428390Y-129998798D01*
X151368291Y-129894702D01*
X151283298Y-129809709D01*
X151179202Y-129749610D01*
X151179199Y-129749609D01*
X151063103Y-129718500D01*
X151063099Y-129718500D01*
X150942901Y-129718500D01*
X150942896Y-129718500D01*
X150826800Y-129749609D01*
X150826798Y-129749610D01*
X150722701Y-129809709D01*
X150637709Y-129894701D01*
X150577610Y-129998798D01*
X150577609Y-129998800D01*
X150546500Y-130114896D01*
X149730500Y-130114896D01*
X149730500Y-129905958D01*
X149748806Y-129861764D01*
X150930264Y-128680306D01*
X150974458Y-128662000D01*
X151071327Y-128662000D01*
X151071328Y-128662000D01*
X151203326Y-128626631D01*
X151321673Y-128558303D01*
X151390170Y-128489806D01*
X151434364Y-128471500D01*
X154980957Y-128471500D01*
X155025151Y-128489806D01*
X155035081Y-128502746D01*
X155065660Y-128555710D01*
X155065661Y-128555711D01*
X155065664Y-128555715D01*
X155162284Y-128652335D01*
X155162288Y-128652338D01*
X155162290Y-128652340D01*
X155280637Y-128720668D01*
X155412635Y-128756037D01*
X155412636Y-128756037D01*
X155549290Y-128756037D01*
X155549291Y-128756037D01*
X155681289Y-128720668D01*
X155799636Y-128652340D01*
X155896266Y-128555710D01*
X155964594Y-128437363D01*
X155999963Y-128305365D01*
X155999963Y-128168709D01*
X155964594Y-128036711D01*
X155896266Y-127918364D01*
X155896264Y-127918362D01*
X155896261Y-127918358D01*
X155799641Y-127821738D01*
X155799637Y-127821735D01*
X155799636Y-127821734D01*
X155711314Y-127770741D01*
X155681288Y-127753405D01*
X155681284Y-127753404D01*
X155549297Y-127718038D01*
X155549292Y-127718037D01*
X155549291Y-127718037D01*
X155412635Y-127718037D01*
X155412634Y-127718037D01*
X155412628Y-127718038D01*
X155280637Y-127753405D01*
X155280634Y-127753406D01*
X155210959Y-127793634D01*
X155189323Y-127806126D01*
X155158074Y-127814500D01*
X151434364Y-127814500D01*
X151390170Y-127796194D01*
X151321674Y-127727698D01*
X151321673Y-127727697D01*
X151214252Y-127665677D01*
X151203325Y-127659368D01*
X151203321Y-127659367D01*
X151071334Y-127624001D01*
X151071329Y-127624000D01*
X151071328Y-127624000D01*
X150934672Y-127624000D01*
X150934671Y-127624000D01*
X150934665Y-127624001D01*
X150802678Y-127659367D01*
X150802674Y-127659368D01*
X150684325Y-127727698D01*
X150684321Y-127727701D01*
X150587701Y-127824321D01*
X150587698Y-127824325D01*
X150519368Y-127942674D01*
X150519367Y-127942678D01*
X150484001Y-128074665D01*
X150484000Y-128074673D01*
X150484000Y-128171541D01*
X150465694Y-128215735D01*
X149139138Y-129542290D01*
X149139133Y-129542296D01*
X149095886Y-129617200D01*
X149095886Y-129617202D01*
X149073499Y-129700747D01*
X149073499Y-129792279D01*
X149073500Y-129792292D01*
X149073500Y-133183972D01*
X149065127Y-133215222D01*
X149016369Y-133299674D01*
X149016367Y-133299678D01*
X148981001Y-133431665D01*
X148981000Y-133431673D01*
X148460500Y-133431673D01*
X148460500Y-127909740D01*
X148478806Y-127865546D01*
X151155546Y-125188806D01*
X151199740Y-125170500D01*
X151317097Y-125170500D01*
X151317099Y-125170500D01*
X151349209Y-125161896D01*
X152324500Y-125161896D01*
X152324500Y-125282103D01*
X152355609Y-125398199D01*
X152355610Y-125398202D01*
X152415709Y-125502298D01*
X152500702Y-125587291D01*
X152604798Y-125647390D01*
X152675850Y-125666428D01*
X152720896Y-125678499D01*
X152720898Y-125678499D01*
X152720901Y-125678500D01*
X152720903Y-125678500D01*
X152841097Y-125678500D01*
X152841099Y-125678500D01*
X152957202Y-125647390D01*
X153061298Y-125587291D01*
X153146291Y-125502298D01*
X153206390Y-125398202D01*
X153237500Y-125282099D01*
X153237500Y-125161901D01*
X153233800Y-125148094D01*
X153217027Y-125085495D01*
X153206390Y-125045798D01*
X153146291Y-124941702D01*
X153061298Y-124856709D01*
X152957202Y-124796610D01*
X152957199Y-124796609D01*
X152841103Y-124765500D01*
X152841099Y-124765500D01*
X152720901Y-124765500D01*
X152720896Y-124765500D01*
X152604800Y-124796609D01*
X152604798Y-124796610D01*
X152500701Y-124856709D01*
X152415709Y-124941701D01*
X152355610Y-125045798D01*
X152355609Y-125045800D01*
X152324500Y-125161896D01*
X151349209Y-125161896D01*
X151433202Y-125139390D01*
X151537298Y-125079291D01*
X151622291Y-124994298D01*
X151682390Y-124890202D01*
X151713500Y-124774099D01*
X151713500Y-124653901D01*
X151712274Y-124649327D01*
X151693920Y-124580829D01*
X151682390Y-124537798D01*
X151622291Y-124433702D01*
X151537298Y-124348709D01*
X151433202Y-124288610D01*
X151433199Y-124288609D01*
X151317103Y-124257500D01*
X151317099Y-124257500D01*
X151196901Y-124257500D01*
X151196896Y-124257500D01*
X151080800Y-124288609D01*
X151080798Y-124288610D01*
X150976701Y-124348709D01*
X150891709Y-124433701D01*
X150831610Y-124537798D01*
X150831609Y-124537800D01*
X150800500Y-124653896D01*
X150800500Y-124771258D01*
X150782194Y-124815452D01*
X148137450Y-127460197D01*
X148093256Y-127478503D01*
X148049062Y-127460197D01*
X148030756Y-127416003D01*
X148032886Y-127399826D01*
X148044447Y-127356681D01*
X148044448Y-127356675D01*
X148044448Y-127236480D01*
X148044447Y-127236474D01*
X148032376Y-127191428D01*
X148013338Y-127120376D01*
X147953239Y-127016280D01*
X147868246Y-126931287D01*
X147764150Y-126871188D01*
X147764147Y-126871187D01*
X147648051Y-126840078D01*
X147648047Y-126840078D01*
X147527849Y-126840078D01*
X147527844Y-126840078D01*
X147411748Y-126871187D01*
X147411746Y-126871188D01*
X147307649Y-126931287D01*
X147222657Y-127016279D01*
X147162558Y-127120376D01*
X147162557Y-127120378D01*
X147131448Y-127236474D01*
X147131448Y-127356675D01*
X147131449Y-127356684D01*
X147134324Y-127367413D01*
X147128081Y-127414839D01*
X147090131Y-127443959D01*
X147016800Y-127463609D01*
X147016798Y-127463610D01*
X146912701Y-127523709D01*
X146827709Y-127608701D01*
X146811627Y-127636557D01*
X146773676Y-127665677D01*
X146726250Y-127659434D01*
X146697130Y-127621483D01*
X146695000Y-127605307D01*
X146695000Y-125375477D01*
X146713306Y-125331283D01*
X146796291Y-125248298D01*
X146856390Y-125144202D01*
X146887500Y-125028099D01*
X146887500Y-124918437D01*
X146905806Y-124874243D01*
X146950000Y-124855937D01*
X146994194Y-124874243D01*
X147004127Y-124887188D01*
X147004904Y-124888535D01*
X147004905Y-124888536D01*
X147016082Y-124907896D01*
X147065965Y-124994298D01*
X147067505Y-124996964D01*
X147156036Y-125085495D01*
X147264464Y-125148095D01*
X147315969Y-125161896D01*
X147385393Y-125180499D01*
X147385399Y-125180500D01*
X147510601Y-125180500D01*
X147510606Y-125180499D01*
X147566099Y-125165629D01*
X147631536Y-125148095D01*
X147739964Y-125085495D01*
X147828495Y-124996964D01*
X147884665Y-124899673D01*
X149046500Y-124899673D01*
X149046500Y-125036326D01*
X149046501Y-125036334D01*
X149081867Y-125168321D01*
X149081868Y-125168325D01*
X149116033Y-125227499D01*
X149147558Y-125282103D01*
X149150198Y-125286674D01*
X149150201Y-125286678D01*
X149246821Y-125383298D01*
X149246825Y-125383301D01*
X149246827Y-125383303D01*
X149365174Y-125451631D01*
X149497172Y-125487000D01*
X149497173Y-125487000D01*
X149633827Y-125487000D01*
X149633828Y-125487000D01*
X149765826Y-125451631D01*
X149884173Y-125383303D01*
X149980803Y-125286673D01*
X150049131Y-125168326D01*
X150084500Y-125036328D01*
X150084500Y-124899672D01*
X150049131Y-124767674D01*
X149980803Y-124649327D01*
X149980801Y-124649325D01*
X149980798Y-124649321D01*
X149912306Y-124580829D01*
X149894000Y-124536635D01*
X149894000Y-123379826D01*
X149912305Y-123335633D01*
X151896042Y-121351896D01*
X154102500Y-121351896D01*
X154102500Y-121472103D01*
X154133609Y-121588199D01*
X154133610Y-121588202D01*
X154193709Y-121692298D01*
X154278702Y-121777291D01*
X154382798Y-121837390D01*
X154453850Y-121856428D01*
X154498896Y-121868499D01*
X154498898Y-121868499D01*
X154498901Y-121868500D01*
X154498903Y-121868500D01*
X154619097Y-121868500D01*
X154619099Y-121868500D01*
X154735202Y-121837390D01*
X154839298Y-121777291D01*
X154924291Y-121692298D01*
X154984390Y-121588202D01*
X155015500Y-121472099D01*
X155015500Y-121351901D01*
X154984390Y-121235798D01*
X154924291Y-121131702D01*
X154839298Y-121046709D01*
X154735202Y-120986610D01*
X154735199Y-120986609D01*
X154619103Y-120955500D01*
X154619099Y-120955500D01*
X154498901Y-120955500D01*
X154498896Y-120955500D01*
X154382800Y-120986609D01*
X154382798Y-120986610D01*
X154278701Y-121046709D01*
X154193709Y-121131701D01*
X154133610Y-121235798D01*
X154133609Y-121235800D01*
X154102500Y-121351896D01*
X151896042Y-121351896D01*
X157276520Y-115971417D01*
X157276525Y-115971414D01*
X157281665Y-115966273D01*
X157281667Y-115966273D01*
X157342829Y-115905111D01*
X157386077Y-115830203D01*
X157408463Y-115746655D01*
X157408463Y-110929673D01*
X157596000Y-110929673D01*
X157596000Y-111066326D01*
X157596001Y-111066334D01*
X157631367Y-111198321D01*
X157631368Y-111198325D01*
X157699698Y-111316674D01*
X157699701Y-111316678D01*
X157796321Y-111413298D01*
X157796325Y-111413301D01*
X157796327Y-111413303D01*
X157914674Y-111481631D01*
X158046672Y-111517000D01*
X158046673Y-111517000D01*
X158183327Y-111517000D01*
X158183328Y-111517000D01*
X158315326Y-111481631D01*
X158433673Y-111413303D01*
X158530303Y-111316673D01*
X158598631Y-111198326D01*
X158634000Y-111066328D01*
X158634000Y-110929672D01*
X158598631Y-110797674D01*
X158530303Y-110679327D01*
X158530301Y-110679325D01*
X158530298Y-110679321D01*
X158433678Y-110582701D01*
X158433674Y-110582698D01*
X158433673Y-110582697D01*
X158374499Y-110548533D01*
X158315325Y-110514368D01*
X158315321Y-110514367D01*
X158183334Y-110479001D01*
X158183329Y-110479000D01*
X158183328Y-110479000D01*
X158046672Y-110479000D01*
X158046671Y-110479000D01*
X158046665Y-110479001D01*
X157914678Y-110514367D01*
X157914674Y-110514368D01*
X157796325Y-110582698D01*
X157796321Y-110582701D01*
X157699701Y-110679321D01*
X157699696Y-110679327D01*
X157677531Y-110717718D01*
X157677503Y-110717766D01*
X157631369Y-110797674D01*
X157630097Y-110802417D01*
X157630095Y-110802423D01*
X157596001Y-110929665D01*
X157596000Y-110929673D01*
X157408463Y-110929673D01*
X157408463Y-110898864D01*
X157426769Y-110854670D01*
X157495266Y-110786173D01*
X157563594Y-110667826D01*
X157598963Y-110535828D01*
X157598963Y-110399172D01*
X157563594Y-110267174D01*
X157495266Y-110148827D01*
X157495264Y-110148825D01*
X157495261Y-110148821D01*
X157398641Y-110052201D01*
X157398637Y-110052198D01*
X157398636Y-110052197D01*
X157339462Y-110018033D01*
X157280288Y-109983868D01*
X157280284Y-109983867D01*
X157148297Y-109948501D01*
X157148292Y-109948500D01*
X157148291Y-109948500D01*
X157011635Y-109948500D01*
X157011634Y-109948500D01*
X157011628Y-109948501D01*
X156879641Y-109983867D01*
X156879637Y-109983868D01*
X156761288Y-110052198D01*
X156761284Y-110052201D01*
X156664664Y-110148821D01*
X156664661Y-110148825D01*
X156596331Y-110267174D01*
X156596330Y-110267178D01*
X156560964Y-110399165D01*
X156560963Y-110399173D01*
X156560963Y-110535826D01*
X156560964Y-110535834D01*
X156596330Y-110667821D01*
X156596331Y-110667825D01*
X156602971Y-110679325D01*
X156664659Y-110786172D01*
X156664661Y-110786174D01*
X156733157Y-110854670D01*
X156751463Y-110898864D01*
X156751463Y-115541448D01*
X156733157Y-115585642D01*
X149302638Y-123016160D01*
X149302633Y-123016166D01*
X149259386Y-123091070D01*
X149259386Y-123091072D01*
X149236999Y-123174617D01*
X149236999Y-123266149D01*
X149237000Y-123266162D01*
X149237000Y-124536635D01*
X149218694Y-124580829D01*
X149150201Y-124649321D01*
X149150198Y-124649325D01*
X149081868Y-124767674D01*
X149081867Y-124767678D01*
X149046501Y-124899665D01*
X149046500Y-124899673D01*
X147884665Y-124899673D01*
X147891095Y-124888536D01*
X147917016Y-124791800D01*
X147923499Y-124767606D01*
X147923500Y-124767600D01*
X147923500Y-124642399D01*
X147923499Y-124642393D01*
X147895472Y-124537800D01*
X147891095Y-124521464D01*
X147828495Y-124413036D01*
X147739964Y-124324505D01*
X147631536Y-124261905D01*
X147631533Y-124261904D01*
X147510606Y-124229500D01*
X147510601Y-124229500D01*
X147385399Y-124229500D01*
X147385393Y-124229500D01*
X147264466Y-124261904D01*
X147264464Y-124261905D01*
X147156035Y-124324505D01*
X147067505Y-124413035D01*
X147004905Y-124521464D01*
X147004904Y-124521466D01*
X146972500Y-124642393D01*
X146972500Y-124759653D01*
X146954194Y-124803847D01*
X146910000Y-124822153D01*
X146865806Y-124803847D01*
X146855873Y-124790903D01*
X146850099Y-124780902D01*
X146796291Y-124687702D01*
X146711298Y-124602709D01*
X146607202Y-124542610D01*
X146607199Y-124542609D01*
X146491103Y-124511500D01*
X146491099Y-124511500D01*
X146370901Y-124511500D01*
X146370896Y-124511500D01*
X146254800Y-124542609D01*
X146254798Y-124542610D01*
X146150701Y-124602709D01*
X146065709Y-124687701D01*
X146005610Y-124791798D01*
X146005609Y-124791800D01*
X145974500Y-124907896D01*
X145974500Y-125028103D01*
X146005609Y-125144199D01*
X146005610Y-125144202D01*
X146041457Y-125206291D01*
X146065709Y-125248298D01*
X146148694Y-125331283D01*
X146167000Y-125375477D01*
X146167000Y-132561760D01*
X146148694Y-132605954D01*
X146104500Y-132624260D01*
X146060306Y-132605954D01*
X145189306Y-131734954D01*
X145171000Y-131690760D01*
X145171000Y-125248477D01*
X145189306Y-125204283D01*
X145227960Y-125165629D01*
X145272291Y-125121298D01*
X145332390Y-125017202D01*
X145363500Y-124901099D01*
X145363500Y-124780901D01*
X145361678Y-124774103D01*
X145338527Y-124687701D01*
X145332390Y-124664798D01*
X145272291Y-124560702D01*
X145187298Y-124475709D01*
X145083202Y-124415610D01*
X145083199Y-124415609D01*
X144967103Y-124384500D01*
X144967099Y-124384500D01*
X144846901Y-124384500D01*
X144846896Y-124384500D01*
X144730800Y-124415609D01*
X144730798Y-124415610D01*
X144626701Y-124475709D01*
X144541709Y-124560701D01*
X144481610Y-124664798D01*
X144481609Y-124664800D01*
X144450500Y-124780896D01*
X144450500Y-124901103D01*
X144476187Y-124996963D01*
X144481610Y-125017202D01*
X144531536Y-125103677D01*
X144541709Y-125121298D01*
X144624694Y-125204283D01*
X144643000Y-125248477D01*
X144643000Y-131878515D01*
X144683189Y-131975540D01*
X144683193Y-131975545D01*
X145767694Y-133060046D01*
X145786000Y-133104240D01*
X145786000Y-133456534D01*
X145767694Y-133500728D01*
X145723500Y-133519034D01*
X145679306Y-133500728D01*
X145663130Y-133472711D01*
X145644632Y-133403678D01*
X145644631Y-133403674D01*
X145576303Y-133285327D01*
X145576301Y-133285325D01*
X145576298Y-133285321D01*
X145479678Y-133188701D01*
X145479674Y-133188698D01*
X145479673Y-133188697D01*
X145420499Y-133154533D01*
X145361325Y-133120368D01*
X145361321Y-133120367D01*
X145229334Y-133085001D01*
X145229329Y-133085000D01*
X145229328Y-133085000D01*
X145092672Y-133085000D01*
X145092671Y-133085000D01*
X145092665Y-133085001D01*
X144960678Y-133120367D01*
X144960674Y-133120368D01*
X144842325Y-133188698D01*
X144842321Y-133188701D01*
X144745701Y-133285321D01*
X144745698Y-133285325D01*
X144677368Y-133403674D01*
X144677367Y-133403678D01*
X144642001Y-133535665D01*
X144642000Y-133535673D01*
X144642000Y-133672326D01*
X144642001Y-133672334D01*
X144677367Y-133804321D01*
X144677368Y-133804325D01*
X144745698Y-133922674D01*
X144745701Y-133922678D01*
X144842321Y-134019298D01*
X144842325Y-134019301D01*
X144842327Y-134019303D01*
X144960674Y-134087631D01*
X145092672Y-134123000D01*
X145092673Y-134123000D01*
X145229327Y-134123000D01*
X145229328Y-134123000D01*
X145361326Y-134087631D01*
X145479673Y-134019303D01*
X145576303Y-133922673D01*
X145644631Y-133804326D01*
X145663130Y-133735289D01*
X145692250Y-133697338D01*
X145739676Y-133691095D01*
X145777627Y-133720215D01*
X145786000Y-133751465D01*
X145786000Y-141288500D01*
X145767694Y-141332694D01*
X145723500Y-141351000D01*
X140651500Y-141351000D01*
X140607306Y-141332694D01*
X140589000Y-141288500D01*
X140589000Y-131630673D01*
X142356000Y-131630673D01*
X142356000Y-131767326D01*
X142356001Y-131767334D01*
X142391367Y-131899321D01*
X142391368Y-131899325D01*
X142391369Y-131899326D01*
X142457058Y-132013103D01*
X142459698Y-132017674D01*
X142459701Y-132017678D01*
X142556321Y-132114298D01*
X142556325Y-132114301D01*
X142556327Y-132114303D01*
X142674674Y-132182631D01*
X142806672Y-132218000D01*
X142806673Y-132218000D01*
X142943327Y-132218000D01*
X142943328Y-132218000D01*
X143075326Y-132182631D01*
X143193673Y-132114303D01*
X143290303Y-132017673D01*
X143358631Y-131899326D01*
X143394000Y-131767328D01*
X143394000Y-131630672D01*
X143358631Y-131498674D01*
X143290303Y-131380327D01*
X143290301Y-131380325D01*
X143290298Y-131380321D01*
X143193678Y-131283701D01*
X143193674Y-131283698D01*
X143193673Y-131283697D01*
X143134499Y-131249533D01*
X143075325Y-131215368D01*
X143075321Y-131215367D01*
X142943334Y-131180001D01*
X142943329Y-131180000D01*
X142943328Y-131180000D01*
X142806672Y-131180000D01*
X142806671Y-131180000D01*
X142806665Y-131180001D01*
X142674678Y-131215367D01*
X142674674Y-131215368D01*
X142556325Y-131283698D01*
X142556321Y-131283701D01*
X142459701Y-131380321D01*
X142459698Y-131380325D01*
X142391368Y-131498674D01*
X142391367Y-131498678D01*
X142356001Y-131630665D01*
X142356000Y-131630673D01*
X140589000Y-131630673D01*
X140589000Y-107734227D01*
X141468000Y-107734227D01*
X141468000Y-107933772D01*
X141506928Y-108129479D01*
X141506928Y-108129480D01*
X141583291Y-108313835D01*
X141583292Y-108313837D01*
X141694151Y-108479749D01*
X141694152Y-108479750D01*
X141835250Y-108620848D01*
X142001165Y-108731709D01*
X142185519Y-108808071D01*
X142381228Y-108847000D01*
X142580772Y-108847000D01*
X142776481Y-108808071D01*
X142960835Y-108731709D01*
X143126750Y-108620848D01*
X143267848Y-108479750D01*
X143378709Y-108313835D01*
X143411764Y-108234031D01*
X143445587Y-108200209D01*
X143493422Y-108200208D01*
X143523630Y-108226699D01*
X143525706Y-108230295D01*
X143608694Y-108313283D01*
X143627000Y-108357477D01*
X143627000Y-121137534D01*
X143608694Y-121181728D01*
X143564500Y-121200034D01*
X143520306Y-121181728D01*
X143504130Y-121153711D01*
X143485632Y-121084678D01*
X143485631Y-121084674D01*
X143417303Y-120966327D01*
X143417301Y-120966325D01*
X143417298Y-120966321D01*
X143320678Y-120869701D01*
X143320674Y-120869698D01*
X143320673Y-120869697D01*
X143261499Y-120835533D01*
X143202325Y-120801368D01*
X143202321Y-120801367D01*
X143070334Y-120766001D01*
X143070329Y-120766000D01*
X143070328Y-120766000D01*
X142933672Y-120766000D01*
X142933671Y-120766000D01*
X142933665Y-120766001D01*
X142801678Y-120801367D01*
X142801674Y-120801368D01*
X142683325Y-120869698D01*
X142683321Y-120869701D01*
X142586701Y-120966321D01*
X142586698Y-120966325D01*
X142518368Y-121084674D01*
X142518367Y-121084678D01*
X142483001Y-121216665D01*
X142483000Y-121216673D01*
X142483000Y-121353326D01*
X142483001Y-121353334D01*
X142518367Y-121485321D01*
X142518368Y-121485325D01*
X142518369Y-121485326D01*
X142577764Y-121588201D01*
X142586698Y-121603674D01*
X142586701Y-121603678D01*
X142683321Y-121700298D01*
X142683325Y-121700301D01*
X142683327Y-121700303D01*
X142801674Y-121768631D01*
X142933672Y-121804000D01*
X142933673Y-121804000D01*
X143070327Y-121804000D01*
X143070328Y-121804000D01*
X143202326Y-121768631D01*
X143320673Y-121700303D01*
X143417303Y-121603673D01*
X143485631Y-121485326D01*
X143504130Y-121416289D01*
X143533250Y-121378338D01*
X143580676Y-121372095D01*
X143618627Y-121401215D01*
X143627000Y-121432465D01*
X143627000Y-137895522D01*
X143608694Y-137939716D01*
X143525709Y-138022701D01*
X143465610Y-138126798D01*
X143465609Y-138126800D01*
X143434500Y-138242896D01*
X143434500Y-138363103D01*
X143461525Y-138463957D01*
X143465610Y-138479202D01*
X143525709Y-138583298D01*
X143610702Y-138668291D01*
X143714798Y-138728390D01*
X143785850Y-138747428D01*
X143830896Y-138759499D01*
X143830898Y-138759499D01*
X143830901Y-138759500D01*
X143830903Y-138759500D01*
X143951097Y-138759500D01*
X143951099Y-138759500D01*
X144067202Y-138728390D01*
X144067204Y-138728388D01*
X144070536Y-138727496D01*
X144117962Y-138733739D01*
X144147083Y-138771689D01*
X144140840Y-138819115D01*
X144100611Y-138888794D01*
X144100609Y-138888800D01*
X144069500Y-139004896D01*
X144069500Y-139125103D01*
X144098963Y-139235055D01*
X144100610Y-139241202D01*
X144160709Y-139345298D01*
X144245702Y-139430291D01*
X144349798Y-139490390D01*
X144420850Y-139509428D01*
X144465896Y-139521499D01*
X144465898Y-139521499D01*
X144465901Y-139521500D01*
X144465903Y-139521500D01*
X144586097Y-139521500D01*
X144586099Y-139521500D01*
X144702202Y-139490390D01*
X144806298Y-139430291D01*
X144891291Y-139345298D01*
X144951390Y-139241202D01*
X144982500Y-139125099D01*
X144982500Y-139004901D01*
X144951390Y-138888798D01*
X144891291Y-138784702D01*
X144806298Y-138699709D01*
X144702202Y-138639610D01*
X144702199Y-138639609D01*
X144586103Y-138608500D01*
X144586099Y-138608500D01*
X144465901Y-138608500D01*
X144465899Y-138608500D01*
X144465893Y-138608501D01*
X144346462Y-138640503D01*
X144299036Y-138634260D01*
X144269916Y-138596309D01*
X144276158Y-138548885D01*
X144316390Y-138479202D01*
X144347500Y-138363099D01*
X144347500Y-138242901D01*
X144345678Y-138236103D01*
X144323433Y-138153084D01*
X144316390Y-138126798D01*
X144256291Y-138022702D01*
X144220827Y-137987238D01*
X144173306Y-137939716D01*
X144155000Y-137895522D01*
X144155000Y-121216673D01*
X144515000Y-121216673D01*
X144515000Y-121353326D01*
X144515001Y-121353334D01*
X144550367Y-121485321D01*
X144550368Y-121485325D01*
X144550369Y-121485326D01*
X144609764Y-121588201D01*
X144618698Y-121603674D01*
X144618701Y-121603678D01*
X144715321Y-121700298D01*
X144715325Y-121700301D01*
X144715327Y-121700303D01*
X144833674Y-121768631D01*
X144965672Y-121804000D01*
X144965673Y-121804000D01*
X145102327Y-121804000D01*
X145102328Y-121804000D01*
X145234326Y-121768631D01*
X145352673Y-121700303D01*
X145449303Y-121603673D01*
X145517631Y-121485326D01*
X145553000Y-121353328D01*
X145553000Y-121216672D01*
X145517631Y-121084674D01*
X145449303Y-120966327D01*
X145449301Y-120966325D01*
X145449298Y-120966321D01*
X145352678Y-120869701D01*
X145352674Y-120869698D01*
X145352673Y-120869697D01*
X145234326Y-120801369D01*
X145234325Y-120801368D01*
X145234324Y-120801368D01*
X145172021Y-120784674D01*
X145172020Y-120784673D01*
X145102334Y-120766001D01*
X145102329Y-120766000D01*
X145102328Y-120766000D01*
X144965672Y-120766000D01*
X144965671Y-120766000D01*
X144965665Y-120766001D01*
X144833678Y-120801367D01*
X144833674Y-120801368D01*
X144715325Y-120869698D01*
X144715321Y-120869701D01*
X144618701Y-120966321D01*
X144618698Y-120966325D01*
X144550368Y-121084674D01*
X144550367Y-121084678D01*
X144515001Y-121216665D01*
X144515000Y-121216673D01*
X144155000Y-121216673D01*
X144155000Y-120728396D01*
X148895500Y-120728396D01*
X148895500Y-120848603D01*
X148924144Y-120955500D01*
X148926610Y-120964702D01*
X148986709Y-121068798D01*
X149071702Y-121153791D01*
X149175798Y-121213890D01*
X149246850Y-121232928D01*
X149291896Y-121244999D01*
X149291898Y-121244999D01*
X149291901Y-121245000D01*
X149291903Y-121245000D01*
X149412097Y-121245000D01*
X149412099Y-121245000D01*
X149528202Y-121213890D01*
X149632298Y-121153791D01*
X149717291Y-121068798D01*
X149777390Y-120964702D01*
X149808500Y-120848599D01*
X149808500Y-120728401D01*
X149807722Y-120725499D01*
X149783283Y-120634291D01*
X149777390Y-120612298D01*
X149717291Y-120508202D01*
X149632298Y-120423209D01*
X149528202Y-120363110D01*
X149528199Y-120363109D01*
X149412103Y-120332000D01*
X149412099Y-120332000D01*
X149291901Y-120332000D01*
X149291896Y-120332000D01*
X149175800Y-120363109D01*
X149175798Y-120363110D01*
X149071701Y-120423209D01*
X148986709Y-120508201D01*
X148926610Y-120612298D01*
X148926609Y-120612300D01*
X148895500Y-120728396D01*
X144155000Y-120728396D01*
X144155000Y-120208896D01*
X150038500Y-120208896D01*
X150038500Y-120329103D01*
X150063717Y-120423209D01*
X150069610Y-120445202D01*
X150129709Y-120549298D01*
X150214702Y-120634291D01*
X150318798Y-120694390D01*
X150389850Y-120713428D01*
X150434896Y-120725499D01*
X150434898Y-120725499D01*
X150434901Y-120725500D01*
X150434903Y-120725500D01*
X150555097Y-120725500D01*
X150555099Y-120725500D01*
X150671202Y-120694390D01*
X150775298Y-120634291D01*
X150860291Y-120549298D01*
X150920390Y-120445202D01*
X150951500Y-120329099D01*
X150951500Y-120208901D01*
X150920390Y-120092798D01*
X150860291Y-119988702D01*
X150775298Y-119903709D01*
X150671202Y-119843610D01*
X150671199Y-119843609D01*
X150555103Y-119812500D01*
X150555099Y-119812500D01*
X150434901Y-119812500D01*
X150434896Y-119812500D01*
X150318800Y-119843609D01*
X150318798Y-119843610D01*
X150214701Y-119903709D01*
X150129709Y-119988701D01*
X150069610Y-120092798D01*
X150069609Y-120092800D01*
X150038500Y-120208896D01*
X144155000Y-120208896D01*
X144155000Y-116931673D01*
X146481000Y-116931673D01*
X146481000Y-117068326D01*
X146481001Y-117068334D01*
X146516367Y-117200321D01*
X146516368Y-117200325D01*
X146584698Y-117318674D01*
X146584701Y-117318678D01*
X146681321Y-117415298D01*
X146681325Y-117415301D01*
X146681327Y-117415303D01*
X146799674Y-117483631D01*
X146931672Y-117519000D01*
X146931673Y-117519000D01*
X147068327Y-117519000D01*
X147068328Y-117519000D01*
X147200326Y-117483631D01*
X147318673Y-117415303D01*
X147415303Y-117318673D01*
X147483631Y-117200326D01*
X147519000Y-117068328D01*
X147519000Y-116931672D01*
X147483631Y-116799674D01*
X147415303Y-116681327D01*
X147415301Y-116681325D01*
X147415298Y-116681321D01*
X147318678Y-116584701D01*
X147318674Y-116584698D01*
X147318673Y-116584697D01*
X147231728Y-116534499D01*
X147200325Y-116516368D01*
X147200321Y-116516367D01*
X147068334Y-116481001D01*
X147068329Y-116481000D01*
X147068328Y-116481000D01*
X146931672Y-116481000D01*
X146931671Y-116481000D01*
X146931665Y-116481001D01*
X146799678Y-116516367D01*
X146799674Y-116516368D01*
X146681325Y-116584698D01*
X146681321Y-116584701D01*
X146584701Y-116681321D01*
X146584698Y-116681325D01*
X146516368Y-116799674D01*
X146516367Y-116799678D01*
X146481001Y-116931665D01*
X146481000Y-116931673D01*
X144155000Y-116931673D01*
X144155000Y-116017896D01*
X153086500Y-116017896D01*
X153086500Y-116138103D01*
X153117609Y-116254199D01*
X153117610Y-116254202D01*
X153177709Y-116358298D01*
X153262702Y-116443291D01*
X153366798Y-116503390D01*
X153415236Y-116516369D01*
X153482896Y-116534499D01*
X153482898Y-116534499D01*
X153482901Y-116534500D01*
X153482903Y-116534500D01*
X153603097Y-116534500D01*
X153603099Y-116534500D01*
X153719202Y-116503390D01*
X153823298Y-116443291D01*
X153908291Y-116358298D01*
X153968390Y-116254202D01*
X153999500Y-116138099D01*
X153999500Y-116017901D01*
X153968390Y-115901798D01*
X153908291Y-115797702D01*
X153823298Y-115712709D01*
X153719202Y-115652610D01*
X153719199Y-115652609D01*
X153603103Y-115621500D01*
X153603099Y-115621500D01*
X153482901Y-115621500D01*
X153482896Y-115621500D01*
X153366800Y-115652609D01*
X153366798Y-115652610D01*
X153262701Y-115712709D01*
X153177709Y-115797701D01*
X153117610Y-115901798D01*
X153117609Y-115901800D01*
X153086500Y-116017896D01*
X144155000Y-116017896D01*
X144155000Y-114112896D01*
X152451500Y-114112896D01*
X152451500Y-114233103D01*
X152482609Y-114349199D01*
X152482610Y-114349202D01*
X152542709Y-114453298D01*
X152627702Y-114538291D01*
X152731798Y-114598390D01*
X152802850Y-114617428D01*
X152847896Y-114629499D01*
X152847898Y-114629499D01*
X152847901Y-114629500D01*
X152847903Y-114629500D01*
X152968097Y-114629500D01*
X152968099Y-114629500D01*
X153084202Y-114598390D01*
X153188298Y-114538291D01*
X153273291Y-114453298D01*
X153333390Y-114349202D01*
X153364500Y-114233099D01*
X153364500Y-114112901D01*
X153333390Y-113996798D01*
X153273291Y-113892702D01*
X153188298Y-113807709D01*
X153084202Y-113747610D01*
X153084199Y-113747609D01*
X152968103Y-113716500D01*
X152968099Y-113716500D01*
X152847901Y-113716500D01*
X152847896Y-113716500D01*
X152731800Y-113747609D01*
X152731798Y-113747610D01*
X152627701Y-113807709D01*
X152542709Y-113892701D01*
X152482610Y-113996798D01*
X152482609Y-113996800D01*
X152451500Y-114112896D01*
X144155000Y-114112896D01*
X144155000Y-111699896D01*
X150927500Y-111699896D01*
X150927500Y-111820103D01*
X150958609Y-111936199D01*
X150958610Y-111936202D01*
X151018709Y-112040298D01*
X151103702Y-112125291D01*
X151207798Y-112185390D01*
X151278850Y-112204428D01*
X151323896Y-112216499D01*
X151323898Y-112216499D01*
X151323901Y-112216500D01*
X151323903Y-112216500D01*
X151444097Y-112216500D01*
X151444099Y-112216500D01*
X151560202Y-112185390D01*
X151664298Y-112125291D01*
X151749291Y-112040298D01*
X151809390Y-111936202D01*
X151840500Y-111820099D01*
X151840500Y-111699901D01*
X151809390Y-111583798D01*
X151749291Y-111479702D01*
X151664298Y-111394709D01*
X151560202Y-111334610D01*
X151560199Y-111334609D01*
X151444103Y-111303500D01*
X151444099Y-111303500D01*
X151323901Y-111303500D01*
X151323896Y-111303500D01*
X151207800Y-111334609D01*
X151207798Y-111334610D01*
X151103701Y-111394709D01*
X151018709Y-111479701D01*
X150958610Y-111583798D01*
X150958609Y-111583800D01*
X150927500Y-111699896D01*
X144155000Y-111699896D01*
X144155000Y-110773692D01*
X144173306Y-110729498D01*
X144217500Y-110711192D01*
X144261694Y-110729498D01*
X144271627Y-110742443D01*
X144274713Y-110747789D01*
X144287709Y-110770298D01*
X144372702Y-110855291D01*
X144476798Y-110915390D01*
X144547850Y-110934428D01*
X144592896Y-110946499D01*
X144592898Y-110946499D01*
X144592901Y-110946500D01*
X144592903Y-110946500D01*
X144713097Y-110946500D01*
X144713099Y-110946500D01*
X144829202Y-110915390D01*
X144933298Y-110855291D01*
X145018291Y-110770298D01*
X145078390Y-110666202D01*
X145109500Y-110550099D01*
X145109500Y-110429901D01*
X145078390Y-110313798D01*
X145018291Y-110209702D01*
X144933298Y-110124709D01*
X144829202Y-110064610D01*
X144829199Y-110064609D01*
X144713103Y-110033500D01*
X144713099Y-110033500D01*
X144592901Y-110033500D01*
X144592896Y-110033500D01*
X144476800Y-110064609D01*
X144476798Y-110064610D01*
X144372701Y-110124709D01*
X144287709Y-110209701D01*
X144271627Y-110237557D01*
X144233676Y-110266677D01*
X144186250Y-110260434D01*
X144157130Y-110222483D01*
X144155000Y-110206307D01*
X144155000Y-108357477D01*
X144173306Y-108313283D01*
X144256291Y-108230298D01*
X144316390Y-108126202D01*
X144347500Y-108010099D01*
X144347500Y-107889901D01*
X144316390Y-107773798D01*
X144256291Y-107669702D01*
X144171298Y-107584709D01*
X144067202Y-107524610D01*
X144067199Y-107524609D01*
X143951103Y-107493500D01*
X143951099Y-107493500D01*
X143830901Y-107493500D01*
X143830896Y-107493500D01*
X143714800Y-107524609D01*
X143714798Y-107524610D01*
X143610703Y-107584708D01*
X143571236Y-107624175D01*
X143527041Y-107642480D01*
X143482847Y-107624174D01*
X143465743Y-107592173D01*
X143464258Y-107584709D01*
X143455071Y-107538519D01*
X143378709Y-107354165D01*
X143267848Y-107188250D01*
X143126750Y-107047152D01*
X143126749Y-107047151D01*
X142960837Y-106936292D01*
X142960835Y-106936291D01*
X142776479Y-106859928D01*
X142580772Y-106821000D01*
X142381228Y-106821000D01*
X142185520Y-106859928D01*
X142185519Y-106859928D01*
X142001164Y-106936291D01*
X142001162Y-106936292D01*
X141835250Y-107047151D01*
X141694151Y-107188250D01*
X141583292Y-107354162D01*
X141583291Y-107354164D01*
X141506928Y-107538519D01*
X141506928Y-107538520D01*
X141468000Y-107734227D01*
X140589000Y-107734227D01*
X140589000Y-105730896D01*
X144831500Y-105730896D01*
X144831500Y-105851103D01*
X144862609Y-105967199D01*
X144862610Y-105967202D01*
X144922709Y-106071298D01*
X145007702Y-106156291D01*
X145111798Y-106216390D01*
X145182850Y-106235428D01*
X145227896Y-106247499D01*
X145227898Y-106247499D01*
X145227901Y-106247500D01*
X145227903Y-106247500D01*
X145348097Y-106247500D01*
X145348099Y-106247500D01*
X145464202Y-106216390D01*
X145568298Y-106156291D01*
X145653291Y-106071298D01*
X145713390Y-105967202D01*
X145744500Y-105851099D01*
X145744500Y-105730901D01*
X145713390Y-105614798D01*
X145653291Y-105510702D01*
X145568298Y-105425709D01*
X145464202Y-105365610D01*
X145464199Y-105365609D01*
X145348103Y-105334500D01*
X145348099Y-105334500D01*
X145227901Y-105334500D01*
X145227896Y-105334500D01*
X145111800Y-105365609D01*
X145111798Y-105365610D01*
X145007701Y-105425709D01*
X144922709Y-105510701D01*
X144862610Y-105614798D01*
X144862609Y-105614800D01*
X144831500Y-105730896D01*
X140589000Y-105730896D01*
X140589000Y-102678500D01*
X140607306Y-102634306D01*
X140651500Y-102616000D01*
X159322500Y-102616000D01*
X159366694Y-102634306D01*
G37*
%TD.AperFunction*%
%TA.AperFunction,Conductor*%
G36*
X148530803Y-137070276D02*
G01*
X148539177Y-137069174D01*
X148552120Y-137079106D01*
X148567194Y-137085350D01*
X148577127Y-137098295D01*
X148605709Y-137147801D01*
X148690702Y-137232794D01*
X148794798Y-137292893D01*
X148865850Y-137311931D01*
X148910896Y-137324002D01*
X148910898Y-137324002D01*
X148910901Y-137324003D01*
X148910903Y-137324003D01*
X149031097Y-137324003D01*
X149031099Y-137324003D01*
X149147202Y-137292893D01*
X149251298Y-137232794D01*
X149297706Y-137186386D01*
X149334284Y-137149809D01*
X149378478Y-137131503D01*
X149817405Y-137131503D01*
X149861599Y-137149809D01*
X150194696Y-137482906D01*
X150213002Y-137527100D01*
X150194696Y-137571294D01*
X150181752Y-137581227D01*
X150076201Y-137642166D01*
X149991209Y-137727158D01*
X149931110Y-137831255D01*
X149931109Y-137831257D01*
X149900000Y-137947353D01*
X149900000Y-138067560D01*
X149927547Y-138170363D01*
X149931110Y-138183659D01*
X149991209Y-138287755D01*
X150076202Y-138372748D01*
X150180298Y-138432847D01*
X150251350Y-138451885D01*
X150296396Y-138463956D01*
X150296398Y-138463956D01*
X150296401Y-138463957D01*
X150296403Y-138463957D01*
X150416597Y-138463957D01*
X150416599Y-138463957D01*
X150532702Y-138432847D01*
X150636798Y-138372748D01*
X150721791Y-138287755D01*
X150781890Y-138183659D01*
X150781891Y-138183656D01*
X150782729Y-138182205D01*
X150820679Y-138153084D01*
X150868105Y-138159327D01*
X150881050Y-138169260D01*
X151560910Y-138849120D01*
X151635174Y-138923384D01*
X151635175Y-138923384D01*
X151635177Y-138923386D01*
X151732202Y-138963575D01*
X151732205Y-138963576D01*
X152725319Y-138963576D01*
X152769513Y-138981882D01*
X155031936Y-141244306D01*
X155050242Y-141288500D01*
X155031936Y-141332694D01*
X154987742Y-141351000D01*
X148523000Y-141351000D01*
X148478806Y-141332694D01*
X148460500Y-141288500D01*
X148460500Y-137129544D01*
X148463732Y-137121740D01*
X148462630Y-137113367D01*
X148472562Y-137100423D01*
X148478806Y-137085350D01*
X148486609Y-137082117D01*
X148491751Y-137075417D01*
X148507926Y-137073287D01*
X148523000Y-137067044D01*
X148530803Y-137070276D01*
G37*
%TD.AperFunction*%
%TA.AperFunction,Conductor*%
G36*
X156970694Y-124766089D02*
G01*
X156980627Y-124779034D01*
X156987479Y-124790903D01*
X156987709Y-124791300D01*
X157072702Y-124876293D01*
X157176798Y-124936392D01*
X157247850Y-124955430D01*
X157292896Y-124967501D01*
X157292898Y-124967501D01*
X157292901Y-124967502D01*
X157292903Y-124967502D01*
X157413097Y-124967502D01*
X157413099Y-124967502D01*
X157529202Y-124936392D01*
X157633298Y-124876293D01*
X157633302Y-124876288D01*
X157635947Y-124874259D01*
X157682152Y-124861874D01*
X157723581Y-124885787D01*
X157736500Y-124923840D01*
X157736500Y-139214674D01*
X157718194Y-139258868D01*
X157674000Y-139277174D01*
X157657824Y-139275044D01*
X157540105Y-139243501D01*
X157540100Y-139243500D01*
X157540099Y-139243500D01*
X157419901Y-139243500D01*
X157419896Y-139243500D01*
X157303800Y-139274609D01*
X157303798Y-139274610D01*
X157199703Y-139334708D01*
X157152490Y-139381921D01*
X157108295Y-139400226D01*
X157064101Y-139381920D01*
X157047926Y-139353902D01*
X157025391Y-139269801D01*
X157025390Y-139269800D01*
X157025390Y-139269798D01*
X156965291Y-139165702D01*
X156924686Y-139125097D01*
X156882306Y-139082716D01*
X156864000Y-139038522D01*
X156864000Y-133581593D01*
X156882306Y-133537399D01*
X156926500Y-133519093D01*
X156942677Y-133521223D01*
X156943296Y-133521388D01*
X156943298Y-133521390D01*
X157003044Y-133537399D01*
X157059396Y-133552499D01*
X157059398Y-133552499D01*
X157059401Y-133552500D01*
X157059403Y-133552500D01*
X157179597Y-133552500D01*
X157179599Y-133552500D01*
X157295702Y-133521390D01*
X157399798Y-133461291D01*
X157484791Y-133376298D01*
X157544890Y-133272202D01*
X157576000Y-133156099D01*
X157576000Y-133035901D01*
X157575434Y-133033790D01*
X157563928Y-132990850D01*
X157544890Y-132919798D01*
X157484791Y-132815702D01*
X157399798Y-132730709D01*
X157295702Y-132670610D01*
X157295699Y-132670609D01*
X157179603Y-132639500D01*
X157179599Y-132639500D01*
X157059401Y-132639500D01*
X157059399Y-132639500D01*
X157059394Y-132639501D01*
X156942676Y-132670776D01*
X156895250Y-132664533D01*
X156866130Y-132626582D01*
X156864000Y-132610406D01*
X156864000Y-128501593D01*
X156882306Y-128457399D01*
X156926500Y-128439093D01*
X156942677Y-128441223D01*
X156943296Y-128441388D01*
X156943298Y-128441390D01*
X157003044Y-128457399D01*
X157059396Y-128472499D01*
X157059398Y-128472499D01*
X157059401Y-128472500D01*
X157059403Y-128472500D01*
X157179597Y-128472500D01*
X157179599Y-128472500D01*
X157295702Y-128441390D01*
X157399798Y-128381291D01*
X157484791Y-128296298D01*
X157544890Y-128192202D01*
X157576000Y-128076099D01*
X157576000Y-127955901D01*
X157574178Y-127949103D01*
X157551789Y-127865546D01*
X157544890Y-127839798D01*
X157484791Y-127735702D01*
X157399798Y-127650709D01*
X157295702Y-127590610D01*
X157295699Y-127590609D01*
X157179603Y-127559500D01*
X157179599Y-127559500D01*
X157059401Y-127559500D01*
X157059399Y-127559500D01*
X157059394Y-127559501D01*
X156942676Y-127590776D01*
X156895250Y-127584533D01*
X156866130Y-127546582D01*
X156864000Y-127530406D01*
X156864000Y-126469593D01*
X156882306Y-126425399D01*
X156926500Y-126407093D01*
X156942677Y-126409223D01*
X156943296Y-126409388D01*
X156943298Y-126409390D01*
X157003044Y-126425399D01*
X157059396Y-126440499D01*
X157059398Y-126440499D01*
X157059401Y-126440500D01*
X157059403Y-126440500D01*
X157179597Y-126440500D01*
X157179599Y-126440500D01*
X157295702Y-126409390D01*
X157399798Y-126349291D01*
X157484791Y-126264298D01*
X157544890Y-126160202D01*
X157576000Y-126044099D01*
X157576000Y-125923901D01*
X157544890Y-125807798D01*
X157484791Y-125703702D01*
X157399798Y-125618709D01*
X157295702Y-125558610D01*
X157295699Y-125558609D01*
X157179603Y-125527500D01*
X157179599Y-125527500D01*
X157059401Y-125527500D01*
X157059399Y-125527500D01*
X157059394Y-125527501D01*
X156942676Y-125558776D01*
X156895250Y-125552533D01*
X156866130Y-125514582D01*
X156864000Y-125498406D01*
X156864000Y-124810283D01*
X156882306Y-124766089D01*
X156926500Y-124747783D01*
X156970694Y-124766089D01*
G37*
%TD.AperFunction*%
%TD*%
M02*
