M48
; DRILL file {KiCad 9.0.4} date 2025-10-20T22:45:23-0400
; FORMAT={-:-/ absolute / metric / decimal}
; #@! TF.CreationDate,2025-10-20T22:45:23-04:00
; #@! TF.GenerationSoftware,Kicad,Pcbnew,9.0.4
; #@! TF.FileFunction,Plated,1,4,PTH
FMAT,2
METRIC
; #@! TA.AperFunction,Plated,PTH,ViaDrill
T1C0.256
; #@! TA.AperFunction,Plated,PTH,ViaDrill
T2C0.381
; #@! TA.AperFunction,Plated,PTH,ComponentDrill
T3C1.025
%
G90
G05
T1
X143.891Y-107.95
X143.891Y-138.303
X144.526Y-139.065
X144.653Y-110.49
X144.907Y-124.841
X145.188Y-142.02
X145.288Y-105.791
X145.708Y-142.506
X146.431Y-124.968
X146.431Y-142.494
X146.945Y-139.692
X147.193Y-127.889
X147.206Y-142.505
X147.588Y-127.297
X147.917Y-142.544
X148.629Y-142.517
X148.971Y-136.868
X149.237Y-138.179
X149.352Y-120.788
X149.352Y-142.505
X149.987Y-131.953
X150.241Y-135.636
X150.356Y-138.007
X150.483Y-132.715
X150.495Y-120.269
X150.876Y-134.62
X151.003Y-130.175
X151.257Y-124.714
X151.384Y-111.76
X151.519Y-142.494
X152.019Y-138.106
X152.076Y-136.525
X152.781Y-125.222
X152.908Y-114.173
X153.32Y-136.017
X153.416Y-142.367
X153.543Y-116.078
X154.231Y-142.494
X154.559Y-121.412
X154.559Y-138.176
X154.928Y-134.366
X155.436Y-130.556
X155.785Y-142.36
X156.337Y-118.618
X156.489Y-142.469
X156.6Y-139.446
X157.119Y-125.984
X157.119Y-128.016
X157.119Y-133.096
X157.353Y-124.511
X157.48Y-139.7
X157.575Y-142.085
X158.11Y-142.555
X158.725Y-114.935
X158.725Y-118.618
X159.233Y-142.544
X159.244Y-111.379
X159.945Y-142.546
X160.655Y-142.494
T2
X141.732Y-113.411
X142.875Y-131.699
X143.002Y-121.285
X143.319Y-142.874
X143.668Y-142.113
X144.876Y-137.891
X145.034Y-121.285
X145.161Y-133.604
X146.968Y-106.299
X147.0Y-104.5
X147.0Y-117.0
X147.614Y-131.445
X149.5Y-133.5
X149.565Y-124.968
X150.749Y-113.157
X150.802Y-116.459
X151.003Y-128.143
X151.892Y-127.254
X152.006Y-121.693
X152.006Y-125.222
X152.019Y-134.62
X153.543Y-132.719
X155.481Y-128.237
X157.08Y-110.468
X157.214Y-138.972
X157.226Y-135.382
X157.353Y-121.92
X158.115Y-110.998
X159.889Y-140.208
T3
X142.481Y-107.834
M30
